<?xml version="1.0" encoding="UTF-8" standalone="no"?>
<!DOCTYPE svg PUBLIC "-//W3C//DTD SVG 1.1//EN" "http://www.w3.org/Graphics/SVG/1.1/DTD/svg11.dtd">
<svg width="100%" height="100%" viewBox="0 0 2288 107" version="1.1" xmlns="http://www.w3.org/2000/svg" xmlns:xlink="http://www.w3.org/1999/xlink" xml:space="preserve" xmlns:serif="http://www.serif.com/" style="fill-rule:evenodd;clip-rule:evenodd;stroke-linejoin:round;stroke-miterlimit:2;">
    <rect id="COLOURS" x="0" y="0" width="2287.5" height="106.25" style="fill:none;"/>
    <clipPath id="_clip1">
        <rect x="0" y="0" width="2287.5" height="106.25"/>
    </clipPath>
    <g clip-path="url(#_clip1)">
        <g id="FASTSCROLL">
            <rect x="53.125" y="9.375" width="1065.62" height="87.5" style="fill:#fff;"/>
            <path d="M1131.25,106.25L-0,106.25L-0,0L1131.25,0L1131.25,106.25ZM53.125,96.875C289.768,96.875 1118.75,96.875 1118.75,96.875L1118.75,9.375C1068.74,9.375 268.225,9.375 53.125,9.375L53.125,96.875Z" style="fill:#ff8fbc;"/>
            <path d="M188.655,54.476L202.018,54.476C205.344,54.476 207.97,53.485 210.243,51.447C212.806,49.116 213.913,46.373 213.913,42.463C213.913,34.468 209.194,29.983 200.792,29.983L183.237,29.983L183.237,72.501L188.655,72.501L188.655,54.476ZM188.655,49.7L188.655,34.759L199.976,34.759C205.169,34.759 208.262,37.56 208.262,42.229C208.262,46.898 205.169,49.7 199.976,49.7L188.655,49.7Z" style="fill:#727272;fill-rule:nonzero;"/>
            <rect x="220.454" y="29.983" width="5.476" height="42.518" style="fill:#727272;fill-rule:nonzero;"/>
            <path d="M268.513,29.983L263.387,29.983L263.387,64.748L241.155,29.983L235.27,29.983L235.27,72.501L240.396,72.501L240.396,38.027L262.395,72.501L268.513,72.501L268.513,29.983Z" style="fill:#727272;fill-rule:nonzero;"/>
            <path d="M282.98,57.63L289.921,50.687L304.913,72.501L311.33,72.501L293.83,47.304L311.155,29.983L304.155,29.983L282.98,51.504L282.98,29.983L277.562,29.983L277.562,72.501L282.98,72.501L282.98,57.63Z" style="fill:#727272;fill-rule:nonzero;"/>
            <path d="M324.338,66.441L318.279,66.441L318.279,72.501L324.338,72.501L324.338,66.441ZM324.338,41.941L318.279,41.941L318.279,48.001L324.338,48.001L324.338,41.941Z" style="fill:#727272;fill-rule:nonzero;"/>
            <path d="M379.057,42.461C379.057,39.543 378.882,38.726 377.95,36.743C375.62,31.845 370.66,29.283 363.483,29.283C354.146,29.283 348.379,34.059 348.379,41.76C348.379,46.953 351.117,50.221 356.714,51.679L367.276,54.48C372.703,55.88 375.095,58.039 375.095,61.365C375.095,63.64 373.87,65.974 372.061,67.258C370.369,68.483 367.684,69.066 364.242,69.066C359.573,69.066 356.481,67.958 354.438,65.507C352.864,63.64 352.165,61.598 352.223,58.972L347.095,58.972C347.154,62.882 347.912,65.449 349.602,67.783C352.515,71.804 357.414,73.842 363.891,73.842C368.968,73.842 373.111,72.677 375.853,70.581C378.707,68.308 380.513,64.515 380.513,60.84C380.513,55.588 377.251,51.738 371.477,50.162L360.799,47.303C355.664,45.903 353.796,44.269 353.796,41.002C353.796,36.684 357.589,33.826 363.308,33.826C370.077,33.826 373.87,36.859 373.928,42.461L379.057,42.461Z" style="fill:#727272;fill-rule:nonzero;"/>
            <path d="M402.33,34.759L416.271,34.759L416.271,29.983L382.912,29.983L382.912,34.759L396.912,34.759L396.912,72.501L402.33,72.501L402.33,34.759Z" style="fill:#727272;fill-rule:nonzero;"/>
            <path d="M439.375,59.726L443.75,72.501L449.817,72.501L434.883,29.983L427.883,29.983L412.717,72.501L418.492,72.501L422.983,59.726L439.375,59.726ZM437.858,55.183L424.325,55.183L431.325,35.81L437.858,55.183Z" style="fill:#727272;fill-rule:nonzero;"/>
            <path d="M488.313,29.983L483.187,29.983L483.187,64.748L460.955,29.983L455.07,29.983L455.07,72.501L460.196,72.501L460.196,38.027L482.195,72.501L488.313,72.501L488.313,29.983Z" style="fill:#727272;fill-rule:nonzero;"/>
            <path d="M497.945,72.501L514.333,72.501C525.07,72.501 531.655,64.457 531.655,51.213C531.655,38.027 525.128,29.983 514.333,29.983L497.945,29.983L497.945,72.501ZM503.363,67.725L503.363,34.759L513.4,34.759C521.802,34.759 526.237,40.419 526.237,51.271C526.237,62.065 521.802,67.725 513.4,67.725L503.363,67.725Z" style="fill:#727272;fill-rule:nonzero;"/>
            <path d="M560.242,59.726L564.617,72.501L570.683,72.501L555.75,29.983L548.75,29.983L533.583,72.501L539.358,72.501L543.85,59.726L560.242,59.726ZM558.725,55.183L545.192,55.183L552.192,35.81L558.725,55.183Z" style="fill:#727272;fill-rule:nonzero;"/>
            <path d="M582.346,54.184L596.351,54.184C601.194,54.184 603.353,56.518 603.353,61.771L603.295,65.564C603.295,68.19 603.762,70.758 604.519,72.501L611.105,72.501L611.105,71.166C609.064,69.766 608.656,68.248 608.539,62.588C608.481,55.585 607.374,53.485 602.77,51.505C607.549,49.116 609.471,46.256 609.471,41.354C609.471,34.002 604.927,29.983 596.526,29.983L576.929,29.983L576.929,72.501L582.346,72.501L582.346,54.184ZM582.346,49.408L582.346,34.759L595.476,34.759C598.51,34.759 600.261,35.226 601.603,36.393C603.062,37.619 603.82,39.545 603.82,42.054C603.82,47.132 601.253,49.408 595.476,49.408L582.346,49.408Z" style="fill:#727272;fill-rule:nonzero;"/>
            <path d="M618.17,72.501L634.558,72.501C645.295,72.501 651.88,64.457 651.88,51.213C651.88,38.027 645.353,29.983 634.558,29.983L618.17,29.983L618.17,72.501ZM623.588,67.725L623.588,34.759L633.625,34.759C642.027,34.759 646.462,40.419 646.462,51.271C646.462,62.065 642.027,67.725 633.625,67.725L623.588,67.725Z" style="fill:#727272;fill-rule:nonzero;"/>
            <path d="M709.921,43.161C708.23,33.826 702.863,29.283 693.53,29.283C687.813,29.283 683.205,31.089 680.055,34.584C676.209,38.785 674.112,44.853 674.112,51.738C674.112,58.739 676.267,64.749 680.23,68.891C683.555,72.27 687.755,73.842 693.296,73.842C703.68,73.842 709.513,68.249 710.796,56.989L705.196,56.989C704.73,59.906 704.146,61.89 703.271,63.582C701.521,67.083 697.905,69.066 693.355,69.066C684.896,69.066 679.53,62.298 679.53,51.679C679.53,40.769 684.605,34.059 692.888,34.059C696.33,34.059 699.538,35.051 701.288,36.743C702.863,38.201 703.738,39.952 704.38,43.161L709.921,43.161Z" style="fill:#727272;fill-rule:nonzero;"/>
            <path d="M735.65,29.283C723.455,29.283 715.179,38.26 715.179,51.563C715.179,64.924 723.397,73.842 735.708,73.842C740.901,73.842 745.452,72.27 748.895,69.358C753.5,65.449 756.238,58.856 756.238,51.913C756.238,38.201 748.136,29.283 735.65,29.283ZM735.65,34.059C744.869,34.059 750.82,41.002 750.82,51.796C750.82,62.065 744.694,69.066 735.708,69.066C726.606,69.066 720.596,62.065 720.596,51.563C720.596,41.06 726.606,34.059 735.65,34.059Z" style="fill:#727272;fill-rule:nonzero;"/>
            <path d="M796.021,29.983L790.895,29.983L790.895,64.748L768.663,29.983L762.779,29.983L762.779,72.501L767.905,72.501L767.905,38.027L789.903,72.501L796.021,72.501L796.021,29.983Z" style="fill:#727272;fill-rule:nonzero;"/>
            <path d="M820.405,34.759L834.346,34.759L834.346,29.983L800.987,29.983L800.987,34.759L814.987,34.759L814.987,72.501L820.405,72.501L820.405,34.759Z" style="fill:#727272;fill-rule:nonzero;"/>
            <path d="M845.138,54.184L859.143,54.184C863.986,54.184 866.145,56.518 866.145,61.771L866.087,65.564C866.087,68.19 866.554,70.758 867.311,72.501L873.896,72.501L873.896,71.166C871.855,69.766 871.447,68.248 871.331,62.588C871.273,55.585 870.166,53.485 865.562,51.505C870.341,49.116 872.263,46.256 872.263,41.354C872.263,34.002 867.719,29.983 859.318,29.983L839.72,29.983L839.72,72.501L845.138,72.501L845.138,54.184ZM845.138,49.408L845.138,34.759L858.267,34.759C861.302,34.759 863.052,35.226 864.394,36.393C865.853,37.619 866.612,39.545 866.612,42.054C866.612,47.132 864.044,49.408 858.267,49.408L845.138,49.408Z" style="fill:#727272;fill-rule:nonzero;"/>
            <path d="M898.4,29.283C886.205,29.283 877.929,38.26 877.929,51.563C877.929,64.924 886.147,73.842 898.458,73.842C903.651,73.842 908.202,72.27 911.645,69.358C916.25,65.449 918.988,58.856 918.988,51.913C918.988,38.201 910.886,29.283 898.4,29.283ZM898.4,34.059C907.619,34.059 913.57,41.002 913.57,51.796C913.57,62.065 907.444,69.066 898.458,69.066C889.356,69.066 883.346,62.065 883.346,51.563C883.346,41.06 889.356,34.059 898.4,34.059Z" style="fill:#727272;fill-rule:nonzero;"/>
            <path d="M931.18,29.983L925.762,29.983L925.762,72.501L952.18,72.501L952.18,67.725L931.18,67.725L931.18,29.983Z" style="fill:#727272;fill-rule:nonzero;"/>
            <path d="M987.182,42.461C987.182,39.543 987.007,38.726 986.075,36.743C983.745,31.845 978.785,29.283 971.608,29.283C962.271,29.283 956.504,34.059 956.504,41.76C956.504,46.953 959.242,50.221 964.839,51.679L975.401,54.48C980.828,55.88 983.22,58.039 983.22,61.365C983.22,63.64 981.995,65.974 980.186,67.258C978.494,68.483 975.809,69.066 972.367,69.066C967.698,69.066 964.606,67.958 962.563,65.507C960.989,63.64 960.29,61.598 960.348,58.972L955.22,58.972C955.279,62.882 956.037,65.449 957.727,67.783C960.64,71.804 965.539,73.842 972.016,73.842C977.093,73.842 981.236,72.677 983.978,70.581C986.832,68.308 988.638,64.515 988.638,60.84C988.638,55.588 985.376,51.738 979.602,50.162L968.924,47.303C963.789,45.903 961.921,44.269 961.921,41.002C961.921,36.684 965.714,33.826 971.433,33.826C978.202,33.826 981.995,36.859 982.053,42.461L987.182,42.461Z" style="fill:#727272;fill-rule:nonzero;"/>
        </g>
        <g id="FASTSCROLL1" serif:id="FASTSCROLL">
            <rect x="1209.38" y="9.375" width="1065.62" height="87.5" style="fill:#fff;"/>
            <path d="M2287.5,106.25L1156.25,106.25L1156.25,0L2287.5,0L2287.5,106.25ZM1209.38,96.875C1446.02,96.875 2275,96.875 2275,96.875L2275,9.375C2224.99,9.375 1424.48,9.375 1209.38,9.375L1209.38,96.875Z" style="fill:#e4d68b;"/>
            <path d="M1248.71,55.822L1264.7,29.983L1258.22,29.983L1246.09,50.687L1233.61,29.983L1226.9,29.983L1243.3,55.822L1243.3,72.501L1248.71,72.501L1248.71,55.822Z" style="fill:#727272;fill-rule:nonzero;"/>
            <path d="M1275.72,53.134L1298.88,53.134L1298.88,48.358L1275.72,48.358L1275.72,34.759L1299.76,34.759L1299.76,29.983L1270.3,29.983L1270.3,72.501L1300.81,72.501L1300.81,67.725L1275.72,67.725L1275.72,53.134Z" style="fill:#727272;fill-rule:nonzero;"/>
            <path d="M1314.05,29.983L1308.63,29.983L1308.63,72.501L1335.05,72.501L1335.05,67.725L1314.05,67.725L1314.05,29.983Z" style="fill:#727272;fill-rule:nonzero;"/>
            <path d="M1346.48,29.983L1341.06,29.983L1341.06,72.501L1367.48,72.501L1367.48,67.725L1346.48,67.725L1346.48,29.983Z" style="fill:#727272;fill-rule:nonzero;"/>
            <path d="M1389.12,29.283C1376.93,29.283 1368.65,38.26 1368.65,51.563C1368.65,64.924 1376.87,73.842 1389.18,73.842C1394.38,73.842 1398.93,72.27 1402.37,69.358C1406.98,65.449 1409.71,58.856 1409.71,51.913C1409.71,38.201 1401.61,29.283 1389.12,29.283ZM1389.12,34.059C1398.34,34.059 1404.3,41.002 1404.3,51.796C1404.3,62.065 1398.17,69.066 1389.18,69.066C1380.08,69.066 1374.07,62.065 1374.07,51.563C1374.07,41.06 1380.08,34.059 1389.12,34.059Z" style="fill:#727272;fill-rule:nonzero;"/>
            <path d="M1453.99,72.501L1464.78,29.983L1458.72,29.983L1450.9,64.515L1441.22,29.983L1435.38,29.983L1425.93,64.515L1417.94,29.983L1411.88,29.983L1422.78,72.501L1428.73,72.501L1438.24,37.56L1448.04,72.501L1453.99,72.501Z" style="fill:#727272;fill-rule:nonzero;"/>
            <path d="M1476.97,66.441L1470.91,66.441L1470.91,72.501L1476.97,72.501L1476.97,66.441ZM1476.97,41.941L1470.91,41.941L1470.91,48.001L1476.97,48.001L1476.97,41.941Z" style="fill:#727272;fill-rule:nonzero;"/>
            <path d="M1507.65,54.476L1521.02,54.476C1524.34,54.476 1526.97,53.485 1529.24,51.447C1531.81,49.116 1532.91,46.373 1532.91,42.463C1532.91,34.468 1528.19,29.983 1519.79,29.983L1502.24,29.983L1502.24,72.501L1507.65,72.501L1507.65,54.476ZM1507.65,49.7L1507.65,34.759L1518.98,34.759C1524.17,34.759 1527.26,37.56 1527.26,42.229C1527.26,46.898 1524.17,49.7 1518.98,49.7L1507.65,49.7Z" style="fill:#727272;fill-rule:nonzero;"/>
            <path d="M1544.64,54.184L1558.64,54.184C1563.49,54.184 1565.64,56.518 1565.64,61.771L1565.59,65.564C1565.59,68.19 1566.05,70.758 1566.81,72.501L1573.4,72.501L1573.4,71.166C1571.36,69.766 1570.95,68.248 1570.83,62.588C1570.77,55.585 1569.67,53.485 1565.06,51.505C1569.84,49.116 1571.76,46.256 1571.76,41.354C1571.76,34.002 1567.22,29.983 1558.82,29.983L1539.22,29.983L1539.22,72.501L1544.64,72.501L1544.64,54.184ZM1544.64,49.408L1544.64,34.759L1557.77,34.759C1560.8,34.759 1562.55,35.226 1563.89,36.393C1565.35,37.619 1566.11,39.545 1566.11,42.054C1566.11,47.132 1563.54,49.408 1557.77,49.408L1544.64,49.408Z" style="fill:#727272;fill-rule:nonzero;"/>
            <path d="M1585.88,53.134L1609.04,53.134L1609.04,48.358L1585.88,48.358L1585.88,34.759L1609.91,34.759L1609.91,29.983L1580.46,29.983L1580.46,72.501L1610.96,72.501L1610.96,67.725L1585.88,67.725L1585.88,53.134Z" style="fill:#727272;fill-rule:nonzero;"/>
            <path d="M1641.42,72.501L1653.38,36.86L1653.38,72.501L1658.51,72.501L1658.51,29.983L1650.99,29.983L1638.62,67.024L1626.01,29.983L1618.5,29.983L1618.5,72.501L1623.62,72.501L1623.62,36.86L1635.7,72.501L1641.42,72.501Z" style="fill:#727272;fill-rule:nonzero;"/>
            <rect x="1668.55" y="29.983" width="5.476" height="42.518" style="fill:#727272;fill-rule:nonzero;"/>
            <path d="M1711.13,29.983L1711.13,59.848C1711.13,65.566 1706.99,69.066 1700.16,69.066C1697.01,69.066 1694.44,68.308 1692.4,66.849C1690.3,65.216 1689.31,63.057 1689.31,59.848L1689.31,29.983L1683.89,29.983L1683.89,59.848C1683.89,68.483 1690.06,73.842 1700.16,73.842C1710.14,73.842 1716.55,68.366 1716.55,59.848L1716.55,29.983L1711.13,29.983Z" style="fill:#727272;fill-rule:nonzero;"/>
            <path d="M1748.34,72.501L1760.3,36.86L1760.3,72.501L1765.43,72.501L1765.43,29.983L1757.91,29.983L1745.54,67.024L1732.94,29.983L1725.42,29.983L1725.42,72.501L1730.55,72.501L1730.55,36.86L1742.62,72.501L1748.34,72.501Z" style="fill:#727272;fill-rule:nonzero;"/>
            <path d="M1806.5,34.759L1820.44,34.759L1820.44,29.983L1787.08,29.983L1787.08,34.759L1801.08,34.759L1801.08,72.501L1806.5,72.501L1806.5,34.759Z" style="fill:#727272;fill-rule:nonzero;"/>
            <rect x="1826.05" y="29.983" width="5.476" height="42.518" style="fill:#727272;fill-rule:nonzero;"/>
            <path d="M1863.73,72.501L1875.69,36.86L1875.69,72.501L1880.81,72.501L1880.81,29.983L1873.3,29.983L1860.92,67.024L1848.32,29.983L1840.8,29.983L1840.8,72.501L1845.93,72.501L1845.93,36.86L1858.01,72.501L1863.73,72.501Z" style="fill:#727272;fill-rule:nonzero;"/>
            <path d="M1895.69,53.134L1918.85,53.134L1918.85,48.358L1895.69,48.358L1895.69,34.759L1919.72,34.759L1919.72,29.983L1890.27,29.983L1890.27,72.501L1920.77,72.501L1920.77,67.725L1895.69,67.725L1895.69,53.134Z" style="fill:#727272;fill-rule:nonzero;"/>
            <path d="M1978.76,43.161C1977.06,33.826 1971.7,29.283 1962.36,29.283C1956.65,29.283 1952.04,31.089 1948.89,34.584C1945.04,38.785 1942.94,44.853 1942.94,51.738C1942.94,58.739 1945.1,64.749 1949.06,68.891C1952.39,72.27 1956.59,73.842 1962.13,73.842C1972.51,73.842 1978.35,68.249 1979.63,56.989L1974.03,56.989C1973.56,59.906 1972.98,61.89 1972.11,63.582C1970.36,67.083 1966.74,69.066 1962.19,69.066C1953.73,69.066 1948.36,62.298 1948.36,51.679C1948.36,40.769 1953.44,34.059 1961.72,34.059C1965.16,34.059 1968.37,35.051 1970.12,36.743C1971.7,38.201 1972.57,39.952 1973.21,43.161L1978.76,43.161Z" style="fill:#727272;fill-rule:nonzero;"/>
            <path d="M2004.48,29.283C1992.29,29.283 1984.01,38.26 1984.01,51.563C1984.01,64.924 1992.23,73.842 2004.54,73.842C2009.74,73.842 2014.29,72.27 2017.73,69.358C2022.33,65.449 2025.07,58.856 2025.07,51.913C2025.07,38.201 2016.97,29.283 2004.48,29.283ZM2004.48,34.059C2013.7,34.059 2019.65,41.002 2019.65,51.796C2019.65,62.065 2013.53,69.066 2004.54,69.066C1995.44,69.066 1989.43,62.065 1989.43,51.563C1989.43,41.06 1995.44,34.059 2004.48,34.059Z" style="fill:#727272;fill-rule:nonzero;"/>
            <path d="M2064.86,29.983L2059.73,29.983L2059.73,64.748L2037.5,29.983L2031.61,29.983L2031.61,72.501L2036.74,72.501L2036.74,38.027L2058.74,72.501L2064.86,72.501L2064.86,29.983Z" style="fill:#727272;fill-rule:nonzero;"/>
            <path d="M2089.24,34.759L2103.18,34.759L2103.18,29.983L2069.82,29.983L2069.82,34.759L2083.82,34.759L2083.82,72.501L2089.24,72.501L2089.24,34.759Z" style="fill:#727272;fill-rule:nonzero;"/>
            <path d="M2113.97,54.184L2127.98,54.184C2132.82,54.184 2134.98,56.518 2134.98,61.771L2134.92,65.564C2134.92,68.19 2135.39,70.758 2136.14,72.501L2142.73,72.501L2142.73,71.166C2140.69,69.766 2140.28,68.248 2140.16,62.588C2140.11,55.585 2139,53.485 2134.39,51.505C2139.17,49.116 2141.1,46.256 2141.1,41.354C2141.1,34.002 2136.55,29.983 2128.15,29.983L2108.55,29.983L2108.55,72.501L2113.97,72.501L2113.97,54.184ZM2113.97,49.408L2113.97,34.759L2127.1,34.759C2130.14,34.759 2131.89,35.226 2133.23,36.393C2134.69,37.619 2135.45,39.545 2135.45,42.054C2135.45,47.132 2132.88,49.408 2127.1,49.408L2113.97,49.408Z" style="fill:#727272;fill-rule:nonzero;"/>
            <path d="M2167.23,29.283C2155.04,29.283 2146.76,38.26 2146.76,51.563C2146.76,64.924 2154.98,73.842 2167.29,73.842C2172.49,73.842 2177.04,72.27 2180.48,69.358C2185.08,65.449 2187.82,58.856 2187.82,51.913C2187.82,38.201 2179.72,29.283 2167.23,29.283ZM2167.23,34.059C2176.45,34.059 2182.4,41.002 2182.4,51.796C2182.4,62.065 2176.28,69.066 2167.29,69.066C2158.19,69.066 2152.18,62.065 2152.18,51.563C2152.18,41.06 2158.19,34.059 2167.23,34.059Z" style="fill:#727272;fill-rule:nonzero;"/>
            <path d="M2200.01,29.983L2194.6,29.983L2194.6,72.501L2221.01,72.501L2221.01,67.725L2200.01,67.725L2200.01,29.983Z" style="fill:#727272;fill-rule:nonzero;"/>
            <path d="M2256.01,42.461C2256.01,39.543 2255.84,38.726 2254.91,36.743C2252.58,31.845 2247.62,29.283 2240.44,29.283C2231.11,29.283 2225.34,34.059 2225.34,41.76C2225.34,46.953 2228.08,50.221 2233.67,51.679L2244.23,54.48C2249.66,55.88 2252.05,58.039 2252.05,61.365C2252.05,63.64 2250.83,65.974 2249.02,67.258C2247.33,68.483 2244.64,69.066 2241.2,69.066C2236.53,69.066 2233.44,67.958 2231.4,65.507C2229.82,63.64 2229.12,61.598 2229.18,58.972L2224.05,58.972C2224.11,62.882 2224.87,65.449 2226.56,67.783C2229.47,71.804 2234.37,73.842 2240.85,73.842C2245.93,73.842 2250.07,72.677 2252.81,70.581C2255.66,68.308 2257.47,64.515 2257.47,60.84C2257.47,55.588 2254.21,51.738 2248.44,50.162L2237.76,47.303C2232.62,45.903 2230.76,44.269 2230.76,41.002C2230.76,36.684 2234.55,33.826 2240.27,33.826C2247.03,33.826 2250.83,36.859 2250.89,42.461L2256.01,42.461Z" style="fill:#727272;fill-rule:nonzero;"/>
        </g>
    </g>
</svg>
