<?xml version="1.0" encoding="UTF-8" standalone="no"?>
<!DOCTYPE svg PUBLIC "-//W3C//DTD SVG 1.1//EN" "http://www.w3.org/Graphics/SVG/1.1/DTD/svg11.dtd">
<svg width="100%" height="100%" viewBox="0 0 3200 1372" version="1.1" xmlns="http://www.w3.org/2000/svg" xmlns:xlink="http://www.w3.org/1999/xlink" xml:space="preserve" xmlns:serif="http://www.serif.com/" style="fill-rule:evenodd;clip-rule:evenodd;stroke-linejoin:round;stroke-miterlimit:2;">
    <rect id="MATCHING_LOBBY" x="0" y="0" width="3200" height="1371.88" style="fill:none;"/>
    <clipPath id="_clip1">
        <rect x="0" y="0" width="3200" height="1371.88"/>
    </clipPath>
    <g clip-path="url(#_clip1)">
        <g id="STAMP">
            <rect x="718.75" y="1275" width="1556.25" height="87.5" style="fill:#fff;"/>
            <path d="M2287.5,1371.88L0,1371.88L0,1265.62L2287.5,1265.62L2287.5,1371.88ZM718.75,1362.5C955.393,1362.5 2275,1362.5 2275,1362.5L2275,1275C2224.99,1275 933.85,1275 718.75,1275L718.75,1362.5Z" style="fill:#ff8fbc;"/>
            <path d="M126.161,1286.36L113.672,1286.36L113.672,1347.1L155.245,1347.1L155.245,1336.69L126.161,1336.69L126.161,1286.36Z" style="fill:#fff;fill-rule:nonzero;"/>
            <path d="M175.25,1287.61L158.083,1348.27L163.667,1348.27L180.833,1287.61L175.25,1287.61Z" style="fill:#fff;fill-rule:nonzero;"/>
            <path d="M203.578,1323.02L217.918,1323.02C223.337,1323.02 225.671,1325.18 225.671,1330.19L225.671,1332.69C225.588,1334.27 225.588,1335.77 225.588,1336.69C225.588,1342.44 225.921,1344.19 227.422,1347.1L240.828,1347.1L240.828,1344.86C238.912,1343.78 238.163,1342.53 238.163,1339.86C237.83,1321.93 237.497,1321.1 229.753,1317.77C236.581,1315.11 239.995,1310.19 239.995,1302.77C239.995,1297.93 238.329,1293.52 235.415,1290.52C232.668,1287.69 228.837,1286.36 223.67,1286.36L191.089,1286.36L191.089,1347.1L203.578,1347.1L203.578,1323.02ZM203.578,1312.61L203.578,1296.77L218.668,1296.77C222.253,1296.77 223.67,1297.1 225.254,1298.35C226.755,1299.6 227.505,1301.69 227.505,1304.52C227.505,1307.44 226.755,1309.77 225.254,1311.03C223.837,1312.19 222.253,1312.61 218.668,1312.61L203.578,1312.61Z" style="fill:#fff;fill-rule:nonzero;"/>
            <path d="M288.995,1322.86L273.828,1322.86L273.828,1307.69L263.922,1307.69L263.922,1322.86L248.755,1322.86L248.755,1332.77L263.922,1332.77L263.922,1347.93L273.828,1347.93L273.828,1332.77L288.995,1332.77L288.995,1322.86Z" style="fill:#fff;fill-rule:nonzero;"/>
            <path d="M335,1334.85L339,1347.1L351.833,1347.1L330.833,1286.36L317,1286.36L295.417,1347.1L308.167,1347.1L312.25,1334.85L335,1334.85ZM331.583,1324.44L315.75,1324.44L323.667,1300.69L331.583,1324.44Z" style="fill:#fff;fill-rule:nonzero;"/>
            <path d="M370.75,1287.61L353.583,1348.27L359.167,1348.27L376.333,1287.61L370.75,1287.61Z" style="fill:#fff;fill-rule:nonzero;"/>
            <path d="M386.672,1347.1L414.001,1347.1C421.004,1347.1 425.67,1345.77 429.333,1342.69C432.997,1339.61 435.328,1334.53 435.328,1329.61C435.328,1323.6 432.164,1318.85 425.254,1314.86C431.247,1311.03 433.578,1307.52 433.578,1302.35C433.578,1298.1 431.497,1293.77 428.083,1290.77C424.503,1287.69 420.254,1286.36 413.751,1286.36L386.672,1286.36L386.672,1347.1ZM399.161,1296.77L412.751,1296.77C418.587,1296.77 421.589,1299.1 421.589,1303.6C421.589,1308.19 418.587,1310.53 412.751,1310.53L399.161,1310.53L399.161,1296.77ZM399.161,1320.93L414.085,1320.93C420.17,1320.93 423.339,1323.6 423.339,1328.85C423.339,1334.02 420.17,1336.69 414.084,1336.69L399.161,1336.69L399.161,1320.93Z" style="fill:#fff;fill-rule:nonzero;"/>
            <path d="M457.333,1287.61L440.167,1348.27L445.75,1348.27L462.917,1287.61L457.333,1287.61Z" style="fill:#fff;fill-rule:nonzero;"/>
            <path d="M519.995,1306.93C519.578,1301.68 518.495,1298.35 515.911,1294.93C511.245,1288.77 503.745,1285.36 494.661,1285.36C477.496,1285.36 466.839,1297.6 466.839,1317.27C466.839,1336.86 477.413,1349.02 494.328,1349.02C509.495,1349.02 519.495,1340.27 520.245,1326.36L508.078,1326.36C507.245,1334.11 502.411,1338.53 494.661,1338.53C484.995,1338.53 479.328,1330.69 479.328,1317.44C479.328,1304.02 485.245,1296.02 495.078,1296.02C502.328,1296.02 506.411,1299.52 508.078,1306.93L519.995,1306.93Z" style="fill:#fff;fill-rule:nonzero;"/>
            <path d="M540.667,1287.61L523.5,1348.27L529.083,1348.27L546.25,1287.61L540.667,1287.61Z" style="fill:#fff;fill-rule:nonzero;"/>
            <path d="M556.422,1347.1L580.166,1347.1C589.42,1347.1 595.254,1344.93 599.418,1340.02C604.164,1334.36 606.745,1326.19 606.745,1316.69C606.745,1307.27 604.164,1299.1 599.418,1293.35C595.254,1288.44 589.503,1286.36 580.166,1286.36L556.422,1286.36L556.422,1347.1ZM568.911,1336.69L568.911,1296.77L580.166,1296.77C589.587,1296.77 594.255,1303.35 594.255,1316.77C594.255,1330.11 589.587,1336.69 580.166,1336.69L568.911,1336.69Z" style="fill:#fff;fill-rule:nonzero;"/>
            <path d="M785.14,1308.09C785.14,1305.17 784.965,1304.35 784.033,1302.37C781.703,1297.47 776.744,1294.91 769.566,1294.91C760.23,1294.91 754.462,1299.68 754.462,1307.38C754.462,1312.58 757.2,1315.85 762.797,1317.3L773.359,1320.11C778.786,1321.51 781.179,1323.66 781.179,1326.99C781.179,1329.27 779.953,1331.6 778.144,1332.88C776.452,1334.11 773.768,1334.69 770.325,1334.69C765.657,1334.69 762.564,1333.58 760.522,1331.13C758.948,1329.27 758.249,1327.22 758.307,1324.6L753.179,1324.6C753.237,1328.51 753.995,1331.07 755.685,1333.41C758.598,1337.43 763.498,1339.47 769.975,1339.47C775.051,1339.47 779.194,1338.3 781.936,1336.21C784.79,1333.93 786.596,1330.14 786.596,1326.46C786.596,1321.21 783.334,1317.36 777.561,1315.79L766.882,1312.93C761.747,1311.53 759.88,1309.89 759.88,1306.63C759.88,1302.31 763.673,1299.45 769.391,1299.45C776.16,1299.45 779.953,1302.48 780.011,1308.09L785.14,1308.09Z" style="fill:#727272;fill-rule:nonzero;"/>
            <path d="M799.955,1318.76L823.113,1318.76L823.113,1313.98L799.955,1313.98L799.955,1300.38L823.988,1300.38L823.988,1295.61L794.537,1295.61L794.537,1338.13L825.038,1338.13L825.038,1333.35L799.955,1333.35L799.955,1318.76Z" style="fill:#727272;fill-rule:nonzero;"/>
            <path d="M865.871,1295.61L860.745,1295.61L860.745,1330.37L838.513,1295.61L832.629,1295.61L832.629,1338.13L837.755,1338.13L837.755,1303.65L859.753,1338.13L865.871,1338.13L865.871,1295.61Z" style="fill:#727272;fill-rule:nonzero;"/>
            <path d="M875.504,1338.13L891.892,1338.13C902.628,1338.13 909.213,1330.08 909.213,1316.84C909.213,1303.65 902.687,1295.61 891.892,1295.61L875.504,1295.61L875.504,1338.13ZM880.921,1333.35L880.921,1300.38L890.958,1300.38C899.361,1300.38 903.795,1306.04 903.795,1316.9C903.795,1327.69 899.361,1333.35 890.958,1333.35L880.921,1333.35Z" style="fill:#727272;fill-rule:nonzero;"/>
            <path d="M963.407,1308.09C963.407,1305.17 963.232,1304.35 962.3,1302.37C959.97,1297.47 955.01,1294.91 947.833,1294.91C938.496,1294.91 932.729,1299.68 932.729,1307.38C932.729,1312.58 935.467,1315.85 941.064,1317.3L951.626,1320.11C957.053,1321.51 959.445,1323.66 959.445,1326.99C959.445,1329.27 958.22,1331.6 956.411,1332.88C954.719,1334.11 952.034,1334.69 948.592,1334.69C943.923,1334.69 940.831,1333.58 938.788,1331.13C937.214,1329.27 936.515,1327.22 936.573,1324.6L931.445,1324.6C931.504,1328.51 932.262,1331.07 933.952,1333.41C936.865,1337.43 941.764,1339.47 948.241,1339.47C953.318,1339.47 957.461,1338.3 960.203,1336.21C963.057,1333.93 964.863,1330.14 964.863,1326.46C964.863,1321.21 961.601,1317.36 955.827,1315.79L945.149,1312.93C940.014,1311.53 938.146,1309.89 938.146,1306.63C938.146,1302.31 941.939,1299.45 947.658,1299.45C954.427,1299.45 958.22,1302.48 958.278,1308.09L963.407,1308.09Z" style="fill:#727272;fill-rule:nonzero;"/>
            <path d="M986.68,1300.38L1000.62,1300.38L1000.62,1295.61L967.262,1295.61L967.262,1300.38L981.262,1300.38L981.262,1338.13L986.68,1338.13L986.68,1300.38Z" style="fill:#727272;fill-rule:nonzero;"/>
            <path d="M1023.73,1325.35L1028.1,1338.13L1034.17,1338.13L1019.23,1295.61L1012.23,1295.61L997.067,1338.13L1002.84,1338.13L1007.33,1325.35L1023.73,1325.35ZM1022.21,1320.81L1008.68,1320.81L1015.68,1301.43L1022.21,1320.81Z" style="fill:#727272;fill-rule:nonzero;"/>
            <path d="M1062.28,1338.13L1074.25,1302.49L1074.25,1338.13L1079.37,1338.13L1079.37,1295.61L1071.85,1295.61L1059.48,1332.65L1046.88,1295.61L1039.36,1295.61L1039.36,1338.13L1044.49,1338.13L1044.49,1302.49L1056.57,1338.13L1062.28,1338.13Z" style="fill:#727272;fill-rule:nonzero;"/>
            <path d="M1094.31,1320.1L1107.67,1320.1C1110.99,1320.1 1113.62,1319.11 1115.89,1317.07C1118.46,1314.74 1119.56,1312 1119.56,1308.09C1119.56,1300.09 1114.84,1295.61 1106.44,1295.61L1088.89,1295.61L1088.89,1338.13L1094.31,1338.13L1094.31,1320.1ZM1094.31,1315.33L1094.31,1300.38L1105.62,1300.38C1110.82,1300.38 1113.91,1303.18 1113.91,1307.85C1113.91,1312.52 1110.82,1315.33 1105.62,1315.33L1094.31,1315.33Z" style="fill:#727272;fill-rule:nonzero;"/>
            <path d="M1159.35,1300.38L1173.29,1300.38L1173.29,1295.61L1139.93,1295.61L1139.93,1300.38L1153.93,1300.38L1153.93,1338.13L1159.35,1338.13L1159.35,1300.38Z" style="fill:#727272;fill-rule:nonzero;"/>
            <path d="M1194.53,1294.91C1182.33,1294.91 1174.05,1303.88 1174.05,1317.19C1174.05,1330.55 1182.27,1339.47 1194.58,1339.47C1199.78,1339.47 1204.33,1337.89 1207.77,1334.98C1212.38,1331.07 1215.11,1324.48 1215.11,1317.54C1215.11,1303.83 1207.01,1294.91 1194.53,1294.91ZM1194.53,1299.68C1203.74,1299.68 1209.69,1306.63 1209.69,1317.42C1209.69,1327.69 1203.57,1334.69 1194.58,1334.69C1185.48,1334.69 1179.47,1327.69 1179.47,1317.19C1179.47,1306.68 1185.48,1299.68 1194.53,1299.68Z" style="fill:#727272;fill-rule:nonzero;"/>
            <path d="M1243.52,1295.61L1238.1,1295.61L1238.1,1338.13L1264.52,1338.13L1264.52,1333.35L1243.52,1333.35L1243.52,1295.61Z" style="fill:#727272;fill-rule:nonzero;"/>
            <path d="M1286.17,1294.91C1273.97,1294.91 1265.69,1303.88 1265.69,1317.19C1265.69,1330.55 1273.91,1339.47 1286.23,1339.47C1291.42,1339.47 1295.97,1337.89 1299.41,1334.98C1304.02,1331.07 1306.76,1324.48 1306.76,1317.54C1306.76,1303.83 1298.65,1294.91 1286.17,1294.91ZM1286.17,1299.68C1295.39,1299.68 1301.34,1306.63 1301.34,1317.42C1301.34,1327.69 1295.21,1334.69 1286.23,1334.69C1277.12,1334.69 1271.11,1327.69 1271.11,1317.19C1271.11,1306.68 1277.12,1299.68 1286.17,1299.68Z" style="fill:#727272;fill-rule:nonzero;"/>
            <path d="M1313.47,1338.13L1332.66,1338.13C1336.69,1338.13 1339.66,1337.02 1341.93,1334.57C1344.03,1332.36 1345.2,1329.32 1345.2,1326C1345.2,1320.86 1342.87,1317.77 1337.44,1315.67C1341.35,1313.87 1343.33,1310.77 1343.33,1306.4C1343.33,1303.24 1342.16,1300.56 1339.95,1298.58C1337.68,1296.54 1334.82,1295.61 1330.73,1295.61L1313.47,1295.61L1313.47,1338.13ZM1318.89,1313.92L1318.89,1300.38L1329.39,1300.38C1332.43,1300.38 1334.12,1300.79 1335.58,1301.9C1337.1,1303.07 1337.91,1304.82 1337.91,1307.15C1337.91,1309.49 1337.1,1311.24 1335.58,1312.41C1334.12,1313.52 1332.43,1313.92 1329.39,1313.92L1318.89,1313.92ZM1318.89,1333.35L1318.89,1318.7L1332.13,1318.7C1336.92,1318.7 1339.78,1321.44 1339.78,1326.05C1339.78,1330.61 1336.92,1333.35 1332.13,1333.35L1318.89,1333.35Z" style="fill:#727272;fill-rule:nonzero;"/>
            <path d="M1352.38,1338.13L1371.57,1338.13C1375.59,1338.13 1378.57,1337.02 1380.84,1334.57C1382.94,1332.36 1384.11,1329.32 1384.11,1326C1384.11,1320.86 1381.77,1317.77 1376.35,1315.67C1380.26,1313.87 1382.24,1310.77 1382.24,1306.4C1382.24,1303.24 1381.07,1300.56 1378.86,1298.58C1376.59,1296.54 1373.73,1295.61 1369.64,1295.61L1352.38,1295.61L1352.38,1338.13ZM1357.8,1313.92L1357.8,1300.38L1368.3,1300.38C1371.34,1300.38 1373.03,1300.79 1374.49,1301.9C1376,1303.07 1376.82,1304.82 1376.82,1307.15C1376.82,1309.49 1376,1311.24 1374.49,1312.41C1373.03,1313.52 1371.34,1313.92 1368.3,1313.92L1357.8,1313.92ZM1357.8,1333.35L1357.8,1318.7L1371.04,1318.7C1375.83,1318.7 1378.69,1321.44 1378.69,1326.05C1378.69,1330.61 1375.83,1333.35 1371.04,1333.35L1357.8,1333.35Z" style="fill:#727272;fill-rule:nonzero;"/>
            <path d="M1406.62,1321.45L1422.61,1295.61L1416.13,1295.61L1404,1316.31L1391.52,1295.61L1384.81,1295.61L1401.2,1321.45L1401.2,1338.13L1406.62,1338.13L1406.62,1321.45Z" style="fill:#727272;fill-rule:nonzero;"/>
        </g>
        <g id="MESSAGE">
            <rect x="718.75" y="1143.75" width="1556.25" height="87.5" style="fill:#fff;"/>
            <path d="M2287.5,1240.62L0,1240.62L0,1134.38L2287.5,1134.38L2287.5,1240.62ZM718.75,1231.25C955.393,1231.25 2275,1231.25 2275,1231.25L2275,1143.75C2224.99,1143.75 933.85,1143.75 718.75,1143.75L718.75,1231.25Z" style="fill:#ff8fbc;"/>
            <path d="M140.13,1215.85L167.459,1215.85C174.462,1215.85 179.128,1214.52 182.792,1211.44C186.455,1208.36 188.786,1203.28 188.786,1198.36C188.786,1192.35 185.623,1187.6 178.712,1183.61C184.705,1179.78 187.036,1176.27 187.036,1171.1C187.036,1166.85 184.955,1162.52 181.541,1159.52C177.961,1156.44 173.713,1155.11 167.21,1155.11L140.13,1155.11L140.13,1215.85ZM152.62,1165.52L166.209,1165.52C172.045,1165.52 175.047,1167.85 175.047,1172.35C175.047,1176.94 172.045,1179.28 166.209,1179.28L152.62,1179.28L152.62,1165.52ZM152.62,1189.68L167.543,1189.68C173.629,1189.68 176.797,1192.35 176.797,1197.6C176.797,1202.77 173.629,1205.44 167.543,1205.44L152.62,1205.44L152.62,1189.68Z" style="fill:#fff;fill-rule:nonzero;"/>
            <path d="M224.453,1165.52L242.203,1165.52L242.203,1155.11L193.547,1155.11L193.547,1165.52L211.964,1165.52L211.964,1215.85L224.453,1215.85L224.453,1165.52Z" style="fill:#fff;fill-rule:nonzero;"/>
            <rect x="241.458" y="1187.36" width="22.667" height="11.24" style="fill:#fff;fill-rule:nonzero;"/>
            <path d="M308.708,1203.6L312.708,1215.85L325.542,1215.85L304.542,1155.11L290.708,1155.11L269.125,1215.85L281.875,1215.85L285.958,1203.6L308.708,1203.6ZM305.292,1193.19L289.458,1193.19L297.375,1169.44L305.292,1193.19Z" style="fill:#fff;fill-rule:nonzero;"/>
            <path d="M344.458,1156.36L327.292,1217.02L332.875,1217.02L350.042,1156.36L344.458,1156.36Z" style="fill:#fff;fill-rule:nonzero;"/>
            <path d="M360.38,1215.85L387.709,1215.85C394.712,1215.85 399.378,1214.52 403.042,1211.44C406.705,1208.36 409.036,1203.28 409.036,1198.36C409.036,1192.35 405.873,1187.6 398.962,1183.61C404.955,1179.78 407.286,1176.27 407.286,1171.1C407.286,1166.85 405.205,1162.52 401.791,1159.52C398.211,1156.44 393.963,1155.11 387.46,1155.11L360.38,1155.11L360.38,1215.85ZM372.87,1165.52L386.459,1165.52C392.295,1165.52 395.297,1167.85 395.297,1172.35C395.297,1176.94 392.295,1179.28 386.459,1179.28L372.87,1179.28L372.87,1165.52ZM372.87,1189.68L387.793,1189.68C393.879,1189.68 397.047,1192.35 397.047,1197.6C397.047,1202.77 393.879,1205.44 387.793,1205.44L372.87,1205.44L372.87,1189.68Z" style="fill:#fff;fill-rule:nonzero;"/>
            <path d="M431.042,1156.36L413.875,1217.02L419.458,1217.02L436.625,1156.36L431.042,1156.36Z" style="fill:#fff;fill-rule:nonzero;"/>
            <path d="M493.703,1175.68C493.286,1170.43 492.203,1167.1 489.62,1163.68C484.953,1157.52 477.453,1154.11 468.37,1154.11C451.205,1154.11 440.547,1166.35 440.547,1186.02C440.547,1205.61 451.121,1217.77 468.036,1217.77C483.203,1217.77 493.203,1209.02 493.953,1195.11L481.786,1195.11C480.953,1202.86 476.12,1207.28 468.37,1207.28C458.703,1207.28 453.036,1199.44 453.036,1186.19C453.036,1172.77 458.953,1164.77 468.786,1164.77C476.036,1164.77 480.12,1168.27 481.786,1175.68L493.703,1175.68Z" style="fill:#fff;fill-rule:nonzero;"/>
            <path d="M514.375,1156.36L497.208,1217.02L502.792,1217.02L519.958,1156.36L514.375,1156.36Z" style="fill:#fff;fill-rule:nonzero;"/>
            <path d="M530.13,1215.85L553.874,1215.85C563.128,1215.85 568.963,1213.68 573.126,1208.77C577.872,1203.11 580.453,1194.94 580.453,1185.44C580.453,1176.02 577.872,1167.85 573.126,1162.1C568.963,1157.19 563.212,1155.11 553.874,1155.11L530.13,1155.11L530.13,1215.85ZM542.62,1205.44L542.62,1165.52L553.874,1165.52C563.295,1165.52 567.964,1172.1 567.964,1185.52C567.964,1198.86 563.295,1205.44 553.874,1205.44L542.62,1205.44Z" style="fill:#fff;fill-rule:nonzero;"/>
            <path d="M785.14,1176.84C785.14,1173.92 784.965,1173.1 784.033,1171.12C781.703,1166.22 776.744,1163.66 769.566,1163.66C760.23,1163.66 754.462,1168.43 754.462,1176.13C754.462,1181.33 757.2,1184.6 762.797,1186.05L773.359,1188.86C778.786,1190.26 781.179,1192.41 781.179,1195.74C781.179,1198.02 779.953,1200.35 778.144,1201.63C776.452,1202.86 773.768,1203.44 770.325,1203.44C765.657,1203.44 762.564,1202.33 760.522,1199.88C758.948,1198.02 758.249,1195.97 758.307,1193.35L753.179,1193.35C753.237,1197.26 753.995,1199.82 755.685,1202.16C758.598,1206.18 763.498,1208.22 769.975,1208.22C775.051,1208.22 779.194,1207.05 781.936,1204.96C784.79,1202.68 786.596,1198.89 786.596,1195.21C786.596,1189.96 783.334,1186.11 777.561,1184.54L766.882,1181.68C761.747,1180.28 759.88,1178.64 759.88,1175.38C759.88,1171.06 763.673,1168.2 769.391,1168.2C776.16,1168.2 779.953,1171.23 780.011,1176.84L785.14,1176.84Z" style="fill:#727272;fill-rule:nonzero;"/>
            <path d="M799.955,1187.51L823.113,1187.51L823.113,1182.73L799.955,1182.73L799.955,1169.13L823.988,1169.13L823.988,1164.36L794.537,1164.36L794.537,1206.88L825.038,1206.88L825.038,1202.1L799.955,1202.1L799.955,1187.51Z" style="fill:#727272;fill-rule:nonzero;"/>
            <path d="M865.871,1164.36L860.745,1164.36L860.745,1199.12L838.513,1164.36L832.629,1164.36L832.629,1206.88L837.755,1206.88L837.755,1172.4L859.753,1206.88L865.871,1206.88L865.871,1164.36Z" style="fill:#727272;fill-rule:nonzero;"/>
            <path d="M875.504,1206.88L891.892,1206.88C902.628,1206.88 909.213,1198.83 909.213,1185.59C909.213,1172.4 902.687,1164.36 891.892,1164.36L875.504,1164.36L875.504,1206.88ZM880.921,1202.1L880.921,1169.13L890.958,1169.13C899.361,1169.13 903.795,1174.79 903.795,1185.65C903.795,1196.44 899.361,1202.1 890.958,1202.1L880.921,1202.1Z" style="fill:#727272;fill-rule:nonzero;"/>
            <path d="M955.942,1206.88L967.904,1171.24L967.904,1206.88L973.03,1206.88L973.03,1164.36L965.511,1164.36L953.142,1201.4L940.539,1164.36L933.02,1164.36L933.02,1206.88L938.146,1206.88L938.146,1171.24L950.224,1206.88L955.942,1206.88Z" style="fill:#727272;fill-rule:nonzero;"/>
            <path d="M987.905,1187.51L1011.06,1187.51L1011.06,1182.73L987.905,1182.73L987.905,1169.13L1011.94,1169.13L1011.94,1164.36L982.487,1164.36L982.487,1206.88L1012.99,1206.88L1012.99,1202.1L987.905,1202.1L987.905,1187.51Z" style="fill:#727272;fill-rule:nonzero;"/>
            <path d="M1048.87,1176.84C1048.87,1173.92 1048.69,1173.1 1047.76,1171.12C1045.43,1166.22 1040.47,1163.66 1033.29,1163.66C1023.96,1163.66 1018.19,1168.43 1018.19,1176.13C1018.19,1181.33 1020.93,1184.6 1026.52,1186.05L1037.08,1188.86C1042.51,1190.26 1044.9,1192.41 1044.9,1195.74C1044.9,1198.02 1043.68,1200.35 1041.87,1201.63C1040.18,1202.86 1037.49,1203.44 1034.05,1203.44C1029.38,1203.44 1026.29,1202.33 1024.25,1199.88C1022.67,1198.02 1021.97,1195.97 1022.03,1193.35L1016.9,1193.35C1016.96,1197.26 1017.72,1199.82 1019.41,1202.16C1022.32,1206.18 1027.22,1208.22 1033.7,1208.22C1038.78,1208.22 1042.92,1207.05 1045.66,1204.96C1048.52,1202.68 1050.32,1198.89 1050.32,1195.21C1050.32,1189.96 1047.06,1186.11 1041.29,1184.54L1030.61,1181.68C1025.47,1180.28 1023.61,1178.64 1023.61,1175.38C1023.61,1171.06 1027.4,1168.2 1033.12,1168.2C1039.88,1168.2 1043.68,1171.23 1043.74,1176.84L1048.87,1176.84Z" style="fill:#727272;fill-rule:nonzero;"/>
            <path d="M1087.13,1176.84C1087.13,1173.92 1086.96,1173.1 1086.03,1171.12C1083.69,1166.22 1078.74,1163.66 1071.56,1163.66C1062.22,1163.66 1056.45,1168.43 1056.45,1176.13C1056.45,1181.33 1059.19,1184.6 1064.79,1186.05L1075.35,1188.86C1080.78,1190.26 1083.17,1192.41 1083.17,1195.74C1083.17,1198.02 1081.94,1200.35 1080.14,1201.63C1078.44,1202.86 1075.76,1203.44 1072.32,1203.44C1067.65,1203.44 1064.56,1202.33 1062.51,1199.88C1060.94,1198.02 1060.24,1195.97 1060.3,1193.35L1055.17,1193.35C1055.23,1197.26 1055.99,1199.82 1057.68,1202.16C1060.59,1206.18 1065.49,1208.22 1071.97,1208.22C1077.04,1208.22 1081.19,1207.05 1083.93,1204.96C1086.78,1202.68 1088.59,1198.89 1088.59,1195.21C1088.59,1189.96 1085.33,1186.11 1079.55,1184.54L1068.87,1181.68C1063.74,1180.28 1061.87,1178.64 1061.87,1175.38C1061.87,1171.06 1065.66,1168.2 1071.38,1168.2C1078.15,1168.2 1081.94,1171.23 1082,1176.84L1087.13,1176.84Z" style="fill:#727272;fill-rule:nonzero;"/>
            <path d="M1117.58,1194.1L1121.96,1206.88L1128.03,1206.88L1113.09,1164.36L1106.09,1164.36L1090.92,1206.88L1096.7,1206.88L1101.19,1194.1L1117.58,1194.1ZM1116.07,1189.56L1102.53,1189.56L1109.53,1170.18L1116.07,1189.56Z" style="fill:#727272;fill-rule:nonzero;"/>
            <path d="M1168.27,1184.42L1150.54,1184.42L1150.54,1189.2L1163.49,1189.2L1163.49,1190.37C1163.49,1197.95 1157.89,1203.44 1150.13,1203.44C1145.81,1203.44 1141.9,1201.87 1139.4,1199.12C1136.6,1196.09 1134.9,1191.01 1134.9,1185.76C1134.9,1175.32 1140.86,1168.43 1149.84,1168.43C1156.31,1168.43 1160.98,1171.76 1162.15,1177.25L1167.69,1177.25C1166.17,1168.61 1159.64,1163.66 1149.9,1163.66C1144.7,1163.66 1140.51,1165 1137.18,1167.74C1132.23,1171.82 1129.49,1178.41 1129.49,1186.06C1129.49,1199.12 1137.47,1208.22 1148.96,1208.22C1154.74,1208.22 1159.29,1206.06 1163.49,1201.46L1164.83,1207.11L1168.27,1207.11L1168.27,1184.42Z" style="fill:#727272;fill-rule:nonzero;"/>
            <path d="M1182.97,1187.51L1206.13,1187.51L1206.13,1182.73L1182.97,1182.73L1182.97,1169.13L1207.01,1169.13L1207.01,1164.36L1177.55,1164.36L1177.55,1206.88L1208.06,1206.88L1208.06,1202.1L1182.97,1202.1L1182.97,1187.51Z" style="fill:#727272;fill-rule:nonzero;"/>
            <path d="M1248.07,1169.13L1262.01,1169.13L1262.01,1164.36L1228.65,1164.36L1228.65,1169.13L1242.65,1169.13L1242.65,1206.88L1248.07,1206.88L1248.07,1169.13Z" style="fill:#727272;fill-rule:nonzero;"/>
            <path d="M1283.25,1163.66C1271.06,1163.66 1262.78,1172.63 1262.78,1185.94C1262.78,1199.3 1271,1208.22 1283.31,1208.22C1288.5,1208.22 1293.05,1206.64 1296.5,1203.73C1301.1,1199.82 1303.84,1193.23 1303.84,1186.29C1303.84,1172.58 1295.74,1163.66 1283.25,1163.66ZM1283.25,1168.43C1292.47,1168.43 1298.42,1175.38 1298.42,1186.17C1298.42,1196.44 1292.29,1203.44 1283.31,1203.44C1274.21,1203.44 1268.2,1196.44 1268.2,1185.94C1268.2,1175.43 1274.21,1168.43 1283.25,1168.43Z" style="fill:#727272;fill-rule:nonzero;"/>
            <path d="M1332.25,1164.36L1326.83,1164.36L1326.83,1206.88L1353.25,1206.88L1353.25,1202.1L1332.25,1202.1L1332.25,1164.36Z" style="fill:#727272;fill-rule:nonzero;"/>
            <path d="M1374.89,1163.66C1362.7,1163.66 1354.42,1172.63 1354.42,1185.94C1354.42,1199.3 1362.64,1208.22 1374.95,1208.22C1380.14,1208.22 1384.69,1206.64 1388.14,1203.73C1392.74,1199.82 1395.48,1193.23 1395.48,1186.29C1395.48,1172.58 1387.38,1163.66 1374.89,1163.66ZM1374.89,1168.43C1384.11,1168.43 1390.06,1175.38 1390.06,1186.17C1390.06,1196.44 1383.94,1203.44 1374.95,1203.44C1365.85,1203.44 1359.84,1196.44 1359.84,1185.94C1359.84,1175.43 1365.85,1168.43 1374.89,1168.43Z" style="fill:#727272;fill-rule:nonzero;"/>
            <path d="M1402.19,1206.88L1421.38,1206.88C1425.41,1206.88 1428.39,1205.77 1430.66,1203.32C1432.76,1201.11 1433.92,1198.07 1433.92,1194.75C1433.92,1189.61 1431.59,1186.52 1426.17,1184.42C1430.07,1182.62 1432.06,1179.52 1432.06,1175.15C1432.06,1171.99 1430.89,1169.31 1428.68,1167.33C1426.4,1165.29 1423.54,1164.36 1419.46,1164.36L1402.19,1164.36L1402.19,1206.88ZM1407.61,1182.67L1407.61,1169.13L1418.12,1169.13C1421.15,1169.13 1422.84,1169.54 1424.3,1170.65C1425.82,1171.82 1426.64,1173.57 1426.64,1175.9C1426.64,1178.24 1425.82,1179.99 1424.3,1181.16C1422.84,1182.27 1421.15,1182.67 1418.12,1182.67L1407.61,1182.67ZM1407.61,1202.1L1407.61,1187.45L1420.86,1187.45C1425.64,1187.45 1428.5,1190.19 1428.5,1194.8C1428.5,1199.36 1425.64,1202.1 1420.86,1202.1L1407.61,1202.1Z" style="fill:#727272;fill-rule:nonzero;"/>
            <path d="M1441.1,1206.88L1460.29,1206.88C1464.32,1206.88 1467.3,1205.77 1469.57,1203.32C1471.66,1201.11 1472.83,1198.07 1472.83,1194.75C1472.83,1189.61 1470.5,1186.52 1465.08,1184.42C1468.98,1182.62 1470.96,1179.52 1470.96,1175.15C1470.96,1171.99 1469.8,1169.31 1467.58,1167.33C1465.31,1165.29 1462.45,1164.36 1458.37,1164.36L1441.1,1164.36L1441.1,1206.88ZM1446.52,1182.67L1446.52,1169.13L1457.03,1169.13C1460.06,1169.13 1461.75,1169.54 1463.21,1170.65C1464.73,1171.82 1465.55,1173.57 1465.55,1175.9C1465.55,1178.24 1464.73,1179.99 1463.21,1181.16C1461.75,1182.27 1460.06,1182.67 1457.03,1182.67L1446.52,1182.67ZM1446.52,1202.1L1446.52,1187.45L1459.77,1187.45C1464.55,1187.45 1467.41,1190.19 1467.41,1194.8C1467.41,1199.36 1464.55,1202.1 1459.77,1202.1L1446.52,1202.1Z" style="fill:#727272;fill-rule:nonzero;"/>
            <path d="M1495.35,1190.2L1511.33,1164.36L1504.86,1164.36L1492.73,1185.06L1480.25,1164.36L1473.54,1164.36L1489.93,1190.2L1489.93,1206.88L1495.35,1206.88L1495.35,1190.2Z" style="fill:#727272;fill-rule:nonzero;"/>
        </g>
        <g id="HISPEED">
            <rect x="718.75" y="1012.5" width="1556.25" height="87.5" style="fill:#fff;"/>
            <path d="M2287.5,1109.38L0,1109.38L0,1003.12L2287.5,1003.12L2287.5,1109.38ZM718.75,1100C955.393,1100 2275,1100 2275,1100L2275,1012.5C2224.99,1012.5 933.85,1012.5 718.75,1012.5L718.75,1100Z" style="fill:#ff8fbc;"/>
            <path d="M165.705,1042.35C165.622,1029.77 157.212,1022.86 141.874,1022.86C127.29,1022.86 118.88,1029.69 118.88,1041.52C118.88,1050.94 123.626,1055.52 135.955,1057.86L144.459,1059.52C152.796,1061.11 155.88,1063.44 155.88,1068.36C155.88,1073.44 151.212,1076.53 143.625,1076.53C135.122,1076.53 130.37,1072.94 129.954,1066.44L117.797,1066.44C118.547,1079.44 127.456,1086.52 142.958,1086.52C158.628,1086.52 167.87,1079.27 167.87,1066.86C167.87,1057.27 163.041,1052.27 151.795,1050.1L142.291,1048.27C133.371,1046.52 130.786,1044.77 130.786,1040.35C130.786,1035.77 134.788,1032.85 141.291,1032.85C149.211,1032.85 153.629,1036.18 154.046,1042.35L165.705,1042.35Z" style="fill:#fff;fill-rule:nonzero;"/>
            <path d="M202.286,1034.27L220.036,1034.27L220.036,1023.86L171.38,1023.86L171.38,1034.27L189.797,1034.27L189.797,1084.6L202.286,1084.6L202.286,1034.27Z" style="fill:#fff;fill-rule:nonzero;"/>
            <path d="M255.625,1072.35L259.625,1084.6L272.458,1084.6L251.458,1023.86L237.625,1023.86L216.042,1084.6L228.792,1084.6L232.875,1072.35L255.625,1072.35ZM252.208,1061.94L236.375,1061.94L244.292,1038.19L252.208,1061.94Z" style="fill:#fff;fill-rule:nonzero;"/>
            <path d="M293.203,1060.52L307.543,1060.52C312.962,1060.52 315.296,1062.68 315.296,1067.69L315.296,1070.19C315.213,1071.77 315.213,1073.27 315.213,1074.19C315.213,1079.94 315.546,1081.69 317.047,1084.6L330.453,1084.6L330.453,1082.36C328.537,1081.28 327.788,1080.03 327.788,1077.36C327.455,1059.43 327.122,1058.6 319.378,1055.27C326.206,1052.61 329.62,1047.69 329.62,1040.27C329.62,1035.43 327.954,1031.02 325.04,1028.02C322.293,1025.19 318.462,1023.86 313.295,1023.86L280.714,1023.86L280.714,1084.6L293.203,1084.6L293.203,1060.52ZM293.203,1050.11L293.203,1034.27L308.293,1034.27C311.878,1034.27 313.295,1034.6 314.879,1035.85C316.38,1037.1 317.13,1039.19 317.13,1042.02C317.13,1044.94 316.38,1047.27 314.879,1048.53C313.462,1049.69 311.878,1050.11 308.293,1050.11L293.203,1050.11Z" style="fill:#fff;fill-rule:nonzero;"/>
            <path d="M366.203,1034.27L383.953,1034.27L383.953,1023.86L335.297,1023.86L335.297,1034.27L353.714,1034.27L353.714,1084.6L366.203,1084.6L366.203,1034.27Z" style="fill:#fff;fill-rule:nonzero;"/>
            <path d="M429.453,1060.36L414.286,1060.36L414.286,1045.19L404.38,1045.19L404.38,1060.36L389.214,1060.36L389.214,1070.27L404.38,1070.27L404.38,1085.43L414.286,1085.43L414.286,1070.27L429.453,1070.27L429.453,1060.36Z" style="fill:#fff;fill-rule:nonzero;"/>
            <path d="M466.792,1084.6L487.625,1023.86L475.042,1023.86L461.792,1069.61L448.292,1023.86L435.708,1023.86L456.208,1084.6L466.792,1084.6Z" style="fill:#fff;fill-rule:nonzero;"/>
            <path d="M518.792,1022.86C510.289,1022.86 503.287,1025.69 498.123,1031.27C492.711,1037.1 489.63,1045.6 489.63,1054.69C489.63,1063.77 492.711,1072.36 498.123,1078.11C503.37,1083.77 510.206,1086.52 518.875,1086.52C527.544,1086.52 534.38,1083.77 539.627,1078.11C544.872,1072.53 548.12,1063.69 548.12,1055.1C548.12,1045.6 545.039,1037.02 539.627,1031.27C534.296,1025.52 527.628,1022.86 518.792,1022.86ZM518.875,1033.52C529.128,1033.52 535.63,1041.85 535.63,1055.02C535.63,1067.52 528.878,1075.86 518.875,1075.86C508.705,1075.86 502.12,1067.52 502.12,1054.69C502.12,1041.85 508.705,1033.52 518.875,1033.52Z" style="fill:#fff;fill-rule:nonzero;"/>
            <path d="M570.286,1023.86L557.797,1023.86L557.797,1084.6L599.37,1084.6L599.37,1074.19L570.286,1074.19L570.286,1023.86Z" style="fill:#fff;fill-rule:nonzero;"/>
            <path d="M788.988,1046.29C787.296,1036.95 781.93,1032.41 772.596,1032.41C766.88,1032.41 762.271,1034.21 759.121,1037.71C755.276,1041.91 753.179,1047.98 753.179,1054.86C753.179,1061.86 755.334,1067.87 759.296,1072.02C762.621,1075.39 766.821,1076.97 772.363,1076.97C782.746,1076.97 788.58,1071.37 789.863,1060.11L784.263,1060.11C783.796,1063.03 783.213,1065.02 782.338,1066.71C780.588,1070.21 776.971,1072.19 772.421,1072.19C763.963,1072.19 758.596,1065.42 758.596,1054.8C758.596,1043.89 763.671,1037.18 771.955,1037.18C775.396,1037.18 778.605,1038.18 780.355,1039.87C781.93,1041.33 782.805,1043.08 783.446,1046.29L788.988,1046.29Z" style="fill:#727272;fill-rule:nonzero;"/>
            <path d="M823.937,1056.26L823.937,1075.63L829.355,1075.63L829.355,1033.11L823.937,1033.11L823.937,1051.48L802.055,1051.48L802.055,1033.11L796.637,1033.11L796.637,1075.63L802.055,1075.63L802.055,1056.26L823.937,1056.26Z" style="fill:#727272;fill-rule:nonzero;"/>
            <path d="M860.917,1062.85L865.292,1075.63L871.358,1075.63L856.425,1033.11L849.425,1033.11L834.258,1075.63L840.033,1075.63L844.525,1062.85L860.917,1062.85ZM859.4,1058.31L845.867,1058.31L852.867,1038.93L859.4,1058.31Z" style="fill:#727272;fill-rule:nonzero;"/>
            <path d="M909.855,1033.11L904.729,1033.11L904.729,1067.87L882.497,1033.11L876.612,1033.11L876.612,1075.63L881.738,1075.63L881.738,1041.15L903.737,1075.63L909.855,1075.63L909.855,1033.11Z" style="fill:#727272;fill-rule:nonzero;"/>
            <path d="M955.588,1053.17L937.855,1053.17L937.855,1057.95L950.805,1057.95L950.805,1059.12C950.805,1066.7 945.205,1072.19 937.446,1072.19C933.13,1072.19 929.221,1070.62 926.713,1067.87C923.913,1064.84 922.221,1059.76 922.221,1054.51C922.221,1044.07 928.171,1037.18 937.155,1037.18C943.63,1037.18 948.296,1040.51 949.463,1046L955.005,1046C953.488,1037.36 946.955,1032.41 937.213,1032.41C932.021,1032.41 927.821,1033.75 924.496,1036.49C919.542,1040.57 916.804,1047.16 916.804,1054.81C916.804,1067.87 924.788,1076.97 936.28,1076.97C942.055,1076.97 946.605,1074.81 950.805,1070.21L952.146,1075.86L955.588,1075.86L955.588,1053.17Z" style="fill:#727272;fill-rule:nonzero;"/>
            <path d="M970.288,1056.26L993.446,1056.26L993.446,1051.48L970.288,1051.48L970.288,1037.88L994.321,1037.88L994.321,1033.11L964.87,1033.11L964.87,1075.63L995.371,1075.63L995.371,1070.85L970.288,1070.85L970.288,1056.26Z" style="fill:#727272;fill-rule:nonzero;"/>
            <path d="M1046.89,1056.26L1046.89,1075.63L1052.31,1075.63L1052.31,1033.11L1046.89,1033.11L1046.89,1051.48L1025.01,1051.48L1025.01,1033.11L1019.59,1033.11L1019.59,1075.63L1025.01,1075.63L1025.01,1056.26L1046.89,1056.26Z" style="fill:#727272;fill-rule:nonzero;"/>
            <rect x="1061.94" y="1033.11" width="5.476" height="42.518" style="fill:#727272;fill-rule:nonzero;"/>
            <rect x="1075" y="1057.43" width="13.876" height="4.193" style="fill:#727272;fill-rule:nonzero;"/>
            <path d="M1126.8,1045.59C1126.8,1042.67 1126.62,1041.85 1125.69,1039.87C1123.36,1034.97 1118.4,1032.41 1111.23,1032.41C1101.89,1032.41 1096.12,1037.18 1096.12,1044.88C1096.12,1050.08 1098.86,1053.35 1104.46,1054.8L1115.02,1057.61C1120.44,1059.01 1122.84,1061.16 1122.84,1064.49C1122.84,1066.77 1121.61,1069.1 1119.8,1070.38C1118.11,1071.61 1115.43,1072.19 1111.98,1072.19C1107.32,1072.19 1104.22,1071.08 1102.18,1068.63C1100.61,1066.77 1099.91,1064.72 1099.96,1062.1L1094.84,1062.1C1094.89,1066.01 1095.65,1068.57 1097.34,1070.91C1100.26,1074.93 1105.16,1076.97 1111.63,1076.97C1116.71,1076.97 1120.85,1075.8 1123.59,1073.71C1126.45,1071.43 1128.26,1067.64 1128.26,1063.96C1128.26,1058.71 1124.99,1054.86 1119.22,1053.29L1108.54,1050.43C1103.4,1049.03 1101.54,1047.39 1101.54,1044.13C1101.54,1039.81 1105.33,1036.95 1111.05,1036.95C1117.82,1036.95 1121.61,1039.98 1121.67,1045.59L1126.8,1045.59Z" style="fill:#727272;fill-rule:nonzero;"/>
            <path d="M1141.67,1057.6L1155.04,1057.6C1158.36,1057.6 1160.99,1056.61 1163.26,1054.57C1165.82,1052.24 1166.93,1049.5 1166.93,1045.59C1166.93,1037.59 1162.21,1033.11 1153.81,1033.11L1136.25,1033.11L1136.25,1075.63L1141.67,1075.63L1141.67,1057.6ZM1141.67,1052.83L1141.67,1037.88L1152.99,1037.88C1158.19,1037.88 1161.28,1040.68 1161.28,1045.35C1161.28,1050.02 1158.19,1052.83 1152.99,1052.83L1141.67,1052.83Z" style="fill:#727272;fill-rule:nonzero;"/>
            <path d="M1178.6,1056.26L1201.76,1056.26L1201.76,1051.48L1178.6,1051.48L1178.6,1037.88L1202.63,1037.88L1202.63,1033.11L1173.18,1033.11L1173.18,1075.63L1203.68,1075.63L1203.68,1070.85L1178.6,1070.85L1178.6,1056.26Z" style="fill:#727272;fill-rule:nonzero;"/>
            <path d="M1217.51,1056.26L1240.66,1056.26L1240.66,1051.48L1217.51,1051.48L1217.51,1037.88L1241.54,1037.88L1241.54,1033.11L1212.09,1033.11L1212.09,1075.63L1242.59,1075.63L1242.59,1070.85L1217.51,1070.85L1217.51,1056.26Z" style="fill:#727272;fill-rule:nonzero;"/>
            <path d="M1250.94,1075.63L1267.33,1075.63C1278.06,1075.63 1284.65,1067.58 1284.65,1054.34C1284.65,1041.15 1278.12,1033.11 1267.33,1033.11L1250.94,1033.11L1250.94,1075.63ZM1256.36,1070.85L1256.36,1037.88L1266.39,1037.88C1274.79,1037.88 1279.23,1043.54 1279.23,1054.4C1279.23,1065.19 1274.79,1070.85 1266.39,1070.85L1256.36,1070.85Z" style="fill:#727272;fill-rule:nonzero;"/>
        </g>
        <g id="CON">
            <path id="BACKGROUND" d="M2290.62,208.786L2290.62,744.339C2290.62,781.958 2260.08,812.5 2222.46,812.5L977.536,812.5C939.917,812.5 909.375,781.958 909.375,744.339L909.375,208.786C909.375,171.167 939.917,140.625 977.536,140.625L2222.46,140.625C2260.08,140.625 2290.62,171.167 2290.62,208.786Z" style="fill:#fff;"/>
            <clipPath id="_clip2">
                <path d="M2290.62,208.786L2290.62,744.339C2290.62,781.958 2260.08,812.5 2222.46,812.5L977.536,812.5C939.917,812.5 909.375,781.958 909.375,744.339L909.375,208.786C909.375,171.167 939.917,140.625 977.536,140.625L2222.46,140.625C2260.08,140.625 2290.62,171.167 2290.62,208.786Z"/>
            </clipPath>
            <g clip-path="url(#_clip2)">
                <rect x="942.272" y="803.125" width="1315.46" height="9.375" style="fill:#727272;"/>
            </g>
            <path d="M2300,208.786L2300,744.339C2300,787.132 2265.26,821.875 2222.46,821.875L977.536,821.875C934.743,821.875 900,787.132 900,744.339L900,208.786C900,165.993 934.743,131.25 977.536,131.25L2222.46,131.25C2265.26,131.25 2300,165.993 2300,208.786ZM2290.62,208.786C2290.62,171.167 2260.08,140.625 2222.46,140.625L977.536,140.625C939.917,140.625 909.375,171.167 909.375,208.786L909.375,744.339C909.375,781.958 939.917,812.5 977.536,812.5L2222.46,812.5C2260.08,812.5 2290.62,781.958 2290.62,744.339L2290.62,208.786Z" style="fill:#727272;"/>
            <g id="KNOB-L">
                <path d="M1068.75,178.125C1124.38,178.125 1168.75,216.46 1168.75,262.5C1168.75,308.54 1124.38,346.875 1068.75,346.875C1013.12,346.875 968.75,308.54 968.75,262.5C968.75,216.46 1013.12,178.125 1068.75,178.125ZM1068.75,187.5C1018.73,187.5 978.125,221.106 978.125,262.5C978.125,303.894 1018.73,337.5 1068.75,337.5C1118.77,337.5 1159.38,303.894 1159.38,262.5C1159.38,221.106 1118.77,187.5 1068.75,187.5Z" style="fill:#008cef;"/>
                <path d="M1018.75,262.5L1018.75,203.125L1118.75,203.125L1118.75,262.5C1118.75,284.922 1096.35,303.125 1068.75,303.125C1041.15,303.125 1018.75,284.922 1018.75,262.5Z" style="fill:#e5e5e5;"/>
                <path d="M1009.38,262.5L1009.38,203.125C1009.38,197.947 1013.57,193.75 1018.75,193.75L1118.75,193.75C1123.93,193.75 1128.12,197.947 1128.12,203.125L1128.12,262.5C1128.12,289.516 1102,312.5 1068.75,312.5C1035.5,312.5 1009.38,289.516 1009.38,262.5ZM1018.75,262.5C1018.75,284.922 1041.15,303.125 1068.75,303.125C1096.35,303.125 1118.75,284.922 1118.75,262.5L1118.75,203.125L1018.75,203.125L1018.75,262.5Z" style="fill:#727272;"/>
                <ellipse cx="1068.75" cy="203.125" rx="50" ry="40.625" style="fill:#e5e5e5;"/>
                <path d="M1068.75,153.125C1102,153.125 1128.12,176.109 1128.12,203.125C1128.12,230.141 1102,253.125 1068.75,253.125C1035.5,253.125 1009.38,230.141 1009.38,203.125C1009.38,176.109 1035.5,153.125 1068.75,153.125ZM1068.75,162.5C1041.15,162.5 1018.75,180.703 1018.75,203.125C1018.75,225.547 1041.15,243.75 1068.75,243.75C1096.35,243.75 1118.75,225.547 1118.75,203.125C1118.75,180.703 1096.35,162.5 1068.75,162.5Z" style="fill:#727272;"/>
            </g>
            <g id="KNOB-R">
                <path d="M2131.25,178.125C2186.88,178.125 2231.25,216.46 2231.25,262.5C2231.25,308.54 2186.88,346.875 2131.25,346.875C2075.62,346.875 2031.25,308.54 2031.25,262.5C2031.25,216.46 2075.62,178.125 2131.25,178.125ZM2131.25,187.5C2081.23,187.5 2040.62,221.106 2040.62,262.5C2040.62,303.894 2081.23,337.5 2131.25,337.5C2181.27,337.5 2221.88,303.894 2221.88,262.5C2221.88,221.106 2181.27,187.5 2131.25,187.5Z" style="fill:#f00000;"/>
                <path d="M2181.25,262.5L2181.25,203.125L2081.25,203.125L2081.25,262.5C2081.25,284.922 2103.65,303.125 2131.25,303.125C2158.85,303.125 2181.25,284.922 2181.25,262.5Z" style="fill:#e5e5e5;"/>
                <path d="M2190.62,262.5C2190.62,289.516 2164.5,312.5 2131.25,312.5C2098,312.5 2071.88,289.516 2071.88,262.5L2071.88,203.125C2071.88,197.947 2076.07,193.75 2081.25,193.75L2181.25,193.75C2186.43,193.75 2190.62,197.947 2190.62,203.125L2190.62,262.5ZM2181.25,262.5L2181.25,203.125L2081.25,203.125L2081.25,262.5C2081.25,284.922 2103.65,303.125 2131.25,303.125C2158.85,303.125 2181.25,284.922 2181.25,262.5Z" style="fill:#727272;"/>
                <ellipse cx="2131.25" cy="203.125" rx="50" ry="40.625" style="fill:#e5e5e5;"/>
                <path d="M2131.25,153.125C2164.5,153.125 2190.62,176.109 2190.62,203.125C2190.62,230.141 2164.5,253.125 2131.25,253.125C2098,253.125 2071.88,230.141 2071.88,203.125C2071.88,176.109 2098,153.125 2131.25,153.125ZM2131.25,162.5C2103.65,162.5 2081.25,180.703 2081.25,203.125C2081.25,225.547 2103.65,243.75 2131.25,243.75C2158.85,243.75 2181.25,225.547 2181.25,203.125C2181.25,180.703 2158.85,162.5 2131.25,162.5Z" style="fill:#727272;"/>
            </g>
            <g id="BT-A">
                <rect x="1118.75" y="390.625" width="203.125" height="212.5" style="fill:#fff;"/>
                <path d="M1331.25,390.625L1331.25,603.125C1331.25,608.303 1327.05,612.5 1321.88,612.5L1118.75,612.5C1113.57,612.5 1109.38,608.303 1109.38,603.125L1109.38,390.625C1109.38,385.447 1113.57,381.25 1118.75,381.25L1321.88,381.25C1327.05,381.25 1331.25,385.447 1331.25,390.625ZM1321.88,390.625L1118.75,390.625L1118.75,603.125L1321.88,603.125L1321.88,390.625Z" style="fill:#727272;"/>
                <rect x="1118.75" y="593.75" width="203.125" height="9.375" style="fill:#727272;"/>
            </g>
            <g id="BT-B">
                <rect x="1371.88" y="390.625" width="203.125" height="212.5" style="fill:#fff;"/>
                <path d="M1584.38,390.625L1584.38,603.125C1584.38,608.303 1580.18,612.5 1575,612.5L1371.88,612.5C1366.7,612.5 1362.5,608.303 1362.5,603.125L1362.5,390.625C1362.5,385.447 1366.7,381.25 1371.88,381.25L1575,381.25C1580.18,381.25 1584.38,385.447 1584.38,390.625ZM1575,390.625L1371.88,390.625L1371.88,603.125L1575,603.125L1575,390.625Z" style="fill:#727272;"/>
                <rect x="1371.88" y="593.75" width="203.125" height="9.375" style="fill:#727272;"/>
            </g>
            <g id="BT-C">
                <rect x="1625" y="390.625" width="203.125" height="212.5" style="fill:#fff;"/>
                <path d="M1837.5,390.625L1837.5,603.125C1837.5,608.303 1833.3,612.5 1828.12,612.5L1625,612.5C1619.82,612.5 1615.62,608.303 1615.62,603.125L1615.62,390.625C1615.62,385.447 1619.82,381.25 1625,381.25L1828.12,381.25C1833.3,381.25 1837.5,385.447 1837.5,390.625ZM1828.12,390.625L1625,390.625L1625,603.125L1828.12,603.125L1828.12,390.625Z" style="fill:#727272;"/>
                <rect x="1625" y="593.75" width="203.125" height="9.375" style="fill:#727272;"/>
            </g>
            <g id="BT-D">
                <rect x="1878.12" y="390.625" width="203.125" height="212.5" style="fill:#fff;"/>
                <path d="M1878.12,381.25L2081.25,381.25C2086.43,381.25 2090.62,385.447 2090.62,390.625L2090.62,603.125C2090.62,608.303 2086.43,612.5 2081.25,612.5L1878.12,612.5C1872.95,612.5 1868.75,608.303 1868.75,603.125L1868.75,390.625C1868.75,385.447 1872.95,381.25 1878.12,381.25ZM1878.12,390.625L1878.12,603.125L2081.25,603.125L2081.25,390.625L1878.12,390.625Z" style="fill:#727272;"/>
                <rect x="1878.12" y="593.75" width="203.125" height="9.375" style="fill:#727272;"/>
            </g>
            <g id="FX-L">
                <rect x="1246.88" y="659.375" width="200" height="109.375" style="fill:#e5e5e5;"/>
                <path d="M1456.25,659.375L1456.25,768.75C1456.25,773.928 1452.05,778.125 1446.88,778.125L1246.88,778.125C1241.7,778.125 1237.5,773.928 1237.5,768.75L1237.5,659.375C1237.5,654.197 1241.7,650 1246.88,650L1446.88,650C1452.05,650 1456.25,654.197 1456.25,659.375ZM1446.88,659.375L1246.88,659.375L1246.88,768.75L1446.88,768.75L1446.88,659.375Z" style="fill:#727272;"/>
                <rect x="1246.88" y="759.375" width="200" height="9.375" style="fill:#727272;"/>
            </g>
            <g id="FX-R">
                <rect x="1753.12" y="659.375" width="200" height="109.375" style="fill:#e5e5e5;"/>
                <path d="M1753.12,650L1953.12,650C1958.3,650 1962.5,654.197 1962.5,659.375L1962.5,768.75C1962.5,773.928 1958.3,778.125 1953.12,778.125L1753.12,778.125C1747.95,778.125 1743.75,773.928 1743.75,768.75L1743.75,659.375C1743.75,654.197 1747.95,650 1753.12,650ZM1753.12,659.375L1753.12,768.75L1953.12,768.75L1953.12,659.375L1753.12,659.375Z" style="fill:#727272;"/>
                <rect x="1753.12" y="759.375" width="200" height="9.375" style="fill:#727272;"/>
            </g>
            <g id="START">
                <rect x="1550" y="225" width="100" height="103.125" style="fill:#fff;"/>
                <path d="M1659.38,225L1659.38,328.125C1659.38,333.303 1655.18,337.5 1650,337.5L1550,337.5C1544.82,337.5 1540.62,333.303 1540.62,328.125L1540.62,225C1540.62,219.822 1544.82,215.625 1550,215.625L1650,215.625C1655.18,215.625 1659.38,219.822 1659.38,225ZM1650,225L1550,225L1550,328.125L1650,328.125L1650,225Z" style="fill:#727272;"/>
                <rect x="1550" y="318.75" width="100" height="9.375" style="fill:#727272;"/>
            </g>
        </g>
        <path id="FX-L_ANCHOR" d="M1348.62,778.029C1342.64,778.698 1336.54,775.857 1333.34,770.313C1329.03,762.844 1331.59,753.28 1339.06,748.969C1346.53,744.657 1356.1,747.219 1360.41,754.688C1363.61,760.232 1363.02,766.931 1359.45,771.779L1449.66,926.879L1438.84,933.129L1348.62,778.029Z" style="fill:#ff8fbc;"/>
        <path d="M1343.12,787.213C1335.87,786.107 1329.17,781.839 1325.22,775C1318.33,763.051 1322.43,747.749 1334.38,740.85C1346.32,733.951 1361.63,738.051 1368.53,750C1372.47,756.826 1372.82,764.745 1370.17,771.565L1457.77,922.166C1459.02,924.319 1459.36,926.883 1458.72,929.291C1458.08,931.699 1456.51,933.752 1454.35,934.998L1443.52,941.248C1439.05,943.831 1433.33,942.308 1430.73,937.843L1343.12,787.213ZM1348.62,778.029L1438.84,933.129L1449.66,926.879L1359.45,771.779C1363.02,766.931 1363.61,760.232 1360.41,754.688C1356.1,747.219 1346.53,744.657 1339.06,748.969C1331.59,753.28 1329.03,762.844 1333.34,770.313C1336.54,775.857 1342.64,778.698 1348.62,778.029Z" style="fill:#fff;"/>
        <path id="FX-R_ANCHOR" d="M1851.38,778.029C1857.36,778.698 1863.46,775.857 1866.66,770.313C1870.97,762.844 1868.41,753.28 1860.94,748.969C1853.47,744.657 1843.9,747.219 1839.59,754.688C1836.39,760.232 1836.98,766.931 1840.55,771.779L1750.34,926.879L1761.16,933.129L1851.38,778.029Z" style="fill:#ff8fbc;"/>
        <path d="M1856.88,787.213L1769.27,937.843C1766.67,942.308 1760.95,943.831 1756.48,941.248L1745.65,934.998C1743.49,933.752 1741.92,931.699 1741.28,929.291C1740.64,926.883 1740.98,924.319 1742.23,922.166C1742.23,922.166 1829.83,771.565 1829.83,771.567C1827.18,764.745 1827.53,756.826 1831.47,750C1838.37,738.051 1853.68,733.951 1865.62,740.85C1877.57,747.749 1881.67,763.051 1874.78,775C1870.83,781.839 1864.13,786.107 1856.88,787.213ZM1851.38,778.029C1857.36,778.698 1863.46,775.857 1866.66,770.313C1870.97,762.844 1868.41,753.28 1860.94,748.969C1853.47,744.657 1843.9,747.219 1839.59,754.688C1836.39,760.232 1836.98,766.931 1840.55,771.779L1750.34,926.879L1761.16,933.129L1851.38,778.029Z" style="fill:#fff;"/>
        <g id="SKIP">
            <rect x="1384.38" y="856.25" width="778.125" height="87.5" style="fill:#fff;"/>
            <path d="M2175,953.125L1025,953.125L1025,846.875L2175,846.875L2175,953.125ZM1384.38,943.75C1621.02,943.75 2162.5,943.75 2162.5,943.75L2162.5,856.25C2112.49,856.25 1599.48,856.25 1384.38,856.25L1384.38,943.75Z" style="fill:#ff8fbc;"/>
            <path d="M1077.85,902.182L1104.43,902.182L1104.43,891.776L1077.85,891.776L1077.85,878.016L1108.02,878.016L1108.02,867.609L1065.36,867.609L1065.36,928.349L1077.85,928.349L1077.85,902.182Z" style="fill:#fff;fill-rule:nonzero;"/>
            <path d="M1145.02,897.354L1163.77,867.609L1149.27,867.609L1138.11,887.602L1127.44,867.609L1112.61,867.609L1131.11,897.771L1111.94,928.349L1126.44,928.349L1138.02,907.272L1149.69,928.349L1164.52,928.349L1145.02,897.354Z" style="fill:#fff;fill-rule:nonzero;"/>
            <rect x="1165.52" y="899.859" width="22.667" height="11.24" style="fill:#fff;fill-rule:nonzero;"/>
            <path d="M1210.27,867.609L1197.78,867.609L1197.78,928.349L1239.35,928.349L1239.35,917.943L1210.27,917.943L1210.27,867.609Z" style="fill:#fff;fill-rule:nonzero;"/>
            <path d="M1286.43,904.109L1271.27,904.109L1271.27,888.943L1261.36,888.943L1261.36,904.109L1246.19,904.109L1246.19,914.016L1261.36,914.016L1261.36,929.182L1271.27,929.182L1271.27,914.016L1286.43,914.016L1286.43,904.109Z" style="fill:#fff;fill-rule:nonzero;"/>
            <path d="M1309.85,904.266L1324.19,904.266C1329.61,904.266 1331.94,906.433 1331.94,911.436L1331.94,913.937C1331.86,915.521 1331.86,917.022 1331.86,917.939C1331.86,923.691 1332.19,925.442 1333.69,928.349L1347.1,928.349L1347.1,926.109C1345.19,925.025 1344.44,923.775 1344.44,921.107C1344.1,903.183 1343.77,902.351 1336.03,899.021C1342.85,896.357 1346.27,891.441 1346.27,884.02C1346.27,879.183 1344.6,874.769 1341.69,871.772C1338.94,868.941 1335.11,867.609 1329.94,867.609L1297.36,867.609L1297.36,928.349L1309.85,928.349L1309.85,904.266ZM1309.85,893.859L1309.85,878.016L1324.94,878.016C1328.53,878.016 1329.94,878.349 1331.53,879.6C1333.03,880.851 1333.78,882.936 1333.78,885.771C1333.78,888.689 1333.03,891.024 1331.53,892.275C1330.11,893.442 1328.53,893.859 1324.94,893.859L1309.85,893.859Z" style="fill:#fff;fill-rule:nonzero;"/>
            <path d="M1511.38,889.335C1511.38,886.418 1511.2,885.601 1510.27,883.618C1507.94,878.72 1502.98,876.158 1495.8,876.158C1486.47,876.158 1480.7,880.934 1480.7,888.635C1480.7,893.828 1483.44,897.095 1489.04,898.554L1499.6,901.355C1505.02,902.755 1507.42,904.914 1507.42,908.24C1507.42,910.515 1506.19,912.849 1504.38,914.132C1502.69,915.358 1500.01,915.941 1496.56,915.941C1491.89,915.941 1488.8,914.833 1486.76,912.382C1485.18,910.515 1484.49,908.473 1484.54,905.847L1479.42,905.847C1479.47,909.756 1480.23,912.324 1481.92,914.658C1484.84,918.679 1489.74,920.717 1496.21,920.717C1501.29,920.717 1505.43,919.552 1508.17,917.456C1511.03,915.183 1512.83,911.39 1512.83,907.714C1512.83,902.463 1509.57,898.612 1503.8,897.037L1493.12,894.178C1487.98,892.778 1486.12,891.144 1486.12,887.877C1486.12,883.559 1489.91,880.701 1495.63,880.701C1502.4,880.701 1506.19,883.734 1506.25,889.335L1511.38,889.335Z" style="fill:#727272;fill-rule:nonzero;"/>
            <path d="M1525.55,904.505L1532.49,897.562L1547.48,919.376L1553.9,919.376L1536.4,894.178L1553.73,876.858L1546.73,876.858L1525.55,898.379L1525.55,876.858L1520.13,876.858L1520.13,919.376L1525.55,919.376L1525.55,904.505Z" style="fill:#727272;fill-rule:nonzero;"/>
            <rect x="1559.16" y="876.858" width="5.476" height="42.518" style="fill:#727272;fill-rule:nonzero;"/>
            <path d="M1580.27,901.351L1593.63,901.351C1596.96,901.351 1599.58,900.36 1601.86,898.322C1604.42,895.991 1605.53,893.248 1605.53,889.338C1605.53,881.343 1600.81,876.858 1592.4,876.858L1574.85,876.858L1574.85,919.376L1580.27,919.376L1580.27,901.351ZM1580.27,896.574L1580.27,881.634L1591.59,881.634C1596.78,881.634 1599.87,884.435 1599.87,889.104C1599.87,893.773 1596.78,896.574 1591.59,896.574L1580.27,896.574Z" style="fill:#727272;fill-rule:nonzero;"/>
            <path d="M1668.06,919.376L1678.85,876.858L1672.79,876.858L1664.97,911.39L1655.29,876.858L1649.45,876.858L1640,911.39L1632.01,876.858L1625.95,876.858L1636.85,919.376L1642.8,919.376L1652.31,884.435L1662.11,919.376L1668.06,919.376Z" style="fill:#727272;fill-rule:nonzero;"/>
            <path d="M1704.46,906.601L1708.84,919.376L1714.9,919.376L1699.97,876.858L1692.97,876.858L1677.8,919.376L1683.58,919.376L1688.07,906.601L1704.46,906.601ZM1702.95,902.058L1689.41,902.058L1696.41,882.685L1702.95,902.058Z" style="fill:#727272;fill-rule:nonzero;"/>
            <rect x="1721.56" y="876.858" width="5.476" height="42.518" style="fill:#727272;fill-rule:nonzero;"/>
            <path d="M1751.65,881.634L1765.59,881.634L1765.59,876.858L1732.23,876.858L1732.23,881.634L1746.23,881.634L1746.23,919.376L1751.65,919.376L1751.65,881.634Z" style="fill:#727272;fill-rule:nonzero;"/>
            <rect x="1771.2" y="876.858" width="5.476" height="42.518" style="fill:#727272;fill-rule:nonzero;"/>
            <path d="M1819.26,876.858L1814.13,876.858L1814.13,911.623L1791.9,876.858L1786.02,876.858L1786.02,919.376L1791.14,919.376L1791.14,884.902L1813.14,919.376L1819.26,919.376L1819.26,876.858Z" style="fill:#727272;fill-rule:nonzero;"/>
            <path d="M1864.99,896.924L1847.26,896.924L1847.26,901.701L1860.21,901.701L1860.21,902.868C1860.21,910.455 1854.61,915.941 1846.85,915.941C1842.53,915.941 1838.63,914.365 1836.12,911.622C1833.32,908.587 1831.63,903.51 1831.63,898.264C1831.63,887.82 1837.58,880.934 1846.56,880.934C1853.03,880.934 1857.7,884.26 1858.87,889.746L1864.41,889.746C1862.89,881.109 1856.36,876.158 1846.62,876.158C1841.43,876.158 1837.23,877.497 1833.9,880.235C1828.95,884.319 1826.21,890.913 1826.21,898.555C1826.21,911.622 1834.19,920.717 1845.68,920.717C1851.46,920.717 1856.01,918.562 1860.21,913.957L1861.55,919.611L1864.99,919.611L1864.99,896.924Z" style="fill:#727272;fill-rule:nonzero;"/>
            <path d="M1895.33,876.858L1889.91,876.858L1889.91,919.376L1916.33,919.376L1916.33,914.599L1895.33,914.599L1895.33,876.858Z" style="fill:#727272;fill-rule:nonzero;"/>
            <path d="M1937.97,876.158C1925.78,876.158 1917.5,885.135 1917.5,898.437C1917.5,911.799 1925.72,920.717 1938.03,920.717C1943.22,920.717 1947.77,919.145 1951.22,916.232C1955.82,912.324 1958.56,905.731 1958.56,898.787C1958.56,885.076 1950.46,876.158 1937.97,876.158ZM1937.97,880.934C1947.19,880.934 1953.14,887.877 1953.14,898.671C1953.14,908.94 1947.02,915.941 1938.03,915.941C1928.93,915.941 1922.92,908.94 1922.92,898.437C1922.92,887.935 1928.93,880.934 1937.97,880.934Z" style="fill:#727272;fill-rule:nonzero;"/>
            <path d="M1965.27,919.376L1984.46,919.376C1988.49,919.376 1991.47,918.269 1993.74,915.823C1995.84,913.607 1997,910.572 1997,907.246C1997,902.11 1994.67,899.019 1989.25,896.922C1993.15,895.116 1995.13,892.023 1995.13,887.645C1995.13,884.494 1993.97,881.809 1991.76,879.828C1989.48,877.79 1986.62,876.858 1982.54,876.858L1965.27,876.858L1965.27,919.376ZM1970.69,895.174L1970.69,881.634L1981.2,881.634C1984.23,881.634 1985.92,882.042 1987.38,883.151C1988.9,884.319 1989.72,886.07 1989.72,888.404C1989.72,890.739 1988.9,892.49 1987.38,893.657C1985.92,894.766 1984.23,895.174 1981.2,895.174L1970.69,895.174ZM1970.69,914.599L1970.69,899.951L1983.94,899.951C1988.72,899.951 1991.58,902.693 1991.58,907.304C1991.58,911.856 1988.72,914.599 1983.94,914.599L1970.69,914.599Z" style="fill:#727272;fill-rule:nonzero;"/>
            <path d="M2004.18,919.376L2023.37,919.376C2027.4,919.376 2030.37,918.269 2032.65,915.823C2034.74,913.607 2035.91,910.572 2035.91,907.246C2035.91,902.11 2033.58,899.019 2028.16,896.922C2032.06,895.116 2034.04,892.023 2034.04,887.645C2034.04,884.494 2032.88,881.809 2030.66,879.828C2028.39,877.79 2025.53,876.858 2021.45,876.858L2004.18,876.858L2004.18,919.376ZM2009.6,895.174L2009.6,881.634L2020.11,881.634C2023.14,881.634 2024.83,882.042 2026.29,883.151C2027.81,884.319 2028.62,886.07 2028.62,888.404C2028.62,890.739 2027.81,892.49 2026.29,893.657C2024.83,894.766 2023.14,895.174 2020.11,895.174L2009.6,895.174ZM2009.6,914.599L2009.6,899.951L2022.85,899.951C2027.63,899.951 2030.49,902.693 2030.49,907.304C2030.49,911.856 2027.63,914.599 2022.85,914.599L2009.6,914.599Z" style="fill:#727272;fill-rule:nonzero;"/>
            <path d="M2058.43,902.697L2074.41,876.858L2067.93,876.858L2055.8,897.562L2043.32,876.858L2036.62,876.858L2053.01,902.697L2053.01,919.376L2058.43,919.376L2058.43,902.697Z" style="fill:#727272;fill-rule:nonzero;"/>
        </g>
        <g id="LETTERS">
            <path d="M1231.69,510.307L1235.69,522.557L1248.52,522.557L1227.52,461.818L1213.69,461.818L1192.1,522.557L1204.85,522.557L1208.94,510.307L1231.69,510.307ZM1228.27,499.901L1212.44,499.901L1220.35,476.144L1228.27,499.901Z" style="fill:#727272;fill-rule:nonzero;"/>
            <path d="M1338.65,679.005L1326.16,679.005L1326.16,739.745L1367.73,739.745L1367.73,729.339L1338.65,729.339L1338.65,679.005Z" style="fill:#727272;fill-rule:nonzero;"/>
            <path d="M1840.82,715.661L1855.15,715.661C1860.57,715.661 1862.91,717.829 1862.91,722.832L1862.91,725.333C1862.83,726.917 1862.83,728.417 1862.83,729.335C1862.83,735.087 1863.16,736.838 1864.66,739.745L1878.07,739.745L1878.07,737.505C1876.15,736.421 1875.4,735.171 1875.4,732.503C1875.07,714.579 1874.73,713.747 1866.99,710.417C1873.82,707.753 1877.23,702.837 1877.23,695.415C1877.23,690.579 1875.57,686.165 1872.65,683.168C1869.9,680.337 1866.07,679.005 1860.91,679.005L1828.33,679.005L1828.33,739.745L1840.82,739.745L1840.82,715.661ZM1840.82,705.255L1840.82,689.411L1855.9,689.411C1859.49,689.411 1860.91,689.745 1862.49,690.996C1863.99,692.247 1864.74,694.331 1864.74,697.167C1864.74,700.085 1863.99,702.42 1862.49,703.671C1861.07,704.838 1859.49,705.255 1855.9,705.255L1840.82,705.255Z" style="fill:#727272;fill-rule:nonzero;"/>
            <path d="M1954.53,522.557L1978.27,522.557C1987.52,522.557 1993.36,520.393 1997.52,515.481C2002.27,509.817 2004.85,501.648 2004.85,492.146C2004.85,482.727 2002.27,474.558 1997.52,468.811C1993.36,463.899 1987.61,461.818 1978.27,461.818L1954.53,461.818L1954.53,522.557ZM1967.02,512.151L1967.02,472.224L1978.27,472.224C1987.69,472.224 1992.36,478.809 1992.36,492.229C1992.36,505.566 1987.69,512.151 1978.27,512.151L1967.02,512.151Z" style="fill:#727272;fill-rule:nonzero;"/>
            <path d="M1753.02,481.935C1752.6,476.684 1751.52,473.35 1748.93,469.933C1744.27,463.773 1736.77,460.359 1727.68,460.359C1710.52,460.359 1699.86,472.599 1699.86,492.271C1699.86,511.859 1710.43,524.016 1727.35,524.016C1742.52,524.016 1752.52,515.274 1753.27,501.356L1741.1,501.356C1740.27,509.108 1735.43,513.526 1727.68,513.526C1718.02,513.526 1712.35,505.691 1712.35,492.438C1712.35,479.018 1718.27,471.016 1728.1,471.016C1735.35,471.016 1739.43,474.517 1741.1,481.935L1753.02,481.935Z" style="fill:#727272;fill-rule:nonzero;"/>
            <path d="M1449.11,522.557L1476.44,522.557C1483.44,522.557 1488.11,521.225 1491.77,518.145C1495.43,515.065 1497.77,509.983 1497.77,505.063C1497.77,499.059 1494.6,494.309 1487.69,490.313C1493.68,486.484 1496.02,482.982 1496.02,477.811C1496.02,473.558 1493.93,469.227 1490.52,466.23C1486.94,463.15 1482.69,461.818 1476.19,461.818L1449.11,461.818L1449.11,522.557ZM1461.6,472.224L1475.19,472.224C1481.03,472.224 1484.03,474.559 1484.03,479.062C1484.03,483.649 1481.03,485.984 1475.19,485.984L1461.6,485.984L1461.6,472.224ZM1461.6,496.391L1476.52,496.391C1482.61,496.391 1485.78,499.059 1485.78,504.313C1485.78,509.483 1482.61,512.151 1476.52,512.151L1461.6,512.151L1461.6,496.391Z" style="fill:#727272;fill-rule:nonzero;"/>
        </g>
    </g>
</svg>
