<?xml version="1.0" encoding="UTF-8" standalone="no"?>
<!DOCTYPE svg PUBLIC "-//W3C//DTD SVG 1.1//EN" "http://www.w3.org/Graphics/SVG/1.1/DTD/svg11.dtd">
<svg width="100%" height="100%" viewBox="0 0 3200 707" version="1.1" xmlns="http://www.w3.org/2000/svg" xmlns:xlink="http://www.w3.org/1999/xlink" xml:space="preserve" xmlns:serif="http://www.serif.com/" style="fill-rule:evenodd;clip-rule:evenodd;stroke-linejoin:round;stroke-miterlimit:2;">
    <rect id="MUSIC_SELECT_NUM" x="-0" y="-0" width="3200" height="706.25" style="fill:none;"/>
    <clipPath id="_clip1">
        <rect x="-0" y="-0" width="3200" height="706.25"/>
    </clipPath>
    <g clip-path="url(#_clip1)">
        <g id="PAD">
            <g id="_1" serif:id="1">
                <rect x="1418.75" y="459.375" width="100" height="103.125" style="fill:#fff;"/>
                <path d="M1528.12,459.375L1528.12,562.5C1528.12,567.678 1523.93,571.875 1518.75,571.875L1418.75,571.875C1413.57,571.875 1409.38,567.678 1409.38,562.5L1409.38,459.375C1409.38,454.197 1413.57,450 1418.75,450L1518.75,450C1523.93,450 1528.12,454.197 1528.12,459.375ZM1518.75,459.375L1418.75,459.375L1418.75,562.5L1518.75,562.5L1518.75,459.375Z" style="fill:#727272;"/>
                <rect x="1418.75" y="553.125" width="100" height="9.375" style="fill:#727272;"/>
            </g>
            <g id="_2" serif:id="2">
                <rect x="1550" y="459.375" width="100" height="103.125" style="fill:#fff;"/>
                <path d="M1659.38,459.375L1659.38,562.5C1659.38,567.678 1655.18,571.875 1650,571.875L1550,571.875C1544.82,571.875 1540.62,567.678 1540.62,562.5L1540.62,459.375C1540.62,454.197 1544.82,450 1550,450L1650,450C1655.18,450 1659.38,454.197 1659.38,459.375ZM1650,459.375L1550,459.375L1550,562.5L1650,562.5L1650,459.375Z" style="fill:#727272;"/>
                <rect x="1550" y="553.125" width="100" height="9.375" style="fill:#727272;"/>
            </g>
            <g id="_3" serif:id="3">
                <rect x="1681.25" y="459.375" width="100" height="103.125" style="fill:#fff;"/>
                <path d="M1790.62,459.375L1790.62,562.5C1790.62,567.678 1786.43,571.875 1781.25,571.875L1681.25,571.875C1676.07,571.875 1671.88,567.678 1671.88,562.5L1671.88,459.375C1671.88,454.197 1676.07,450 1681.25,450L1781.25,450C1786.43,450 1790.62,454.197 1790.62,459.375ZM1781.25,459.375L1681.25,459.375L1681.25,562.5L1781.25,562.5L1781.25,459.375Z" style="fill:#727272;"/>
                <rect x="1681.25" y="553.125" width="100" height="9.375" style="fill:#727272;"/>
            </g>
            <g id="_4" serif:id="4">
                <rect x="1418.75" y="325" width="100" height="103.125" style="fill:#fff;"/>
                <path d="M1528.12,325L1528.12,428.125C1528.12,433.303 1523.93,437.5 1518.75,437.5L1418.75,437.5C1413.57,437.5 1409.38,433.303 1409.38,428.125L1409.38,325C1409.38,319.822 1413.57,315.625 1418.75,315.625L1518.75,315.625C1523.93,315.625 1528.12,319.822 1528.12,325ZM1518.75,325L1418.75,325L1418.75,428.125L1518.75,428.125L1518.75,325Z" style="fill:#727272;"/>
                <rect x="1418.75" y="418.75" width="100" height="9.375" style="fill:#727272;"/>
            </g>
            <g id="_5" serif:id="5">
                <rect x="1550" y="325" width="100" height="103.125" style="fill:#fff;"/>
                <path d="M1659.38,325L1659.38,428.125C1659.38,433.303 1655.18,437.5 1650,437.5L1550,437.5C1544.82,437.5 1540.62,433.303 1540.62,428.125L1540.62,325C1540.62,319.822 1544.82,315.625 1550,315.625L1650,315.625C1655.18,315.625 1659.38,319.822 1659.38,325ZM1650,325L1550,325L1550,428.125L1650,428.125L1650,325Z" style="fill:#727272;"/>
                <rect x="1550" y="418.75" width="100" height="9.375" style="fill:#727272;"/>
            </g>
            <g id="_6" serif:id="6">
                <rect x="1681.25" y="325" width="100" height="103.125" style="fill:#fff;"/>
                <path d="M1790.62,325L1790.62,428.125C1790.62,433.303 1786.43,437.5 1781.25,437.5L1681.25,437.5C1676.07,437.5 1671.88,433.303 1671.88,428.125L1671.88,325C1671.88,319.822 1676.07,315.625 1681.25,315.625L1781.25,315.625C1786.43,315.625 1790.62,319.822 1790.62,325ZM1781.25,325L1681.25,325L1681.25,428.125L1781.25,428.125L1781.25,325Z" style="fill:#727272;"/>
                <rect x="1681.25" y="418.75" width="100" height="9.375" style="fill:#727272;"/>
            </g>
            <g id="_7" serif:id="7">
                <rect x="1418.75" y="190.625" width="100" height="103.125" style="fill:#fff;"/>
                <path d="M1528.12,190.625L1528.12,293.75C1528.12,298.928 1523.93,303.125 1518.75,303.125L1418.75,303.125C1413.57,303.125 1409.38,298.928 1409.38,293.75L1409.38,190.625C1409.38,185.447 1413.57,181.25 1418.75,181.25L1518.75,181.25C1523.93,181.25 1528.12,185.447 1528.12,190.625ZM1518.75,190.625L1418.75,190.625L1418.75,293.75L1518.75,293.75L1518.75,190.625Z" style="fill:#727272;"/>
                <rect x="1418.75" y="284.375" width="100" height="9.375" style="fill:#727272;"/>
            </g>
            <g id="_8" serif:id="8">
                <rect x="1550" y="190.625" width="100" height="103.125" style="fill:#fff;"/>
                <path d="M1659.38,190.625L1659.38,293.75C1659.38,298.928 1655.18,303.125 1650,303.125L1550,303.125C1544.82,303.125 1540.62,298.928 1540.62,293.75L1540.62,190.625C1540.62,185.447 1544.82,181.25 1550,181.25L1650,181.25C1655.18,181.25 1659.38,185.447 1659.38,190.625ZM1650,190.625L1550,190.625L1550,293.75L1650,293.75L1650,190.625Z" style="fill:#727272;"/>
                <rect x="1550" y="284.375" width="100" height="9.375" style="fill:#727272;"/>
            </g>
            <g id="_9" serif:id="9">
                <rect x="1681.25" y="190.625" width="100" height="103.125" style="fill:#fff;"/>
                <path d="M1790.62,190.625L1790.62,293.75C1790.62,298.928 1786.43,303.125 1781.25,303.125L1681.25,303.125C1676.07,303.125 1671.88,298.928 1671.88,293.75L1671.88,190.625C1671.88,185.447 1676.07,181.25 1681.25,181.25L1781.25,181.25C1786.43,181.25 1790.62,185.447 1790.62,190.625ZM1781.25,190.625L1681.25,190.625L1681.25,293.75L1781.25,293.75L1781.25,190.625Z" style="fill:#727272;"/>
                <rect x="1681.25" y="284.375" width="100" height="9.375" style="fill:#727272;"/>
            </g>
            <g id="_0" serif:id="0">
                <rect x="1418.75" y="593.75" width="100" height="103.125" style="fill:#fff;"/>
                <path d="M1528.12,593.75L1528.12,696.875C1528.12,702.053 1523.93,706.25 1518.75,706.25L1418.75,706.25C1413.57,706.25 1409.38,702.053 1409.38,696.875L1409.38,593.75C1409.38,588.572 1413.57,584.375 1418.75,584.375L1518.75,584.375C1523.93,584.375 1528.12,588.572 1528.12,593.75ZM1518.75,593.75L1418.75,593.75L1418.75,696.875L1518.75,696.875L1518.75,593.75Z" style="fill:#727272;"/>
                <rect x="1418.75" y="687.5" width="100" height="9.375" style="fill:#727272;"/>
            </g>
            <g id="_00" serif:id="00">
                <rect x="1550" y="593.75" width="100" height="103.125" style="fill:#fff;"/>
                <path d="M1659.38,593.75L1659.38,696.875C1659.38,702.053 1655.18,706.25 1650,706.25L1550,706.25C1544.82,706.25 1540.62,702.053 1540.62,696.875L1540.62,593.75C1540.62,588.572 1544.82,584.375 1550,584.375L1650,584.375C1655.18,584.375 1659.38,588.572 1659.38,593.75ZM1650,593.75L1550,593.75L1550,696.875L1650,696.875L1650,593.75Z" style="fill:#727272;"/>
                <rect x="1550" y="687.5" width="100" height="9.375" style="fill:#727272;"/>
            </g>
            <g id="EMPTY">
                <rect x="1681.25" y="593.75" width="100" height="103.125" style="fill:#fff;"/>
                <path d="M1790.62,593.75L1790.62,696.875C1790.62,702.053 1786.43,706.25 1781.25,706.25L1681.25,706.25C1676.07,706.25 1671.88,702.053 1671.88,696.875L1671.88,593.75C1671.88,588.572 1676.07,584.375 1681.25,584.375L1781.25,584.375C1786.43,584.375 1790.62,588.572 1790.62,593.75ZM1781.25,593.75L1681.25,593.75L1681.25,696.875L1781.25,696.875L1781.25,593.75Z" style="fill:#727272;"/>
                <rect x="1681.25" y="687.5" width="100" height="9.375" style="fill:#727272;"/>
            </g>
        </g>
        <path id="_0_ANCHOR" serif:id="0_ANCHOR" d="M1401.3,640.625C1403.71,635.109 1409.22,631.25 1415.62,631.25C1424.25,631.25 1431.25,638.251 1431.25,646.875C1431.25,655.499 1424.25,662.5 1415.62,662.5C1409.22,662.5 1403.71,658.641 1401.3,653.125L1325,653.125L1325,640.625L1401.3,640.625Z" style="fill:#ff8fbc;"/>
        <path d="M1396.11,631.251C1400.7,625.535 1407.74,621.875 1415.62,621.875C1429.42,621.875 1440.62,633.077 1440.62,646.875C1440.62,660.673 1429.42,671.875 1415.62,671.875C1407.74,671.875 1400.69,668.214 1396.11,662.5L1325,662.5C1319.82,662.5 1315.62,658.303 1315.62,653.125L1315.62,640.625C1315.62,635.447 1319.82,631.25 1325,631.25L1396.11,631.251ZM1401.3,640.625L1325,640.625L1325,653.125L1401.3,653.125C1403.71,658.641 1409.22,662.5 1415.62,662.5C1424.25,662.5 1431.25,655.499 1431.25,646.875C1431.25,638.251 1424.25,631.25 1415.62,631.25C1409.22,631.25 1403.71,635.109 1401.3,640.625Z" style="fill:#fff;"/>
        <g id="_01" serif:id="0">
            <rect x="565.625" y="603.125" width="759.375" height="87.5" style="fill:#fff;"/>
            <path d="M1334.38,700L459.375,700L459.375,593.75L1334.38,593.75L1334.38,700ZM565.625,690.625C802.268,690.625 1325,690.625 1325,690.625L1325,603.125C1274.99,603.125 780.725,603.125 565.625,603.125L565.625,690.625Z" style="fill:#ff8fbc;"/>
            <path d="M512.5,616.464C506.163,616.464 500.747,619.127 497.167,624.038C493.754,628.62 492.172,636.122 492.172,647.625C492.172,658.128 493.504,665.463 496.335,669.962C499.832,675.623 505.579,678.703 512.5,678.703C518.92,678.703 524.169,676.122 527.833,671.211C531.163,666.63 532.828,659.045 532.828,647.958C532.828,637.122 531.496,629.787 528.665,625.204C525.168,619.543 519.421,616.464 512.5,616.464ZM512.5,625.87C515.502,625.87 517.92,627.537 519.337,630.621C520.505,633.122 521.172,639.54 521.172,647.708C521.172,654.377 520.588,660.878 519.671,663.296C518.337,666.796 515.835,668.714 512.5,668.714C509.415,668.714 507.08,667.13 505.663,664.129C504.495,661.628 503.828,655.46 503.828,647.542C503.828,640.54 504.412,633.872 505.329,631.454C506.58,627.87 509.165,625.87 512.5,625.87Z" style="fill:#fff;fill-rule:nonzero;"/>
            <path d="M676.538,630.071L690.48,630.071L690.48,625.295L657.12,625.295L657.12,630.071L671.12,630.071L671.12,667.813L676.538,667.813L676.538,630.071Z" style="fill:#727272;fill-rule:nonzero;"/>
            <path d="M711.717,624.595C699.522,624.595 691.245,633.572 691.245,646.875C691.245,660.236 699.464,669.155 711.775,669.155C716.968,669.155 721.519,667.582 724.962,664.67C729.567,660.761 732.305,654.168 732.305,647.225C732.305,633.514 724.203,624.595 711.717,624.595ZM711.717,629.371C720.936,629.371 726.887,636.314 726.887,647.108C726.887,657.377 720.761,664.379 711.775,664.379C702.673,664.379 696.663,657.377 696.663,646.875C696.663,636.373 702.673,629.371 711.717,629.371Z" style="fill:#727272;fill-rule:nonzero;"/>
            <path d="M775.763,645.362L758.03,645.362L758.03,650.138L770.98,650.138L770.98,651.305C770.98,658.892 765.38,664.379 757.621,664.379C753.305,664.379 749.396,662.803 746.888,660.06C744.088,657.025 742.396,651.947 742.396,646.702C742.396,636.258 748.346,629.371 757.33,629.371C763.805,629.371 768.471,632.698 769.638,638.184L775.18,638.184C773.663,629.546 767.13,624.595 757.388,624.595C752.196,624.595 747.996,625.935 744.671,628.672C739.717,632.756 736.979,639.351 736.979,646.993C736.979,660.06 744.963,669.155 756.455,669.155C762.23,669.155 766.78,667 770.98,662.394L772.321,668.048L775.763,668.048L775.763,645.362Z" style="fill:#727272;fill-rule:nonzero;"/>
            <path d="M821.146,645.362L803.413,645.362L803.413,650.138L816.363,650.138L816.363,651.305C816.363,658.892 810.763,664.379 803.005,664.379C798.688,664.379 794.78,662.803 792.271,660.06C789.471,657.025 787.78,651.947 787.78,646.702C787.78,636.258 793.73,629.371 802.713,629.371C809.188,629.371 813.855,632.698 815.021,638.184L820.563,638.184C819.046,629.546 812.513,624.595 802.771,624.595C797.58,624.595 793.38,625.935 790.055,628.672C785.1,632.756 782.362,639.351 782.362,646.993C782.362,660.06 790.346,669.155 801.838,669.155C807.613,669.155 812.163,667 816.363,662.394L817.705,668.048L821.146,668.048L821.146,645.362Z" style="fill:#727272;fill-rule:nonzero;"/>
            <path d="M835.263,625.295L829.845,625.295L829.845,667.813L856.263,667.813L856.263,663.037L835.263,663.037L835.263,625.295Z" style="fill:#727272;fill-rule:nonzero;"/>
            <path d="M868.28,648.446L891.438,648.446L891.438,643.67L868.28,643.67L868.28,630.071L892.313,630.071L892.313,625.295L862.862,625.295L862.862,667.813L893.363,667.813L893.363,663.037L868.28,663.037L868.28,648.446Z" style="fill:#727272;fill-rule:nonzero;"/>
            <path d="M923.405,648.446L943.705,648.446L943.705,643.67L923.405,643.67L923.405,630.071L946.505,630.071L946.505,625.295L917.987,625.295L917.987,667.813L923.405,667.813L923.405,648.446Z" style="fill:#727272;fill-rule:nonzero;"/>
            <path d="M971.942,655.038L976.317,667.813L982.383,667.813L967.45,625.295L960.45,625.295L945.283,667.813L951.058,667.813L955.55,655.038L971.942,655.038ZM970.425,650.495L956.892,650.495L963.892,631.123L970.425,650.495Z" style="fill:#727272;fill-rule:nonzero;"/>
            <path d="M1001.93,667.813L1016.68,625.295L1010.91,625.295L999.125,661.286L986.642,625.295L980.808,625.295L996.092,667.813L1001.93,667.813Z" style="fill:#727272;fill-rule:nonzero;"/>
            <path d="M1038.5,624.595C1026.31,624.595 1018.03,633.572 1018.03,646.875C1018.03,660.236 1026.25,669.155 1038.56,669.155C1043.75,669.155 1048.3,667.582 1051.75,664.67C1056.35,660.761 1059.09,654.168 1059.09,647.225C1059.09,633.514 1050.99,624.595 1038.5,624.595ZM1038.5,629.371C1047.72,629.371 1053.67,636.314 1053.67,647.108C1053.67,657.377 1047.54,664.379 1038.56,664.379C1029.46,664.379 1023.45,657.377 1023.45,646.875C1023.45,636.373 1029.46,629.371 1038.5,629.371Z" style="fill:#727272;fill-rule:nonzero;"/>
            <path d="M1093.39,625.295L1093.39,655.16C1093.39,660.878 1089.25,664.379 1082.42,664.379C1079.27,664.379 1076.71,663.62 1074.66,662.162C1072.56,660.528 1071.57,658.369 1071.57,655.16L1071.57,625.295L1066.15,625.295L1066.15,655.16C1066.15,663.795 1072.33,669.155 1082.42,669.155C1092.4,669.155 1098.81,663.679 1098.81,655.16L1098.81,625.295L1093.39,625.295Z" style="fill:#727272;fill-rule:nonzero;"/>
            <path d="M1114.15,649.496L1128.16,649.496C1133,649.496 1135.16,651.831 1135.16,657.083L1135.1,660.876C1135.1,663.502 1135.57,666.07 1136.33,667.813L1142.91,667.813L1142.91,666.479C1140.87,665.078 1140.46,663.561 1140.35,657.9C1140.29,650.897 1139.18,648.797 1134.58,646.817C1139.36,644.428 1141.28,641.569 1141.28,636.666C1141.28,629.314 1136.74,625.295 1128.33,625.295L1108.74,625.295L1108.74,667.813L1114.15,667.813L1114.15,649.496ZM1114.15,644.72L1114.15,630.071L1127.28,630.071C1130.32,630.071 1132.07,630.538 1133.41,631.705C1134.87,632.931 1135.63,634.857 1135.63,637.367C1135.63,642.444 1133.06,644.72 1127.28,644.72L1114.15,644.72Z" style="fill:#727272;fill-rule:nonzero;"/>
            <rect x="1150.27" y="625.295" width="5.476" height="42.518" style="fill:#727272;fill-rule:nonzero;"/>
            <path d="M1180.36,630.071L1194.31,630.071L1194.31,625.295L1160.94,625.295L1160.94,630.071L1174.94,630.071L1174.94,667.813L1180.36,667.813L1180.36,630.071Z" style="fill:#727272;fill-rule:nonzero;"/>
            <path d="M1205.04,648.446L1228.2,648.446L1228.2,643.67L1205.04,643.67L1205.04,630.071L1229.07,630.071L1229.07,625.295L1199.62,625.295L1199.62,667.813L1230.12,667.813L1230.12,663.037L1205.04,663.037L1205.04,648.446Z" style="fill:#727272;fill-rule:nonzero;"/>
        </g>
        <path id="_1_ANCHOR" serif:id="1_ANCHOR" d="M1401.3,506.25C1403.71,500.734 1409.22,496.875 1415.62,496.875C1424.25,496.875 1431.25,503.876 1431.25,512.5C1431.25,521.124 1424.25,528.125 1415.62,528.125C1409.22,528.125 1403.71,524.266 1401.3,518.75L1325,518.75L1325,506.25L1401.3,506.25Z" style="fill:#ff8fbc;"/>
        <path d="M1396.11,496.876C1400.7,491.16 1407.74,487.5 1415.62,487.5C1429.42,487.5 1440.62,498.702 1440.62,512.5C1440.62,526.298 1429.42,537.5 1415.62,537.5C1407.74,537.5 1400.69,533.839 1396.11,528.125L1325,528.125C1319.82,528.125 1315.62,523.928 1315.62,518.75L1315.62,506.25C1315.62,501.072 1319.82,496.875 1325,496.875L1396.11,496.876ZM1401.3,506.25L1325,506.25L1325,518.75L1401.3,518.75C1403.71,524.266 1409.22,528.125 1415.62,528.125C1424.25,528.125 1431.25,521.124 1431.25,512.5C1431.25,503.876 1424.25,496.875 1415.62,496.875C1409.22,496.875 1403.71,500.734 1401.3,506.25Z" style="fill:#fff;"/>
        <g id="_11" serif:id="1">
            <rect x="565.625" y="468.75" width="759.375" height="87.5" style="fill:#fff;"/>
            <path d="M1334.38,565.625L459.375,565.625L459.375,459.375L1334.38,459.375L1334.38,565.625ZM565.625,556.25C802.268,556.25 1325,556.25 1325,556.25L1325,468.75C1274.99,468.75 780.725,468.75 565.625,468.75L565.625,556.25Z" style="fill:#ff8fbc;"/>
            <path d="M509.589,501.672L509.589,542.411L521.245,542.411L521.245,483.339L513.502,483.339C511.67,490.339 505.589,493.922 495.422,493.922L495.422,501.672L509.589,501.672Z" style="fill:#fff;fill-rule:nonzero;"/>
            <path d="M662.399,533.438L678.787,533.438C689.524,533.438 696.109,525.395 696.109,512.15C696.109,498.964 689.582,490.92 678.787,490.92L662.399,490.92L662.399,533.438ZM667.817,528.662L667.817,495.696L677.854,495.696C686.256,495.696 690.691,501.356 690.691,512.208C690.691,523.002 686.256,528.662 677.854,528.662L667.817,528.662Z" style="fill:#727272;fill-rule:nonzero;"/>
            <path d="M709.292,514.071L732.451,514.071L732.451,509.295L709.292,509.295L709.292,495.696L733.326,495.696L733.326,490.92L703.874,490.92L703.874,533.438L734.376,533.438L734.376,528.662L709.292,528.662L709.292,514.071Z" style="fill:#727272;fill-rule:nonzero;"/>
            <path d="M774.334,504.098C772.642,494.763 767.276,490.22 757.942,490.22C752.226,490.22 747.617,492.026 744.467,495.521C740.622,499.722 738.524,505.79 738.524,512.675C738.524,519.676 740.68,525.686 744.642,529.829C747.967,533.207 752.167,534.78 757.709,534.78C768.092,534.78 773.926,529.187 775.209,517.926L769.609,517.926C769.142,520.843 768.559,522.827 767.684,524.519C765.934,528.02 762.317,530.004 757.767,530.004C749.309,530.004 743.942,523.236 743.942,512.617C743.942,501.706 749.017,494.996 757.301,494.996C760.742,494.996 763.951,495.988 765.701,497.68C767.276,499.139 768.151,500.889 768.792,504.098L774.334,504.098Z" style="fill:#727272;fill-rule:nonzero;"/>
            <path d="M788.684,515.121L802.689,515.121C807.532,515.121 809.691,517.456 809.691,522.708L809.633,526.501C809.633,529.127 810.099,531.695 810.857,533.438L817.442,533.438L817.442,532.104C815.401,530.703 814.993,529.186 814.877,523.525C814.818,516.522 813.712,514.422 809.107,512.442C813.886,510.053 815.809,507.194 815.809,502.291C815.809,494.939 811.265,490.92 802.864,490.92L783.266,490.92L783.266,533.438L788.684,533.438L788.684,515.121ZM788.684,510.345L788.684,495.696L801.813,495.696C804.848,495.696 806.598,496.163 807.94,497.33C809.399,498.556 810.158,500.482 810.158,502.992C810.158,508.069 807.59,510.345 801.813,510.345L788.684,510.345Z" style="fill:#727272;fill-rule:nonzero;"/>
            <path d="M829.926,514.071L853.084,514.071L853.084,509.295L829.926,509.295L829.926,495.696L853.959,495.696L853.959,490.92L824.508,490.92L824.508,533.438L855.009,533.438L855.009,528.662L829.926,528.662L829.926,514.071Z" style="fill:#727272;fill-rule:nonzero;"/>
            <path d="M885.871,520.663L890.246,533.438L896.313,533.438L881.379,490.92L874.379,490.92L859.213,533.438L864.988,533.438L869.479,520.663L885.871,520.663ZM884.354,516.12L870.821,516.12L877.821,496.748L884.354,516.12Z" style="fill:#727272;fill-rule:nonzero;"/>
            <path d="M930.552,503.398C930.552,500.481 930.378,499.664 929.446,497.68C927.115,492.783 922.156,490.22 914.979,490.22C905.642,490.22 899.874,494.996 899.874,502.698C899.874,507.891 902.612,511.158 908.21,512.617L918.772,515.417C924.199,516.817 926.591,518.976 926.591,522.302C926.591,524.577 925.366,526.911 923.557,528.195C921.864,529.42 919.18,530.004 915.737,530.004C911.069,530.004 907.976,528.895 905.934,526.445C904.36,524.577 903.661,522.535 903.719,519.91L898.591,519.91C898.649,523.819 899.408,526.386 901.098,528.72C904.011,532.741 908.91,534.78 915.387,534.78C920.464,534.78 924.607,533.615 927.348,531.518C930.203,529.245 932.009,525.453 932.009,521.777C932.009,516.526 928.747,512.675 922.973,511.1L912.295,508.241C907.159,506.84 905.292,505.207 905.292,501.939C905.292,497.622 909.085,494.763 914.804,494.763C921.573,494.763 925.366,497.797 925.424,503.398L930.552,503.398Z" style="fill:#727272;fill-rule:nonzero;"/>
            <path d="M945.367,514.071L968.526,514.071L968.526,509.295L945.367,509.295L945.367,495.696L969.401,495.696L969.401,490.92L939.949,490.92L939.949,533.438L970.451,533.438L970.451,528.662L945.367,528.662L945.367,514.071Z" style="fill:#727272;fill-rule:nonzero;"/>
            <path d="M1012.69,533.438L1027.45,490.92L1021.67,490.92L1009.89,526.911L997.404,490.92L991.571,490.92L1006.85,533.438L1012.69,533.438Z" style="fill:#727272;fill-rule:nonzero;"/>
            <path d="M1049.26,490.22C1037.07,490.22 1028.79,499.197 1028.79,512.5C1028.79,525.861 1037.01,534.78 1049.32,534.78C1054.51,534.78 1059.07,533.207 1062.51,530.295C1067.11,526.386 1069.85,519.793 1069.85,512.85C1069.85,499.139 1061.75,490.22 1049.26,490.22ZM1049.26,494.996C1058.48,494.996 1064.43,501.939 1064.43,512.733C1064.43,523.002 1058.31,530.004 1049.32,530.004C1040.22,530.004 1034.21,523.002 1034.21,512.5C1034.21,501.998 1040.22,494.996 1049.26,494.996Z" style="fill:#727272;fill-rule:nonzero;"/>
            <path d="M1082.04,490.92L1076.62,490.92L1076.62,533.438L1103.04,533.438L1103.04,528.662L1082.04,528.662L1082.04,490.92Z" style="fill:#727272;fill-rule:nonzero;"/>
            <path d="M1134.55,490.92L1134.55,520.785C1134.55,526.503 1130.41,530.004 1123.58,530.004C1120.43,530.004 1117.86,529.245 1115.82,527.787C1113.72,526.153 1112.73,523.994 1112.73,520.785L1112.73,490.92L1107.31,490.92L1107.31,520.785C1107.31,529.42 1113.48,534.78 1123.58,534.78C1133.56,534.78 1139.97,529.304 1139.97,520.785L1139.97,490.92L1134.55,490.92Z" style="fill:#727272;fill-rule:nonzero;"/>
            <path d="M1171.76,533.438L1183.72,497.797L1183.72,533.438L1188.85,533.438L1188.85,490.92L1181.33,490.92L1168.96,527.961L1156.36,490.92L1148.84,490.92L1148.84,533.438L1153.97,533.438L1153.97,497.797L1166.05,533.438L1171.76,533.438Z" style="fill:#727272;fill-rule:nonzero;"/>
            <path d="M1203.73,514.071L1226.88,514.071L1226.88,509.295L1203.73,509.295L1203.73,495.696L1227.76,495.696L1227.76,490.92L1198.31,490.92L1198.31,533.438L1228.81,533.438L1228.81,528.662L1203.73,528.662L1203.73,514.071Z" style="fill:#727272;fill-rule:nonzero;"/>
        </g>
        <path id="_7_ANCHOR" serif:id="7_ANCHOR" d="M1401.3,237.5C1403.71,231.984 1409.22,228.125 1415.62,228.125C1424.25,228.125 1431.25,235.126 1431.25,243.75C1431.25,252.374 1424.25,259.375 1415.62,259.375C1409.22,259.375 1403.71,255.516 1401.3,250L1325,250L1325,237.5L1401.3,237.5Z" style="fill:#ff8fbc;"/>
        <path d="M1396.11,228.126C1400.7,222.41 1407.74,218.75 1415.62,218.75C1429.42,218.75 1440.62,229.952 1440.62,243.75C1440.62,257.548 1429.42,268.75 1415.62,268.75C1407.74,268.75 1400.69,265.089 1396.11,259.375L1325,259.375C1319.82,259.375 1315.62,255.178 1315.62,250L1315.62,237.5C1315.62,232.322 1319.82,228.125 1325,228.125L1396.11,228.126ZM1401.3,237.5L1325,237.5L1325,250L1401.3,250C1403.71,255.516 1409.22,259.375 1415.62,259.375C1424.25,259.375 1431.25,252.374 1431.25,243.75C1431.25,235.126 1424.25,228.125 1415.62,228.125C1409.22,228.125 1403.71,231.984 1401.3,237.5Z" style="fill:#fff;"/>
        <g id="_71" serif:id="7">
            <rect x="565.625" y="200" width="759.375" height="87.5" style="fill:#fff;"/>
            <path d="M1334.38,296.875L459.375,296.875L459.375,190.625L1334.38,190.625L1334.38,296.875ZM565.625,287.5C802.268,287.5 1325,287.5 1325,287.5L1325,200C1274.99,200 780.725,200 565.625,200L565.625,287.5Z" style="fill:#ff8fbc;"/>
            <path d="M533.75,214.589L492.167,214.589L492.167,224.995L521.583,224.995C518,228.829 510.917,239.581 508.583,244.749C504.5,253.334 502.417,261.086 500.833,273.661L512.583,273.661C513.667,255.001 519.75,240.665 533.75,223.746L533.75,214.589Z" style="fill:#fff;fill-rule:nonzero;"/>
            <rect x="673.22" y="222.17" width="5.476" height="42.518" style="fill:#727272;fill-rule:nonzero;"/>
            <path d="M721.28,222.17L716.154,222.17L716.154,256.936L693.922,222.17L688.037,222.17L688.037,264.688L693.163,264.688L693.163,230.214L715.162,264.688L721.28,264.688L721.28,222.17Z" style="fill:#727272;fill-rule:nonzero;"/>
            <path d="M764.155,235.348C762.463,226.013 757.096,221.47 747.763,221.47C742.046,221.47 737.438,223.276 734.288,226.771C730.442,230.972 728.345,237.04 728.345,243.925C728.345,250.926 730.501,256.936 734.463,261.079C737.788,264.457 741.988,266.03 747.53,266.03C757.913,266.03 763.746,260.437 765.03,249.176L759.43,249.176C758.963,252.093 758.38,254.077 757.505,255.769C755.755,259.27 752.138,261.254 747.588,261.254C739.13,261.254 733.763,254.486 733.763,243.867C733.763,232.956 738.838,226.246 747.121,226.246C750.563,226.246 753.771,227.238 755.521,228.93C757.096,230.389 757.971,232.139 758.613,235.348L764.155,235.348Z" style="fill:#727272;fill-rule:nonzero;"/>
            <path d="M778.505,246.371L792.509,246.371C797.353,246.371 799.512,248.706 799.512,253.958L799.453,257.751C799.453,260.377 799.92,262.945 800.678,264.688L807.263,264.688L807.263,263.354C805.222,261.953 804.814,260.436 804.698,254.775C804.639,247.772 803.532,245.672 798.928,243.692C803.707,241.303 805.63,238.444 805.63,233.541C805.63,226.189 801.086,222.17 792.684,222.17L773.087,222.17L773.087,264.688L778.505,264.688L778.505,246.371ZM778.505,241.595L778.505,226.946L791.634,226.946C794.668,226.946 796.419,227.413 797.761,228.58C799.22,229.806 799.979,231.732 799.979,234.242C799.979,239.319 797.411,241.595 791.634,241.595L778.505,241.595Z" style="fill:#727272;fill-rule:nonzero;"/>
            <path d="M819.746,245.321L842.905,245.321L842.905,240.545L819.746,240.545L819.746,226.946L843.78,226.946L843.78,222.17L814.329,222.17L814.329,264.688L844.83,264.688L844.83,259.912L819.746,259.912L819.746,245.321Z" style="fill:#727272;fill-rule:nonzero;"/>
            <path d="M875.692,251.913L880.067,264.688L886.133,264.688L871.2,222.17L864.2,222.17L849.033,264.688L854.808,264.688L859.3,251.913L875.692,251.913ZM874.175,247.37L860.642,247.37L867.642,227.998L874.175,247.37Z" style="fill:#727272;fill-rule:nonzero;"/>
            <path d="M920.373,234.648C920.373,231.731 920.199,230.914 919.266,228.93C916.936,224.033 911.977,221.47 904.8,221.47C895.463,221.47 889.695,226.246 889.695,233.948C889.695,239.141 892.433,242.408 898.031,243.867L908.593,246.667C914.019,248.067 916.412,250.226 916.412,253.552C916.412,255.827 915.186,258.161 913.377,259.445C911.685,260.67 909.001,261.254 905.558,261.254C900.89,261.254 897.797,260.145 895.755,257.695C894.181,255.827 893.482,253.785 893.54,251.16L888.412,251.16C888.47,255.069 889.229,257.636 890.919,259.97C893.831,263.991 898.731,266.03 905.208,266.03C910.285,266.03 914.428,264.865 917.169,262.768C920.024,260.495 921.83,256.703 921.83,253.027C921.83,247.776 918.567,243.925 912.794,242.35L902.115,239.491C896.98,238.09 895.113,236.457 895.113,233.189C895.113,228.872 898.906,226.013 904.625,226.013C911.393,226.013 915.186,229.047 915.245,234.648L920.373,234.648Z" style="fill:#727272;fill-rule:nonzero;"/>
            <path d="M935.188,245.321L958.346,245.321L958.346,240.545L935.188,240.545L935.188,226.946L959.221,226.946L959.221,222.17L929.77,222.17L929.77,264.688L960.271,264.688L960.271,259.912L935.188,259.912L935.188,245.321Z" style="fill:#727272;fill-rule:nonzero;"/>
            <path d="M1002.51,264.688L1017.27,222.17L1011.49,222.17L999.708,258.161L987.225,222.17L981.392,222.17L996.675,264.688L1002.51,264.688Z" style="fill:#727272;fill-rule:nonzero;"/>
            <path d="M1039.08,221.47C1026.89,221.47 1018.61,230.447 1018.61,243.75C1018.61,257.111 1026.83,266.03 1039.14,266.03C1044.34,266.03 1048.89,264.457 1052.33,261.545C1056.93,257.636 1059.67,251.043 1059.67,244.1C1059.67,230.389 1051.57,221.47 1039.08,221.47ZM1039.08,226.246C1048.3,226.246 1054.25,233.189 1054.25,243.983C1054.25,254.252 1048.13,261.254 1039.14,261.254C1030.04,261.254 1024.03,254.252 1024.03,243.75C1024.03,233.248 1030.04,226.246 1039.08,226.246Z" style="fill:#727272;fill-rule:nonzero;"/>
            <path d="M1071.86,222.17L1066.44,222.17L1066.44,264.688L1092.86,264.688L1092.86,259.912L1071.86,259.912L1071.86,222.17Z" style="fill:#727272;fill-rule:nonzero;"/>
            <path d="M1124.37,222.17L1124.37,252.035C1124.37,257.753 1120.23,261.254 1113.4,261.254C1110.25,261.254 1107.68,260.495 1105.64,259.037C1103.54,257.403 1102.55,255.244 1102.55,252.035L1102.55,222.17L1097.13,222.17L1097.13,252.035C1097.13,260.67 1103.31,266.03 1113.4,266.03C1123.38,266.03 1129.79,260.554 1129.79,252.035L1129.79,222.17L1124.37,222.17Z" style="fill:#727272;fill-rule:nonzero;"/>
            <path d="M1161.58,264.688L1173.55,229.047L1173.55,264.688L1178.67,264.688L1178.67,222.17L1171.15,222.17L1158.78,259.211L1146.18,222.17L1138.66,222.17L1138.66,264.688L1143.79,264.688L1143.79,229.047L1155.87,264.688L1161.58,264.688Z" style="fill:#727272;fill-rule:nonzero;"/>
            <path d="M1193.55,245.321L1216.7,245.321L1216.7,240.545L1193.55,240.545L1193.55,226.946L1217.58,226.946L1217.58,222.17L1188.13,222.17L1188.13,264.688L1218.63,264.688L1218.63,259.912L1193.55,259.912L1193.55,245.321Z" style="fill:#727272;fill-rule:nonzero;"/>
        </g>
        <path id="_8_ANCHOR" serif:id="8_ANCHOR" d="M1606.25,173.177C1611.77,175.59 1615.62,181.098 1615.62,187.5C1615.62,196.124 1608.62,203.125 1600,203.125C1591.38,203.125 1584.38,196.124 1584.38,187.5C1584.38,181.098 1588.23,175.59 1593.75,173.177L1593.75,96.875L1606.25,96.875L1606.25,173.177Z" style="fill:#ff8fbc;"/>
        <path d="M1615.62,167.989C1621.34,172.571 1625,179.611 1625,187.5C1625,201.298 1613.8,212.5 1600,212.5C1586.2,212.5 1575,201.298 1575,187.5C1575,179.611 1578.66,172.57 1584.38,167.989L1584.38,96.875C1584.38,91.697 1588.57,87.5 1593.75,87.5L1606.25,87.5C1611.43,87.5 1615.62,91.697 1615.62,96.875L1615.62,167.989ZM1606.25,173.177L1606.25,96.875L1593.75,96.875L1593.75,173.177C1588.23,175.59 1584.38,181.098 1584.38,187.5C1584.38,196.124 1591.38,203.125 1600,203.125C1608.62,203.125 1615.62,196.124 1615.62,187.5C1615.62,181.098 1611.77,175.59 1606.25,173.177Z" style="fill:#fff;"/>
        <g id="_81" serif:id="8">
            <rect x="1268.75" y="9.297" width="759.375" height="87.5" style="fill:#fff;"/>
            <path d="M2037.5,106.172L1162.5,106.172L1162.5,-0.078L2037.5,-0.078L2037.5,106.172ZM1268.75,96.797C1505.39,96.797 2028.12,96.797 2028.12,96.797L2028.12,9.297C1978.12,9.297 1483.85,9.297 1268.75,9.297L1268.75,96.797Z" style="fill:#ff8fbc;"/>
            <path d="M1226.96,50.798C1228.96,49.716 1229.88,49.133 1230.79,48.301C1233.2,46.051 1234.62,42.465 1234.62,38.629C1234.62,29.378 1226.63,22.635 1215.71,22.635C1204.7,22.635 1196.71,29.378 1196.71,38.713C1196.71,44.383 1199.04,47.968 1204.37,50.798C1197.54,54.543 1194.71,58.96 1194.71,65.964C1194.71,77.133 1203.29,84.875 1215.71,84.875C1228.04,84.875 1236.62,77.133 1236.62,65.964C1236.62,58.96 1233.79,54.543 1226.96,50.798L1226.96,50.798ZM1215.79,32.042C1220.96,32.042 1224.55,35.21 1224.55,39.797C1224.55,44.3 1220.88,47.552 1215.79,47.552C1210.54,47.552 1206.95,44.383 1206.95,39.713C1206.95,35.21 1210.54,32.042 1215.79,32.042ZM1215.62,55.458C1221.38,55.458 1224.96,59.294 1224.96,65.464C1224.96,71.133 1221.3,74.885 1215.62,74.885C1209.95,74.885 1206.37,71.133 1206.37,65.297C1206.37,59.294 1209.95,55.458 1215.62,55.458Z" style="fill:#fff;fill-rule:nonzero;"/>
            <path d="M1302.05,36.243L1315.99,36.243L1315.99,31.467L1282.63,31.467L1282.63,36.243L1296.63,36.243L1296.63,73.985L1302.05,73.985L1302.05,36.243Z" style="fill:#727272;fill-rule:nonzero;"/>
            <path d="M1337.23,30.767C1325.04,30.767 1316.76,39.744 1316.76,53.047C1316.76,66.408 1324.98,75.327 1337.29,75.327C1342.48,75.327 1347.03,73.754 1350.47,70.842C1355.08,66.933 1357.82,60.34 1357.82,53.397C1357.82,39.686 1349.72,30.767 1337.23,30.767ZM1337.23,35.543C1346.45,35.543 1352.4,42.486 1352.4,53.28C1352.4,63.549 1346.27,70.551 1337.29,70.551C1328.18,70.551 1322.18,63.549 1322.18,53.047C1322.18,42.545 1328.18,35.543 1337.23,35.543Z" style="fill:#727272;fill-rule:nonzero;"/>
            <path d="M1401.28,51.534L1383.54,51.534L1383.54,56.31L1396.49,56.31L1396.49,57.477C1396.49,65.064 1390.89,70.551 1383.13,70.551C1378.82,70.551 1374.91,68.975 1372.4,66.232C1369.6,63.197 1367.91,58.119 1367.91,52.873C1367.91,42.43 1373.86,35.543 1382.84,35.543C1389.32,35.543 1393.98,38.87 1395.15,44.356L1400.69,44.356C1399.18,35.718 1392.64,30.767 1382.9,30.767C1377.71,30.767 1373.51,32.107 1370.18,34.844C1365.23,38.928 1362.49,45.523 1362.49,53.165C1362.49,66.232 1370.48,75.327 1381.97,75.327C1387.74,75.327 1392.29,73.172 1396.49,68.566L1397.83,74.22L1401.28,74.22L1401.28,51.534Z" style="fill:#727272;fill-rule:nonzero;"/>
            <path d="M1446.66,51.534L1428.93,51.534L1428.93,56.31L1441.88,56.31L1441.88,57.477C1441.88,65.064 1436.28,70.551 1428.52,70.551C1424.2,70.551 1420.29,68.975 1417.78,66.232C1414.98,63.197 1413.29,58.119 1413.29,52.873C1413.29,42.43 1419.24,35.543 1428.23,35.543C1434.7,35.543 1439.37,38.87 1440.53,44.356L1446.08,44.356C1444.56,35.718 1438.03,30.767 1428.28,30.767C1423.09,30.767 1418.89,32.107 1415.57,34.844C1410.61,38.928 1407.87,45.523 1407.87,53.165C1407.87,66.232 1415.86,75.327 1427.35,75.327C1433.13,75.327 1437.68,73.172 1441.88,68.566L1443.22,74.22L1446.66,74.22L1446.66,51.534Z" style="fill:#727272;fill-rule:nonzero;"/>
            <path d="M1460.78,31.467L1455.36,31.467L1455.36,73.985L1481.78,73.985L1481.78,69.209L1460.78,69.209L1460.78,31.467Z" style="fill:#727272;fill-rule:nonzero;"/>
            <path d="M1493.79,54.618L1516.95,54.618L1516.95,49.842L1493.79,49.842L1493.79,36.243L1517.83,36.243L1517.83,31.467L1488.37,31.467L1488.37,73.985L1518.88,73.985L1518.88,69.209L1493.79,69.209L1493.79,54.618Z" style="fill:#727272;fill-rule:nonzero;"/>
            <path d="M1548.33,31.467L1542.92,31.467L1542.92,73.985L1569.33,73.985L1569.33,69.209L1548.33,69.209L1548.33,31.467Z" style="fill:#727272;fill-rule:nonzero;"/>
            <path d="M1581.35,54.618L1604.51,54.618L1604.51,49.842L1581.35,49.842L1581.35,36.243L1605.38,36.243L1605.38,31.467L1575.93,31.467L1575.93,73.985L1606.43,73.985L1606.43,69.209L1581.35,69.209L1581.35,54.618Z" style="fill:#727272;fill-rule:nonzero;"/>
            <path d="M1637.3,61.21L1641.67,73.985L1647.74,73.985L1632.8,31.467L1625.8,31.467L1610.64,73.985L1616.41,73.985L1620.9,61.21L1637.3,61.21ZM1635.78,56.667L1622.25,56.667L1629.25,37.295L1635.78,56.667Z" style="fill:#727272;fill-rule:nonzero;"/>
            <path d="M1653.75,73.985L1670.14,73.985C1680.87,73.985 1687.46,65.941 1687.46,52.697C1687.46,39.511 1680.93,31.467 1670.14,31.467L1653.75,31.467L1653.75,73.985ZM1659.17,69.209L1659.17,36.243L1669.2,36.243C1677.61,36.243 1682.04,41.903 1682.04,52.755C1682.04,63.549 1677.61,69.209 1669.2,69.209L1659.17,69.209Z" style="fill:#727272;fill-rule:nonzero;"/>
            <path d="M1700.64,54.618L1723.8,54.618L1723.8,49.842L1700.64,49.842L1700.64,36.243L1724.68,36.243L1724.68,31.467L1695.22,31.467L1695.22,73.985L1725.73,73.985L1725.73,69.209L1700.64,69.209L1700.64,54.618Z" style="fill:#727272;fill-rule:nonzero;"/>
            <path d="M1739.73,55.668L1753.73,55.668C1758.57,55.668 1760.73,58.003 1760.73,63.255L1760.67,67.048C1760.67,69.674 1761.14,72.242 1761.9,73.985L1768.48,73.985L1768.48,72.65C1766.44,71.25 1766.04,69.733 1765.92,64.072C1765.86,57.069 1764.75,54.969 1760.15,52.989C1764.93,50.6 1766.85,47.741 1766.85,42.838C1766.85,35.486 1762.31,31.467 1753.9,31.467L1734.31,31.467L1734.31,73.985L1739.73,73.985L1739.73,55.668ZM1739.73,50.892L1739.73,36.243L1752.86,36.243C1755.89,36.243 1757.64,36.71 1758.98,37.877C1760.44,39.103 1761.2,41.029 1761.2,43.538C1761.2,48.616 1758.63,50.892 1752.86,50.892L1739.73,50.892Z" style="fill:#727272;fill-rule:nonzero;"/>
            <path d="M1775.26,73.985L1794.45,73.985C1798.47,73.985 1801.45,72.878 1803.72,70.432C1805.82,68.217 1806.98,65.182 1806.98,61.855C1806.98,56.719 1804.65,53.628 1799.23,51.531C1803.14,49.725 1805.12,46.632 1805.12,42.255C1805.12,39.103 1803.95,36.418 1801.74,34.438C1799.47,32.399 1796.61,31.467 1792.52,31.467L1775.26,31.467L1775.26,73.985ZM1780.68,49.784L1780.68,36.243L1791.18,36.243C1794.21,36.243 1795.91,36.652 1797.37,37.761C1798.88,38.928 1799.7,40.679 1799.7,43.014C1799.7,45.348 1798.88,47.099 1797.37,48.266C1795.91,49.375 1794.21,49.784 1791.18,49.784L1780.68,49.784ZM1780.68,69.209L1780.68,54.56L1793.92,54.56C1798.71,54.56 1801.57,57.303 1801.57,61.914C1801.57,66.466 1798.71,69.209 1793.92,69.209L1780.68,69.209Z" style="fill:#727272;fill-rule:nonzero;"/>
            <path d="M1831.9,30.767C1819.7,30.767 1811.42,39.744 1811.42,53.047C1811.42,66.408 1819.64,75.327 1831.95,75.327C1837.15,75.327 1841.7,73.754 1845.14,70.842C1849.75,66.933 1852.48,60.34 1852.48,53.397C1852.48,39.686 1844.38,30.767 1831.9,30.767ZM1831.9,35.543C1841.12,35.543 1847.07,42.486 1847.07,53.28C1847.07,63.549 1840.94,70.551 1831.95,70.551C1822.85,70.551 1816.84,63.549 1816.84,53.047C1816.84,42.545 1822.85,35.543 1831.9,35.543Z" style="fill:#727272;fill-rule:nonzero;"/>
            <path d="M1880.25,61.21L1884.63,73.985L1890.7,73.985L1875.76,31.467L1868.76,31.467L1853.6,73.985L1859.37,73.985L1863.86,61.21L1880.25,61.21ZM1878.74,56.667L1865.2,56.667L1872.2,37.295L1878.74,56.667Z" style="fill:#727272;fill-rule:nonzero;"/>
            <path d="M1902.36,55.668L1916.36,55.668C1921.21,55.668 1923.37,58.003 1923.37,63.255L1923.31,67.048C1923.31,69.674 1923.77,72.242 1924.53,73.985L1931.12,73.985L1931.12,72.65C1929.08,71.25 1928.67,69.733 1928.55,64.072C1928.49,57.069 1927.39,54.969 1922.78,52.989C1927.56,50.6 1929.48,47.741 1929.48,42.838C1929.48,35.486 1924.94,31.467 1916.54,31.467L1896.94,31.467L1896.94,73.985L1902.36,73.985L1902.36,55.668ZM1902.36,50.892L1902.36,36.243L1915.49,36.243C1918.52,36.243 1920.27,36.71 1921.62,37.877C1923.07,39.103 1923.83,41.029 1923.83,43.538C1923.83,48.616 1921.27,50.892 1915.49,50.892L1902.36,50.892Z" style="fill:#727272;fill-rule:nonzero;"/>
            <path d="M1938.18,73.985L1954.57,73.985C1965.31,73.985 1971.89,65.941 1971.89,52.697C1971.89,39.511 1965.37,31.467 1954.57,31.467L1938.18,31.467L1938.18,73.985ZM1943.6,69.209L1943.6,36.243L1953.64,36.243C1962.04,36.243 1966.47,41.903 1966.47,52.755C1966.47,63.549 1962.04,69.209 1953.64,69.209L1943.6,69.209Z" style="fill:#727272;fill-rule:nonzero;"/>
            <path d="M2009.87,43.945C2009.87,41.028 2009.69,40.211 2008.76,38.227C2006.43,33.33 2001.47,30.767 1994.3,30.767C1984.96,30.767 1979.19,35.543 1979.19,43.245C1979.19,48.437 1981.93,51.705 1987.53,53.163L1998.09,55.964C2003.52,57.364 2005.91,59.523 2005.91,62.849C2005.91,65.124 2004.68,67.458 2002.87,68.742C2001.18,69.967 1998.5,70.551 1995.05,70.551C1990.39,70.551 1987.29,69.442 1985.25,66.991C1983.68,65.124 1982.98,63.082 1983.04,60.457L1977.91,60.457C1977.97,64.366 1978.72,66.933 1980.41,69.267C1983.33,73.288 1988.23,75.327 1994.7,75.327C1999.78,75.327 2003.92,74.162 2006.66,72.065C2009.52,69.792 2011.33,66 2011.33,62.324C2011.33,57.073 2008.06,53.222 2002.29,51.646L1991.61,48.788C1986.48,47.387 1984.61,45.754 1984.61,42.486C1984.61,38.169 1988.4,35.31 1994.12,35.31C2000.89,35.31 2004.68,38.344 2004.74,43.945L2009.87,43.945Z" style="fill:#727272;fill-rule:nonzero;"/>
        </g>
        <path id="_3_ANCHOR" serif:id="3_ANCHOR" d="M1798.7,506.25C1796.29,500.734 1790.78,496.875 1784.38,496.875C1775.75,496.875 1768.75,503.876 1768.75,512.5C1768.75,521.124 1775.75,528.125 1784.38,528.125C1790.78,528.125 1796.29,524.266 1798.7,518.75L1875,518.75L1875,506.25L1798.7,506.25Z" style="fill:#ff8fbc;"/>
        <path d="M1803.89,496.876L1875,496.875C1880.18,496.875 1884.38,501.072 1884.38,506.25L1884.38,518.75C1884.38,523.928 1880.18,528.125 1875,528.125C1875,528.125 1803.89,528.125 1803.89,528.124C1799.31,533.839 1792.26,537.5 1784.38,537.5C1770.58,537.5 1759.38,526.298 1759.38,512.5C1759.38,498.702 1770.58,487.5 1784.38,487.5C1792.26,487.5 1799.3,491.16 1803.89,496.876ZM1798.7,506.25C1796.29,500.734 1790.78,496.875 1784.38,496.875C1775.75,496.875 1768.75,503.876 1768.75,512.5C1768.75,521.124 1775.75,528.125 1784.38,528.125C1790.78,528.125 1796.29,524.266 1798.7,518.75L1875,518.75L1875,506.25L1798.7,506.25Z" style="fill:#fff;"/>
        <g id="_31" serif:id="3">
            <rect x="1971.88" y="468.75" width="759.375" height="87.5" style="fill:#fff;"/>
            <path d="M2740.62,565.625L1865.62,565.625L1865.62,459.375L2740.62,459.375L2740.62,565.625ZM1971.88,556.25C2208.52,556.25 2731.25,556.25 2731.25,556.25L2731.25,468.75C2681.24,468.75 2186.97,468.75 1971.88,468.75L1971.88,556.25Z" style="fill:#ff8fbc;"/>
            <path d="M1914.09,516.001C1918.59,516.001 1918.84,516.001 1920.92,516.584C1924.84,517.668 1927.34,521.085 1927.34,525.42C1927.34,530.671 1923.67,534.339 1918.59,534.339C1913.09,534.339 1910.09,531.171 1909.76,525.086L1898.42,525.086C1898.51,536.919 1906.17,544.328 1918.34,544.328C1930.92,544.328 1939,536.919 1939,525.42C1939,518.501 1936,514 1929.34,510.749C1934.75,507.332 1937.08,503.581 1937.08,498.163C1937.08,488.332 1929.75,482.089 1918.34,482.089C1909.76,482.089 1903.17,485.834 1900.59,492.245C1899.51,495.079 1899.17,496.996 1899.17,501.914L1910.01,501.914C1910.09,498.747 1910.34,497.163 1910.92,495.662C1912.01,493.078 1914.67,491.495 1918.09,491.495C1922.76,491.495 1925.42,494.329 1925.42,499.247C1925.42,505.248 1922.01,508.165 1915.09,508.165L1914.09,508.165L1914.09,516.001Z" style="fill:#fff;fill-rule:nonzero;"/>
            <path d="M2018.56,504.098C2016.87,494.763 2011.51,490.22 2002.17,490.22C1996.46,490.22 1991.85,492.026 1988.7,495.521C1984.85,499.722 1982.75,505.79 1982.75,512.675C1982.75,519.676 1984.91,525.686 1988.87,529.829C1992.2,533.207 1996.4,534.78 2001.94,534.78C2012.32,534.78 2018.15,529.187 2019.44,517.926L2013.84,517.926C2013.37,520.843 2012.79,522.827 2011.91,524.519C2010.16,528.02 2006.55,530.004 2002,530.004C1993.54,530.004 1988.17,523.236 1988.17,512.617C1988.17,501.706 1993.25,494.996 2001.53,494.996C2004.97,494.996 2008.18,495.988 2009.93,497.68C2011.51,499.139 2012.38,500.889 2013.02,504.098L2018.56,504.098Z" style="fill:#727272;fill-rule:nonzero;"/>
            <path d="M2053.51,514.071L2053.51,533.438L2058.93,533.438L2058.93,490.92L2053.51,490.92L2053.51,509.295L2031.63,509.295L2031.63,490.92L2026.21,490.92L2026.21,533.438L2031.63,533.438L2031.63,514.071L2053.51,514.071Z" style="fill:#727272;fill-rule:nonzero;"/>
            <path d="M2086.18,490.22C2073.98,490.22 2065.7,499.197 2065.7,512.5C2065.7,525.861 2073.92,534.78 2086.23,534.78C2091.43,534.78 2095.98,533.207 2099.42,530.295C2104.03,526.386 2106.76,519.793 2106.76,512.85C2106.76,499.139 2098.66,490.22 2086.18,490.22ZM2086.18,494.996C2095.39,494.996 2101.35,501.939 2101.35,512.733C2101.35,523.002 2095.22,530.004 2086.23,530.004C2077.13,530.004 2071.12,523.002 2071.12,512.5C2071.12,501.998 2077.13,494.996 2086.18,494.996Z" style="fill:#727272;fill-rule:nonzero;"/>
            <path d="M2131.56,490.22C2119.36,490.22 2111.09,499.197 2111.09,512.5C2111.09,525.861 2119.3,534.78 2131.62,534.78C2136.81,534.78 2141.36,533.207 2144.8,530.295C2149.41,526.386 2152.15,519.793 2152.15,512.85C2152.15,499.139 2144.05,490.22 2131.56,490.22ZM2131.56,494.996C2140.78,494.996 2146.73,501.939 2146.73,512.733C2146.73,523.002 2140.6,530.004 2131.62,530.004C2122.51,530.004 2116.51,523.002 2116.51,512.5C2116.51,501.998 2122.51,494.996 2131.56,494.996Z" style="fill:#727272;fill-rule:nonzero;"/>
            <path d="M2188.43,503.398C2188.43,500.481 2188.26,499.664 2187.33,497.68C2184.99,492.783 2180.03,490.22 2172.86,490.22C2163.52,490.22 2157.75,494.996 2157.75,502.698C2157.75,507.891 2160.49,511.158 2166.09,512.617L2176.65,515.417C2182.08,516.817 2184.47,518.976 2184.47,522.302C2184.47,524.577 2183.24,526.911 2181.44,528.195C2179.74,529.42 2177.06,530.004 2173.62,530.004C2168.95,530.004 2165.86,528.895 2163.81,526.445C2162.24,524.577 2161.54,522.535 2161.6,519.91L2156.47,519.91C2156.53,523.819 2157.29,526.386 2158.98,528.72C2161.89,532.741 2166.79,534.78 2173.27,534.78C2178.34,534.78 2182.49,533.615 2185.23,531.518C2188.08,529.245 2189.89,525.453 2189.89,521.777C2189.89,516.526 2186.63,512.675 2180.85,511.1L2170.17,508.241C2165.04,506.84 2163.17,505.207 2163.17,501.939C2163.17,497.622 2166.96,494.763 2172.68,494.763C2179.45,494.763 2183.24,497.797 2183.3,503.398L2188.43,503.398Z" style="fill:#727272;fill-rule:nonzero;"/>
            <path d="M2203.25,514.071L2226.41,514.071L2226.41,509.295L2203.25,509.295L2203.25,495.696L2227.28,495.696L2227.28,490.92L2197.83,490.92L2197.83,533.438L2228.33,533.438L2228.33,528.662L2203.25,528.662L2203.25,514.071Z" style="fill:#727272;fill-rule:nonzero;"/>
            <path d="M2258.55,515.121L2272.55,515.121C2277.39,515.121 2279.55,517.456 2279.55,522.708L2279.49,526.501C2279.49,529.127 2279.96,531.695 2280.72,533.438L2287.3,533.438L2287.3,532.104C2285.26,530.703 2284.86,529.186 2284.74,523.525C2284.68,516.522 2283.57,514.422 2278.97,512.442C2283.75,510.053 2285.67,507.194 2285.67,502.291C2285.67,494.939 2281.13,490.92 2272.73,490.92L2253.13,490.92L2253.13,533.438L2258.55,533.438L2258.55,515.121ZM2258.55,510.345L2258.55,495.696L2271.68,495.696C2274.71,495.696 2276.46,496.163 2277.8,497.33C2279.26,498.556 2280.02,500.482 2280.02,502.992C2280.02,508.069 2277.45,510.345 2271.68,510.345L2258.55,510.345Z" style="fill:#727272;fill-rule:nonzero;"/>
            <path d="M2317.82,520.663L2322.19,533.438L2328.26,533.438L2313.33,490.92L2306.33,490.92L2291.16,533.438L2296.93,533.438L2301.43,520.663L2317.82,520.663ZM2316.3,516.12L2302.77,516.12L2309.77,496.748L2316.3,516.12Z" style="fill:#727272;fill-rule:nonzero;"/>
            <path d="M2366.76,490.92L2361.63,490.92L2361.63,525.686L2339.4,490.92L2333.51,490.92L2333.51,533.438L2338.64,533.438L2338.64,498.964L2360.64,533.438L2366.76,533.438L2366.76,490.92Z" style="fill:#727272;fill-rule:nonzero;"/>
            <path d="M2376.39,533.438L2392.78,533.438C2403.51,533.438 2410.1,525.395 2410.1,512.15C2410.1,498.964 2403.57,490.92 2392.78,490.92L2376.39,490.92L2376.39,533.438ZM2381.8,528.662L2381.8,495.696L2391.84,495.696C2400.24,495.696 2404.68,501.356 2404.68,512.208C2404.68,523.002 2400.24,528.662 2391.84,528.662L2381.8,528.662Z" style="fill:#727272;fill-rule:nonzero;"/>
            <path d="M2436,490.22C2423.8,490.22 2415.53,499.197 2415.53,512.5C2415.53,525.861 2423.75,534.78 2436.06,534.78C2441.25,534.78 2445.8,533.207 2449.24,530.295C2453.85,526.386 2456.59,519.793 2456.59,512.85C2456.59,499.139 2448.49,490.22 2436,490.22ZM2436,494.996C2445.22,494.996 2451.17,501.939 2451.17,512.733C2451.17,523.002 2445.04,530.004 2436.06,530.004C2426.96,530.004 2420.95,523.002 2420.95,512.5C2420.95,501.998 2426.96,494.996 2436,494.996Z" style="fill:#727272;fill-rule:nonzero;"/>
            <path d="M2485.99,533.438L2497.95,497.797L2497.95,533.438L2503.08,533.438L2503.08,490.92L2495.56,490.92L2483.19,527.961L2470.59,490.92L2463.07,490.92L2463.07,533.438L2468.2,533.438L2468.2,497.797L2480.27,533.438L2485.99,533.438Z" style="fill:#727272;fill-rule:nonzero;"/>
            <path d="M2562.11,504.098C2560.42,494.763 2555.05,490.22 2545.72,490.22C2540.01,490.22 2535.4,492.026 2532.25,495.521C2528.4,499.722 2526.3,505.79 2526.3,512.675C2526.3,519.676 2528.46,525.686 2532.42,529.829C2535.75,533.207 2539.95,534.78 2545.49,534.78C2555.87,534.78 2561.7,529.187 2562.99,517.926L2557.39,517.926C2556.92,520.843 2556.34,522.827 2555.46,524.519C2553.71,528.02 2550.1,530.004 2545.55,530.004C2537.09,530.004 2531.72,523.236 2531.72,512.617C2531.72,501.706 2536.8,494.996 2545.08,494.996C2548.52,494.996 2551.73,495.988 2553.48,497.68C2555.05,499.139 2555.93,500.889 2556.57,504.098L2562.11,504.098Z" style="fill:#727272;fill-rule:nonzero;"/>
            <path d="M2597.06,514.071L2597.06,533.438L2602.48,533.438L2602.48,490.92L2597.06,490.92L2597.06,509.295L2575.18,509.295L2575.18,490.92L2569.76,490.92L2569.76,533.438L2575.18,533.438L2575.18,514.071L2597.06,514.071Z" style="fill:#727272;fill-rule:nonzero;"/>
            <path d="M2634.04,520.663L2638.42,533.438L2644.48,533.438L2629.55,490.92L2622.55,490.92L2607.38,533.438L2613.16,533.438L2617.65,520.663L2634.04,520.663ZM2632.53,516.12L2618.99,516.12L2625.99,496.748L2632.53,516.12Z" style="fill:#727272;fill-rule:nonzero;"/>
            <path d="M2656.15,515.121L2670.15,515.121C2674.99,515.121 2677.15,517.456 2677.15,522.708L2677.1,526.501C2677.1,529.127 2677.56,531.695 2678.32,533.438L2684.91,533.438L2684.91,532.104C2682.86,530.703 2682.46,529.186 2682.34,523.525C2682.28,516.522 2681.17,514.422 2676.57,512.442C2681.35,510.053 2683.27,507.194 2683.27,502.291C2683.27,494.939 2678.73,490.92 2670.33,490.92L2650.73,490.92L2650.73,533.438L2656.15,533.438L2656.15,515.121ZM2656.15,510.345L2656.15,495.696L2669.28,495.696C2672.31,495.696 2674.06,496.163 2675.4,497.33C2676.86,498.556 2677.62,500.482 2677.62,502.992C2677.62,508.069 2675.05,510.345 2669.28,510.345L2656.15,510.345Z" style="fill:#727272;fill-rule:nonzero;"/>
            <path d="M2706.72,495.696L2720.66,495.696L2720.66,490.92L2687.3,490.92L2687.3,495.696L2701.3,495.696L2701.3,533.438L2706.72,533.438L2706.72,495.696Z" style="fill:#727272;fill-rule:nonzero;"/>
        </g>
        <g id="NUMS">
            <path d="M1465.26,492.406L1465.26,541.294L1479.24,541.294L1479.24,470.406L1469.95,470.406C1467.75,478.806 1460.46,483.106 1448.26,483.106L1448.26,492.406L1465.26,492.406Z" style="fill:#727272;fill-rule:nonzero;"/>
            <path d="M1623.89,528.806L1593.8,528.806C1595.7,525.005 1597.9,522.905 1608.31,515.403C1620.6,506.4 1624.19,501.099 1624.19,491.397C1624.19,477.697 1614.7,468.906 1599.9,468.906C1585.2,468.906 1576.61,477.597 1576.61,492.597L1576.61,495.098L1590.09,495.098L1590.09,492.797C1590.09,484.895 1593.8,480.294 1600.2,480.294C1606.4,480.294 1610.21,484.595 1610.21,491.697C1610.21,499.599 1607.81,502.499 1592,513.702C1580,521.904 1576.31,528.106 1575.71,541.294L1623.89,541.294L1623.89,528.806Z" style="fill:#727272;fill-rule:nonzero;"/>
            <path d="M1725.66,509.601C1731.06,509.601 1731.36,509.601 1733.86,510.301C1738.56,511.601 1741.56,515.702 1741.56,520.904C1741.56,527.205 1737.16,531.606 1731.06,531.606C1724.46,531.606 1720.86,527.805 1720.46,520.504L1706.86,520.504C1706.96,534.703 1716.16,543.594 1730.76,543.594C1745.85,543.594 1755.54,534.703 1755.54,520.904C1755.54,512.602 1751.95,507.2 1743.95,503.299C1750.45,499.198 1753.24,494.697 1753.24,488.196C1753.24,476.398 1744.45,468.906 1730.76,468.906C1720.46,468.906 1712.56,473.401 1709.46,481.094C1708.16,484.495 1707.76,486.795 1707.76,492.697L1720.76,492.697C1720.86,488.896 1721.16,486.995 1721.86,485.195C1723.16,482.094 1726.36,480.194 1730.46,480.194C1736.06,480.194 1739.26,483.595 1739.26,489.496C1739.26,496.698 1735.16,500.199 1726.86,500.199L1725.66,500.199L1725.66,509.601Z" style="fill:#727272;fill-rule:nonzero;"/>
            <path d="M1493.64,379.631L1486.24,379.631L1486.24,336.031L1469.76,336.031L1443.86,379.431L1443.86,391.219L1472.26,391.219L1472.26,406.919L1486.24,406.919L1486.24,391.219L1493.64,391.219L1493.64,379.631ZM1472.26,379.631L1453.76,379.631L1472.26,349.331L1472.26,379.631Z" style="fill:#727272;fill-rule:nonzero;"/>
            <path d="M1621.6,336.031L1583.71,336.031L1577.41,375.521L1590.01,375.521C1591.51,372.02 1594.71,370.119 1599.01,370.119C1606.11,370.119 1610.41,375.221 1610.41,383.825C1610.41,392.129 1606.11,397.231 1599.01,397.231C1592.91,397.231 1589.51,394.13 1589.21,388.427L1575.41,388.427C1575.61,400.827 1585.01,409.219 1598.81,409.219C1614,409.219 1624.39,398.83 1624.39,383.525C1624.39,368.92 1615.4,359.031 1602.31,359.031C1597.61,359.031 1594.11,360.23 1590.01,363.326L1592.31,348.519L1621.6,348.519L1621.6,336.031Z" style="fill:#727272;fill-rule:nonzero;"/>
            <path d="M1754.64,352.124C1753.94,347.52 1753.05,345.219 1751.25,342.622C1747.55,337.528 1741.06,334.531 1733.35,334.531C1724.55,334.531 1717.35,338.427 1713.05,345.519C1708.86,352.424 1707.16,360.331 1707.16,373.22C1707.16,385.425 1708.65,393.029 1712.25,398.73C1716.35,405.323 1723.75,409.219 1732.15,409.219C1746.25,409.219 1755.84,398.73 1755.84,383.224C1755.84,369.621 1747.45,360.231 1735.25,360.231C1729.45,360.231 1725.55,361.929 1721.14,366.524L1721.24,365.026C1721.44,358.43 1721.74,356.328 1722.75,353.626C1724.65,348.421 1728.05,345.819 1732.95,345.819C1737.45,345.819 1739.86,347.62 1741.66,352.124L1754.64,352.124ZM1731.75,371.319C1738.35,371.319 1742.56,376.321 1742.56,384.225C1742.56,391.729 1737.95,397.231 1731.75,397.231C1725.35,397.231 1720.94,392.029 1720.94,384.425C1720.94,376.721 1725.35,371.319 1731.75,371.319Z" style="fill:#727272;fill-rule:nonzero;"/>
            <path d="M1494.25,201.656L1444.35,201.656L1444.35,214.144L1479.65,214.144C1475.35,218.744 1466.85,231.647 1464.05,237.849C1459.15,248.151 1456.65,257.453 1454.75,272.544L1468.85,272.544C1470.15,250.152 1477.45,232.948 1494.25,212.645L1494.25,201.656Z" style="fill:#727272;fill-rule:nonzero;"/>
            <path d="M1613.6,233.951C1616,232.653 1617.1,231.954 1618.2,230.955C1621.1,228.255 1622.79,223.952 1622.79,219.349C1622.79,208.247 1613.2,200.156 1600.1,200.156C1586.9,200.156 1577.31,208.247 1577.31,219.449C1577.31,226.254 1580.1,230.556 1586.5,233.951C1578.3,238.445 1574.91,243.746 1574.91,252.151C1574.91,265.553 1585.2,274.844 1600.1,274.844C1614.9,274.844 1625.19,265.553 1625.19,252.151C1625.19,243.746 1621.8,238.445 1613.6,233.951L1613.6,233.951ZM1600.2,211.444C1606.4,211.444 1610.71,215.246 1610.71,220.75C1610.71,226.154 1606.3,230.056 1600.2,230.056C1593.9,230.056 1589.59,226.254 1589.59,220.65C1589.59,215.246 1593.9,211.444 1600.2,211.444ZM1600,239.544C1606.9,239.544 1611.21,244.146 1611.21,251.55C1611.21,258.354 1606.8,262.856 1600,262.856C1593.2,262.856 1588.89,258.354 1588.89,251.35C1588.89,244.146 1593.2,239.544 1600,239.544Z" style="fill:#727272;fill-rule:nonzero;"/>
            <path d="M1707.76,256.05C1708.06,266.952 1717.25,274.944 1729.44,274.944C1738.54,274.944 1745.44,271.148 1749.64,263.955C1753.34,257.651 1755.54,246.947 1755.54,235.555C1755.54,225.15 1753.94,217.146 1750.64,211.744C1746.14,204.152 1739.14,200.156 1730.64,200.156C1716.45,200.156 1706.76,210.345 1706.76,225.15C1706.76,239.755 1715.35,249.744 1727.94,249.744C1731.54,249.744 1734.94,248.745 1737.14,247.147C1738.44,246.248 1739.24,245.349 1741.54,242.751C1741.54,256.45 1737.74,262.956 1729.84,262.956C1724.84,262.956 1721.54,260.254 1721.24,256.05L1707.76,256.05ZM1730.24,211.544C1737.04,211.544 1741.24,216.746 1741.24,225.15C1741.24,232.954 1736.94,238.156 1730.44,238.156C1724.04,238.156 1720.04,233.154 1720.04,224.95C1720.04,216.746 1723.94,211.544 1730.24,211.544Z" style="fill:#727272;fill-rule:nonzero;"/>
            <path d="M1468.75,603.281C1461.14,603.281 1454.65,606.478 1450.35,612.371C1446.26,617.87 1444.36,626.872 1444.36,640.675C1444.36,653.278 1445.95,662.08 1449.35,667.48C1453.55,674.273 1460.44,677.969 1468.75,677.969C1476.45,677.969 1482.75,674.872 1487.15,668.978C1491.14,663.481 1493.14,654.378 1493.14,641.075C1493.14,628.072 1491.55,619.27 1488.15,613.77C1483.95,606.977 1477.06,603.281 1468.75,603.281ZM1468.75,614.569C1472.35,614.569 1475.25,616.569 1476.95,620.27C1478.36,623.271 1479.16,630.973 1479.16,640.775C1479.16,648.777 1478.46,656.579 1477.36,659.48C1475.75,663.681 1472.75,665.981 1468.75,665.981C1465.05,665.981 1462.25,664.081 1460.55,660.48C1459.14,657.479 1458.34,650.077 1458.34,640.575C1458.34,632.173 1459.04,624.171 1460.14,621.27C1461.65,616.969 1464.75,614.569 1468.75,614.569Z" style="fill:#727272;fill-rule:nonzero;"/>
            <path d="M1576.83,609.505C1570.5,609.505 1565.08,612.169 1561.5,617.08C1558.09,621.662 1556.51,629.164 1556.51,640.667C1556.51,651.169 1557.84,658.504 1560.67,663.004C1564.16,668.665 1569.91,671.745 1576.83,671.745C1583.25,671.745 1588.5,669.164 1592.17,664.253C1595.5,659.671 1597.16,652.086 1597.16,641C1597.16,630.164 1595.83,622.829 1593,618.246C1589.5,612.585 1583.75,609.505 1576.83,609.505ZM1576.83,618.911C1579.84,618.911 1582.25,620.578 1583.67,623.663C1584.84,626.163 1585.51,632.581 1585.51,640.75C1585.51,647.418 1584.92,653.92 1584,656.337C1582.67,659.838 1580.17,661.755 1576.83,661.755C1573.75,661.755 1571.41,660.171 1570,657.171C1568.83,654.67 1568.16,648.502 1568.16,640.583C1568.16,633.582 1568.75,626.913 1569.66,624.496C1570.91,620.912 1573.5,618.911 1576.83,618.911Z" style="fill:#727272;fill-rule:nonzero;"/>
            <path d="M1623.17,609.505C1616.83,609.505 1611.41,612.169 1607.83,617.08C1604.42,621.662 1602.84,629.164 1602.84,640.667C1602.84,651.169 1604.17,658.504 1607,663.004C1610.5,668.665 1616.25,671.745 1623.17,671.745C1629.59,671.745 1634.84,669.164 1638.5,664.253C1641.83,659.671 1643.5,652.086 1643.5,641C1643.5,630.164 1642.16,622.829 1639.33,618.246C1635.84,612.585 1630.09,609.505 1623.17,609.505ZM1623.17,618.911C1626.17,618.911 1628.59,620.578 1630,623.663C1631.17,626.163 1631.84,632.581 1631.84,640.75C1631.84,647.418 1631.26,653.92 1630.34,656.337C1629,659.838 1626.5,661.755 1623.17,661.755C1620.08,661.755 1617.75,660.171 1616.33,657.171C1615.16,654.67 1614.5,648.502 1614.5,640.583C1614.5,633.582 1615.08,626.913 1616,624.496C1617.25,620.912 1619.83,618.911 1623.17,618.911Z" style="fill:#727272;fill-rule:nonzero;"/>
        </g>
    </g>
</svg>
