<?xml version="1.0" encoding="UTF-8" standalone="no"?>
<!DOCTYPE svg PUBLIC "-//W3C//DTD SVG 1.1//EN" "http://www.w3.org/Graphics/SVG/1.1/DTD/svg11.dtd">
<svg width="100%" height="100%" viewBox="0 0 3200 925" version="1.1" xmlns="http://www.w3.org/2000/svg" xmlns:xlink="http://www.w3.org/1999/xlink" xml:space="preserve" xmlns:serif="http://www.serif.com/" style="fill-rule:evenodd;clip-rule:evenodd;stroke-linejoin:round;stroke-miterlimit:2;">
    <rect id="MUSIC_SELECT_NUM" x="0" y="-0" width="3200" height="925" style="fill:none;"/>
    <g id="PAD">
        <g id="_1" serif:id="1">
            <rect x="1418.75" y="521.875" width="100" height="103.125" style="fill:#fff;"/>
            <path d="M1528.12,521.875L1528.12,625C1528.12,630.178 1523.93,634.375 1518.75,634.375L1418.75,634.375C1413.57,634.375 1409.38,630.178 1409.38,625L1409.38,521.875C1409.38,516.697 1413.57,512.5 1418.75,512.5L1518.75,512.5C1523.93,512.5 1528.12,516.697 1528.12,521.875ZM1518.75,521.875L1418.75,521.875L1418.75,625L1518.75,625L1518.75,521.875Z" style="fill:#727272;"/>
            <rect x="1418.75" y="615.625" width="100" height="9.375" style="fill:#727272;"/>
        </g>
        <g id="_2" serif:id="2">
            <rect x="1550" y="521.875" width="100" height="103.125" style="fill:#fff;"/>
            <path d="M1659.38,521.875L1659.38,625C1659.38,630.178 1655.18,634.375 1650,634.375L1550,634.375C1544.82,634.375 1540.62,630.178 1540.62,625L1540.62,521.875C1540.62,516.697 1544.82,512.5 1550,512.5L1650,512.5C1655.18,512.5 1659.38,516.697 1659.38,521.875ZM1650,521.875L1550,521.875L1550,625L1650,625L1650,521.875Z" style="fill:#727272;"/>
            <rect x="1550" y="615.625" width="100" height="9.375" style="fill:#727272;"/>
        </g>
        <g id="_3" serif:id="3">
            <rect x="1681.25" y="521.875" width="100" height="103.125" style="fill:#fff;"/>
            <path d="M1790.62,521.875L1790.62,625C1790.62,630.178 1786.43,634.375 1781.25,634.375L1681.25,634.375C1676.07,634.375 1671.88,630.178 1671.88,625L1671.88,521.875C1671.88,516.697 1676.07,512.5 1681.25,512.5L1781.25,512.5C1786.43,512.5 1790.62,516.697 1790.62,521.875ZM1781.25,521.875L1681.25,521.875L1681.25,625L1781.25,625L1781.25,521.875Z" style="fill:#727272;"/>
            <rect x="1681.25" y="615.625" width="100" height="9.375" style="fill:#727272;"/>
        </g>
        <g id="_4" serif:id="4">
            <rect x="1418.75" y="387.5" width="100" height="103.125" style="fill:#fff;"/>
            <path d="M1528.12,387.5L1528.12,490.625C1528.12,495.803 1523.93,500 1518.75,500L1418.75,500C1413.57,500 1409.38,495.803 1409.38,490.625L1409.38,387.5C1409.38,382.322 1413.57,378.125 1418.75,378.125L1518.75,378.125C1523.93,378.125 1528.12,382.322 1528.12,387.5ZM1518.75,387.5L1418.75,387.5L1418.75,490.625L1518.75,490.625L1518.75,387.5Z" style="fill:#727272;"/>
            <rect x="1418.75" y="481.25" width="100" height="9.375" style="fill:#727272;"/>
        </g>
        <g id="_5" serif:id="5">
            <rect x="1550" y="387.5" width="100" height="103.125" style="fill:#fff;"/>
            <path d="M1659.38,387.5L1659.38,490.625C1659.38,495.803 1655.18,500 1650,500L1550,500C1544.82,500 1540.62,495.803 1540.62,490.625L1540.62,387.5C1540.62,382.322 1544.82,378.125 1550,378.125L1650,378.125C1655.18,378.125 1659.38,382.322 1659.38,387.5ZM1650,387.5L1550,387.5L1550,490.625L1650,490.625L1650,387.5Z" style="fill:#727272;"/>
            <rect x="1550" y="481.25" width="100" height="9.375" style="fill:#727272;"/>
        </g>
        <g id="_6" serif:id="6">
            <rect x="1681.25" y="387.5" width="100" height="103.125" style="fill:#fff;"/>
            <path d="M1790.62,387.5L1790.62,490.625C1790.62,495.803 1786.43,500 1781.25,500L1681.25,500C1676.07,500 1671.88,495.803 1671.88,490.625L1671.88,387.5C1671.88,382.322 1676.07,378.125 1681.25,378.125L1781.25,378.125C1786.43,378.125 1790.62,382.322 1790.62,387.5ZM1781.25,387.5L1681.25,387.5L1681.25,490.625L1781.25,490.625L1781.25,387.5Z" style="fill:#727272;"/>
            <rect x="1681.25" y="481.25" width="100" height="9.375" style="fill:#727272;"/>
        </g>
        <g id="_7" serif:id="7">
            <rect x="1418.75" y="253.125" width="100" height="103.125" style="fill:#fff;"/>
            <path d="M1528.12,253.125L1528.12,356.25C1528.12,361.428 1523.93,365.625 1518.75,365.625L1418.75,365.625C1413.57,365.625 1409.38,361.428 1409.38,356.25L1409.38,253.125C1409.38,247.947 1413.57,243.75 1418.75,243.75L1518.75,243.75C1523.93,243.75 1528.12,247.947 1528.12,253.125ZM1518.75,253.125L1418.75,253.125L1418.75,356.25L1518.75,356.25L1518.75,253.125Z" style="fill:#727272;"/>
            <rect x="1418.75" y="346.875" width="100" height="9.375" style="fill:#727272;"/>
        </g>
        <g id="_8" serif:id="8">
            <rect x="1550" y="253.125" width="100" height="103.125" style="fill:#fff;"/>
            <path d="M1659.38,253.125L1659.38,356.25C1659.38,361.428 1655.18,365.625 1650,365.625L1550,365.625C1544.82,365.625 1540.62,361.428 1540.62,356.25L1540.62,253.125C1540.62,247.947 1544.82,243.75 1550,243.75L1650,243.75C1655.18,243.75 1659.38,247.947 1659.38,253.125ZM1650,253.125L1550,253.125L1550,356.25L1650,356.25L1650,253.125Z" style="fill:#727272;"/>
            <rect x="1550" y="346.875" width="100" height="9.375" style="fill:#727272;"/>
        </g>
        <g id="_9" serif:id="9">
            <rect x="1681.25" y="253.125" width="100" height="103.125" style="fill:#fff;"/>
            <path d="M1790.62,253.125L1790.62,356.25C1790.62,361.428 1786.43,365.625 1781.25,365.625L1681.25,365.625C1676.07,365.625 1671.88,361.428 1671.88,356.25L1671.88,253.125C1671.88,247.947 1676.07,243.75 1681.25,243.75L1781.25,243.75C1786.43,243.75 1790.62,247.947 1790.62,253.125ZM1781.25,253.125L1681.25,253.125L1681.25,356.25L1781.25,356.25L1781.25,253.125Z" style="fill:#727272;"/>
            <rect x="1681.25" y="346.875" width="100" height="9.375" style="fill:#727272;"/>
        </g>
        <g id="_0" serif:id="0">
            <rect x="1418.75" y="656.25" width="100" height="103.125" style="fill:#fff;"/>
            <path d="M1528.12,656.25L1528.12,759.375C1528.12,764.553 1523.93,768.75 1518.75,768.75L1418.75,768.75C1413.57,768.75 1409.38,764.553 1409.38,759.375L1409.38,656.25C1409.38,651.072 1413.57,646.875 1418.75,646.875L1518.75,646.875C1523.93,646.875 1528.12,651.072 1528.12,656.25ZM1518.75,656.25L1418.75,656.25L1418.75,759.375L1518.75,759.375L1518.75,656.25Z" style="fill:#727272;"/>
            <rect x="1418.75" y="750" width="100" height="9.375" style="fill:#727272;"/>
        </g>
        <g id="_00" serif:id="00">
            <rect x="1550" y="656.25" width="100" height="103.125" style="fill:#fff;"/>
            <path d="M1659.38,656.25L1659.38,759.375C1659.38,764.553 1655.18,768.75 1650,768.75L1550,768.75C1544.82,768.75 1540.62,764.553 1540.62,759.375L1540.62,656.25C1540.62,651.072 1544.82,646.875 1550,646.875L1650,646.875C1655.18,646.875 1659.38,651.072 1659.38,656.25ZM1650,656.25L1550,656.25L1550,759.375L1650,759.375L1650,656.25Z" style="fill:#727272;"/>
            <rect x="1550" y="750" width="100" height="9.375" style="fill:#727272;"/>
        </g>
        <g id="EMPTY">
            <rect x="1681.25" y="656.25" width="100" height="103.125" style="fill:#fff;"/>
            <path d="M1790.62,656.25L1790.62,759.375C1790.62,764.553 1786.43,768.75 1781.25,768.75L1681.25,768.75C1676.07,768.75 1671.88,764.553 1671.88,759.375L1671.88,656.25C1671.88,651.072 1676.07,646.875 1681.25,646.875L1781.25,646.875C1786.43,646.875 1790.62,651.072 1790.62,656.25ZM1781.25,656.25L1681.25,656.25L1681.25,759.375L1781.25,759.375L1781.25,656.25Z" style="fill:#727272;"/>
            <rect x="1681.25" y="750" width="100" height="9.375" style="fill:#727272;"/>
        </g>
    </g>
    <path id="_0_ANCHOR" serif:id="0_ANCHOR" d="M1401.3,703.125C1403.71,697.609 1409.22,693.75 1415.62,693.75C1424.25,693.75 1431.25,700.751 1431.25,709.375C1431.25,717.999 1424.25,725 1415.62,725C1409.22,725 1403.71,721.141 1401.3,715.625L1221.88,716.202L1221.88,703.702L1401.3,703.125Z" style="fill:#ff8fbc;"/>
    <path d="M1396.1,693.767C1400.68,688.042 1407.73,684.375 1415.62,684.375C1429.42,684.375 1440.62,695.577 1440.62,709.375C1440.62,723.173 1429.42,734.375 1415.62,734.375C1407.74,734.375 1400.71,730.721 1396.13,725.017L1221.9,725.577C1219.41,725.585 1217.02,724.601 1215.26,722.842C1213.49,721.083 1212.5,718.694 1212.5,716.202L1212.5,703.702C1212.5,698.536 1216.68,694.344 1221.85,694.327L1396.1,693.767ZM1401.3,703.125L1221.88,703.702L1221.88,716.202L1401.3,715.625C1403.71,721.141 1409.22,725 1415.62,725C1424.25,725 1431.25,717.999 1431.25,709.375C1431.25,700.751 1424.25,693.75 1415.62,693.75C1409.22,693.75 1403.71,697.609 1401.3,703.125Z" style="fill:#fff;"/>
    <g id="_01" serif:id="0">
        <rect x="565.625" y="665.625" width="759.375" height="87.5" style="fill:#fff;"/>
        <path d="M1334.38,762.5L459.375,762.5L459.375,656.25L1334.38,656.25L1334.38,762.5ZM565.625,753.125C802.268,753.125 1325,753.125 1325,753.125L1325,665.625C1274.99,665.625 780.725,665.625 565.625,665.625L565.625,753.125Z" style="fill:#ff8fbc;"/>
        <path d="M512.5,678.964C506.163,678.964 500.747,681.627 497.167,686.538C493.754,691.12 492.172,698.622 492.172,710.125C492.172,720.628 493.504,727.963 496.335,732.462C499.832,738.123 505.579,741.203 512.5,741.203C518.92,741.203 524.169,738.622 527.833,733.711C531.163,729.13 532.828,721.545 532.828,710.458C532.828,699.622 531.496,692.287 528.665,687.704C525.168,682.043 519.421,678.964 512.5,678.964ZM512.5,688.37C515.502,688.37 517.92,690.037 519.337,693.121C520.505,695.622 521.172,702.04 521.172,710.208C521.172,716.877 520.588,723.378 519.671,725.796C518.337,729.296 515.835,731.214 512.5,731.214C509.415,731.214 507.08,729.63 505.663,726.629C504.495,724.128 503.828,717.96 503.828,710.042C503.828,703.04 504.412,696.372 505.329,693.954C506.58,690.37 509.165,688.37 512.5,688.37Z" style="fill:#fff;fill-rule:nonzero;"/>
        <path d="M676.538,692.571L690.48,692.571L690.48,687.795L657.12,687.795L657.12,692.571L671.12,692.571L671.12,730.313L676.538,730.313L676.538,692.571Z" style="fill:#727272;fill-rule:nonzero;"/>
        <path d="M711.717,687.095C699.522,687.095 691.245,696.072 691.245,709.375C691.245,722.736 699.464,731.655 711.775,731.655C716.968,731.655 721.519,730.082 724.962,727.17C729.567,723.261 732.305,716.668 732.305,709.725C732.305,696.014 724.203,687.095 711.717,687.095ZM711.717,691.871C720.936,691.871 726.887,698.814 726.887,709.608C726.887,719.877 720.761,726.879 711.775,726.879C702.673,726.879 696.663,719.877 696.663,709.375C696.663,698.873 702.673,691.871 711.717,691.871Z" style="fill:#727272;fill-rule:nonzero;"/>
        <path d="M775.763,707.862L758.03,707.862L758.03,712.638L770.98,712.638L770.98,713.805C770.98,721.392 765.38,726.879 757.621,726.879C753.305,726.879 749.396,725.303 746.888,722.56C744.088,719.525 742.396,714.447 742.396,709.202C742.396,698.758 748.346,691.871 757.33,691.871C763.805,691.871 768.471,695.198 769.638,700.684L775.18,700.684C773.663,692.046 767.13,687.095 757.388,687.095C752.196,687.095 747.996,688.435 744.671,691.172C739.717,695.256 736.979,701.851 736.979,709.493C736.979,722.56 744.963,731.655 756.455,731.655C762.23,731.655 766.78,729.5 770.98,724.894L772.321,730.548L775.763,730.548L775.763,707.862Z" style="fill:#727272;fill-rule:nonzero;"/>
        <path d="M821.146,707.862L803.413,707.862L803.413,712.638L816.363,712.638L816.363,713.805C816.363,721.392 810.763,726.879 803.005,726.879C798.688,726.879 794.78,725.303 792.271,722.56C789.471,719.525 787.78,714.447 787.78,709.202C787.78,698.758 793.73,691.871 802.713,691.871C809.188,691.871 813.855,695.198 815.021,700.684L820.563,700.684C819.046,692.046 812.513,687.095 802.771,687.095C797.58,687.095 793.38,688.435 790.055,691.172C785.1,695.256 782.362,701.851 782.362,709.493C782.362,722.56 790.346,731.655 801.838,731.655C807.613,731.655 812.163,729.5 816.363,724.894L817.705,730.548L821.146,730.548L821.146,707.862Z" style="fill:#727272;fill-rule:nonzero;"/>
        <path d="M835.263,687.795L829.845,687.795L829.845,730.313L856.263,730.313L856.263,725.537L835.263,725.537L835.263,687.795Z" style="fill:#727272;fill-rule:nonzero;"/>
        <path d="M868.28,710.946L891.438,710.946L891.438,706.17L868.28,706.17L868.28,692.571L892.313,692.571L892.313,687.795L862.862,687.795L862.862,730.313L893.363,730.313L893.363,725.537L868.28,725.537L868.28,710.946Z" style="fill:#727272;fill-rule:nonzero;"/>
        <path d="M923.405,710.946L943.705,710.946L943.705,706.17L923.405,706.17L923.405,692.571L946.505,692.571L946.505,687.795L917.987,687.795L917.987,730.313L923.405,730.313L923.405,710.946Z" style="fill:#727272;fill-rule:nonzero;"/>
        <path d="M971.942,717.538L976.317,730.313L982.383,730.313L967.45,687.795L960.45,687.795L945.283,730.313L951.058,730.313L955.55,717.538L971.942,717.538ZM970.425,712.995L956.892,712.995L963.892,693.623L970.425,712.995Z" style="fill:#727272;fill-rule:nonzero;"/>
        <path d="M1001.93,730.313L1016.68,687.795L1010.91,687.795L999.125,723.786L986.642,687.795L980.808,687.795L996.092,730.313L1001.93,730.313Z" style="fill:#727272;fill-rule:nonzero;"/>
        <path d="M1038.5,687.095C1026.31,687.095 1018.03,696.072 1018.03,709.375C1018.03,722.736 1026.25,731.655 1038.56,731.655C1043.75,731.655 1048.3,730.082 1051.75,727.17C1056.35,723.261 1059.09,716.668 1059.09,709.725C1059.09,696.014 1050.99,687.095 1038.5,687.095ZM1038.5,691.871C1047.72,691.871 1053.67,698.814 1053.67,709.608C1053.67,719.877 1047.54,726.879 1038.56,726.879C1029.46,726.879 1023.45,719.877 1023.45,709.375C1023.45,698.873 1029.46,691.871 1038.5,691.871Z" style="fill:#727272;fill-rule:nonzero;"/>
        <path d="M1093.39,687.795L1093.39,717.66C1093.39,723.378 1089.25,726.879 1082.42,726.879C1079.27,726.879 1076.71,726.12 1074.66,724.662C1072.56,723.028 1071.57,720.869 1071.57,717.66L1071.57,687.795L1066.15,687.795L1066.15,717.66C1066.15,726.295 1072.33,731.655 1082.42,731.655C1092.4,731.655 1098.81,726.179 1098.81,717.66L1098.81,687.795L1093.39,687.795Z" style="fill:#727272;fill-rule:nonzero;"/>
        <path d="M1114.15,711.996L1128.16,711.996C1133,711.996 1135.16,714.331 1135.16,719.583L1135.1,723.376C1135.1,726.002 1135.57,728.57 1136.33,730.313L1142.91,730.313L1142.91,728.979C1140.87,727.578 1140.46,726.061 1140.35,720.4C1140.29,713.397 1139.18,711.297 1134.58,709.317C1139.36,706.928 1141.28,704.069 1141.28,699.166C1141.28,691.814 1136.74,687.795 1128.33,687.795L1108.74,687.795L1108.74,730.313L1114.15,730.313L1114.15,711.996ZM1114.15,707.22L1114.15,692.571L1127.28,692.571C1130.32,692.571 1132.07,693.038 1133.41,694.205C1134.87,695.431 1135.63,697.357 1135.63,699.867C1135.63,704.944 1133.06,707.22 1127.28,707.22L1114.15,707.22Z" style="fill:#727272;fill-rule:nonzero;"/>
        <rect x="1150.27" y="687.795" width="5.476" height="42.518" style="fill:#727272;fill-rule:nonzero;"/>
        <path d="M1180.36,692.571L1194.31,692.571L1194.31,687.795L1160.94,687.795L1160.94,692.571L1174.94,692.571L1174.94,730.313L1180.36,730.313L1180.36,692.571Z" style="fill:#727272;fill-rule:nonzero;"/>
        <path d="M1205.04,710.946L1228.2,710.946L1228.2,706.17L1205.04,706.17L1205.04,692.571L1229.07,692.571L1229.07,687.795L1199.62,687.795L1199.62,730.313L1230.12,730.313L1230.12,725.537L1205.04,725.537L1205.04,710.946Z" style="fill:#727272;fill-rule:nonzero;"/>
    </g>
    <path id="_1_ANCHOR" serif:id="1_ANCHOR" d="M1401.3,568.75C1403.71,563.234 1409.22,559.375 1415.62,559.375C1424.25,559.375 1431.25,566.376 1431.25,575C1431.25,583.624 1424.25,590.625 1415.62,590.625C1409.22,590.625 1403.71,586.766 1401.3,581.25L1221.88,581.827L1221.88,569.327L1401.3,568.75Z" style="fill:#ff8fbc;"/>
    <path d="M1396.1,559.392C1400.68,553.667 1407.73,550 1415.62,550C1429.42,550 1440.62,561.202 1440.62,575C1440.62,588.798 1429.42,600 1415.62,600C1407.74,600 1400.71,596.346 1396.13,590.642L1221.9,591.202C1219.41,591.21 1217.02,590.226 1215.26,588.467C1213.49,586.708 1212.5,584.319 1212.5,581.827L1212.5,569.327C1212.5,564.161 1216.68,559.969 1221.85,559.952L1396.1,559.392ZM1401.3,568.75L1221.88,569.327L1221.88,581.827L1401.3,581.25C1403.71,586.766 1409.22,590.625 1415.62,590.625C1424.25,590.625 1431.25,583.624 1431.25,575C1431.25,566.376 1424.25,559.375 1415.62,559.375C1409.22,559.375 1403.71,563.234 1401.3,568.75Z" style="fill:#fff;"/>
    <g id="_11" serif:id="1">
        <rect x="565.625" y="531.25" width="759.375" height="87.5" style="fill:#fff;"/>
        <path d="M1334.38,628.125L459.375,628.125L459.375,521.875L1334.38,521.875L1334.38,628.125ZM565.625,618.75C802.268,618.75 1325,618.75 1325,618.75L1325,531.25C1274.99,531.25 780.725,531.25 565.625,531.25L565.625,618.75Z" style="fill:#ff8fbc;"/>
        <path d="M509.589,564.172L509.589,604.911L521.245,604.911L521.245,545.839L513.502,545.839C511.67,552.839 505.589,556.422 495.422,556.422L495.422,564.172L509.589,564.172Z" style="fill:#fff;fill-rule:nonzero;"/>
        <path d="M662.399,595.938L678.787,595.938C689.524,595.938 696.109,587.895 696.109,574.65C696.109,561.464 689.582,553.42 678.787,553.42L662.399,553.42L662.399,595.938ZM667.817,591.162L667.817,558.196L677.854,558.196C686.256,558.196 690.691,563.856 690.691,574.708C690.691,585.502 686.256,591.162 677.854,591.162L667.817,591.162Z" style="fill:#727272;fill-rule:nonzero;"/>
        <path d="M709.292,576.571L732.451,576.571L732.451,571.795L709.292,571.795L709.292,558.196L733.326,558.196L733.326,553.42L703.874,553.42L703.874,595.938L734.376,595.938L734.376,591.162L709.292,591.162L709.292,576.571Z" style="fill:#727272;fill-rule:nonzero;"/>
        <path d="M774.334,566.598C772.642,557.263 767.276,552.72 757.942,552.72C752.226,552.72 747.617,554.526 744.467,558.021C740.622,562.222 738.524,568.29 738.524,575.175C738.524,582.176 740.68,588.186 744.642,592.329C747.967,595.707 752.167,597.28 757.709,597.28C768.092,597.28 773.926,591.687 775.209,580.426L769.609,580.426C769.142,583.343 768.559,585.327 767.684,587.019C765.934,590.52 762.317,592.504 757.767,592.504C749.309,592.504 743.942,585.736 743.942,575.117C743.942,564.206 749.017,557.496 757.301,557.496C760.742,557.496 763.951,558.488 765.701,560.18C767.276,561.639 768.151,563.389 768.792,566.598L774.334,566.598Z" style="fill:#727272;fill-rule:nonzero;"/>
        <path d="M788.684,577.621L802.689,577.621C807.532,577.621 809.691,579.956 809.691,585.208L809.633,589.001C809.633,591.627 810.099,594.195 810.857,595.938L817.442,595.938L817.442,594.604C815.401,593.203 814.993,591.686 814.877,586.025C814.818,579.022 813.712,576.922 809.107,574.942C813.886,572.553 815.809,569.694 815.809,564.791C815.809,557.439 811.265,553.42 802.864,553.42L783.266,553.42L783.266,595.938L788.684,595.938L788.684,577.621ZM788.684,572.845L788.684,558.196L801.813,558.196C804.848,558.196 806.598,558.663 807.94,559.83C809.399,561.056 810.158,562.982 810.158,565.492C810.158,570.569 807.59,572.845 801.813,572.845L788.684,572.845Z" style="fill:#727272;fill-rule:nonzero;"/>
        <path d="M829.926,576.571L853.084,576.571L853.084,571.795L829.926,571.795L829.926,558.196L853.959,558.196L853.959,553.42L824.508,553.42L824.508,595.938L855.009,595.938L855.009,591.162L829.926,591.162L829.926,576.571Z" style="fill:#727272;fill-rule:nonzero;"/>
        <path d="M885.871,583.163L890.246,595.938L896.313,595.938L881.379,553.42L874.379,553.42L859.213,595.938L864.988,595.938L869.479,583.163L885.871,583.163ZM884.354,578.62L870.821,578.62L877.821,559.248L884.354,578.62Z" style="fill:#727272;fill-rule:nonzero;"/>
        <path d="M930.552,565.898C930.552,562.981 930.378,562.164 929.446,560.18C927.115,555.283 922.156,552.72 914.979,552.72C905.642,552.72 899.874,557.496 899.874,565.198C899.874,570.391 902.612,573.658 908.21,575.117L918.772,577.917C924.199,579.317 926.591,581.476 926.591,584.802C926.591,587.077 925.366,589.411 923.557,590.695C921.864,591.92 919.18,592.504 915.737,592.504C911.069,592.504 907.976,591.395 905.934,588.945C904.36,587.077 903.661,585.035 903.719,582.41L898.591,582.41C898.649,586.319 899.408,588.886 901.098,591.22C904.011,595.241 908.91,597.28 915.387,597.28C920.464,597.28 924.607,596.115 927.348,594.018C930.203,591.745 932.009,587.953 932.009,584.277C932.009,579.026 928.747,575.175 922.973,573.6L912.295,570.741C907.159,569.34 905.292,567.707 905.292,564.439C905.292,560.122 909.085,557.263 914.804,557.263C921.573,557.263 925.366,560.297 925.424,565.898L930.552,565.898Z" style="fill:#727272;fill-rule:nonzero;"/>
        <path d="M945.367,576.571L968.526,576.571L968.526,571.795L945.367,571.795L945.367,558.196L969.401,558.196L969.401,553.42L939.949,553.42L939.949,595.938L970.451,595.938L970.451,591.162L945.367,591.162L945.367,576.571Z" style="fill:#727272;fill-rule:nonzero;"/>
        <path d="M1012.69,595.938L1027.45,553.42L1021.67,553.42L1009.89,589.411L997.404,553.42L991.571,553.42L1006.85,595.938L1012.69,595.938Z" style="fill:#727272;fill-rule:nonzero;"/>
        <path d="M1049.26,552.72C1037.07,552.72 1028.79,561.697 1028.79,575C1028.79,588.361 1037.01,597.28 1049.32,597.28C1054.51,597.28 1059.07,595.707 1062.51,592.795C1067.11,588.886 1069.85,582.293 1069.85,575.35C1069.85,561.639 1061.75,552.72 1049.26,552.72ZM1049.26,557.496C1058.48,557.496 1064.43,564.439 1064.43,575.233C1064.43,585.502 1058.31,592.504 1049.32,592.504C1040.22,592.504 1034.21,585.502 1034.21,575C1034.21,564.498 1040.22,557.496 1049.26,557.496Z" style="fill:#727272;fill-rule:nonzero;"/>
        <path d="M1082.04,553.42L1076.62,553.42L1076.62,595.938L1103.04,595.938L1103.04,591.162L1082.04,591.162L1082.04,553.42Z" style="fill:#727272;fill-rule:nonzero;"/>
        <path d="M1134.55,553.42L1134.55,583.285C1134.55,589.003 1130.41,592.504 1123.58,592.504C1120.43,592.504 1117.86,591.745 1115.82,590.287C1113.72,588.653 1112.73,586.494 1112.73,583.285L1112.73,553.42L1107.31,553.42L1107.31,583.285C1107.31,591.92 1113.48,597.28 1123.58,597.28C1133.56,597.28 1139.97,591.804 1139.97,583.285L1139.97,553.42L1134.55,553.42Z" style="fill:#727272;fill-rule:nonzero;"/>
        <path d="M1171.76,595.938L1183.72,560.297L1183.72,595.938L1188.85,595.938L1188.85,553.42L1181.33,553.42L1168.96,590.461L1156.36,553.42L1148.84,553.42L1148.84,595.938L1153.97,595.938L1153.97,560.297L1166.05,595.938L1171.76,595.938Z" style="fill:#727272;fill-rule:nonzero;"/>
        <path d="M1203.73,576.571L1226.88,576.571L1226.88,571.795L1203.73,571.795L1203.73,558.196L1227.76,558.196L1227.76,553.42L1198.31,553.42L1198.31,595.938L1228.81,595.938L1228.81,591.162L1203.73,591.162L1203.73,576.571Z" style="fill:#727272;fill-rule:nonzero;"/>
    </g>
    <path id="_7_ANCHOR" serif:id="7_ANCHOR" d="M1401.3,300C1403.71,294.484 1409.22,290.625 1415.62,290.625C1424.25,290.625 1431.25,297.626 1431.25,306.25C1431.25,314.874 1424.25,321.875 1415.62,321.875C1409.22,321.875 1403.71,318.016 1401.3,312.5L1221.88,313.077L1221.88,300.577L1401.3,300Z" style="fill:#ff8fbc;"/>
    <path d="M1396.1,290.642C1400.68,284.917 1407.73,281.25 1415.62,281.25C1429.42,281.25 1440.62,292.452 1440.62,306.25C1440.62,320.048 1429.42,331.25 1415.62,331.25C1407.74,331.25 1400.71,327.596 1396.13,321.892L1221.9,322.452C1219.41,322.46 1217.02,321.476 1215.26,319.717C1213.49,317.958 1212.5,315.569 1212.5,313.077L1212.5,300.577C1212.5,295.411 1216.68,291.219 1221.85,291.202L1396.1,290.642ZM1401.3,300L1221.88,300.577L1221.88,313.077L1401.3,312.5C1403.71,318.016 1409.22,321.875 1415.62,321.875C1424.25,321.875 1431.25,314.874 1431.25,306.25C1431.25,297.626 1424.25,290.625 1415.62,290.625C1409.22,290.625 1403.71,294.484 1401.3,300Z" style="fill:#fff;"/>
    <g id="_71" serif:id="7">
        <rect x="565.625" y="262.5" width="759.375" height="87.5" style="fill:#fff;"/>
        <path d="M1334.38,359.375L459.375,359.375L459.375,253.125L1334.38,253.125L1334.38,359.375ZM565.625,350C802.268,350 1325,350 1325,350L1325,262.5C1274.99,262.5 780.725,262.5 565.625,262.5L565.625,350Z" style="fill:#ff8fbc;"/>
        <path d="M533.75,277.089L492.167,277.089L492.167,287.495L521.583,287.495C518,291.329 510.917,302.081 508.583,307.249C504.5,315.834 502.417,323.586 500.833,336.161L512.583,336.161C513.667,317.501 519.75,303.165 533.75,286.246L533.75,277.089Z" style="fill:#fff;fill-rule:nonzero;"/>
        <rect x="673.22" y="284.67" width="5.476" height="42.518" style="fill:#727272;fill-rule:nonzero;"/>
        <path d="M721.28,284.67L716.154,284.67L716.154,319.436L693.922,284.67L688.037,284.67L688.037,327.188L693.163,327.188L693.163,292.714L715.162,327.188L721.28,327.188L721.28,284.67Z" style="fill:#727272;fill-rule:nonzero;"/>
        <path d="M764.155,297.848C762.463,288.513 757.096,283.97 747.763,283.97C742.046,283.97 737.438,285.776 734.288,289.271C730.442,293.472 728.345,299.54 728.345,306.425C728.345,313.426 730.501,319.436 734.463,323.579C737.788,326.957 741.988,328.53 747.53,328.53C757.913,328.53 763.746,322.937 765.03,311.676L759.43,311.676C758.963,314.593 758.38,316.577 757.505,318.269C755.755,321.77 752.138,323.754 747.588,323.754C739.13,323.754 733.763,316.986 733.763,306.367C733.763,295.456 738.838,288.746 747.121,288.746C750.563,288.746 753.771,289.738 755.521,291.43C757.096,292.889 757.971,294.639 758.613,297.848L764.155,297.848Z" style="fill:#727272;fill-rule:nonzero;"/>
        <path d="M778.505,308.871L792.509,308.871C797.353,308.871 799.512,311.206 799.512,316.458L799.453,320.251C799.453,322.877 799.92,325.445 800.678,327.188L807.263,327.188L807.263,325.854C805.222,324.453 804.814,322.936 804.698,317.275C804.639,310.272 803.532,308.172 798.928,306.192C803.707,303.803 805.63,300.944 805.63,296.041C805.63,288.689 801.086,284.67 792.684,284.67L773.087,284.67L773.087,327.188L778.505,327.188L778.505,308.871ZM778.505,304.095L778.505,289.446L791.634,289.446C794.668,289.446 796.419,289.913 797.761,291.08C799.22,292.306 799.979,294.232 799.979,296.742C799.979,301.819 797.411,304.095 791.634,304.095L778.505,304.095Z" style="fill:#727272;fill-rule:nonzero;"/>
        <path d="M819.746,307.821L842.905,307.821L842.905,303.045L819.746,303.045L819.746,289.446L843.78,289.446L843.78,284.67L814.329,284.67L814.329,327.188L844.83,327.188L844.83,322.412L819.746,322.412L819.746,307.821Z" style="fill:#727272;fill-rule:nonzero;"/>
        <path d="M875.692,314.413L880.067,327.188L886.133,327.188L871.2,284.67L864.2,284.67L849.033,327.188L854.808,327.188L859.3,314.413L875.692,314.413ZM874.175,309.87L860.642,309.87L867.642,290.498L874.175,309.87Z" style="fill:#727272;fill-rule:nonzero;"/>
        <path d="M920.373,297.148C920.373,294.231 920.199,293.414 919.266,291.43C916.936,286.533 911.977,283.97 904.8,283.97C895.463,283.97 889.695,288.746 889.695,296.448C889.695,301.641 892.433,304.908 898.031,306.367L908.593,309.167C914.019,310.567 916.412,312.726 916.412,316.052C916.412,318.327 915.186,320.661 913.377,321.945C911.685,323.17 909.001,323.754 905.558,323.754C900.89,323.754 897.797,322.645 895.755,320.195C894.181,318.327 893.482,316.285 893.54,313.66L888.412,313.66C888.47,317.569 889.229,320.136 890.919,322.47C893.831,326.491 898.731,328.53 905.208,328.53C910.285,328.53 914.428,327.365 917.169,325.268C920.024,322.995 921.83,319.203 921.83,315.527C921.83,310.276 918.567,306.425 912.794,304.85L902.115,301.991C896.98,300.59 895.113,298.957 895.113,295.689C895.113,291.372 898.906,288.513 904.625,288.513C911.393,288.513 915.186,291.547 915.245,297.148L920.373,297.148Z" style="fill:#727272;fill-rule:nonzero;"/>
        <path d="M935.188,307.821L958.346,307.821L958.346,303.045L935.188,303.045L935.188,289.446L959.221,289.446L959.221,284.67L929.77,284.67L929.77,327.188L960.271,327.188L960.271,322.412L935.188,322.412L935.188,307.821Z" style="fill:#727272;fill-rule:nonzero;"/>
        <path d="M1002.51,327.188L1017.27,284.67L1011.49,284.67L999.708,320.661L987.225,284.67L981.392,284.67L996.675,327.188L1002.51,327.188Z" style="fill:#727272;fill-rule:nonzero;"/>
        <path d="M1039.08,283.97C1026.89,283.97 1018.61,292.947 1018.61,306.25C1018.61,319.611 1026.83,328.53 1039.14,328.53C1044.34,328.53 1048.89,326.957 1052.33,324.045C1056.93,320.136 1059.67,313.543 1059.67,306.6C1059.67,292.889 1051.57,283.97 1039.08,283.97ZM1039.08,288.746C1048.3,288.746 1054.25,295.689 1054.25,306.483C1054.25,316.752 1048.13,323.754 1039.14,323.754C1030.04,323.754 1024.03,316.752 1024.03,306.25C1024.03,295.748 1030.04,288.746 1039.08,288.746Z" style="fill:#727272;fill-rule:nonzero;"/>
        <path d="M1071.86,284.67L1066.44,284.67L1066.44,327.188L1092.86,327.188L1092.86,322.412L1071.86,322.412L1071.86,284.67Z" style="fill:#727272;fill-rule:nonzero;"/>
        <path d="M1124.37,284.67L1124.37,314.535C1124.37,320.253 1120.23,323.754 1113.4,323.754C1110.25,323.754 1107.68,322.995 1105.64,321.537C1103.54,319.903 1102.55,317.744 1102.55,314.535L1102.55,284.67L1097.13,284.67L1097.13,314.535C1097.13,323.17 1103.31,328.53 1113.4,328.53C1123.38,328.53 1129.79,323.054 1129.79,314.535L1129.79,284.67L1124.37,284.67Z" style="fill:#727272;fill-rule:nonzero;"/>
        <path d="M1161.58,327.188L1173.55,291.547L1173.55,327.188L1178.67,327.188L1178.67,284.67L1171.15,284.67L1158.78,321.711L1146.18,284.67L1138.66,284.67L1138.66,327.188L1143.79,327.188L1143.79,291.547L1155.87,327.188L1161.58,327.188Z" style="fill:#727272;fill-rule:nonzero;"/>
        <path d="M1193.55,307.821L1216.7,307.821L1216.7,303.045L1193.55,303.045L1193.55,289.446L1217.58,289.446L1217.58,284.67L1188.13,284.67L1188.13,327.188L1218.63,327.188L1218.63,322.412L1193.55,322.412L1193.55,307.821Z" style="fill:#727272;fill-rule:nonzero;"/>
    </g>
    <path id="_8_ANCHOR" serif:id="8_ANCHOR" d="M1606.25,235.677C1611.77,238.09 1615.62,243.598 1615.62,250C1615.62,258.624 1608.62,265.625 1600,265.625C1591.38,265.625 1584.38,258.624 1584.38,250C1584.38,243.598 1588.23,238.09 1593.75,235.677L1593.54,140.625L1606.04,140.625L1606.25,235.677Z" style="fill:#ff8fbc;"/>
    <path d="M1615.61,230.479C1621.34,235.061 1625,242.106 1625,250C1625,263.798 1613.8,275 1600,275C1586.2,275 1575,263.798 1575,250C1575,242.117 1578.66,235.08 1584.36,230.498L1584.16,140.646C1584.16,138.156 1585.14,135.766 1586.9,134.003C1588.66,132.241 1591.05,131.25 1593.54,131.25L1606.04,131.25C1611.21,131.25 1615.4,135.435 1615.41,140.604L1615.61,230.479ZM1606.25,235.677L1606.04,140.625L1593.54,140.625L1593.75,235.677C1588.23,238.09 1584.38,243.598 1584.38,250C1584.38,258.624 1591.38,265.625 1600,265.625C1608.62,265.625 1615.62,258.624 1615.62,250C1615.62,243.598 1611.77,238.09 1606.25,235.677Z" style="fill:#fff;"/>
    <g id="_81" serif:id="8">
        <rect x="1268.75" y="71.797" width="759.375" height="87.5" style="fill:#fff;"/>
        <path d="M2037.5,168.672L1162.5,168.672L1162.5,62.422L2037.5,62.422L2037.5,168.672ZM1268.75,159.297C1505.39,159.297 2028.12,159.297 2028.12,159.297L2028.12,71.797C1978.12,71.797 1483.85,71.797 1268.75,71.797L1268.75,159.297Z" style="fill:#ff8fbc;"/>
        <path d="M1226.96,113.298C1228.96,112.216 1229.88,111.633 1230.79,110.801C1233.2,108.551 1234.62,104.965 1234.62,101.129C1234.62,91.878 1226.63,85.135 1215.71,85.135C1204.7,85.135 1196.71,91.878 1196.71,101.213C1196.71,106.883 1199.04,110.468 1204.37,113.298C1197.54,117.043 1194.71,121.46 1194.71,128.464C1194.71,139.633 1203.29,147.375 1215.71,147.375C1228.04,147.375 1236.62,139.633 1236.62,128.464C1236.62,121.46 1233.79,117.043 1226.96,113.298L1226.96,113.298ZM1215.79,94.542C1220.96,94.542 1224.55,97.71 1224.55,102.297C1224.55,106.8 1220.88,110.052 1215.79,110.052C1210.54,110.052 1206.95,106.883 1206.95,102.213C1206.95,97.71 1210.54,94.542 1215.79,94.542ZM1215.62,117.958C1221.38,117.958 1224.96,121.794 1224.96,127.964C1224.96,133.633 1221.3,137.385 1215.62,137.385C1209.95,137.385 1206.37,133.633 1206.37,127.797C1206.37,121.794 1209.95,117.958 1215.62,117.958Z" style="fill:#fff;fill-rule:nonzero;"/>
        <path d="M1302.05,98.743L1315.99,98.743L1315.99,93.967L1282.63,93.967L1282.63,98.743L1296.63,98.743L1296.63,136.485L1302.05,136.485L1302.05,98.743Z" style="fill:#727272;fill-rule:nonzero;"/>
        <path d="M1337.23,93.267C1325.04,93.267 1316.76,102.244 1316.76,115.547C1316.76,128.908 1324.98,137.827 1337.29,137.827C1342.48,137.827 1347.03,136.254 1350.47,133.342C1355.08,129.433 1357.82,122.84 1357.82,115.897C1357.82,102.186 1349.72,93.267 1337.23,93.267ZM1337.23,98.043C1346.45,98.043 1352.4,104.986 1352.4,115.78C1352.4,126.049 1346.27,133.051 1337.29,133.051C1328.18,133.051 1322.18,126.049 1322.18,115.547C1322.18,105.045 1328.18,98.043 1337.23,98.043Z" style="fill:#727272;fill-rule:nonzero;"/>
        <path d="M1401.28,114.034L1383.54,114.034L1383.54,118.81L1396.49,118.81L1396.49,119.977C1396.49,127.564 1390.89,133.051 1383.13,133.051C1378.82,133.051 1374.91,131.475 1372.4,128.732C1369.6,125.697 1367.91,120.619 1367.91,115.373C1367.91,104.93 1373.86,98.043 1382.84,98.043C1389.32,98.043 1393.98,101.37 1395.15,106.856L1400.69,106.856C1399.18,98.218 1392.64,93.267 1382.9,93.267C1377.71,93.267 1373.51,94.607 1370.18,97.344C1365.23,101.428 1362.49,108.023 1362.49,115.665C1362.49,128.732 1370.48,137.827 1381.97,137.827C1387.74,137.827 1392.29,135.672 1396.49,131.066L1397.83,136.72L1401.28,136.72L1401.28,114.034Z" style="fill:#727272;fill-rule:nonzero;"/>
        <path d="M1446.66,114.034L1428.93,114.034L1428.93,118.81L1441.88,118.81L1441.88,119.977C1441.88,127.564 1436.28,133.051 1428.52,133.051C1424.2,133.051 1420.29,131.475 1417.78,128.732C1414.98,125.697 1413.29,120.619 1413.29,115.373C1413.29,104.93 1419.24,98.043 1428.23,98.043C1434.7,98.043 1439.37,101.37 1440.53,106.856L1446.08,106.856C1444.56,98.218 1438.03,93.267 1428.28,93.267C1423.09,93.267 1418.89,94.607 1415.57,97.344C1410.61,101.428 1407.87,108.023 1407.87,115.665C1407.87,128.732 1415.86,137.827 1427.35,137.827C1433.13,137.827 1437.68,135.672 1441.88,131.066L1443.22,136.72L1446.66,136.72L1446.66,114.034Z" style="fill:#727272;fill-rule:nonzero;"/>
        <path d="M1460.78,93.967L1455.36,93.967L1455.36,136.485L1481.78,136.485L1481.78,131.709L1460.78,131.709L1460.78,93.967Z" style="fill:#727272;fill-rule:nonzero;"/>
        <path d="M1493.79,117.118L1516.95,117.118L1516.95,112.342L1493.79,112.342L1493.79,98.743L1517.83,98.743L1517.83,93.967L1488.37,93.967L1488.37,136.485L1518.88,136.485L1518.88,131.709L1493.79,131.709L1493.79,117.118Z" style="fill:#727272;fill-rule:nonzero;"/>
        <path d="M1548.33,93.967L1542.92,93.967L1542.92,136.485L1569.33,136.485L1569.33,131.709L1548.33,131.709L1548.33,93.967Z" style="fill:#727272;fill-rule:nonzero;"/>
        <path d="M1581.35,117.118L1604.51,117.118L1604.51,112.342L1581.35,112.342L1581.35,98.743L1605.38,98.743L1605.38,93.967L1575.93,93.967L1575.93,136.485L1606.43,136.485L1606.43,131.709L1581.35,131.709L1581.35,117.118Z" style="fill:#727272;fill-rule:nonzero;"/>
        <path d="M1637.3,123.71L1641.67,136.485L1647.74,136.485L1632.8,93.967L1625.8,93.967L1610.64,136.485L1616.41,136.485L1620.9,123.71L1637.3,123.71ZM1635.78,119.167L1622.25,119.167L1629.25,99.795L1635.78,119.167Z" style="fill:#727272;fill-rule:nonzero;"/>
        <path d="M1653.75,136.485L1670.14,136.485C1680.87,136.485 1687.46,128.441 1687.46,115.197C1687.46,102.011 1680.93,93.967 1670.14,93.967L1653.75,93.967L1653.75,136.485ZM1659.17,131.709L1659.17,98.743L1669.2,98.743C1677.61,98.743 1682.04,104.403 1682.04,115.255C1682.04,126.049 1677.61,131.709 1669.2,131.709L1659.17,131.709Z" style="fill:#727272;fill-rule:nonzero;"/>
        <path d="M1700.64,117.118L1723.8,117.118L1723.8,112.342L1700.64,112.342L1700.64,98.743L1724.68,98.743L1724.68,93.967L1695.22,93.967L1695.22,136.485L1725.73,136.485L1725.73,131.709L1700.64,131.709L1700.64,117.118Z" style="fill:#727272;fill-rule:nonzero;"/>
        <path d="M1739.73,118.168L1753.73,118.168C1758.57,118.168 1760.73,120.503 1760.73,125.755L1760.67,129.548C1760.67,132.174 1761.14,134.742 1761.9,136.485L1768.48,136.485L1768.48,135.15C1766.44,133.75 1766.04,132.233 1765.92,126.572C1765.86,119.569 1764.75,117.469 1760.15,115.489C1764.93,113.1 1766.85,110.241 1766.85,105.338C1766.85,97.986 1762.31,93.967 1753.9,93.967L1734.31,93.967L1734.31,136.485L1739.73,136.485L1739.73,118.168ZM1739.73,113.392L1739.73,98.743L1752.86,98.743C1755.89,98.743 1757.64,99.21 1758.98,100.377C1760.44,101.603 1761.2,103.529 1761.2,106.038C1761.2,111.116 1758.63,113.392 1752.86,113.392L1739.73,113.392Z" style="fill:#727272;fill-rule:nonzero;"/>
        <path d="M1775.26,136.485L1794.45,136.485C1798.47,136.485 1801.45,135.378 1803.72,132.932C1805.82,130.717 1806.98,127.682 1806.98,124.355C1806.98,119.219 1804.65,116.128 1799.23,114.031C1803.14,112.225 1805.12,109.132 1805.12,104.755C1805.12,101.603 1803.95,98.918 1801.74,96.938C1799.47,94.899 1796.61,93.967 1792.52,93.967L1775.26,93.967L1775.26,136.485ZM1780.68,112.284L1780.68,98.743L1791.18,98.743C1794.21,98.743 1795.91,99.152 1797.37,100.261C1798.88,101.428 1799.7,103.179 1799.7,105.514C1799.7,107.848 1798.88,109.599 1797.37,110.766C1795.91,111.875 1794.21,112.284 1791.18,112.284L1780.68,112.284ZM1780.68,131.709L1780.68,117.06L1793.92,117.06C1798.71,117.06 1801.57,119.803 1801.57,124.414C1801.57,128.966 1798.71,131.709 1793.92,131.709L1780.68,131.709Z" style="fill:#727272;fill-rule:nonzero;"/>
        <path d="M1831.9,93.267C1819.7,93.267 1811.42,102.244 1811.42,115.547C1811.42,128.908 1819.64,137.827 1831.95,137.827C1837.15,137.827 1841.7,136.254 1845.14,133.342C1849.75,129.433 1852.48,122.84 1852.48,115.897C1852.48,102.186 1844.38,93.267 1831.9,93.267ZM1831.9,98.043C1841.12,98.043 1847.07,104.986 1847.07,115.78C1847.07,126.049 1840.94,133.051 1831.95,133.051C1822.85,133.051 1816.84,126.049 1816.84,115.547C1816.84,105.045 1822.85,98.043 1831.9,98.043Z" style="fill:#727272;fill-rule:nonzero;"/>
        <path d="M1880.25,123.71L1884.63,136.485L1890.7,136.485L1875.76,93.967L1868.76,93.967L1853.6,136.485L1859.37,136.485L1863.86,123.71L1880.25,123.71ZM1878.74,119.167L1865.2,119.167L1872.2,99.795L1878.74,119.167Z" style="fill:#727272;fill-rule:nonzero;"/>
        <path d="M1902.36,118.168L1916.36,118.168C1921.21,118.168 1923.37,120.503 1923.37,125.755L1923.31,129.548C1923.31,132.174 1923.77,134.742 1924.53,136.485L1931.12,136.485L1931.12,135.15C1929.08,133.75 1928.67,132.233 1928.55,126.572C1928.49,119.569 1927.39,117.469 1922.78,115.489C1927.56,113.1 1929.48,110.241 1929.48,105.338C1929.48,97.986 1924.94,93.967 1916.54,93.967L1896.94,93.967L1896.94,136.485L1902.36,136.485L1902.36,118.168ZM1902.36,113.392L1902.36,98.743L1915.49,98.743C1918.52,98.743 1920.27,99.21 1921.62,100.377C1923.07,101.603 1923.83,103.529 1923.83,106.038C1923.83,111.116 1921.27,113.392 1915.49,113.392L1902.36,113.392Z" style="fill:#727272;fill-rule:nonzero;"/>
        <path d="M1938.18,136.485L1954.57,136.485C1965.31,136.485 1971.89,128.441 1971.89,115.197C1971.89,102.011 1965.37,93.967 1954.57,93.967L1938.18,93.967L1938.18,136.485ZM1943.6,131.709L1943.6,98.743L1953.64,98.743C1962.04,98.743 1966.47,104.403 1966.47,115.255C1966.47,126.049 1962.04,131.709 1953.64,131.709L1943.6,131.709Z" style="fill:#727272;fill-rule:nonzero;"/>
        <path d="M2009.87,106.445C2009.87,103.528 2009.69,102.711 2008.76,100.727C2006.43,95.83 2001.47,93.267 1994.3,93.267C1984.96,93.267 1979.19,98.043 1979.19,105.745C1979.19,110.937 1981.93,114.205 1987.53,115.663L1998.09,118.464C2003.52,119.864 2005.91,122.023 2005.91,125.349C2005.91,127.624 2004.68,129.958 2002.87,131.242C2001.18,132.467 1998.5,133.051 1995.05,133.051C1990.39,133.051 1987.29,131.942 1985.25,129.491C1983.68,127.624 1982.98,125.582 1983.04,122.957L1977.91,122.957C1977.97,126.866 1978.72,129.433 1980.41,131.767C1983.33,135.788 1988.23,137.827 1994.7,137.827C1999.78,137.827 2003.92,136.662 2006.66,134.565C2009.52,132.292 2011.33,128.5 2011.33,124.824C2011.33,119.573 2008.06,115.722 2002.29,114.146L1991.61,111.288C1986.48,109.887 1984.61,108.254 1984.61,104.986C1984.61,100.669 1988.4,97.81 1994.12,97.81C2000.89,97.81 2004.68,100.844 2004.74,106.445L2009.87,106.445Z" style="fill:#727272;fill-rule:nonzero;"/>
    </g>
    <path id="_3_ANCHOR" serif:id="3_ANCHOR" d="M1798.7,568.75C1796.29,563.234 1790.78,559.375 1784.38,559.375C1775.75,559.375 1768.75,566.376 1768.75,575C1768.75,583.624 1775.75,590.625 1784.38,590.625C1790.78,590.625 1796.29,586.766 1798.7,581.25L1978.12,581.827L1978.12,569.327L1798.7,568.75Z" style="fill:#ff8fbc;"/>
    <path d="M1803.9,559.392L1978.15,559.952C1983.32,559.969 1987.5,564.161 1987.5,569.327L1987.5,581.827C1987.5,584.319 1986.51,586.708 1984.74,588.467C1982.98,590.226 1980.59,591.21 1978.1,591.202C1978.1,591.202 1803.87,590.642 1803.87,590.64C1799.29,596.346 1792.26,600 1784.38,600C1770.58,600 1759.38,588.798 1759.38,575C1759.38,561.202 1770.58,550 1784.38,550C1792.27,550 1799.32,553.667 1803.9,559.392ZM1798.7,568.75C1796.29,563.234 1790.78,559.375 1784.38,559.375C1775.75,559.375 1768.75,566.376 1768.75,575C1768.75,583.624 1775.75,590.625 1784.38,590.625C1790.78,590.625 1796.29,586.766 1798.7,581.25L1978.12,581.827L1978.12,569.327L1798.7,568.75Z" style="fill:#fff;"/>
    <g id="_31" serif:id="3">
        <rect x="1971.88" y="531.25" width="759.375" height="87.5" style="fill:#fff;"/>
        <path d="M2740.62,628.125L1865.62,628.125L1865.62,521.875L2740.62,521.875L2740.62,628.125ZM1971.88,618.75C2208.52,618.75 2731.25,618.75 2731.25,618.75L2731.25,531.25C2681.24,531.25 2186.97,531.25 1971.88,531.25L1971.88,618.75Z" style="fill:#ff8fbc;"/>
        <path d="M1914.09,578.501C1918.59,578.501 1918.84,578.501 1920.92,579.084C1924.84,580.168 1927.34,583.585 1927.34,587.92C1927.34,593.171 1923.67,596.839 1918.59,596.839C1913.09,596.839 1910.09,593.671 1909.76,587.586L1898.42,587.586C1898.51,599.419 1906.17,606.828 1918.34,606.828C1930.92,606.828 1939,599.419 1939,587.92C1939,581.001 1936,576.5 1929.34,573.249C1934.75,569.832 1937.08,566.081 1937.08,560.663C1937.08,550.832 1929.75,544.589 1918.34,544.589C1909.76,544.589 1903.17,548.334 1900.59,554.745C1899.51,557.579 1899.17,559.496 1899.17,564.414L1910.01,564.414C1910.09,561.247 1910.34,559.663 1910.92,558.162C1912.01,555.578 1914.67,553.995 1918.09,553.995C1922.76,553.995 1925.42,556.829 1925.42,561.747C1925.42,567.748 1922.01,570.665 1915.09,570.665L1914.09,570.665L1914.09,578.501Z" style="fill:#fff;fill-rule:nonzero;"/>
        <path d="M2018.56,566.598C2016.87,557.263 2011.51,552.72 2002.17,552.72C1996.46,552.72 1991.85,554.526 1988.7,558.021C1984.85,562.222 1982.75,568.29 1982.75,575.175C1982.75,582.176 1984.91,588.186 1988.87,592.329C1992.2,595.707 1996.4,597.28 2001.94,597.28C2012.32,597.28 2018.15,591.687 2019.44,580.426L2013.84,580.426C2013.37,583.343 2012.79,585.327 2011.91,587.019C2010.16,590.52 2006.55,592.504 2002,592.504C1993.54,592.504 1988.17,585.736 1988.17,575.117C1988.17,564.206 1993.25,557.496 2001.53,557.496C2004.97,557.496 2008.18,558.488 2009.93,560.18C2011.51,561.639 2012.38,563.389 2013.02,566.598L2018.56,566.598Z" style="fill:#727272;fill-rule:nonzero;"/>
        <path d="M2053.51,576.571L2053.51,595.938L2058.93,595.938L2058.93,553.42L2053.51,553.42L2053.51,571.795L2031.63,571.795L2031.63,553.42L2026.21,553.42L2026.21,595.938L2031.63,595.938L2031.63,576.571L2053.51,576.571Z" style="fill:#727272;fill-rule:nonzero;"/>
        <path d="M2086.18,552.72C2073.98,552.72 2065.7,561.697 2065.7,575C2065.7,588.361 2073.92,597.28 2086.23,597.28C2091.43,597.28 2095.98,595.707 2099.42,592.795C2104.03,588.886 2106.76,582.293 2106.76,575.35C2106.76,561.639 2098.66,552.72 2086.18,552.72ZM2086.18,557.496C2095.39,557.496 2101.35,564.439 2101.35,575.233C2101.35,585.502 2095.22,592.504 2086.23,592.504C2077.13,592.504 2071.12,585.502 2071.12,575C2071.12,564.498 2077.13,557.496 2086.18,557.496Z" style="fill:#727272;fill-rule:nonzero;"/>
        <path d="M2131.56,552.72C2119.36,552.72 2111.09,561.697 2111.09,575C2111.09,588.361 2119.3,597.28 2131.62,597.28C2136.81,597.28 2141.36,595.707 2144.8,592.795C2149.41,588.886 2152.15,582.293 2152.15,575.35C2152.15,561.639 2144.05,552.72 2131.56,552.72ZM2131.56,557.496C2140.78,557.496 2146.73,564.439 2146.73,575.233C2146.73,585.502 2140.6,592.504 2131.62,592.504C2122.51,592.504 2116.51,585.502 2116.51,575C2116.51,564.498 2122.51,557.496 2131.56,557.496Z" style="fill:#727272;fill-rule:nonzero;"/>
        <path d="M2188.43,565.898C2188.43,562.981 2188.26,562.164 2187.33,560.18C2184.99,555.283 2180.03,552.72 2172.86,552.72C2163.52,552.72 2157.75,557.496 2157.75,565.198C2157.75,570.391 2160.49,573.658 2166.09,575.117L2176.65,577.917C2182.08,579.317 2184.47,581.476 2184.47,584.802C2184.47,587.077 2183.24,589.411 2181.44,590.695C2179.74,591.92 2177.06,592.504 2173.62,592.504C2168.95,592.504 2165.86,591.395 2163.81,588.945C2162.24,587.077 2161.54,585.035 2161.6,582.41L2156.47,582.41C2156.53,586.319 2157.29,588.886 2158.98,591.22C2161.89,595.241 2166.79,597.28 2173.27,597.28C2178.34,597.28 2182.49,596.115 2185.23,594.018C2188.08,591.745 2189.89,587.953 2189.89,584.277C2189.89,579.026 2186.63,575.175 2180.85,573.6L2170.17,570.741C2165.04,569.34 2163.17,567.707 2163.17,564.439C2163.17,560.122 2166.96,557.263 2172.68,557.263C2179.45,557.263 2183.24,560.297 2183.3,565.898L2188.43,565.898Z" style="fill:#727272;fill-rule:nonzero;"/>
        <path d="M2203.25,576.571L2226.41,576.571L2226.41,571.795L2203.25,571.795L2203.25,558.196L2227.28,558.196L2227.28,553.42L2197.83,553.42L2197.83,595.938L2228.33,595.938L2228.33,591.162L2203.25,591.162L2203.25,576.571Z" style="fill:#727272;fill-rule:nonzero;"/>
        <path d="M2258.55,577.621L2272.55,577.621C2277.39,577.621 2279.55,579.956 2279.55,585.208L2279.49,589.001C2279.49,591.627 2279.96,594.195 2280.72,595.938L2287.3,595.938L2287.3,594.604C2285.26,593.203 2284.86,591.686 2284.74,586.025C2284.68,579.022 2283.57,576.922 2278.97,574.942C2283.75,572.553 2285.67,569.694 2285.67,564.791C2285.67,557.439 2281.13,553.42 2272.73,553.42L2253.13,553.42L2253.13,595.938L2258.55,595.938L2258.55,577.621ZM2258.55,572.845L2258.55,558.196L2271.68,558.196C2274.71,558.196 2276.46,558.663 2277.8,559.83C2279.26,561.056 2280.02,562.982 2280.02,565.492C2280.02,570.569 2277.45,572.845 2271.68,572.845L2258.55,572.845Z" style="fill:#727272;fill-rule:nonzero;"/>
        <path d="M2317.82,583.163L2322.19,595.938L2328.26,595.938L2313.33,553.42L2306.33,553.42L2291.16,595.938L2296.93,595.938L2301.43,583.163L2317.82,583.163ZM2316.3,578.62L2302.77,578.62L2309.77,559.248L2316.3,578.62Z" style="fill:#727272;fill-rule:nonzero;"/>
        <path d="M2366.76,553.42L2361.63,553.42L2361.63,588.186L2339.4,553.42L2333.51,553.42L2333.51,595.938L2338.64,595.938L2338.64,561.464L2360.64,595.938L2366.76,595.938L2366.76,553.42Z" style="fill:#727272;fill-rule:nonzero;"/>
        <path d="M2376.39,595.938L2392.78,595.938C2403.51,595.938 2410.1,587.895 2410.1,574.65C2410.1,561.464 2403.57,553.42 2392.78,553.42L2376.39,553.42L2376.39,595.938ZM2381.8,591.162L2381.8,558.196L2391.84,558.196C2400.24,558.196 2404.68,563.856 2404.68,574.708C2404.68,585.502 2400.24,591.162 2391.84,591.162L2381.8,591.162Z" style="fill:#727272;fill-rule:nonzero;"/>
        <path d="M2436,552.72C2423.8,552.72 2415.53,561.697 2415.53,575C2415.53,588.361 2423.75,597.28 2436.06,597.28C2441.25,597.28 2445.8,595.707 2449.24,592.795C2453.85,588.886 2456.59,582.293 2456.59,575.35C2456.59,561.639 2448.49,552.72 2436,552.72ZM2436,557.496C2445.22,557.496 2451.17,564.439 2451.17,575.233C2451.17,585.502 2445.04,592.504 2436.06,592.504C2426.96,592.504 2420.95,585.502 2420.95,575C2420.95,564.498 2426.96,557.496 2436,557.496Z" style="fill:#727272;fill-rule:nonzero;"/>
        <path d="M2485.99,595.938L2497.95,560.297L2497.95,595.938L2503.08,595.938L2503.08,553.42L2495.56,553.42L2483.19,590.461L2470.59,553.42L2463.07,553.42L2463.07,595.938L2468.2,595.938L2468.2,560.297L2480.27,595.938L2485.99,595.938Z" style="fill:#727272;fill-rule:nonzero;"/>
        <path d="M2562.11,566.598C2560.42,557.263 2555.05,552.72 2545.72,552.72C2540.01,552.72 2535.4,554.526 2532.25,558.021C2528.4,562.222 2526.3,568.29 2526.3,575.175C2526.3,582.176 2528.46,588.186 2532.42,592.329C2535.75,595.707 2539.95,597.28 2545.49,597.28C2555.87,597.28 2561.7,591.687 2562.99,580.426L2557.39,580.426C2556.92,583.343 2556.34,585.327 2555.46,587.019C2553.71,590.52 2550.1,592.504 2545.55,592.504C2537.09,592.504 2531.72,585.736 2531.72,575.117C2531.72,564.206 2536.8,557.496 2545.08,557.496C2548.52,557.496 2551.73,558.488 2553.48,560.18C2555.05,561.639 2555.93,563.389 2556.57,566.598L2562.11,566.598Z" style="fill:#727272;fill-rule:nonzero;"/>
        <path d="M2597.06,576.571L2597.06,595.938L2602.48,595.938L2602.48,553.42L2597.06,553.42L2597.06,571.795L2575.18,571.795L2575.18,553.42L2569.76,553.42L2569.76,595.938L2575.18,595.938L2575.18,576.571L2597.06,576.571Z" style="fill:#727272;fill-rule:nonzero;"/>
        <path d="M2634.04,583.163L2638.42,595.938L2644.48,595.938L2629.55,553.42L2622.55,553.42L2607.38,595.938L2613.16,595.938L2617.65,583.163L2634.04,583.163ZM2632.53,578.62L2618.99,578.62L2625.99,559.248L2632.53,578.62Z" style="fill:#727272;fill-rule:nonzero;"/>
        <path d="M2656.15,577.621L2670.15,577.621C2674.99,577.621 2677.15,579.956 2677.15,585.208L2677.1,589.001C2677.1,591.627 2677.56,594.195 2678.32,595.938L2684.91,595.938L2684.91,594.604C2682.86,593.203 2682.46,591.686 2682.34,586.025C2682.28,579.022 2681.17,576.922 2676.57,574.942C2681.35,572.553 2683.27,569.694 2683.27,564.791C2683.27,557.439 2678.73,553.42 2670.33,553.42L2650.73,553.42L2650.73,595.938L2656.15,595.938L2656.15,577.621ZM2656.15,572.845L2656.15,558.196L2669.28,558.196C2672.31,558.196 2674.06,558.663 2675.4,559.83C2676.86,561.056 2677.62,562.982 2677.62,565.492C2677.62,570.569 2675.05,572.845 2669.28,572.845L2656.15,572.845Z" style="fill:#727272;fill-rule:nonzero;"/>
        <path d="M2706.72,558.196L2720.66,558.196L2720.66,553.42L2687.3,553.42L2687.3,558.196L2701.3,558.196L2701.3,595.938L2706.72,595.938L2706.72,558.196Z" style="fill:#727272;fill-rule:nonzero;"/>
    </g>
    <g id="NUMS">
        <path d="M1465.26,554.906L1465.26,603.794L1479.24,603.794L1479.24,532.906L1469.95,532.906C1467.75,541.306 1460.46,545.606 1448.26,545.606L1448.26,554.906L1465.26,554.906Z" style="fill:#727272;fill-rule:nonzero;"/>
        <path d="M1623.89,591.306L1593.8,591.306C1595.7,587.505 1597.9,585.405 1608.31,577.903C1620.6,568.9 1624.19,563.599 1624.19,553.897C1624.19,540.197 1614.7,531.406 1599.9,531.406C1585.2,531.406 1576.61,540.097 1576.61,555.097L1576.61,557.598L1590.09,557.598L1590.09,555.297C1590.09,547.395 1593.8,542.794 1600.2,542.794C1606.4,542.794 1610.21,547.095 1610.21,554.197C1610.21,562.099 1607.81,564.999 1592,576.202C1580,584.404 1576.31,590.606 1575.71,603.794L1623.89,603.794L1623.89,591.306Z" style="fill:#727272;fill-rule:nonzero;"/>
        <path d="M1725.66,572.101C1731.06,572.101 1731.36,572.101 1733.86,572.801C1738.56,574.101 1741.56,578.202 1741.56,583.404C1741.56,589.705 1737.16,594.106 1731.06,594.106C1724.46,594.106 1720.86,590.305 1720.46,583.004L1706.86,583.004C1706.96,597.203 1716.16,606.094 1730.76,606.094C1745.85,606.094 1755.54,597.203 1755.54,583.404C1755.54,575.102 1751.95,569.7 1743.95,565.799C1750.45,561.698 1753.24,557.197 1753.24,550.696C1753.24,538.898 1744.45,531.406 1730.76,531.406C1720.46,531.406 1712.56,535.901 1709.46,543.594C1708.16,546.995 1707.76,549.295 1707.76,555.197L1720.76,555.197C1720.86,551.396 1721.16,549.495 1721.86,547.695C1723.16,544.594 1726.36,542.694 1730.46,542.694C1736.06,542.694 1739.26,546.095 1739.26,551.996C1739.26,559.198 1735.16,562.699 1726.86,562.699L1725.66,562.699L1725.66,572.101Z" style="fill:#727272;fill-rule:nonzero;"/>
        <path d="M1493.64,442.131L1486.24,442.131L1486.24,398.531L1469.76,398.531L1443.86,441.931L1443.86,453.719L1472.26,453.719L1472.26,469.419L1486.24,469.419L1486.24,453.719L1493.64,453.719L1493.64,442.131ZM1472.26,442.131L1453.76,442.131L1472.26,411.831L1472.26,442.131Z" style="fill:#727272;fill-rule:nonzero;"/>
        <path d="M1621.6,398.531L1583.71,398.531L1577.41,438.021L1590.01,438.021C1591.51,434.52 1594.71,432.619 1599.01,432.619C1606.11,432.619 1610.41,437.721 1610.41,446.325C1610.41,454.629 1606.11,459.731 1599.01,459.731C1592.91,459.731 1589.51,456.63 1589.21,450.927L1575.41,450.927C1575.61,463.327 1585.01,471.719 1598.81,471.719C1614,471.719 1624.39,461.33 1624.39,446.025C1624.39,431.42 1615.4,421.531 1602.31,421.531C1597.61,421.531 1594.11,422.73 1590.01,425.826L1592.31,411.019L1621.6,411.019L1621.6,398.531Z" style="fill:#727272;fill-rule:nonzero;"/>
        <path d="M1754.64,414.624C1753.94,410.02 1753.05,407.719 1751.25,405.122C1747.55,400.028 1741.06,397.031 1733.35,397.031C1724.55,397.031 1717.35,400.927 1713.05,408.019C1708.86,414.924 1707.16,422.831 1707.16,435.72C1707.16,447.925 1708.65,455.529 1712.25,461.23C1716.35,467.823 1723.75,471.719 1732.15,471.719C1746.25,471.719 1755.84,461.23 1755.84,445.724C1755.84,432.121 1747.45,422.731 1735.25,422.731C1729.45,422.731 1725.55,424.429 1721.14,429.024L1721.24,427.526C1721.44,420.93 1721.74,418.828 1722.75,416.126C1724.65,410.921 1728.05,408.319 1732.95,408.319C1737.45,408.319 1739.86,410.12 1741.66,414.624L1754.64,414.624ZM1731.75,433.819C1738.35,433.819 1742.56,438.821 1742.56,446.725C1742.56,454.229 1737.95,459.731 1731.75,459.731C1725.35,459.731 1720.94,454.529 1720.94,446.925C1720.94,439.221 1725.35,433.819 1731.75,433.819Z" style="fill:#727272;fill-rule:nonzero;"/>
        <path d="M1494.25,264.156L1444.35,264.156L1444.35,276.644L1479.65,276.644C1475.35,281.244 1466.85,294.147 1464.05,300.349C1459.15,310.651 1456.65,319.953 1454.75,335.044L1468.85,335.044C1470.15,312.652 1477.45,295.448 1494.25,275.145L1494.25,264.156Z" style="fill:#727272;fill-rule:nonzero;"/>
        <path d="M1613.6,296.451C1616,295.153 1617.1,294.454 1618.2,293.455C1621.1,290.755 1622.79,286.452 1622.79,281.849C1622.79,270.747 1613.2,262.656 1600.1,262.656C1586.9,262.656 1577.31,270.747 1577.31,281.949C1577.31,288.754 1580.1,293.056 1586.5,296.451C1578.3,300.945 1574.91,306.246 1574.91,314.651C1574.91,328.053 1585.2,337.344 1600.1,337.344C1614.9,337.344 1625.19,328.053 1625.19,314.651C1625.19,306.246 1621.8,300.945 1613.6,296.451L1613.6,296.451ZM1600.2,273.944C1606.4,273.944 1610.71,277.746 1610.71,283.25C1610.71,288.654 1606.3,292.556 1600.2,292.556C1593.9,292.556 1589.59,288.754 1589.59,283.15C1589.59,277.746 1593.9,273.944 1600.2,273.944ZM1600,302.044C1606.9,302.044 1611.21,306.646 1611.21,314.05C1611.21,320.854 1606.8,325.356 1600,325.356C1593.2,325.356 1588.89,320.854 1588.89,313.85C1588.89,306.646 1593.2,302.044 1600,302.044Z" style="fill:#727272;fill-rule:nonzero;"/>
        <path d="M1707.76,318.55C1708.06,329.452 1717.25,337.444 1729.44,337.444C1738.54,337.444 1745.44,333.648 1749.64,326.455C1753.34,320.151 1755.54,309.447 1755.54,298.055C1755.54,287.65 1753.94,279.646 1750.64,274.244C1746.14,266.652 1739.14,262.656 1730.64,262.656C1716.45,262.656 1706.76,272.845 1706.76,287.65C1706.76,302.255 1715.35,312.244 1727.94,312.244C1731.54,312.244 1734.94,311.245 1737.14,309.647C1738.44,308.748 1739.24,307.849 1741.54,305.251C1741.54,318.95 1737.74,325.456 1729.84,325.456C1724.84,325.456 1721.54,322.754 1721.24,318.55L1707.76,318.55ZM1730.24,274.044C1737.04,274.044 1741.24,279.246 1741.24,287.65C1741.24,295.454 1736.94,300.656 1730.44,300.656C1724.04,300.656 1720.04,295.654 1720.04,287.45C1720.04,279.246 1723.94,274.044 1730.24,274.044Z" style="fill:#727272;fill-rule:nonzero;"/>
        <path d="M1468.75,665.781C1461.14,665.781 1454.65,668.978 1450.35,674.871C1446.26,680.37 1444.36,689.372 1444.36,703.175C1444.36,715.778 1445.95,724.58 1449.35,729.98C1453.55,736.773 1460.44,740.469 1468.75,740.469C1476.45,740.469 1482.75,737.372 1487.15,731.478C1491.14,725.981 1493.14,716.878 1493.14,703.575C1493.14,690.572 1491.55,681.77 1488.15,676.27C1483.95,669.477 1477.06,665.781 1468.75,665.781ZM1468.75,677.069C1472.35,677.069 1475.25,679.069 1476.95,682.77C1478.36,685.771 1479.16,693.473 1479.16,703.275C1479.16,711.277 1478.46,719.079 1477.36,721.98C1475.75,726.181 1472.75,728.481 1468.75,728.481C1465.05,728.481 1462.25,726.581 1460.55,722.98C1459.14,719.979 1458.34,712.577 1458.34,703.075C1458.34,694.673 1459.04,686.671 1460.14,683.77C1461.65,679.469 1464.75,677.069 1468.75,677.069Z" style="fill:#727272;fill-rule:nonzero;"/>
        <path d="M1576.83,672.005C1570.5,672.005 1565.08,674.669 1561.5,679.58C1558.09,684.162 1556.51,691.664 1556.51,703.167C1556.51,713.669 1557.84,721.004 1560.67,725.504C1564.16,731.165 1569.91,734.245 1576.83,734.245C1583.25,734.245 1588.5,731.664 1592.17,726.753C1595.5,722.171 1597.16,714.586 1597.16,703.5C1597.16,692.664 1595.83,685.329 1593,680.746C1589.5,675.085 1583.75,672.005 1576.83,672.005ZM1576.83,681.411C1579.84,681.411 1582.25,683.078 1583.67,686.163C1584.84,688.663 1585.51,695.081 1585.51,703.25C1585.51,709.918 1584.92,716.42 1584,718.837C1582.67,722.338 1580.17,724.255 1576.83,724.255C1573.75,724.255 1571.41,722.671 1570,719.671C1568.83,717.17 1568.16,711.002 1568.16,703.083C1568.16,696.082 1568.75,689.413 1569.66,686.996C1570.91,683.412 1573.5,681.411 1576.83,681.411Z" style="fill:#727272;fill-rule:nonzero;"/>
        <path d="M1623.17,672.005C1616.83,672.005 1611.41,674.669 1607.83,679.58C1604.42,684.162 1602.84,691.664 1602.84,703.167C1602.84,713.669 1604.17,721.004 1607,725.504C1610.5,731.165 1616.25,734.245 1623.17,734.245C1629.59,734.245 1634.84,731.664 1638.5,726.753C1641.83,722.171 1643.5,714.586 1643.5,703.5C1643.5,692.664 1642.16,685.329 1639.33,680.746C1635.84,675.085 1630.09,672.005 1623.17,672.005ZM1623.17,681.411C1626.17,681.411 1628.59,683.078 1630,686.163C1631.17,688.663 1631.84,695.081 1631.84,703.25C1631.84,709.918 1631.26,716.42 1630.34,718.837C1629,722.338 1626.5,724.255 1623.17,724.255C1620.08,724.255 1617.75,722.671 1616.33,719.671C1615.16,717.17 1614.5,711.002 1614.5,703.083C1614.5,696.082 1615.08,689.413 1616,686.996C1617.25,683.412 1619.83,681.411 1623.17,681.411Z" style="fill:#727272;fill-rule:nonzero;"/>
    </g>
</svg>
