<?xml version="1.0" encoding="UTF-8" standalone="no"?>
<!DOCTYPE svg PUBLIC "-//W3C//DTD SVG 1.1//EN" "http://www.w3.org/Graphics/SVG/1.1/DTD/svg11.dtd">
<svg width="100%" height="100%" viewBox="0 0 3200 1372" version="1.1" xmlns="http://www.w3.org/2000/svg" xmlns:xlink="http://www.w3.org/1999/xlink" xml:space="preserve" xmlns:serif="http://www.serif.com/" style="fill-rule:evenodd;clip-rule:evenodd;stroke-linejoin:round;stroke-miterlimit:2;">
    <rect id="MUSIC_SELECT" x="0" y="0" width="3200" height="1371.88" style="fill:none;"/>
    <clipPath id="_clip1">
        <rect x="0" y="0" width="3200" height="1371.88"/>
    </clipPath>
    <g clip-path="url(#_clip1)">
        <g id="EXIT">
            <rect x="718.75" y="1275" width="1556.25" height="87.5" style="fill:#fff;"/>
            <path d="M2287.5,1371.88L0,1371.88L0,1265.62L2287.5,1265.62L2287.5,1371.88ZM718.75,1362.5C955.393,1362.5 2275,1362.5 2275,1362.5L2275,1275C2224.99,1275 933.85,1275 718.75,1275L718.75,1362.5Z" style="fill:#e4d68b;"/>
            <path d="M105.255,1347.1L132.584,1347.1C139.587,1347.1 144.253,1345.77 147.917,1342.69C151.58,1339.61 153.911,1334.53 153.911,1329.61C153.911,1323.6 150.748,1318.85 143.837,1314.86C149.83,1311.03 152.161,1307.52 152.161,1302.35C152.161,1298.1 150.08,1293.77 146.666,1290.77C143.086,1287.69 138.838,1286.36 132.335,1286.36L105.255,1286.36L105.255,1347.1ZM117.745,1296.77L131.334,1296.77C137.17,1296.77 140.172,1299.1 140.172,1303.6C140.172,1308.19 137.17,1310.53 131.334,1310.53L117.745,1310.53L117.745,1296.77ZM117.745,1320.93L132.668,1320.93C138.754,1320.93 141.922,1323.6 141.922,1328.85C141.922,1334.02 138.754,1336.69 132.668,1336.69L117.745,1336.69L117.745,1320.93Z" style="fill:#fff;fill-rule:nonzero;"/>
            <path d="M189.578,1296.77L207.328,1296.77L207.328,1286.36L158.672,1286.36L158.672,1296.77L177.089,1296.77L177.089,1347.1L189.578,1347.1L189.578,1296.77Z" style="fill:#fff;fill-rule:nonzero;"/>
            <rect x="206.583" y="1318.61" width="22.667" height="11.24" style="fill:#fff;fill-rule:nonzero;"/>
            <path d="M273.833,1334.85L277.833,1347.1L290.667,1347.1L269.667,1286.36L255.833,1286.36L234.25,1347.1L247,1347.1L251.083,1334.85L273.833,1334.85ZM270.417,1324.44L254.583,1324.44L262.5,1300.69L270.417,1324.44Z" style="fill:#fff;fill-rule:nonzero;"/>
            <path d="M336.661,1322.86L321.495,1322.86L321.495,1307.69L311.589,1307.69L311.589,1322.86L296.422,1322.86L296.422,1332.77L311.589,1332.77L311.589,1347.93L321.495,1347.93L321.495,1332.77L336.661,1332.77L336.661,1322.86Z" style="fill:#fff;fill-rule:nonzero;"/>
            <path d="M347.755,1347.1L375.084,1347.1C382.087,1347.1 386.753,1345.77 390.417,1342.69C394.08,1339.61 396.411,1334.53 396.411,1329.61C396.411,1323.6 393.248,1318.85 386.337,1314.86C392.33,1311.03 394.661,1307.52 394.661,1302.35C394.661,1298.1 392.58,1293.77 389.166,1290.77C385.586,1287.69 381.338,1286.36 374.835,1286.36L347.755,1286.36L347.755,1347.1ZM360.245,1296.77L373.834,1296.77C379.67,1296.77 382.672,1299.1 382.672,1303.6C382.672,1308.19 379.67,1310.53 373.834,1310.53L360.245,1310.53L360.245,1296.77ZM360.245,1320.93L375.168,1320.93C381.254,1320.93 384.422,1323.6 384.422,1328.85C384.422,1334.02 381.254,1336.69 375.168,1336.69L360.245,1336.69L360.245,1320.93Z" style="fill:#fff;fill-rule:nonzero;"/>
            <path d="M445.495,1322.86L430.328,1322.86L430.328,1307.69L420.422,1307.69L420.422,1322.86L405.255,1322.86L405.255,1332.77L420.422,1332.77L420.422,1347.93L430.328,1347.93L430.328,1332.77L445.495,1332.77L445.495,1322.86Z" style="fill:#fff;fill-rule:nonzero;"/>
            <path d="M506.578,1306.93C506.161,1301.68 505.078,1298.35 502.495,1294.93C497.828,1288.77 490.328,1285.36 481.245,1285.36C464.08,1285.36 453.422,1297.6 453.422,1317.27C453.422,1336.86 463.996,1349.02 480.911,1349.02C496.078,1349.02 506.078,1340.27 506.828,1326.36L494.661,1326.36C493.828,1334.11 488.995,1338.53 481.245,1338.53C471.578,1338.53 465.911,1330.69 465.911,1317.44C465.911,1304.02 471.828,1296.02 481.661,1296.02C488.911,1296.02 492.995,1299.52 494.661,1306.93L506.578,1306.93Z" style="fill:#fff;fill-rule:nonzero;"/>
            <path d="M554.328,1322.86L539.161,1322.86L539.161,1307.69L529.255,1307.69L529.255,1322.86L514.089,1322.86L514.089,1332.77L529.255,1332.77L529.255,1347.93L539.161,1347.93L539.161,1332.77L554.328,1332.77L554.328,1322.86Z" style="fill:#fff;fill-rule:nonzero;"/>
            <path d="M565.005,1347.1L588.749,1347.1C598.003,1347.1 603.838,1344.93 608.001,1340.02C612.747,1334.36 615.328,1326.19 615.328,1316.69C615.328,1307.27 612.747,1299.1 608.001,1293.35C603.838,1288.44 598.087,1286.36 588.749,1286.36L565.005,1286.36L565.005,1347.1ZM577.495,1336.69L577.495,1296.77L588.749,1296.77C598.17,1296.77 602.839,1303.35 602.839,1316.77C602.839,1330.11 598.17,1336.69 588.749,1336.69L577.495,1336.69Z" style="fill:#fff;fill-rule:nonzero;"/>
            <path d="M760.463,1295.61L755.045,1295.61L755.045,1338.13L781.463,1338.13L781.463,1333.35L760.463,1333.35L760.463,1295.61Z" style="fill:#727272;fill-rule:nonzero;"/>
            <path d="M793.48,1318.76L816.638,1318.76L816.638,1313.98L793.48,1313.98L793.48,1300.38L817.513,1300.38L817.513,1295.61L788.062,1295.61L788.062,1338.13L818.563,1338.13L818.563,1333.35L793.48,1333.35L793.48,1318.76Z" style="fill:#727272;fill-rule:nonzero;"/>
            <path d="M849.425,1325.35L853.8,1338.13L859.867,1338.13L844.933,1295.61L837.933,1295.61L822.767,1338.13L828.542,1338.13L833.033,1325.35L849.425,1325.35ZM847.908,1320.81L834.375,1320.81L841.375,1301.43L847.908,1320.81Z" style="fill:#727272;fill-rule:nonzero;"/>
            <path d="M879.408,1338.13L894.167,1295.61L888.392,1295.61L876.608,1331.6L864.125,1295.61L858.292,1295.61L873.575,1338.13L879.408,1338.13Z" style="fill:#727272;fill-rule:nonzero;"/>
            <path d="M905.013,1318.76L928.171,1318.76L928.171,1313.98L905.013,1313.98L905.013,1300.38L929.046,1300.38L929.046,1295.61L899.595,1295.61L899.595,1338.13L930.096,1338.13L930.096,1333.35L905.013,1333.35L905.013,1318.76Z" style="fill:#727272;fill-rule:nonzero;"/>
            <path d="M960.196,1320.1L973.56,1320.1C976.886,1320.1 979.512,1319.11 981.784,1317.07C984.348,1314.74 985.455,1312 985.455,1308.09C985.455,1300.09 980.736,1295.61 972.334,1295.61L954.779,1295.61L954.779,1338.13L960.196,1338.13L960.196,1320.1ZM960.196,1315.33L960.196,1300.38L971.517,1300.38C976.711,1300.38 979.804,1303.18 979.804,1307.85C979.804,1312.52 976.711,1315.33 971.517,1315.33L960.196,1315.33Z" style="fill:#727272;fill-rule:nonzero;"/>
            <path d="M997.18,1319.81L1011.18,1319.81C1016.03,1319.81 1018.19,1322.14 1018.19,1327.4L1018.13,1331.19C1018.13,1333.82 1018.6,1336.38 1019.35,1338.13L1025.94,1338.13L1025.94,1336.79C1023.9,1335.39 1023.49,1333.87 1023.37,1328.21C1023.31,1321.21 1022.21,1319.11 1017.6,1317.13C1022.38,1314.74 1024.31,1311.88 1024.31,1306.98C1024.31,1299.63 1019.76,1295.61 1011.36,1295.61L991.762,1295.61L991.762,1338.13L997.18,1338.13L997.18,1319.81ZM997.18,1315.03L997.18,1300.38L1010.31,1300.38C1013.34,1300.38 1015.09,1300.85 1016.44,1302.02C1017.89,1303.24 1018.65,1305.17 1018.65,1307.68C1018.65,1312.76 1016.09,1315.03 1010.31,1315.03L997.18,1315.03Z" style="fill:#727272;fill-rule:nonzero;"/>
            <path d="M1038.42,1318.76L1061.58,1318.76L1061.58,1313.98L1038.42,1313.98L1038.42,1300.38L1062.45,1300.38L1062.45,1295.61L1033,1295.61L1033,1338.13L1063.51,1338.13L1063.51,1333.35L1038.42,1333.35L1038.42,1318.76Z" style="fill:#727272;fill-rule:nonzero;"/>
            <path d="M1093.96,1338.13L1105.92,1302.49L1105.92,1338.13L1111.05,1338.13L1111.05,1295.61L1103.53,1295.61L1091.16,1332.65L1078.56,1295.61L1071.04,1295.61L1071.04,1338.13L1076.16,1338.13L1076.16,1302.49L1088.24,1338.13L1093.96,1338.13Z" style="fill:#727272;fill-rule:nonzero;"/>
            <rect x="1121.09" y="1295.61" width="5.476" height="42.518" style="fill:#727272;fill-rule:nonzero;"/>
            <path d="M1163.67,1295.61L1163.67,1325.47C1163.67,1331.19 1159.53,1334.69 1152.7,1334.69C1149.55,1334.69 1146.98,1333.93 1144.94,1332.47C1142.84,1330.84 1141.85,1328.68 1141.85,1325.47L1141.85,1295.61L1136.43,1295.61L1136.43,1325.47C1136.43,1334.11 1142.61,1339.47 1152.7,1339.47C1162.68,1339.47 1169.09,1333.99 1169.09,1325.47L1169.09,1295.61L1163.67,1295.61Z" style="fill:#727272;fill-rule:nonzero;"/>
            <path d="M1200.88,1338.13L1212.85,1302.49L1212.85,1338.13L1217.97,1338.13L1217.97,1295.61L1210.45,1295.61L1198.08,1332.65L1185.48,1295.61L1177.96,1295.61L1177.96,1338.13L1183.09,1338.13L1183.09,1302.49L1195.17,1338.13L1200.88,1338.13Z" style="fill:#727272;fill-rule:nonzero;"/>
            <path d="M1259.04,1300.38L1272.98,1300.38L1272.98,1295.61L1239.62,1295.61L1239.62,1300.38L1253.62,1300.38L1253.62,1338.13L1259.04,1338.13L1259.04,1300.38Z" style="fill:#727272;fill-rule:nonzero;"/>
            <rect x="1278.59" y="1295.61" width="5.476" height="42.518" style="fill:#727272;fill-rule:nonzero;"/>
            <path d="M1316.27,1338.13L1328.23,1302.49L1328.23,1338.13L1333.36,1338.13L1333.36,1295.61L1325.84,1295.61L1313.47,1332.65L1300.86,1295.61L1293.35,1295.61L1293.35,1338.13L1298.47,1338.13L1298.47,1302.49L1310.55,1338.13L1316.27,1338.13Z" style="fill:#727272;fill-rule:nonzero;"/>
            <path d="M1348.23,1318.76L1371.39,1318.76L1371.39,1313.98L1348.23,1313.98L1348.23,1300.38L1372.26,1300.38L1372.26,1295.61L1342.81,1295.61L1342.81,1338.13L1373.31,1338.13L1373.31,1333.35L1348.23,1333.35L1348.23,1318.76Z" style="fill:#727272;fill-rule:nonzero;"/>
        </g>
        <g id="FASTSCROLL">
            <rect x="718.75" y="1143.75" width="1556.25" height="87.5" style="fill:#fff;"/>
            <path d="M2287.5,1240.62L0,1240.62L0,1134.38L2287.5,1134.38L2287.5,1240.62ZM718.75,1231.25C955.393,1231.25 2275,1231.25 2275,1231.25L2275,1143.75C2224.99,1143.75 933.85,1143.75 718.75,1143.75L718.75,1231.25Z" style="fill:#ff8fbc;"/>
            <path d="M90.578,1189.68L117.161,1189.68L117.161,1179.28L90.578,1179.28L90.578,1165.52L120.745,1165.52L120.745,1155.11L78.089,1155.11L78.089,1215.85L90.578,1215.85L90.578,1189.68Z" style="fill:#fff;fill-rule:nonzero;"/>
            <path d="M157.75,1184.85L176.5,1155.11L162,1155.11L150.833,1175.1L140.167,1155.11L125.333,1155.11L143.833,1185.27L124.667,1215.85L139.167,1215.85L150.75,1194.77L162.417,1215.85L177.25,1215.85L157.75,1184.85Z" style="fill:#fff;fill-rule:nonzero;"/>
            <rect x="178.25" y="1187.36" width="22.667" height="11.24" style="fill:#fff;fill-rule:nonzero;"/>
            <path d="M222.995,1155.11L210.505,1155.11L210.505,1215.85L252.078,1215.85L252.078,1205.44L222.995,1205.44L222.995,1155.11Z" style="fill:#fff;fill-rule:nonzero;"/>
            <path d="M272.083,1156.36L254.917,1217.02L260.5,1217.02L277.667,1156.36L272.083,1156.36Z" style="fill:#fff;fill-rule:nonzero;"/>
            <path d="M300.411,1191.77L314.751,1191.77C320.17,1191.77 322.505,1193.93 322.505,1198.94L322.505,1201.44C322.421,1203.02 322.421,1204.52 322.421,1205.44C322.421,1211.19 322.755,1212.94 324.255,1215.85L337.661,1215.85L337.661,1213.61C335.746,1212.53 334.996,1211.28 334.996,1208.61C334.663,1190.68 334.33,1189.85 326.587,1186.52C333.414,1183.86 336.828,1178.94 336.828,1171.52C336.828,1166.68 335.163,1162.27 332.249,1159.27C329.501,1156.44 325.671,1155.11 320.504,1155.11L287.922,1155.11L287.922,1215.85L300.411,1215.85L300.411,1191.77ZM300.411,1181.36L300.411,1165.52L315.501,1165.52C319.086,1165.52 320.504,1165.85 322.088,1167.1C323.588,1168.35 324.339,1170.44 324.339,1173.27C324.339,1176.19 323.588,1178.52 322.088,1179.78C320.67,1180.94 319.086,1181.36 315.501,1181.36L300.411,1181.36Z" style="fill:#fff;fill-rule:nonzero;"/>
            <path d="M385.828,1191.61L370.661,1191.61L370.661,1176.44L360.755,1176.44L360.755,1191.61L345.589,1191.61L345.589,1201.52L360.755,1201.52L360.755,1216.68L370.661,1216.68L370.661,1201.52L385.828,1201.52L385.828,1191.61Z" style="fill:#fff;fill-rule:nonzero;"/>
            <path d="M423.167,1215.85L444,1155.11L431.417,1155.11L418.167,1200.86L404.667,1155.11L392.083,1155.11L412.583,1215.85L423.167,1215.85Z" style="fill:#fff;fill-rule:nonzero;"/>
            <path d="M475.167,1154.11C466.664,1154.11 459.662,1156.94 454.498,1162.52C449.086,1168.35 446.005,1176.85 446.005,1185.94C446.005,1195.02 449.086,1203.61 454.498,1209.36C459.745,1215.02 466.581,1217.77 475.25,1217.77C483.919,1217.77 490.755,1215.02 496.002,1209.36C501.247,1203.78 504.495,1194.94 504.495,1186.35C504.495,1176.85 501.414,1168.27 496.002,1162.52C490.671,1156.77 484.003,1154.11 475.167,1154.11ZM475.25,1164.77C485.503,1164.77 492.005,1173.1 492.005,1186.27C492.005,1198.77 485.253,1207.11 475.25,1207.11C465.08,1207.11 458.495,1198.77 458.495,1185.94C458.495,1173.1 465.08,1164.77 475.25,1164.77Z" style="fill:#fff;fill-rule:nonzero;"/>
            <path d="M526.661,1155.11L514.172,1155.11L514.172,1215.85L555.745,1215.85L555.745,1205.44L526.661,1205.44L526.661,1155.11Z" style="fill:#fff;fill-rule:nonzero;"/>
            <rect x="559.5" y="1187.36" width="22.667" height="11.24" style="fill:#fff;fill-rule:nonzero;"/>
            <path d="M604.245,1191.77L618.584,1191.77C624.004,1191.77 626.338,1193.93 626.338,1198.94L626.338,1201.44C626.255,1203.02 626.255,1204.52 626.255,1205.44C626.255,1211.19 626.588,1212.94 628.089,1215.85L641.495,1215.85L641.495,1213.61C639.579,1212.53 638.83,1211.28 638.83,1208.61C638.497,1190.68 638.163,1189.85 630.42,1186.52C637.248,1183.86 640.661,1178.94 640.661,1171.52C640.661,1166.68 638.996,1162.27 636.082,1159.27C633.334,1156.44 629.504,1155.11 624.337,1155.11L591.755,1155.11L591.755,1215.85L604.245,1215.85L604.245,1191.77ZM604.245,1181.36L604.245,1165.52L619.335,1165.52C622.92,1165.52 624.337,1165.85 625.921,1167.1C627.422,1168.35 628.172,1170.44 628.172,1173.27C628.172,1176.19 627.422,1178.52 625.921,1179.78C624.504,1180.94 622.92,1181.36 619.335,1181.36L604.245,1181.36Z" style="fill:#fff;fill-rule:nonzero;"/>
            <path d="M785.14,1176.84C785.14,1173.92 784.965,1173.1 784.033,1171.12C781.703,1166.22 776.744,1163.66 769.566,1163.66C760.23,1163.66 754.462,1168.43 754.462,1176.13C754.462,1181.33 757.2,1184.6 762.797,1186.05L773.359,1188.86C778.786,1190.26 781.179,1192.41 781.179,1195.74C781.179,1198.02 779.953,1200.35 778.144,1201.63C776.452,1202.86 773.768,1203.44 770.325,1203.44C765.657,1203.44 762.564,1202.33 760.522,1199.88C758.948,1198.02 758.249,1195.97 758.307,1193.35L753.179,1193.35C753.237,1197.26 753.995,1199.82 755.685,1202.16C758.598,1206.18 763.498,1208.22 769.975,1208.22C775.051,1208.22 779.194,1207.05 781.936,1204.96C784.79,1202.68 786.596,1198.89 786.596,1195.21C786.596,1189.96 783.334,1186.11 777.561,1184.54L766.882,1181.68C761.747,1180.28 759.88,1178.64 759.88,1175.38C759.88,1171.06 763.673,1168.2 769.391,1168.2C776.16,1168.2 779.953,1171.23 780.011,1176.84L785.14,1176.84Z" style="fill:#727272;fill-rule:nonzero;"/>
            <path d="M827.196,1177.54C825.505,1168.2 820.138,1163.66 810.805,1163.66C805.088,1163.66 800.48,1165.46 797.33,1168.96C793.484,1173.16 791.387,1179.23 791.387,1186.11C791.387,1193.11 793.542,1199.12 797.505,1203.27C800.83,1206.64 805.03,1208.22 810.571,1208.22C820.955,1208.22 826.788,1202.62 828.071,1191.36L822.471,1191.36C822.005,1194.28 821.421,1196.27 820.546,1197.96C818.796,1201.46 815.18,1203.44 810.63,1203.44C802.171,1203.44 796.805,1196.67 796.805,1186.05C796.805,1175.14 801.88,1168.43 810.163,1168.43C813.605,1168.43 816.813,1169.43 818.563,1171.12C820.138,1172.58 821.013,1174.33 821.655,1177.54L827.196,1177.54Z" style="fill:#727272;fill-rule:nonzero;"/>
            <path d="M841.546,1188.56L855.551,1188.56C860.394,1188.56 862.553,1190.89 862.553,1196.15L862.495,1199.94C862.495,1202.57 862.962,1205.13 863.719,1206.88L870.305,1206.88L870.305,1205.54C868.264,1204.14 867.856,1202.62 867.739,1196.96C867.681,1189.96 866.574,1187.86 861.97,1185.88C866.749,1183.49 868.671,1180.63 868.671,1175.73C868.671,1168.38 864.127,1164.36 855.726,1164.36L836.129,1164.36L836.129,1206.88L841.546,1206.88L841.546,1188.56ZM841.546,1183.78L841.546,1169.13L854.676,1169.13C857.71,1169.13 859.461,1169.6 860.803,1170.77C862.262,1171.99 863.02,1173.92 863.02,1176.43C863.02,1181.51 860.453,1183.78 854.676,1183.78L841.546,1183.78Z" style="fill:#727272;fill-rule:nonzero;"/>
            <path d="M894.808,1163.66C882.614,1163.66 874.337,1172.63 874.337,1185.94C874.337,1199.3 882.555,1208.22 894.867,1208.22C900.06,1208.22 904.611,1206.64 908.053,1203.73C912.658,1199.82 915.396,1193.23 915.396,1186.29C915.396,1172.58 907.295,1163.66 894.808,1163.66ZM894.808,1168.43C904.027,1168.43 909.979,1175.38 909.979,1186.17C909.979,1196.44 903.852,1203.44 894.867,1203.44C885.764,1203.44 879.755,1196.44 879.755,1185.94C879.755,1175.43 885.764,1168.43 894.808,1168.43Z" style="fill:#727272;fill-rule:nonzero;"/>
            <path d="M927.588,1164.36L922.17,1164.36L922.17,1206.88L948.588,1206.88L948.588,1202.1L927.588,1202.1L927.588,1164.36Z" style="fill:#727272;fill-rule:nonzero;"/>
            <path d="M960.021,1164.36L954.604,1164.36L954.604,1206.88L981.021,1206.88L981.021,1202.1L960.021,1202.1L960.021,1164.36Z" style="fill:#727272;fill-rule:nonzero;"/>
            <path d="M1019.23,1169.13L1033.17,1169.13L1033.17,1164.36L999.812,1164.36L999.812,1169.13L1013.81,1169.13L1013.81,1206.88L1019.23,1206.88L1019.23,1169.13Z" style="fill:#727272;fill-rule:nonzero;"/>
            <path d="M1065.55,1187.51L1065.55,1206.88L1070.97,1206.88L1070.97,1164.36L1065.55,1164.36L1065.55,1182.73L1043.67,1182.73L1043.67,1164.36L1038.25,1164.36L1038.25,1206.88L1043.67,1206.88L1043.67,1187.51L1065.55,1187.51Z" style="fill:#727272;fill-rule:nonzero;"/>
            <path d="M1086.37,1188.56L1100.38,1188.56C1105.22,1188.56 1107.38,1190.89 1107.38,1196.15L1107.32,1199.94C1107.32,1202.57 1107.79,1205.13 1108.54,1206.88L1115.13,1206.88L1115.13,1205.54C1113.09,1204.14 1112.68,1202.62 1112.56,1196.96C1112.51,1189.96 1111.4,1187.86 1106.8,1185.88C1111.57,1183.49 1113.5,1180.63 1113.5,1175.73C1113.5,1168.38 1108.95,1164.36 1100.55,1164.36L1080.95,1164.36L1080.95,1206.88L1086.37,1206.88L1086.37,1188.56ZM1086.37,1183.78L1086.37,1169.13L1099.5,1169.13C1102.54,1169.13 1104.29,1169.6 1105.63,1170.77C1107.09,1171.99 1107.85,1173.92 1107.85,1176.43C1107.85,1181.51 1105.28,1183.78 1099.5,1183.78L1086.37,1183.78Z" style="fill:#727272;fill-rule:nonzero;"/>
            <path d="M1139.63,1163.66C1127.44,1163.66 1119.16,1172.63 1119.16,1185.94C1119.16,1199.3 1127.38,1208.22 1139.69,1208.22C1144.88,1208.22 1149.44,1206.64 1152.88,1203.73C1157.48,1199.82 1160.22,1193.23 1160.22,1186.29C1160.22,1172.58 1152.12,1163.66 1139.63,1163.66ZM1139.63,1168.43C1148.85,1168.43 1154.8,1175.38 1154.8,1186.17C1154.8,1196.44 1148.68,1203.44 1139.69,1203.44C1130.59,1203.44 1124.58,1196.44 1124.58,1185.94C1124.58,1175.43 1130.59,1168.43 1139.63,1168.43Z" style="fill:#727272;fill-rule:nonzero;"/>
            <path d="M1194.53,1164.36L1194.53,1194.22C1194.53,1199.94 1190.39,1203.44 1183.56,1203.44C1180.41,1203.44 1177.84,1202.68 1175.8,1201.22C1173.7,1199.59 1172.7,1197.43 1172.7,1194.22L1172.7,1164.36L1167.29,1164.36L1167.29,1194.22C1167.29,1202.86 1173.46,1208.22 1183.56,1208.22C1193.54,1208.22 1199.95,1202.74 1199.95,1194.22L1199.95,1164.36L1194.53,1164.36Z" style="fill:#727272;fill-rule:nonzero;"/>
            <path d="M1245.8,1184.42L1228.06,1184.42L1228.06,1189.2L1241.01,1189.2L1241.01,1190.37C1241.01,1197.95 1235.41,1203.44 1227.65,1203.44C1223.34,1203.44 1219.43,1201.87 1216.92,1199.12C1214.12,1196.09 1212.43,1191.01 1212.43,1185.76C1212.43,1175.32 1218.38,1168.43 1227.36,1168.43C1233.84,1168.43 1238.51,1171.76 1239.67,1177.25L1245.21,1177.25C1243.7,1168.61 1237.16,1163.66 1227.42,1163.66C1222.23,1163.66 1218.03,1165 1214.7,1167.74C1209.75,1171.82 1207.01,1178.41 1207.01,1186.06C1207.01,1199.12 1215,1208.22 1226.49,1208.22C1232.26,1208.22 1236.81,1206.06 1241.01,1201.46L1242.36,1207.11L1245.8,1207.11L1245.8,1184.42Z" style="fill:#727272;fill-rule:nonzero;"/>
            <path d="M1281.68,1187.51L1281.68,1206.88L1287.1,1206.88L1287.1,1164.36L1281.68,1164.36L1281.68,1182.73L1259.8,1182.73L1259.8,1164.36L1254.38,1164.36L1254.38,1206.88L1259.8,1206.88L1259.8,1187.51L1281.68,1187.51Z" style="fill:#727272;fill-rule:nonzero;"/>
            <path d="M1346.48,1177.54C1344.79,1168.2 1339.42,1163.66 1330.09,1163.66C1324.37,1163.66 1319.76,1165.46 1316.61,1168.96C1312.77,1173.16 1310.67,1179.23 1310.67,1186.11C1310.67,1193.11 1312.83,1199.12 1316.79,1203.27C1320.11,1206.64 1324.31,1208.22 1329.86,1208.22C1340.24,1208.22 1346.07,1202.62 1347.36,1191.36L1341.76,1191.36C1341.29,1194.28 1340.7,1196.27 1339.83,1197.96C1338.08,1201.46 1334.46,1203.44 1329.91,1203.44C1321.45,1203.44 1316.09,1196.67 1316.09,1186.05C1316.09,1175.14 1321.16,1168.43 1329.45,1168.43C1332.89,1168.43 1336.1,1169.43 1337.85,1171.12C1339.42,1172.58 1340.3,1174.33 1340.94,1177.54L1346.48,1177.54Z" style="fill:#727272;fill-rule:nonzero;"/>
            <path d="M1375.71,1194.1L1380.08,1206.88L1386.15,1206.88L1371.22,1164.36L1364.22,1164.36L1349.05,1206.88L1354.83,1206.88L1359.32,1194.1L1375.71,1194.1ZM1374.19,1189.56L1360.66,1189.56L1367.66,1170.18L1374.19,1189.56Z" style="fill:#727272;fill-rule:nonzero;"/>
            <path d="M1402.19,1169.13L1416.13,1169.13L1416.13,1164.36L1382.77,1164.36L1382.77,1169.13L1396.77,1169.13L1396.77,1206.88L1402.19,1206.88L1402.19,1169.13Z" style="fill:#727272;fill-rule:nonzero;"/>
            <path d="M1426.86,1187.51L1450.02,1187.51L1450.02,1182.73L1426.86,1182.73L1426.86,1169.13L1450.9,1169.13L1450.9,1164.36L1421.44,1164.36L1421.44,1206.88L1451.95,1206.88L1451.95,1202.1L1426.86,1202.1L1426.86,1187.51Z" style="fill:#727272;fill-rule:nonzero;"/>
            <path d="M1496.45,1184.42L1478.72,1184.42L1478.72,1189.2L1491.67,1189.2L1491.67,1190.37C1491.67,1197.95 1486.07,1203.44 1478.31,1203.44C1474,1203.44 1470.09,1201.87 1467.58,1199.12C1464.78,1196.09 1463.09,1191.01 1463.09,1185.76C1463.09,1175.32 1469.04,1168.43 1478.02,1168.43C1484.5,1168.43 1489.16,1171.76 1490.33,1177.25L1495.87,1177.25C1494.36,1168.61 1487.82,1163.66 1478.08,1163.66C1472.89,1163.66 1468.69,1165 1465.36,1167.74C1460.41,1171.82 1457.67,1178.41 1457.67,1186.06C1457.67,1199.12 1465.65,1208.22 1477.15,1208.22C1482.92,1208.22 1487.47,1206.06 1491.67,1201.46L1493.01,1207.11L1496.45,1207.11L1496.45,1184.42Z" style="fill:#727272;fill-rule:nonzero;"/>
            <path d="M1523.17,1163.66C1510.98,1163.66 1502.7,1172.63 1502.7,1185.94C1502.7,1199.3 1510.92,1208.22 1523.23,1208.22C1528.43,1208.22 1532.98,1206.64 1536.42,1203.73C1541.03,1199.82 1543.76,1193.23 1543.76,1186.29C1543.76,1172.58 1535.66,1163.66 1523.17,1163.66ZM1523.17,1168.43C1532.39,1168.43 1538.35,1175.38 1538.35,1186.17C1538.35,1196.44 1532.22,1203.44 1523.23,1203.44C1514.13,1203.44 1508.12,1196.44 1508.12,1185.94C1508.12,1175.43 1514.13,1168.43 1523.17,1168.43Z" style="fill:#727272;fill-rule:nonzero;"/>
            <path d="M1556.71,1188.56L1570.72,1188.56C1575.56,1188.56 1577.72,1190.89 1577.72,1196.15L1577.66,1199.94C1577.66,1202.57 1578.13,1205.13 1578.89,1206.88L1585.47,1206.88L1585.47,1205.54C1583.43,1204.14 1583.02,1202.62 1582.91,1196.96C1582.85,1189.96 1581.74,1187.86 1577.14,1185.88C1581.92,1183.49 1583.84,1180.63 1583.84,1175.73C1583.84,1168.38 1579.29,1164.36 1570.89,1164.36L1551.3,1164.36L1551.3,1206.88L1556.71,1206.88L1556.71,1188.56ZM1556.71,1183.78L1556.71,1169.13L1569.84,1169.13C1572.88,1169.13 1574.63,1169.6 1575.97,1170.77C1577.43,1171.99 1578.19,1173.92 1578.19,1176.43C1578.19,1181.51 1575.62,1183.78 1569.84,1183.78L1556.71,1183.78Z" style="fill:#727272;fill-rule:nonzero;"/>
            <rect x="1592.83" y="1164.36" width="5.476" height="42.518" style="fill:#727272;fill-rule:nonzero;"/>
            <path d="M1613.88,1187.51L1637.04,1187.51L1637.04,1182.73L1613.88,1182.73L1613.88,1169.13L1637.91,1169.13L1637.91,1164.36L1608.46,1164.36L1608.46,1206.88L1638.96,1206.88L1638.96,1202.1L1613.88,1202.1L1613.88,1187.51Z" style="fill:#727272;fill-rule:nonzero;"/>
            <path d="M1674.84,1176.84C1674.84,1173.92 1674.66,1173.1 1673.73,1171.12C1671.4,1166.22 1666.44,1163.66 1659.27,1163.66C1649.93,1163.66 1644.16,1168.43 1644.16,1176.13C1644.16,1181.33 1646.9,1184.6 1652.5,1186.05L1663.06,1188.86C1668.49,1190.26 1670.88,1192.41 1670.88,1195.74C1670.88,1198.02 1669.65,1200.35 1667.84,1201.63C1666.15,1202.86 1663.47,1203.44 1660.03,1203.44C1655.36,1203.44 1652.26,1202.33 1650.22,1199.88C1648.65,1198.02 1647.95,1195.97 1648.01,1193.35L1642.88,1193.35C1642.94,1197.26 1643.69,1199.82 1645.38,1202.16C1648.3,1206.18 1653.2,1208.22 1659.67,1208.22C1664.75,1208.22 1668.89,1207.05 1671.64,1204.96C1674.49,1202.68 1676.3,1198.89 1676.3,1195.21C1676.3,1189.96 1673.03,1186.11 1667.26,1184.54L1656.58,1181.68C1651.45,1180.28 1649.58,1178.64 1649.58,1175.38C1649.58,1171.06 1653.37,1168.2 1659.09,1168.2C1665.86,1168.2 1669.65,1171.23 1669.71,1176.84L1674.84,1176.84Z" style="fill:#727272;fill-rule:nonzero;"/>
            <path d="M1738.6,1206.88L1749.39,1164.36L1743.33,1164.36L1735.51,1198.89L1725.83,1164.36L1719.99,1164.36L1710.54,1198.89L1702.55,1164.36L1696.48,1164.36L1707.39,1206.88L1713.34,1206.88L1722.85,1171.93L1732.65,1206.88L1738.6,1206.88Z" style="fill:#727272;fill-rule:nonzero;"/>
            <rect x="1754.88" y="1164.36" width="5.476" height="42.518" style="fill:#727272;fill-rule:nonzero;"/>
            <path d="M1784.97,1169.13L1798.91,1169.13L1798.91,1164.36L1765.55,1164.36L1765.55,1169.13L1779.55,1169.13L1779.55,1206.88L1784.97,1206.88L1784.97,1169.13Z" style="fill:#727272;fill-rule:nonzero;"/>
            <path d="M1831.3,1187.51L1831.3,1206.88L1836.71,1206.88L1836.71,1164.36L1831.3,1164.36L1831.3,1182.73L1809.41,1182.73L1809.41,1164.36L1804,1164.36L1804,1206.88L1809.41,1206.88L1809.41,1187.51L1831.3,1187.51Z" style="fill:#727272;fill-rule:nonzero;"/>
            <rect x="1846.35" y="1164.36" width="5.476" height="42.518" style="fill:#727272;fill-rule:nonzero;"/>
            <path d="M1894.4,1164.36L1889.28,1164.36L1889.28,1199.12L1867.05,1164.36L1861.16,1164.36L1861.16,1206.88L1866.29,1206.88L1866.29,1172.4L1888.29,1206.88L1894.4,1206.88L1894.4,1164.36Z" style="fill:#727272;fill-rule:nonzero;"/>
            <path d="M1949.82,1176.84C1949.82,1173.92 1949.65,1173.1 1948.72,1171.12C1946.39,1166.22 1941.43,1163.66 1934.25,1163.66C1924.91,1163.66 1919.14,1168.43 1919.14,1176.13C1919.14,1181.33 1921.88,1184.6 1927.48,1186.05L1938.04,1188.86C1943.47,1190.26 1945.86,1192.41 1945.86,1195.74C1945.86,1198.02 1944.64,1200.35 1942.83,1201.63C1941.13,1202.86 1938.45,1203.44 1935.01,1203.44C1930.34,1203.44 1927.25,1202.33 1925.2,1199.88C1923.63,1198.02 1922.93,1195.97 1922.99,1193.35L1917.86,1193.35C1917.92,1197.26 1918.68,1199.82 1920.37,1202.16C1923.28,1206.18 1928.18,1208.22 1934.66,1208.22C1939.74,1208.22 1943.88,1207.05 1946.62,1204.96C1949.47,1202.68 1951.28,1198.89 1951.28,1195.21C1951.28,1189.96 1948.02,1186.11 1942.24,1184.54L1931.57,1181.68C1926.43,1180.28 1924.56,1178.64 1924.56,1175.38C1924.56,1171.06 1928.36,1168.2 1934.08,1168.2C1940.84,1168.2 1944.64,1171.23 1944.69,1176.84L1949.82,1176.84Z" style="fill:#727272;fill-rule:nonzero;"/>
            <path d="M1976.08,1163.66C1963.88,1163.66 1955.6,1172.63 1955.6,1185.94C1955.6,1199.3 1963.82,1208.22 1976.13,1208.22C1981.33,1208.22 1985.88,1206.64 1989.32,1203.73C1993.92,1199.82 1996.66,1193.23 1996.66,1186.29C1996.66,1172.58 1988.56,1163.66 1976.08,1163.66ZM1976.08,1168.43C1985.29,1168.43 1991.25,1175.38 1991.25,1186.17C1991.25,1196.44 1985.12,1203.44 1976.13,1203.44C1967.03,1203.44 1961.02,1196.44 1961.02,1185.94C1961.02,1175.43 1967.03,1168.43 1976.08,1168.43Z" style="fill:#727272;fill-rule:nonzero;"/>
            <path d="M2009.61,1188.56L2023.62,1188.56C2028.46,1188.56 2030.62,1190.89 2030.62,1196.15L2030.56,1199.94C2030.56,1202.57 2031.03,1205.13 2031.79,1206.88L2038.37,1206.88L2038.37,1205.54C2036.33,1204.14 2035.92,1202.62 2035.81,1196.96C2035.75,1189.96 2034.64,1187.86 2030.04,1185.88C2034.82,1183.49 2036.74,1180.63 2036.74,1175.73C2036.74,1168.38 2032.19,1164.36 2023.79,1164.36L2004.19,1164.36L2004.19,1206.88L2009.61,1206.88L2009.61,1188.56ZM2009.61,1183.78L2009.61,1169.13L2022.74,1169.13C2025.78,1169.13 2027.53,1169.6 2028.87,1170.77C2030.33,1171.99 2031.09,1173.92 2031.09,1176.43C2031.09,1181.51 2028.52,1183.78 2022.74,1183.78L2009.61,1183.78Z" style="fill:#727272;fill-rule:nonzero;"/>
            <path d="M2060.19,1169.13L2074.13,1169.13L2074.13,1164.36L2040.77,1164.36L2040.77,1169.13L2054.77,1169.13L2054.77,1206.88L2060.19,1206.88L2060.19,1169.13Z" style="fill:#727272;fill-rule:nonzero;"/>
        </g>
        <g id="OPTIONS">
            <rect x="718.75" y="1012.5" width="1556.25" height="87.5" style="fill:#fff;"/>
            <path d="M2287.5,1109.38L0,1109.38L0,1003.12L2287.5,1003.12L2287.5,1109.38ZM718.75,1100C955.393,1100 2275,1100 2275,1100L2275,1012.5C2224.99,1012.5 933.85,1012.5 718.75,1012.5L718.75,1100Z" style="fill:#ff8fbc;"/>
            <path d="M231.411,1058.43L257.995,1058.43L257.995,1048.03L231.411,1048.03L231.411,1034.27L261.578,1034.27L261.578,1023.86L218.922,1023.86L218.922,1084.6L231.411,1084.6L231.411,1058.43Z" style="fill:#fff;fill-rule:nonzero;"/>
            <path d="M298.583,1053.6L317.333,1023.86L302.833,1023.86L291.667,1043.85L281,1023.86L266.167,1023.86L284.667,1054.02L265.5,1084.6L280,1084.6L291.583,1063.52L303.25,1084.6L318.083,1084.6L298.583,1053.6Z" style="fill:#fff;fill-rule:nonzero;"/>
            <rect x="319.083" y="1056.11" width="22.667" height="11.24" style="fill:#fff;fill-rule:nonzero;"/>
            <path d="M363.828,1023.86L351.339,1023.86L351.339,1084.6L392.911,1084.6L392.911,1074.19L363.828,1074.19L363.828,1023.86Z" style="fill:#fff;fill-rule:nonzero;"/>
            <path d="M439.995,1060.36L424.828,1060.36L424.828,1045.19L414.922,1045.19L414.922,1060.36L399.755,1060.36L399.755,1070.27L414.922,1070.27L414.922,1085.43L424.828,1085.43L424.828,1070.27L439.995,1070.27L439.995,1060.36Z" style="fill:#fff;fill-rule:nonzero;"/>
            <path d="M463.411,1060.52L477.751,1060.52C483.17,1060.52 485.505,1062.68 485.505,1067.69L485.505,1070.19C485.421,1071.77 485.421,1073.27 485.421,1074.19C485.421,1079.94 485.755,1081.69 487.255,1084.6L500.661,1084.6L500.661,1082.36C498.746,1081.28 497.996,1080.03 497.996,1077.36C497.663,1059.43 497.33,1058.6 489.587,1055.27C496.414,1052.61 499.828,1047.69 499.828,1040.27C499.828,1035.43 498.163,1031.02 495.249,1028.02C492.501,1025.19 488.671,1023.86 483.504,1023.86L450.922,1023.86L450.922,1084.6L463.411,1084.6L463.411,1060.52ZM463.411,1050.11L463.411,1034.27L478.501,1034.27C482.086,1034.27 483.504,1034.6 485.088,1035.85C486.588,1037.1 487.339,1039.19 487.339,1042.02C487.339,1044.94 486.588,1047.27 485.088,1048.53C483.67,1049.69 482.086,1050.11 478.501,1050.11L463.411,1050.11Z" style="fill:#fff;fill-rule:nonzero;"/>
            <path d="M773.067,1032.41C760.872,1032.41 752.595,1041.38 752.595,1054.69C752.595,1068.05 760.814,1076.97 773.125,1076.97C778.318,1076.97 782.869,1075.39 786.312,1072.48C790.917,1068.57 793.655,1061.98 793.655,1055.04C793.655,1041.33 785.553,1032.41 773.067,1032.41ZM773.067,1037.18C782.286,1037.18 788.237,1044.13 788.237,1054.92C788.237,1065.19 782.111,1072.19 773.125,1072.19C764.023,1072.19 758.013,1065.19 758.013,1054.69C758.013,1044.18 764.023,1037.18 773.067,1037.18Z" style="fill:#727272;fill-rule:nonzero;"/>
            <path d="M806.08,1057.6L819.443,1057.6C822.769,1057.6 825.395,1056.61 827.668,1054.57C830.231,1052.24 831.338,1049.5 831.338,1045.59C831.338,1037.59 826.619,1033.11 818.217,1033.11L800.662,1033.11L800.662,1075.63L806.08,1075.63L806.08,1057.6ZM806.08,1052.83L806.08,1037.88L817.4,1037.88C822.594,1037.88 825.687,1040.68 825.687,1045.35C825.687,1050.02 822.594,1052.83 817.4,1052.83L806.08,1052.83Z" style="fill:#727272;fill-rule:nonzero;"/>
            <path d="M843.005,1056.26L866.163,1056.26L866.163,1051.48L843.005,1051.48L843.005,1037.88L867.038,1037.88L867.038,1033.11L837.587,1033.11L837.587,1075.63L868.088,1075.63L868.088,1070.85L843.005,1070.85L843.005,1056.26Z" style="fill:#727272;fill-rule:nonzero;"/>
            <path d="M908.921,1033.11L903.795,1033.11L903.795,1067.87L881.563,1033.11L875.679,1033.11L875.679,1075.63L880.805,1075.63L880.805,1041.15L902.803,1075.63L908.921,1075.63L908.921,1033.11Z" style="fill:#727272;fill-rule:nonzero;"/>
            <path d="M926.717,1033.11L912.892,1076.79L916.1,1076.79L929.925,1033.11L926.717,1033.11Z" style="fill:#727272;fill-rule:nonzero;"/>
            <path d="M968.188,1046.29C966.496,1036.95 961.13,1032.41 951.796,1032.41C946.08,1032.41 941.471,1034.21 938.321,1037.71C934.476,1041.91 932.379,1047.98 932.379,1054.86C932.379,1061.86 934.534,1067.87 938.496,1072.02C941.821,1075.39 946.021,1076.97 951.563,1076.97C961.946,1076.97 967.78,1071.37 969.063,1060.11L963.463,1060.11C962.996,1063.03 962.413,1065.02 961.538,1066.71C959.788,1070.21 956.171,1072.19 951.621,1072.19C943.163,1072.19 937.796,1065.42 937.796,1054.8C937.796,1043.89 942.871,1037.18 951.155,1037.18C954.596,1037.18 957.805,1038.18 959.555,1039.87C961.13,1041.33 962.005,1043.08 962.646,1046.29L968.188,1046.29Z" style="fill:#727272;fill-rule:nonzero;"/>
            <path d="M981.78,1033.11L976.362,1033.11L976.362,1075.63L1002.78,1075.63L1002.78,1070.85L981.78,1070.85L981.78,1033.11Z" style="fill:#727272;fill-rule:nonzero;"/>
            <path d="M1024.42,1032.41C1012.23,1032.41 1003.95,1041.38 1003.95,1054.69C1003.95,1068.05 1012.17,1076.97 1024.48,1076.97C1029.68,1076.97 1034.23,1075.39 1037.67,1072.48C1042.28,1068.57 1045.01,1061.98 1045.01,1055.04C1045.01,1041.33 1036.91,1032.41 1024.42,1032.41ZM1024.42,1037.18C1033.64,1037.18 1039.6,1044.13 1039.6,1054.92C1039.6,1065.19 1033.47,1072.19 1024.48,1072.19C1015.38,1072.19 1009.37,1065.19 1009.37,1054.69C1009.37,1044.18 1015.38,1037.18 1024.42,1037.18Z" style="fill:#727272;fill-rule:nonzero;"/>
            <path d="M1081.3,1045.59C1081.3,1042.67 1081.12,1041.85 1080.19,1039.87C1077.86,1034.97 1072.9,1032.41 1065.72,1032.41C1056.39,1032.41 1050.62,1037.18 1050.62,1044.88C1050.62,1050.08 1053.36,1053.35 1058.96,1054.8L1069.52,1057.61C1074.94,1059.01 1077.34,1061.16 1077.34,1064.49C1077.34,1066.77 1076.11,1069.1 1074.3,1070.38C1072.61,1071.61 1069.93,1072.19 1066.48,1072.19C1061.82,1072.19 1058.72,1071.08 1056.68,1068.63C1055.11,1066.77 1054.41,1064.72 1054.46,1062.1L1049.34,1062.1C1049.39,1066.01 1050.15,1068.57 1051.84,1070.91C1054.76,1074.93 1059.66,1076.97 1066.13,1076.97C1071.21,1076.97 1075.35,1075.8 1078.09,1073.71C1080.95,1071.43 1082.76,1067.64 1082.76,1063.96C1082.76,1058.71 1079.49,1054.86 1073.72,1053.29L1063.04,1050.43C1057.9,1049.03 1056.04,1047.39 1056.04,1044.13C1056.04,1039.81 1059.83,1036.95 1065.55,1036.95C1072.32,1036.95 1076.11,1039.98 1076.17,1045.59L1081.3,1045.59Z" style="fill:#727272;fill-rule:nonzero;"/>
            <path d="M1096.11,1056.26L1119.27,1056.26L1119.27,1051.48L1096.11,1051.48L1096.11,1037.88L1120.15,1037.88L1120.15,1033.11L1090.69,1033.11L1090.69,1075.63L1121.2,1075.63L1121.2,1070.85L1096.11,1070.85L1096.11,1056.26Z" style="fill:#727272;fill-rule:nonzero;"/>
            <path d="M1163.26,1032.41C1151.06,1032.41 1142.79,1041.38 1142.79,1054.69C1142.79,1068.05 1151.01,1076.97 1163.32,1076.97C1168.51,1076.97 1173.06,1075.39 1176.5,1072.48C1181.11,1068.57 1183.85,1061.98 1183.85,1055.04C1183.85,1041.33 1175.75,1032.41 1163.26,1032.41ZM1163.26,1037.18C1172.48,1037.18 1178.43,1044.13 1178.43,1054.92C1178.43,1065.19 1172.3,1072.19 1163.32,1072.19C1154.21,1072.19 1148.2,1065.19 1148.2,1054.69C1148.2,1044.18 1154.21,1037.18 1163.26,1037.18Z" style="fill:#727272;fill-rule:nonzero;"/>
            <path d="M1196.27,1057.6L1209.63,1057.6C1212.96,1057.6 1215.59,1056.61 1217.86,1054.57C1220.42,1052.24 1221.53,1049.5 1221.53,1045.59C1221.53,1037.59 1216.81,1033.11 1208.41,1033.11L1190.85,1033.11L1190.85,1075.63L1196.27,1075.63L1196.27,1057.6ZM1196.27,1052.83L1196.27,1037.88L1207.59,1037.88C1212.79,1037.88 1215.88,1040.68 1215.88,1045.35C1215.88,1050.02 1212.79,1052.83 1207.59,1052.83L1196.27,1052.83Z" style="fill:#727272;fill-rule:nonzero;"/>
            <path d="M1244.22,1037.88L1258.16,1037.88L1258.16,1033.11L1224.8,1033.11L1224.8,1037.88L1238.8,1037.88L1238.8,1075.63L1244.22,1075.63L1244.22,1037.88Z" style="fill:#727272;fill-rule:nonzero;"/>
            <rect x="1263.77" y="1033.11" width="5.476" height="42.518" style="fill:#727272;fill-rule:nonzero;"/>
            <path d="M1296.84,1032.41C1284.65,1032.41 1276.37,1041.38 1276.37,1054.69C1276.37,1068.05 1284.59,1076.97 1296.9,1076.97C1302.09,1076.97 1306.64,1075.39 1310.09,1072.48C1314.69,1068.57 1317.43,1061.98 1317.43,1055.04C1317.43,1041.33 1309.33,1032.41 1296.84,1032.41ZM1296.84,1037.18C1306.06,1037.18 1312.01,1044.13 1312.01,1054.92C1312.01,1065.19 1305.89,1072.19 1296.9,1072.19C1287.8,1072.19 1281.79,1065.19 1281.79,1054.69C1281.79,1044.18 1287.8,1037.18 1296.84,1037.18Z" style="fill:#727272;fill-rule:nonzero;"/>
            <path d="M1357.21,1033.11L1352.09,1033.11L1352.09,1067.87L1329.86,1033.11L1323.97,1033.11L1323.97,1075.63L1329.1,1075.63L1329.1,1041.15L1351.1,1075.63L1357.21,1075.63L1357.21,1033.11Z" style="fill:#727272;fill-rule:nonzero;"/>
            <path d="M1396.41,1045.59C1396.41,1042.67 1396.24,1041.85 1395.31,1039.87C1392.98,1034.97 1388.02,1032.41 1380.84,1032.41C1371.51,1032.41 1365.74,1037.18 1365.74,1044.88C1365.74,1050.08 1368.48,1053.35 1374.07,1054.8L1384.63,1057.61C1390.06,1059.01 1392.45,1061.16 1392.45,1064.49C1392.45,1066.77 1391.23,1069.1 1389.42,1070.38C1387.73,1071.61 1385.04,1072.19 1381.6,1072.19C1376.93,1072.19 1373.84,1071.08 1371.8,1068.63C1370.22,1066.77 1369.52,1064.72 1369.58,1062.1L1364.45,1062.1C1364.51,1066.01 1365.27,1068.57 1366.96,1070.91C1369.87,1074.93 1374.77,1076.97 1381.25,1076.97C1386.33,1076.97 1390.47,1075.8 1393.21,1073.71C1396.07,1071.43 1397.87,1067.64 1397.87,1063.96C1397.87,1058.71 1394.61,1054.86 1388.84,1053.29L1378.16,1050.43C1373.02,1049.03 1371.15,1047.39 1371.15,1044.13C1371.15,1039.81 1374.95,1036.95 1380.67,1036.95C1387.43,1036.95 1391.23,1039.98 1391.29,1045.59L1396.41,1045.59Z" style="fill:#727272;fill-rule:nonzero;"/>
        </g>
        <g id="CON">
            <path id="BACKGROUND" d="M2290.62,208.786L2290.62,744.339C2290.62,781.958 2260.08,812.5 2222.46,812.5L977.536,812.5C939.917,812.5 909.375,781.958 909.375,744.339L909.375,208.786C909.375,171.167 939.917,140.625 977.536,140.625L2222.46,140.625C2260.08,140.625 2290.62,171.167 2290.62,208.786Z" style="fill:#fff;"/>
            <clipPath id="_clip2">
                <path d="M2290.62,208.786L2290.62,744.339C2290.62,781.958 2260.08,812.5 2222.46,812.5L977.536,812.5C939.917,812.5 909.375,781.958 909.375,744.339L909.375,208.786C909.375,171.167 939.917,140.625 977.536,140.625L2222.46,140.625C2260.08,140.625 2290.62,171.167 2290.62,208.786Z"/>
            </clipPath>
            <g clip-path="url(#_clip2)">
                <rect x="942.272" y="803.125" width="1315.46" height="9.375" style="fill:#727272;"/>
            </g>
            <path d="M2300,208.786L2300,744.339C2300,787.132 2265.26,821.875 2222.46,821.875L977.536,821.875C934.743,821.875 900,787.132 900,744.339L900,208.786C900,165.993 934.743,131.25 977.536,131.25L2222.46,131.25C2265.26,131.25 2300,165.993 2300,208.786ZM2290.62,208.786C2290.62,171.167 2260.08,140.625 2222.46,140.625L977.536,140.625C939.917,140.625 909.375,171.167 909.375,208.786L909.375,744.339C909.375,781.958 939.917,812.5 977.536,812.5L2222.46,812.5C2260.08,812.5 2290.62,781.958 2290.62,744.339L2290.62,208.786Z" style="fill:#727272;"/>
            <g id="KNOB-L">
                <path d="M1068.75,178.125C1124.38,178.125 1168.75,216.46 1168.75,262.5C1168.75,308.54 1124.38,346.875 1068.75,346.875C1013.12,346.875 968.75,308.54 968.75,262.5C968.75,216.46 1013.12,178.125 1068.75,178.125ZM1068.75,187.5C1018.73,187.5 978.125,221.106 978.125,262.5C978.125,303.894 1018.73,337.5 1068.75,337.5C1118.77,337.5 1159.38,303.894 1159.38,262.5C1159.38,221.106 1118.77,187.5 1068.75,187.5Z" style="fill:#008cef;"/>
                <path d="M1018.75,262.5L1018.75,203.125L1118.75,203.125L1118.75,262.5C1118.75,284.922 1096.35,303.125 1068.75,303.125C1041.15,303.125 1018.75,284.922 1018.75,262.5Z" style="fill:#e5e5e5;"/>
                <path d="M1009.38,262.5L1009.38,203.125C1009.38,197.947 1013.57,193.75 1018.75,193.75L1118.75,193.75C1123.93,193.75 1128.12,197.947 1128.12,203.125L1128.12,262.5C1128.12,289.516 1102,312.5 1068.75,312.5C1035.5,312.5 1009.38,289.516 1009.38,262.5ZM1018.75,262.5C1018.75,284.922 1041.15,303.125 1068.75,303.125C1096.35,303.125 1118.75,284.922 1118.75,262.5L1118.75,203.125L1018.75,203.125L1018.75,262.5Z" style="fill:#727272;"/>
                <ellipse cx="1068.75" cy="203.125" rx="50" ry="40.625" style="fill:#e5e5e5;"/>
                <path d="M1068.75,153.125C1102,153.125 1128.12,176.109 1128.12,203.125C1128.12,230.141 1102,253.125 1068.75,253.125C1035.5,253.125 1009.38,230.141 1009.38,203.125C1009.38,176.109 1035.5,153.125 1068.75,153.125ZM1068.75,162.5C1041.15,162.5 1018.75,180.703 1018.75,203.125C1018.75,225.547 1041.15,243.75 1068.75,243.75C1096.35,243.75 1118.75,225.547 1118.75,203.125C1118.75,180.703 1096.35,162.5 1068.75,162.5Z" style="fill:#727272;"/>
            </g>
            <g id="KNOB-R">
                <path d="M2131.25,178.125C2186.88,178.125 2231.25,216.46 2231.25,262.5C2231.25,308.54 2186.88,346.875 2131.25,346.875C2075.62,346.875 2031.25,308.54 2031.25,262.5C2031.25,216.46 2075.62,178.125 2131.25,178.125ZM2131.25,187.5C2081.23,187.5 2040.62,221.106 2040.62,262.5C2040.62,303.894 2081.23,337.5 2131.25,337.5C2181.27,337.5 2221.88,303.894 2221.88,262.5C2221.88,221.106 2181.27,187.5 2131.25,187.5Z" style="fill:#f00000;"/>
                <path d="M2181.25,262.5L2181.25,203.125L2081.25,203.125L2081.25,262.5C2081.25,284.922 2103.65,303.125 2131.25,303.125C2158.85,303.125 2181.25,284.922 2181.25,262.5Z" style="fill:#e5e5e5;"/>
                <path d="M2190.62,262.5C2190.62,289.516 2164.5,312.5 2131.25,312.5C2098,312.5 2071.88,289.516 2071.88,262.5L2071.88,203.125C2071.88,197.947 2076.07,193.75 2081.25,193.75L2181.25,193.75C2186.43,193.75 2190.62,197.947 2190.62,203.125L2190.62,262.5ZM2181.25,262.5L2181.25,203.125L2081.25,203.125L2081.25,262.5C2081.25,284.922 2103.65,303.125 2131.25,303.125C2158.85,303.125 2181.25,284.922 2181.25,262.5Z" style="fill:#727272;"/>
                <ellipse cx="2131.25" cy="203.125" rx="50" ry="40.625" style="fill:#e5e5e5;"/>
                <path d="M2131.25,153.125C2164.5,153.125 2190.62,176.109 2190.62,203.125C2190.62,230.141 2164.5,253.125 2131.25,253.125C2098,253.125 2071.88,230.141 2071.88,203.125C2071.88,176.109 2098,153.125 2131.25,153.125ZM2131.25,162.5C2103.65,162.5 2081.25,180.703 2081.25,203.125C2081.25,225.547 2103.65,243.75 2131.25,243.75C2158.85,243.75 2181.25,225.547 2181.25,203.125C2181.25,180.703 2158.85,162.5 2131.25,162.5Z" style="fill:#727272;"/>
            </g>
            <g id="BT-A">
                <rect x="1118.75" y="390.625" width="203.125" height="212.5" style="fill:#fff;"/>
                <path d="M1331.25,390.625L1331.25,603.125C1331.25,608.303 1327.05,612.5 1321.88,612.5L1118.75,612.5C1113.57,612.5 1109.38,608.303 1109.38,603.125L1109.38,390.625C1109.38,385.447 1113.57,381.25 1118.75,381.25L1321.88,381.25C1327.05,381.25 1331.25,385.447 1331.25,390.625ZM1321.88,390.625L1118.75,390.625L1118.75,603.125L1321.88,603.125L1321.88,390.625Z" style="fill:#727272;"/>
                <rect x="1118.75" y="593.75" width="203.125" height="9.375" style="fill:#727272;"/>
            </g>
            <g id="BT-B">
                <rect x="1371.88" y="390.625" width="203.125" height="212.5" style="fill:#fff;"/>
                <path d="M1584.38,390.625L1584.38,603.125C1584.38,608.303 1580.18,612.5 1575,612.5L1371.88,612.5C1366.7,612.5 1362.5,608.303 1362.5,603.125L1362.5,390.625C1362.5,385.447 1366.7,381.25 1371.88,381.25L1575,381.25C1580.18,381.25 1584.38,385.447 1584.38,390.625ZM1575,390.625L1371.88,390.625L1371.88,603.125L1575,603.125L1575,390.625Z" style="fill:#727272;"/>
                <rect x="1371.88" y="593.75" width="203.125" height="9.375" style="fill:#727272;"/>
            </g>
            <g id="BT-C">
                <rect x="1625" y="390.625" width="203.125" height="212.5" style="fill:#fff;"/>
                <path d="M1837.5,390.625L1837.5,603.125C1837.5,608.303 1833.3,612.5 1828.12,612.5L1625,612.5C1619.82,612.5 1615.62,608.303 1615.62,603.125L1615.62,390.625C1615.62,385.447 1619.82,381.25 1625,381.25L1828.12,381.25C1833.3,381.25 1837.5,385.447 1837.5,390.625ZM1828.12,390.625L1625,390.625L1625,603.125L1828.12,603.125L1828.12,390.625Z" style="fill:#727272;"/>
                <rect x="1625" y="593.75" width="203.125" height="9.375" style="fill:#727272;"/>
            </g>
            <g id="BT-D">
                <rect x="1878.12" y="390.625" width="203.125" height="212.5" style="fill:#fff;"/>
                <path d="M1878.12,381.25L2081.25,381.25C2086.43,381.25 2090.62,385.447 2090.62,390.625L2090.62,603.125C2090.62,608.303 2086.43,612.5 2081.25,612.5L1878.12,612.5C1872.95,612.5 1868.75,608.303 1868.75,603.125L1868.75,390.625C1868.75,385.447 1872.95,381.25 1878.12,381.25ZM1878.12,390.625L1878.12,603.125L2081.25,603.125L2081.25,390.625L1878.12,390.625Z" style="fill:#727272;"/>
                <rect x="1878.12" y="593.75" width="203.125" height="9.375" style="fill:#727272;"/>
            </g>
            <g id="FX-L">
                <rect x="1246.88" y="659.375" width="200" height="109.375" style="fill:#e5e5e5;"/>
                <path d="M1456.25,659.375L1456.25,768.75C1456.25,773.928 1452.05,778.125 1446.88,778.125L1246.88,778.125C1241.7,778.125 1237.5,773.928 1237.5,768.75L1237.5,659.375C1237.5,654.197 1241.7,650 1246.88,650L1446.88,650C1452.05,650 1456.25,654.197 1456.25,659.375ZM1446.88,659.375L1246.88,659.375L1246.88,768.75L1446.88,768.75L1446.88,659.375Z" style="fill:#727272;"/>
                <rect x="1246.88" y="759.375" width="200" height="9.375" style="fill:#727272;"/>
            </g>
            <g id="FX-R">
                <rect x="1753.12" y="659.375" width="200" height="109.375" style="fill:#e5e5e5;"/>
                <path d="M1753.12,650L1953.12,650C1958.3,650 1962.5,654.197 1962.5,659.375L1962.5,768.75C1962.5,773.928 1958.3,778.125 1953.12,778.125L1753.12,778.125C1747.95,778.125 1743.75,773.928 1743.75,768.75L1743.75,659.375C1743.75,654.197 1747.95,650 1753.12,650ZM1753.12,659.375L1753.12,768.75L1953.12,768.75L1953.12,659.375L1753.12,659.375Z" style="fill:#727272;"/>
                <rect x="1753.12" y="759.375" width="200" height="9.375" style="fill:#727272;"/>
            </g>
            <g id="START">
                <rect x="1550" y="225" width="100" height="103.125" style="fill:#fff;"/>
                <path d="M1659.38,225L1659.38,328.125C1659.38,333.303 1655.18,337.5 1650,337.5L1550,337.5C1544.82,337.5 1540.62,333.303 1540.62,328.125L1540.62,225C1540.62,219.822 1544.82,215.625 1550,215.625L1650,215.625C1655.18,215.625 1659.38,219.822 1659.38,225ZM1650,225L1550,225L1550,328.125L1650,328.125L1650,225Z" style="fill:#727272;"/>
                <rect x="1550" y="318.75" width="100" height="9.375" style="fill:#727272;"/>
            </g>
        </g>
        <path id="FX-L_ANCHOR" d="M1334.3,771.779C1330.73,766.931 1330.14,760.232 1333.34,754.688C1337.65,747.219 1347.22,744.657 1354.69,748.969C1362.16,753.28 1364.72,762.844 1360.41,770.313C1357.21,775.857 1351.11,778.698 1345.13,778.029L1255.91,933.706L1245.09,927.456L1334.3,771.779Z" style="fill:#ff8fbc;"/>
        <path d="M1323.6,771.605C1320.93,764.775 1321.28,756.839 1325.22,750C1332.12,738.051 1347.43,733.951 1359.38,740.85C1371.32,747.749 1375.42,763.051 1368.53,775C1364.59,781.826 1357.9,786.091 1350.67,787.207L1264.05,938.367C1262.81,940.529 1260.76,942.109 1258.35,942.758C1255.95,943.406 1253.38,943.071 1251.23,941.825L1240.4,935.575C1235.93,932.992 1234.38,927.277 1236.95,922.795L1323.6,771.605ZM1334.3,771.779L1245.09,927.456L1255.91,933.706L1345.13,778.029C1351.11,778.698 1357.21,775.857 1360.41,770.313C1364.72,762.844 1362.16,753.28 1354.69,748.969C1347.22,744.657 1337.65,747.219 1333.34,754.688C1330.14,760.232 1330.73,766.931 1334.3,771.779Z" style="fill:#fff;"/>
        <g id="FX-L1" serif:id="FX-L">
            <rect x="771.875" y="856.25" width="621.875" height="87.5" style="fill:#fff;"/>
            <path d="M1403.12,953.125L412.5,953.125L412.5,846.875L1403.12,846.875L1403.12,953.125ZM771.875,943.75C1008.52,943.75 1393.75,943.75 1393.75,943.75L1393.75,856.25C1343.74,856.25 986.975,856.25 771.875,856.25L771.875,943.75Z" style="fill:#ff8fbc;"/>
            <path d="M519.768,904.203L546.352,904.203L546.352,893.797L519.768,893.797L519.768,880.036L549.935,880.036L549.935,869.63L507.279,869.63L507.279,930.37L519.768,930.37L519.768,904.203Z" style="fill:#fff;fill-rule:nonzero;"/>
            <path d="M586.94,899.375L605.69,869.63L591.19,869.63L580.023,889.623L569.357,869.63L554.523,869.63L573.023,899.792L553.857,930.37L568.357,930.37L579.94,909.293L591.607,930.37L606.44,930.37L586.94,899.375Z" style="fill:#fff;fill-rule:nonzero;"/>
            <rect x="607.44" y="901.88" width="22.667" height="11.24" style="fill:#fff;fill-rule:nonzero;"/>
            <path d="M652.185,869.63L639.695,869.63L639.695,930.37L681.268,930.37L681.268,919.964L652.185,919.964L652.185,869.63Z" style="fill:#fff;fill-rule:nonzero;"/>
            <path d="M874.238,878.42L868.82,878.42L868.82,920.938L895.238,920.938L895.238,916.162L874.238,916.162L874.238,878.42Z" style="fill:#727272;fill-rule:nonzero;"/>
            <path d="M907.255,901.571L930.413,901.571L930.413,896.795L907.255,896.795L907.255,883.196L931.288,883.196L931.288,878.42L901.837,878.42L901.837,920.938L932.338,920.938L932.338,916.162L907.255,916.162L907.255,901.571Z" style="fill:#727272;fill-rule:nonzero;"/>
            <path d="M963.2,908.163L967.575,920.938L973.642,920.938L958.708,878.42L951.708,878.42L936.542,920.938L942.317,920.938L946.808,908.163L963.2,908.163ZM961.683,903.62L948.15,903.62L955.15,884.248L961.683,903.62Z" style="fill:#727272;fill-rule:nonzero;"/>
            <path d="M993.183,920.938L1007.94,878.42L1002.17,878.42L990.383,914.411L977.9,878.42L972.067,878.42L987.35,920.938L993.183,920.938Z" style="fill:#727272;fill-rule:nonzero;"/>
            <path d="M1018.79,901.571L1041.95,901.571L1041.95,896.795L1018.79,896.795L1018.79,883.196L1042.82,883.196L1042.82,878.42L1013.37,878.42L1013.37,920.938L1043.87,920.938L1043.87,916.162L1018.79,916.162L1018.79,901.571Z" style="fill:#727272;fill-rule:nonzero;"/>
            <path d="M1073.91,901.571L1094.21,901.571L1094.21,896.795L1073.91,896.795L1073.91,883.196L1097.01,883.196L1097.01,878.42L1068.5,878.42L1068.5,920.938L1073.91,920.938L1073.91,901.571Z" style="fill:#727272;fill-rule:nonzero;"/>
            <path d="M1120.29,877.72C1108.1,877.72 1099.82,886.697 1099.82,900C1099.82,913.361 1108.04,922.28 1120.35,922.28C1125.54,922.28 1130.09,920.707 1133.54,917.795C1138.14,913.886 1140.88,907.293 1140.88,900.35C1140.88,886.639 1132.78,877.72 1120.29,877.72ZM1120.29,882.496C1129.51,882.496 1135.46,889.439 1135.46,900.233C1135.46,910.502 1129.34,917.504 1120.35,917.504C1111.25,917.504 1105.24,910.502 1105.24,900C1105.24,889.498 1111.25,882.496 1120.29,882.496Z" style="fill:#727272;fill-rule:nonzero;"/>
            <path d="M1153.07,878.42L1147.65,878.42L1147.65,920.938L1174.07,920.938L1174.07,916.162L1153.07,916.162L1153.07,878.42Z" style="fill:#727272;fill-rule:nonzero;"/>
            <path d="M1180.61,920.938L1197,920.938C1207.74,920.938 1214.32,912.895 1214.32,899.65C1214.32,886.464 1207.8,878.42 1197,878.42L1180.61,878.42L1180.61,920.938ZM1186.03,916.162L1186.03,883.196L1196.07,883.196C1204.47,883.196 1208.9,888.856 1208.9,899.708C1208.9,910.502 1204.47,916.162 1196.07,916.162L1186.03,916.162Z" style="fill:#727272;fill-rule:nonzero;"/>
            <path d="M1227.51,901.571L1250.66,901.571L1250.66,896.795L1227.51,896.795L1227.51,883.196L1251.54,883.196L1251.54,878.42L1222.09,878.42L1222.09,920.938L1252.59,920.938L1252.59,916.162L1227.51,916.162L1227.51,901.571Z" style="fill:#727272;fill-rule:nonzero;"/>
            <path d="M1266.59,902.621L1280.59,902.621C1285.44,902.621 1287.6,904.956 1287.6,910.208L1287.54,914.001C1287.54,916.627 1288,919.195 1288.76,920.938L1295.35,920.938L1295.35,919.604C1293.31,918.203 1292.9,916.686 1292.78,911.025C1292.72,904.022 1291.62,901.922 1287.01,899.942C1291.79,897.553 1293.71,894.694 1293.71,889.791C1293.71,882.439 1289.17,878.42 1280.77,878.42L1261.17,878.42L1261.17,920.938L1266.59,920.938L1266.59,902.621ZM1266.59,897.845L1266.59,883.196L1279.72,883.196C1282.75,883.196 1284.5,883.663 1285.84,884.83C1287.3,886.056 1288.06,887.982 1288.06,890.492C1288.06,895.569 1285.49,897.845 1279.72,897.845L1266.59,897.845Z" style="fill:#727272;fill-rule:nonzero;"/>
        </g>
        <path id="FX-R_ANCHOR" d="M1865.7,771.779C1869.27,766.931 1869.86,760.232 1866.66,754.688C1862.35,747.219 1852.78,744.657 1845.31,748.969C1837.84,753.28 1835.28,762.844 1839.59,770.313C1842.79,775.857 1848.89,778.698 1854.87,778.029L1944.09,933.706L1954.91,927.456L1865.7,771.779Z" style="fill:#ff8fbc;"/>
        <path d="M1876.4,771.606L1963.05,922.795C1965.62,927.277 1964.07,932.992 1959.6,935.575L1948.78,941.825C1946.62,943.071 1944.05,943.406 1941.65,942.758C1939.24,942.109 1937.19,940.529 1935.95,938.367C1935.95,938.367 1849.33,787.207 1849.33,787.207C1842.1,786.091 1835.41,781.826 1831.47,775C1824.58,763.051 1828.68,747.749 1840.62,740.85C1852.57,733.951 1867.88,738.051 1874.78,750C1878.72,756.839 1879.07,764.775 1876.4,771.606ZM1865.7,771.779C1869.27,766.931 1869.86,760.232 1866.66,754.688C1862.35,747.219 1852.78,744.657 1845.31,748.969C1837.84,753.28 1835.28,762.844 1839.59,770.313C1842.79,775.857 1848.89,778.698 1854.87,778.029L1944.09,933.706L1954.91,927.456L1865.7,771.779Z" style="fill:#fff;"/>
        <g id="FX-R1" serif:id="FX-R">
            <rect x="2156.25" y="856.25" width="621.875" height="87.5" style="fill:#fff;"/>
            <path d="M2787.5,953.125L1796.88,953.125L1796.88,846.875L2787.5,846.875L2787.5,953.125ZM2156.25,943.75C2392.89,943.75 2778.12,943.75 2778.12,943.75L2778.12,856.25C2728.12,856.25 2371.35,856.25 2156.25,856.25L2156.25,943.75Z" style="fill:#ff8fbc;"/>
            <path d="M1899.52,904.203L1926.1,904.203L1926.1,893.797L1899.52,893.797L1899.52,880.036L1929.68,880.036L1929.68,869.63L1887.03,869.63L1887.03,930.37L1899.52,930.37L1899.52,904.203Z" style="fill:#fff;fill-rule:nonzero;"/>
            <path d="M1966.69,899.375L1985.44,869.63L1970.94,869.63L1959.77,889.623L1949.11,869.63L1934.27,869.63L1952.77,899.792L1933.61,930.37L1948.11,930.37L1959.69,909.293L1971.36,930.37L1986.19,930.37L1966.69,899.375Z" style="fill:#fff;fill-rule:nonzero;"/>
            <rect x="1987.19" y="901.88" width="22.667" height="11.24" style="fill:#fff;fill-rule:nonzero;"/>
            <path d="M2031.93,906.286L2046.28,906.286C2051.69,906.286 2054.03,908.454 2054.03,913.457L2054.03,915.958C2053.95,917.542 2053.95,919.042 2053.95,919.96C2053.95,925.712 2054.28,927.463 2055.78,930.37L2069.18,930.37L2069.18,928.13C2067.27,927.046 2066.52,925.796 2066.52,923.128C2066.19,905.204 2065.85,904.372 2058.11,901.042C2064.94,898.378 2068.35,893.462 2068.35,886.04C2068.35,881.204 2066.69,876.79 2063.77,873.793C2061.02,870.962 2057.19,869.63 2052.03,869.63L2019.44,869.63L2019.44,930.37L2031.93,930.37L2031.93,906.286ZM2031.93,895.88L2031.93,880.036L2047.03,880.036C2050.61,880.036 2052.03,880.37 2053.61,881.621C2055.11,882.872 2055.86,884.956 2055.86,887.792C2055.86,890.71 2055.11,893.045 2053.61,894.296C2052.19,895.463 2050.61,895.88 2047.03,895.88L2031.93,895.88Z" style="fill:#fff;fill-rule:nonzero;"/>
            <path d="M2291.75,891.598C2290.05,882.263 2284.69,877.72 2275.36,877.72C2269.64,877.72 2265.03,879.526 2261.88,883.021C2258.03,887.222 2255.94,893.29 2255.94,900.175C2255.94,907.176 2258.09,913.186 2262.05,917.329C2265.38,920.707 2269.58,922.28 2275.12,922.28C2285.51,922.28 2291.34,916.687 2292.62,905.426L2287.02,905.426C2286.55,908.343 2285.97,910.327 2285.1,912.019C2283.35,915.52 2279.73,917.504 2275.18,917.504C2266.72,917.504 2261.36,910.736 2261.36,900.117C2261.36,889.206 2266.43,882.496 2274.71,882.496C2278.16,882.496 2281.36,883.488 2283.11,885.18C2284.69,886.639 2285.56,888.389 2286.2,891.598L2291.75,891.598Z" style="fill:#727272;fill-rule:nonzero;"/>
            <path d="M2326.7,901.571L2326.7,920.938L2332.11,920.938L2332.11,878.42L2326.7,878.42L2326.7,896.795L2304.81,896.795L2304.81,878.42L2299.39,878.42L2299.39,920.938L2304.81,920.938L2304.81,901.571L2326.7,901.571Z" style="fill:#727272;fill-rule:nonzero;"/>
            <path d="M2363.68,908.163L2368.05,920.938L2374.12,920.938L2359.18,878.42L2352.18,878.42L2337.02,920.938L2342.79,920.938L2347.28,908.163L2363.68,908.163ZM2362.16,903.62L2348.62,903.62L2355.62,884.248L2362.16,903.62Z" style="fill:#727272;fill-rule:nonzero;"/>
            <path d="M2412.61,878.42L2407.49,878.42L2407.49,913.186L2385.26,878.42L2379.37,878.42L2379.37,920.938L2384.5,920.938L2384.5,886.464L2406.49,920.938L2412.61,920.938L2412.61,878.42Z" style="fill:#727272;fill-rule:nonzero;"/>
            <path d="M2458.35,898.487L2440.61,898.487L2440.61,903.263L2453.56,903.263L2453.56,904.43C2453.56,912.017 2447.96,917.504 2440.2,917.504C2435.89,917.504 2431.98,915.928 2429.47,913.185C2426.67,910.15 2424.98,905.072 2424.98,899.827C2424.98,889.383 2430.93,882.496 2439.91,882.496C2446.39,882.496 2451.05,885.823 2452.22,891.309L2457.76,891.309C2456.25,882.671 2449.71,877.72 2439.97,877.72C2434.78,877.72 2430.58,879.06 2427.26,881.797C2422.3,885.881 2419.56,892.476 2419.56,900.118C2419.56,913.185 2427.55,922.28 2439.04,922.28C2444.81,922.28 2449.36,920.125 2453.56,915.519L2454.91,921.173L2458.35,921.173L2458.35,898.487Z" style="fill:#727272;fill-rule:nonzero;"/>
            <path d="M2473.05,901.571L2496.2,901.571L2496.2,896.795L2473.05,896.795L2473.05,883.196L2497.08,883.196L2497.08,878.42L2467.63,878.42L2467.63,920.938L2498.13,920.938L2498.13,916.162L2473.05,916.162L2473.05,901.571Z" style="fill:#727272;fill-rule:nonzero;"/>
            <path d="M2552.26,890.898C2552.26,887.981 2552.09,887.164 2551.16,885.18C2548.83,880.283 2543.87,877.72 2536.69,877.72C2527.36,877.72 2521.59,882.496 2521.59,890.198C2521.59,895.391 2524.33,898.658 2529.92,900.117L2540.48,902.917C2545.91,904.317 2548.3,906.476 2548.3,909.802C2548.3,912.077 2547.08,914.411 2545.27,915.695C2543.58,916.92 2540.89,917.504 2537.45,917.504C2532.78,917.504 2529.69,916.395 2527.65,913.945C2526.07,912.077 2525.37,910.035 2525.43,907.41L2520.3,907.41C2520.36,911.319 2521.12,913.886 2522.81,916.22C2525.72,920.241 2530.62,922.28 2537.1,922.28C2542.18,922.28 2546.32,921.115 2549.06,919.018C2551.91,916.745 2553.72,912.953 2553.72,909.277C2553.72,904.026 2550.46,900.175 2544.69,898.6L2534.01,895.741C2528.87,894.34 2527.01,892.707 2527.01,889.439C2527.01,885.122 2530.8,882.263 2536.52,882.263C2543.28,882.263 2547.08,885.297 2547.14,890.898L2552.26,890.898Z" style="fill:#727272;fill-rule:nonzero;"/>
            <path d="M2578.52,877.72C2566.32,877.72 2558.05,886.697 2558.05,900C2558.05,913.361 2566.26,922.28 2578.58,922.28C2583.77,922.28 2588.32,920.707 2591.76,917.795C2596.37,913.886 2599.11,907.293 2599.11,900.35C2599.11,886.639 2591,877.72 2578.52,877.72ZM2578.52,882.496C2587.74,882.496 2593.69,889.439 2593.69,900.233C2593.69,910.502 2587.56,917.504 2578.58,917.504C2569.47,917.504 2563.46,910.502 2563.46,900C2563.46,889.498 2569.47,882.496 2578.52,882.496Z" style="fill:#727272;fill-rule:nonzero;"/>
            <path d="M2612.05,902.621L2626.06,902.621C2630.9,902.621 2633.06,904.956 2633.06,910.208L2633,914.001C2633,916.627 2633.47,919.195 2634.23,920.938L2640.81,920.938L2640.81,919.604C2638.77,918.203 2638.36,916.686 2638.25,911.025C2638.19,904.022 2637.08,901.922 2632.48,899.942C2637.26,897.553 2639.18,894.694 2639.18,889.791C2639.18,882.439 2634.64,878.42 2626.23,878.42L2606.64,878.42L2606.64,920.938L2612.05,920.938L2612.05,902.621ZM2612.05,897.845L2612.05,883.196L2625.18,883.196C2628.22,883.196 2629.97,883.663 2631.31,884.83C2632.77,886.056 2633.53,887.982 2633.53,890.492C2633.53,895.569 2630.96,897.845 2625.18,897.845L2612.05,897.845Z" style="fill:#727272;fill-rule:nonzero;"/>
            <path d="M2662.63,883.196L2676.57,883.196L2676.57,878.42L2643.21,878.42L2643.21,883.196L2657.21,883.196L2657.21,920.938L2662.63,920.938L2662.63,883.196Z" style="fill:#727272;fill-rule:nonzero;"/>
        </g>
        <path id="VOL-R_ANCHOR" d="M2145.57,193.75C2143.16,188.234 2137.65,184.375 2131.25,184.375C2122.63,184.375 2115.62,191.376 2115.62,200C2115.62,208.624 2122.63,215.625 2131.25,215.625C2137.65,215.625 2143.16,211.766 2145.57,206.25L2334.38,206.25L2334.38,193.75L2145.57,193.75Z" style="fill:#ff8fbc;"/>
        <path d="M2150.76,184.376L2334.38,184.375C2339.55,184.375 2343.75,188.572 2343.75,193.75L2343.75,206.25C2343.75,211.428 2339.55,215.625 2334.38,215.625C2334.38,215.625 2150.76,215.625 2150.76,215.624C2146.18,221.339 2139.14,225 2131.25,225C2117.45,225 2106.25,213.798 2106.25,200C2106.25,186.202 2117.45,175 2131.25,175C2139.14,175 2146.18,178.66 2150.76,184.376ZM2145.57,193.75C2143.16,188.234 2137.65,184.375 2131.25,184.375C2122.63,184.375 2115.62,191.376 2115.62,200C2115.62,208.624 2122.63,215.625 2131.25,215.625C2137.65,215.625 2143.16,211.766 2145.57,206.25L2334.38,206.25L2334.38,193.75L2145.57,193.75Z" style="fill:#fff;"/>
        <g id="VOL-R">
            <rect x="2684.38" y="156.25" width="506.25" height="87.5" style="fill:#fff;"/>
            <path d="M3200,253.125L2325,253.125L2325,146.875L3200,146.875L3200,253.125ZM2684.38,243.75C2921.02,243.75 3190.62,243.75 3190.62,243.75L3190.62,156.25C3140.62,156.25 2899.47,156.25 2684.38,156.25L2684.38,243.75Z" style="fill:#ff8fbc;"/>
            <path d="M2410.52,229.911L2431.36,169.172L2418.77,169.172L2405.52,214.919L2392.02,169.172L2379.44,169.172L2399.94,229.911L2410.52,229.911Z" style="fill:#fff;fill-rule:nonzero;"/>
            <path d="M2462.52,168.172C2454.02,168.172 2447.02,171.002 2441.86,176.58C2436.44,182.412 2433.36,190.914 2433.36,200C2433.36,209.086 2436.44,217.671 2441.86,223.42C2447.1,229.081 2453.94,231.828 2462.61,231.828C2471.28,231.828 2478.11,229.081 2483.36,223.42C2488.6,217.838 2491.85,209.002 2491.85,200.417C2491.85,190.914 2488.77,182.329 2483.36,176.58C2478.03,170.836 2471.36,168.172 2462.52,168.172ZM2462.61,178.828C2472.86,178.828 2479.36,187.164 2479.36,200.333C2479.36,212.837 2472.61,221.172 2462.61,221.172C2452.44,221.172 2445.85,212.837 2445.85,200C2445.85,187.164 2452.44,178.828 2462.61,178.828Z" style="fill:#fff;fill-rule:nonzero;"/>
            <path d="M2514.02,169.172L2501.53,169.172L2501.53,229.911L2543.1,229.911L2543.1,219.505L2514.02,219.505L2514.02,169.172Z" style="fill:#fff;fill-rule:nonzero;"/>
            <rect x="2546.86" y="201.422" width="22.667" height="11.24" style="fill:#fff;fill-rule:nonzero;"/>
            <path d="M2591.6,205.828L2605.94,205.828C2611.36,205.828 2613.7,207.996 2613.7,212.998L2613.7,215.499C2613.61,217.083 2613.61,218.584 2613.61,219.501C2613.61,225.254 2613.95,227.005 2615.45,229.911L2628.85,229.911L2628.85,227.672C2626.94,226.588 2626.19,225.337 2626.19,222.669C2625.85,204.746 2625.52,203.913 2617.78,200.583C2624.6,197.919 2628.02,193.004 2628.02,185.582C2628.02,180.746 2626.35,176.331 2623.44,173.334C2620.69,170.504 2616.86,169.172 2611.69,169.172L2579.11,169.172L2579.11,229.911L2591.6,229.911L2591.6,205.828ZM2591.6,195.422L2591.6,179.578L2606.69,179.578C2610.28,179.578 2611.69,179.912 2613.28,181.163C2614.78,182.413 2615.53,184.498 2615.53,187.333C2615.53,190.252 2614.78,192.587 2613.28,193.838C2611.86,195.005 2610.28,195.422 2606.69,195.422L2591.6,195.422Z" style="fill:#fff;fill-rule:nonzero;"/>
            <path d="M2753.6,190.898C2753.6,187.981 2753.43,187.164 2752.5,185.18C2750.16,180.283 2745.21,177.72 2738.03,177.72C2728.69,177.72 2722.92,182.496 2722.92,190.198C2722.92,195.391 2725.66,198.658 2731.26,200.117L2741.82,202.917C2747.25,204.317 2749.64,206.476 2749.64,209.802C2749.64,212.077 2748.42,214.411 2746.61,215.695C2744.91,216.92 2742.23,217.504 2738.79,217.504C2734.12,217.504 2731.03,216.395 2728.98,213.945C2727.41,212.077 2726.71,210.035 2726.77,207.41L2721.64,207.41C2721.7,211.319 2722.46,213.886 2724.15,216.22C2727.06,220.241 2731.96,222.28 2738.44,222.28C2743.51,222.28 2747.66,221.115 2750.4,219.018C2753.25,216.745 2755.06,212.953 2755.06,209.277C2755.06,204.026 2751.8,200.175 2746.02,198.6L2735.35,195.741C2730.21,194.34 2728.34,192.707 2728.34,189.439C2728.34,185.122 2732.14,182.263 2737.85,182.263C2744.62,182.263 2748.42,185.297 2748.47,190.898L2753.6,190.898Z" style="fill:#727272;fill-rule:nonzero;"/>
            <path d="M2795.66,191.598C2793.97,182.263 2788.6,177.72 2779.27,177.72C2773.55,177.72 2768.94,179.526 2765.79,183.021C2761.95,187.222 2759.85,193.29 2759.85,200.175C2759.85,207.176 2762.01,213.186 2765.97,217.329C2769.29,220.707 2773.49,222.28 2779.03,222.28C2789.42,222.28 2795.25,216.687 2796.53,205.426L2790.93,205.426C2790.47,208.343 2789.88,210.327 2789.01,212.019C2787.26,215.52 2783.64,217.504 2779.09,217.504C2770.63,217.504 2765.27,210.736 2765.27,200.117C2765.27,189.206 2770.34,182.496 2778.63,182.496C2782.07,182.496 2785.28,183.488 2787.03,185.18C2788.6,186.639 2789.48,188.389 2790.12,191.598L2795.66,191.598Z" style="fill:#727272;fill-rule:nonzero;"/>
            <path d="M2810.01,202.621L2824.01,202.621C2828.86,202.621 2831.02,204.956 2831.02,210.208L2830.96,214.001C2830.96,216.627 2831.42,219.195 2832.18,220.938L2838.77,220.938L2838.77,219.604C2836.73,218.203 2836.32,216.686 2836.2,211.025C2836.14,204.022 2835.04,201.922 2830.43,199.942C2835.21,197.553 2837.13,194.694 2837.13,189.791C2837.13,182.439 2832.59,178.42 2824.19,178.42L2804.59,178.42L2804.59,220.938L2810.01,220.938L2810.01,202.621ZM2810.01,197.845L2810.01,183.196L2823.14,183.196C2826.17,183.196 2827.92,183.663 2829.26,184.83C2830.72,186.056 2831.48,187.982 2831.48,190.492C2831.48,195.569 2828.91,197.845 2823.14,197.845L2810.01,197.845Z" style="fill:#727272;fill-rule:nonzero;"/>
            <path d="M2863.27,177.72C2851.08,177.72 2842.8,186.697 2842.8,200C2842.8,213.361 2851.02,222.28 2863.33,222.28C2868.52,222.28 2873.07,220.707 2876.52,217.795C2881.12,213.886 2883.86,207.293 2883.86,200.35C2883.86,186.639 2875.76,177.72 2863.27,177.72ZM2863.27,182.496C2872.49,182.496 2878.44,189.439 2878.44,200.233C2878.44,210.502 2872.32,217.504 2863.33,217.504C2854.23,217.504 2848.22,210.502 2848.22,200C2848.22,189.498 2854.23,182.496 2863.27,182.496Z" style="fill:#727272;fill-rule:nonzero;"/>
            <path d="M2896.05,178.42L2890.63,178.42L2890.63,220.938L2917.05,220.938L2917.05,216.162L2896.05,216.162L2896.05,178.42Z" style="fill:#727272;fill-rule:nonzero;"/>
            <path d="M2928.48,178.42L2923.07,178.42L2923.07,220.938L2949.48,220.938L2949.48,216.162L2928.48,216.162L2928.48,178.42Z" style="fill:#727272;fill-rule:nonzero;"/>
            <path d="M2994.35,220.938L3006.31,185.297L3006.31,220.938L3011.43,220.938L3011.43,178.42L3003.92,178.42L2991.55,215.461L2978.94,178.42L2971.42,178.42L2971.42,220.938L2976.55,220.938L2976.55,185.297L2988.63,220.938L2994.35,220.938Z" style="fill:#727272;fill-rule:nonzero;"/>
            <path d="M3047.84,178.42L3047.84,208.285C3047.84,214.003 3043.7,217.504 3036.87,217.504C3033.72,217.504 3031.15,216.745 3029.11,215.287C3027.01,213.653 3026.02,211.494 3026.02,208.285L3026.02,178.42L3020.6,178.42L3020.6,208.285C3020.6,216.92 3026.78,222.28 3036.87,222.28C3046.85,222.28 3053.26,216.804 3053.26,208.285L3053.26,178.42L3047.84,178.42Z" style="fill:#727272;fill-rule:nonzero;"/>
            <path d="M3091.94,190.898C3091.94,187.981 3091.76,187.164 3090.83,185.18C3088.5,180.283 3083.54,177.72 3076.36,177.72C3067.03,177.72 3061.26,182.496 3061.26,190.198C3061.26,195.391 3064,198.658 3069.59,200.117L3080.16,202.917C3085.58,204.317 3087.97,206.476 3087.97,209.802C3087.97,212.077 3086.75,214.411 3084.94,215.695C3083.25,216.92 3080.56,217.504 3077.12,217.504C3072.45,217.504 3069.36,216.395 3067.32,213.945C3065.74,212.077 3065.04,210.035 3065.1,207.41L3059.97,207.41C3060.03,211.319 3060.79,213.886 3062.48,216.22C3065.39,220.241 3070.29,222.28 3076.77,222.28C3081.85,222.28 3085.99,221.115 3088.73,219.018C3091.59,216.745 3093.39,212.953 3093.39,209.277C3093.39,204.026 3090.13,200.175 3084.36,198.6L3073.68,195.741C3068.54,194.34 3066.68,192.707 3066.68,189.439C3066.68,185.122 3070.47,182.263 3076.19,182.263C3082.96,182.263 3086.75,185.297 3086.81,190.898L3091.94,190.898Z" style="fill:#727272;fill-rule:nonzero;"/>
            <rect x="3101.92" y="178.42" width="5.476" height="42.518" style="fill:#727272;fill-rule:nonzero;"/>
            <path d="M3150.91,191.598C3149.22,182.263 3143.85,177.72 3134.52,177.72C3128.8,177.72 3124.19,179.526 3121.04,183.021C3117.2,187.222 3115.1,193.29 3115.1,200.175C3115.1,207.176 3117.26,213.186 3121.22,217.329C3124.54,220.707 3128.74,222.28 3134.28,222.28C3144.67,222.28 3150.5,216.687 3151.78,205.426L3146.18,205.426C3145.72,208.343 3145.13,210.327 3144.26,212.019C3142.51,215.52 3138.89,217.504 3134.34,217.504C3125.88,217.504 3120.52,210.736 3120.52,200.117C3120.52,189.206 3125.59,182.496 3133.88,182.496C3137.32,182.496 3140.53,183.488 3142.28,185.18C3143.85,186.639 3144.73,188.389 3145.37,191.598L3150.91,191.598Z" style="fill:#727272;fill-rule:nonzero;"/>
        </g>
        <path id="START_ANCHOR" d="M1606.25,244.01C1611.77,246.423 1615.62,251.931 1615.62,258.333C1615.62,266.957 1608.62,273.958 1600,273.958C1591.38,273.958 1584.38,266.957 1584.38,258.333C1584.38,251.931 1588.23,246.423 1593.75,244.01L1593.75,96.875L1606.25,96.875L1606.25,244.01Z" style="fill:#ff8fbc;"/>
        <path d="M1615.62,238.822C1621.34,243.404 1625,250.445 1625,258.333C1625,272.131 1613.8,283.333 1600,283.333C1586.2,283.333 1575,272.131 1575,258.333C1575,250.445 1578.66,243.403 1584.38,238.822L1584.38,96.875C1584.38,91.697 1588.57,87.5 1593.75,87.5L1606.25,87.5C1611.43,87.5 1615.62,91.697 1615.62,96.875L1615.62,238.822ZM1606.25,244.01L1606.25,96.875L1593.75,96.875L1593.75,244.01C1588.23,246.423 1584.38,251.931 1584.38,258.333C1584.38,266.957 1591.38,273.958 1600,273.958C1608.62,273.958 1615.62,266.957 1615.62,258.333C1615.62,251.931 1611.77,246.423 1606.25,244.01Z" style="fill:#fff;"/>
        <g id="START1" serif:id="START">
            <rect x="1384.38" y="9.375" width="778.125" height="87.5" style="fill:#fff;"/>
            <path d="M2175,106.25L1025,106.25L1025,0L2175,0L2175,106.25ZM1384.38,96.875C1621.02,96.875 2162.5,96.875 2162.5,96.875L2162.5,9.375C2112.49,9.375 1599.48,9.375 1384.38,9.375L1384.38,96.875Z" style="fill:#ff8fbc;"/>
            <path d="M1120.64,39.226C1120.56,26.644 1112.15,19.734 1096.81,19.734C1082.23,19.734 1073.82,26.561 1073.82,38.392C1073.82,47.811 1078.57,52.396 1090.89,54.73L1099.4,56.397C1107.74,57.981 1110.82,60.315 1110.82,65.232C1110.82,70.317 1106.15,73.401 1098.57,73.401C1090.06,73.401 1085.31,69.817 1084.89,63.315L1072.74,63.315C1073.49,76.315 1082.4,83.391 1097.9,83.391C1113.57,83.391 1122.81,76.148 1122.81,63.732C1122.81,54.146 1117.98,49.145 1106.74,46.978L1097.23,45.144C1088.31,43.394 1085.73,41.643 1085.73,37.226C1085.73,32.641 1089.73,29.724 1096.23,29.724C1104.15,29.724 1108.57,33.058 1108.99,39.226L1120.64,39.226Z" style="fill:#fff;fill-rule:nonzero;"/>
            <path d="M1157.23,31.141L1174.98,31.141L1174.98,20.734L1126.32,20.734L1126.32,31.141L1144.74,31.141L1144.74,81.474L1157.23,81.474L1157.23,31.141Z" style="fill:#fff;fill-rule:nonzero;"/>
            <path d="M1210.57,69.224L1214.57,81.474L1227.4,81.474L1206.4,20.734L1192.57,20.734L1170.98,81.474L1183.73,81.474L1187.82,69.224L1210.57,69.224ZM1207.15,58.818L1191.32,58.818L1199.23,35.061L1207.15,58.818Z" style="fill:#fff;fill-rule:nonzero;"/>
            <path d="M1248.14,57.391L1262.48,57.391C1267.9,57.391 1270.24,59.558 1270.24,64.561L1270.24,67.062C1270.15,68.646 1270.15,70.147 1270.15,71.064C1270.15,76.816 1270.49,78.567 1271.99,81.474L1285.39,81.474L1285.39,79.234C1283.48,78.15 1282.73,76.9 1282.73,74.232C1282.39,56.308 1282.06,55.476 1274.32,52.146C1281.15,49.482 1284.56,44.566 1284.56,37.145C1284.56,32.308 1282.89,27.894 1279.98,24.897C1277.23,22.066 1273.4,20.734 1268.24,20.734L1235.65,20.734L1235.65,81.474L1248.14,81.474L1248.14,57.391ZM1248.14,46.984L1248.14,31.141L1263.23,31.141C1266.82,31.141 1268.24,31.474 1269.82,32.725C1271.32,33.976 1272.07,36.061 1272.07,38.896C1272.07,41.814 1271.32,44.149 1269.82,45.4C1268.4,46.567 1266.82,46.984 1263.23,46.984L1248.14,46.984Z" style="fill:#fff;fill-rule:nonzero;"/>
            <path d="M1321.14,31.141L1338.89,31.141L1338.89,20.734L1290.24,20.734L1290.24,31.141L1308.65,31.141L1308.65,81.474L1321.14,81.474L1321.14,31.141Z" style="fill:#fff;fill-rule:nonzero;"/>
            <path d="M1466.17,42.46C1466.17,39.543 1465.99,38.726 1465.06,36.743C1462.73,31.845 1457.77,29.283 1450.6,29.283C1441.26,29.283 1435.49,34.059 1435.49,41.76C1435.49,46.953 1438.23,50.22 1443.83,51.679L1454.39,54.48C1459.82,55.88 1462.21,58.039 1462.21,61.365C1462.21,63.64 1460.98,65.974 1459.17,67.257C1457.48,68.483 1454.8,69.066 1451.35,69.066C1446.69,69.066 1443.59,67.958 1441.55,65.507C1439.98,63.64 1439.28,61.598 1439.34,58.972L1434.21,58.972C1434.27,62.881 1435.02,65.449 1436.71,67.783C1439.63,71.804 1444.53,73.842 1451,73.842C1456.08,73.842 1460.22,72.677 1462.96,70.581C1465.82,68.308 1467.63,64.515 1467.63,60.839C1467.63,55.588 1464.36,51.737 1458.59,50.162L1447.91,47.303C1442.78,45.903 1440.91,44.269 1440.91,41.002C1440.91,36.684 1444.7,33.826 1450.42,33.826C1457.19,33.826 1460.98,36.859 1461.04,42.46L1466.17,42.46Z" style="fill:#727272;fill-rule:nonzero;"/>
            <path d="M1480.98,53.134L1504.14,53.134L1504.14,48.358L1480.98,48.358L1480.98,34.759L1505.02,34.759L1505.02,29.983L1475.57,29.983L1475.57,72.501L1506.07,72.501L1506.07,67.724L1480.98,67.724L1480.98,53.134Z" style="fill:#727272;fill-rule:nonzero;"/>
            <path d="M1519.31,29.983L1513.89,29.983L1513.89,72.501L1540.31,72.501L1540.31,67.724L1519.31,67.724L1519.31,29.983Z" style="fill:#727272;fill-rule:nonzero;"/>
            <path d="M1552.33,53.134L1575.48,53.134L1575.48,48.358L1552.33,48.358L1552.33,34.759L1576.36,34.759L1576.36,29.983L1546.91,29.983L1546.91,72.501L1577.41,72.501L1577.41,67.724L1552.33,67.724L1552.33,53.134Z" style="fill:#727272;fill-rule:nonzero;"/>
            <path d="M1617.37,43.161C1615.68,33.826 1610.31,29.283 1600.98,29.283C1595.26,29.283 1590.65,31.088 1587.5,34.584C1583.65,38.785 1581.56,44.853 1581.56,51.737C1581.56,58.739 1583.71,64.749 1587.68,68.891C1591,72.27 1595.2,73.842 1600.74,73.842C1611.13,73.842 1616.96,68.249 1618.24,56.989L1612.64,56.989C1612.18,59.906 1611.59,61.89 1610.72,63.582C1608.97,67.082 1605.35,69.066 1600.8,69.066C1592.34,69.066 1586.98,62.298 1586.98,51.679C1586.98,40.768 1592.05,34.059 1600.33,34.059C1603.78,34.059 1606.98,35.051 1608.73,36.743C1610.31,38.201 1611.18,39.952 1611.83,43.161L1617.37,43.161Z" style="fill:#727272;fill-rule:nonzero;"/>
            <path d="M1639.71,34.759L1653.65,34.759L1653.65,29.983L1620.29,29.983L1620.29,34.759L1634.29,34.759L1634.29,72.501L1639.71,72.501L1639.71,34.759Z" style="fill:#727272;fill-rule:nonzero;"/>
            <path d="M1681.59,53.134L1701.89,53.134L1701.89,48.358L1681.59,48.358L1681.59,34.759L1704.69,34.759L1704.69,29.983L1676.17,29.983L1676.17,72.501L1681.59,72.501L1681.59,53.134Z" style="fill:#727272;fill-rule:nonzero;"/>
            <path d="M1727.97,29.283C1715.78,29.283 1707.5,38.26 1707.5,51.562C1707.5,64.924 1715.72,73.842 1728.03,73.842C1733.22,73.842 1737.77,72.27 1741.22,69.357C1745.82,65.449 1748.56,58.856 1748.56,51.912C1748.56,38.201 1740.46,29.283 1727.97,29.283ZM1727.97,34.059C1737.19,34.059 1743.14,41.002 1743.14,51.796C1743.14,62.065 1737.02,69.066 1728.03,69.066C1718.93,69.066 1712.92,62.065 1712.92,51.562C1712.92,41.06 1718.93,34.059 1727.97,34.059Z" style="fill:#727272;fill-rule:nonzero;"/>
            <path d="M1760.75,29.983L1755.33,29.983L1755.33,72.501L1781.75,72.501L1781.75,67.724L1760.75,67.724L1760.75,29.983Z" style="fill:#727272;fill-rule:nonzero;"/>
            <path d="M1788.29,72.501L1804.68,72.501C1815.42,72.501 1822,64.457 1822,51.213C1822,38.026 1815.47,29.983 1804.68,29.983L1788.29,29.983L1788.29,72.501ZM1793.71,67.724L1793.71,34.759L1803.75,34.759C1812.15,34.759 1816.58,40.419 1816.58,51.271C1816.58,62.065 1812.15,67.724 1803.75,67.724L1793.71,67.724Z" style="fill:#727272;fill-rule:nonzero;"/>
            <path d="M1835.18,53.134L1858.34,53.134L1858.34,48.358L1835.18,48.358L1835.18,34.759L1859.22,34.759L1859.22,29.983L1829.77,29.983L1829.77,72.501L1860.27,72.501L1860.27,67.724L1835.18,67.724L1835.18,53.134Z" style="fill:#727272;fill-rule:nonzero;"/>
            <path d="M1874.27,54.184L1888.27,54.184C1893.12,54.184 1895.27,56.518 1895.27,61.77L1895.22,65.564C1895.22,68.19 1895.68,70.758 1896.44,72.501L1903.03,72.501L1903.03,71.166C1900.98,69.765 1900.58,68.248 1900.46,62.587C1900.4,55.584 1899.3,53.485 1894.69,51.505C1899.47,49.116 1901.39,46.256 1901.39,41.354C1901.39,34.002 1896.85,29.983 1888.45,29.983L1868.85,29.983L1868.85,72.501L1874.27,72.501L1874.27,54.184ZM1874.27,49.408L1874.27,34.759L1887.4,34.759C1890.43,34.759 1892.18,35.226 1893.52,36.393C1894.98,37.619 1895.74,39.545 1895.74,42.054C1895.74,47.132 1893.17,49.408 1887.4,49.408L1874.27,49.408Z" style="fill:#727272;fill-rule:nonzero;"/>
            <path d="M1918.9,29.983L1905.07,73.667L1908.28,73.667L1922.1,29.983L1918.9,29.983Z" style="fill:#727272;fill-rule:nonzero;"/>
            <path d="M1960.37,43.161C1958.68,33.826 1953.31,29.283 1943.98,29.283C1938.26,29.283 1933.65,31.088 1930.5,34.584C1926.65,38.785 1924.56,44.853 1924.56,51.737C1924.56,58.739 1926.71,64.749 1930.68,68.891C1934,72.27 1938.2,73.842 1943.74,73.842C1954.13,73.842 1959.96,68.249 1961.24,56.989L1955.64,56.989C1955.18,59.906 1954.59,61.89 1953.72,63.582C1951.97,67.082 1948.35,69.066 1943.8,69.066C1935.34,69.066 1929.98,62.298 1929.98,51.679C1929.98,40.768 1935.05,34.059 1943.33,34.059C1946.78,34.059 1949.98,35.051 1951.73,36.743C1953.31,38.201 1954.18,39.952 1954.83,43.161L1960.37,43.161Z" style="fill:#727272;fill-rule:nonzero;"/>
            <path d="M1995.32,53.134L1995.32,72.501L2000.73,72.501L2000.73,29.983L1995.32,29.983L1995.32,48.358L1973.43,48.358L1973.43,29.983L1968.02,29.983L1968.02,72.501L1973.43,72.501L1973.43,53.134L1995.32,53.134Z" style="fill:#727272;fill-rule:nonzero;"/>
            <path d="M2032.3,59.726L2036.67,72.501L2042.74,72.501L2027.8,29.983L2020.8,29.983L2005.64,72.501L2011.41,72.501L2015.9,59.726L2032.3,59.726ZM2030.78,55.183L2017.25,55.183L2024.25,35.81L2030.78,55.183Z" style="fill:#727272;fill-rule:nonzero;"/>
            <path d="M2054.4,54.184L2068.41,54.184C2073.25,54.184 2075.41,56.518 2075.41,61.77L2075.35,65.564C2075.35,68.19 2075.82,70.758 2076.57,72.501L2083.16,72.501L2083.16,71.166C2081.12,69.765 2080.71,68.248 2080.59,62.587C2080.53,55.584 2079.43,53.485 2074.82,51.505C2079.6,49.116 2081.53,46.256 2081.53,41.354C2081.53,34.002 2076.98,29.983 2068.58,29.983L2048.98,29.983L2048.98,72.501L2054.4,72.501L2054.4,54.184ZM2054.4,49.408L2054.4,34.759L2067.53,34.759C2070.56,34.759 2072.32,35.226 2073.66,36.393C2075.12,37.619 2075.87,39.545 2075.87,42.054C2075.87,47.132 2073.31,49.408 2067.53,49.408L2054.4,49.408Z" style="fill:#727272;fill-rule:nonzero;"/>
            <path d="M2104.98,34.759L2118.92,34.759L2118.92,29.983L2085.56,29.983L2085.56,34.759L2099.56,34.759L2099.56,72.501L2104.98,72.501L2104.98,34.759Z" style="fill:#727272;fill-rule:nonzero;"/>
        </g>
        <path id="VOL-L_ANCHOR" d="M1054.43,193.75C1056.84,188.234 1062.35,184.375 1068.75,184.375C1077.37,184.375 1084.38,191.376 1084.38,200C1084.38,208.624 1077.37,215.625 1068.75,215.625C1062.35,215.625 1056.84,211.766 1054.43,206.25L865.625,206.25L865.625,193.75L1054.43,193.75Z" style="fill:#ff8fbc;"/>
        <path d="M1049.24,184.376C1053.82,178.66 1060.86,175 1068.75,175C1082.55,175 1093.75,186.202 1093.75,200C1093.75,213.798 1082.55,225 1068.75,225C1060.86,225 1053.82,221.339 1049.24,215.625L865.625,215.625C860.447,215.625 856.25,211.428 856.25,206.25L856.25,193.75C856.25,188.572 860.447,184.375 865.625,184.375L1049.24,184.376ZM1054.43,193.75L865.625,193.75L865.625,206.25L1054.43,206.25C1056.84,211.766 1062.35,215.625 1068.75,215.625C1077.37,215.625 1084.38,208.624 1084.38,200C1084.38,191.376 1077.37,184.375 1068.75,184.375C1062.35,184.375 1056.84,188.234 1054.43,193.75Z" style="fill:#fff;"/>
        <g id="VOL-L">
            <rect x="359.375" y="156.25" width="506.25" height="87.5" style="fill:#fff;"/>
            <path d="M875,253.125L0,253.125L0,146.875L875,146.875L875,253.125ZM359.375,243.75C596.018,243.75 865.625,243.75 865.625,243.75L865.625,156.25C815.615,156.25 574.475,156.25 359.375,156.25L359.375,243.75Z" style="fill:#ff8fbc;"/>
            <path d="M90.148,229.911L110.982,169.172L98.398,169.172L85.148,214.919L71.648,169.172L59.065,169.172L79.565,229.911L90.148,229.911Z" style="fill:#fff;fill-rule:nonzero;"/>
            <path d="M142.148,168.172C133.646,168.172 126.644,171.002 121.48,176.58C116.068,182.412 112.987,190.914 112.987,200C112.987,209.086 116.068,217.671 121.48,223.42C126.727,229.081 133.562,231.828 142.232,231.828C150.901,231.828 157.736,229.081 162.984,223.42C168.229,217.838 171.477,209.002 171.477,200.417C171.477,190.914 168.396,182.329 162.984,176.58C157.653,170.836 150.984,168.172 142.148,168.172ZM142.232,178.828C152.485,178.828 158.987,187.164 158.987,200.333C158.987,212.837 152.235,221.172 142.232,221.172C132.062,221.172 125.477,212.837 125.477,200C125.477,187.164 132.062,178.828 142.232,178.828Z" style="fill:#fff;fill-rule:nonzero;"/>
            <path d="M193.643,169.172L181.154,169.172L181.154,229.911L222.727,229.911L222.727,219.505L193.643,219.505L193.643,169.172Z" style="fill:#fff;fill-rule:nonzero;"/>
            <rect x="226.482" y="201.422" width="22.667" height="11.24" style="fill:#fff;fill-rule:nonzero;"/>
            <path d="M271.227,169.172L258.737,169.172L258.737,229.911L300.31,229.911L300.31,219.505L271.227,219.505L271.227,169.172Z" style="fill:#fff;fill-rule:nonzero;"/>
            <path d="M432.482,190.898C432.482,187.981 432.307,187.164 431.375,185.18C429.045,180.283 424.085,177.72 416.908,177.72C407.571,177.72 401.804,182.496 401.804,190.198C401.804,195.391 404.542,198.658 410.139,200.117L420.701,202.917C426.128,204.317 428.52,206.476 428.52,209.802C428.52,212.077 427.295,214.411 425.486,215.695C423.794,216.92 421.109,217.504 417.667,217.504C412.998,217.504 409.906,216.395 407.863,213.945C406.289,212.077 405.59,210.035 405.648,207.41L400.52,207.41C400.579,211.319 401.337,213.886 403.027,216.22C405.94,220.241 410.839,222.28 417.316,222.28C422.393,222.28 426.536,221.115 429.278,219.018C432.132,216.745 433.938,212.953 433.938,209.277C433.938,204.026 430.676,200.175 424.902,198.6L414.224,195.741C409.089,194.34 407.221,192.707 407.221,189.439C407.221,185.122 411.014,182.263 416.733,182.263C423.502,182.263 427.295,185.297 427.353,190.898L432.482,190.898Z" style="fill:#727272;fill-rule:nonzero;"/>
            <path d="M474.538,191.598C472.846,182.263 467.48,177.72 458.146,177.72C452.43,177.72 447.821,179.526 444.671,183.021C440.826,187.222 438.729,193.29 438.729,200.175C438.729,207.176 440.884,213.186 444.846,217.329C448.171,220.707 452.371,222.28 457.913,222.28C468.296,222.28 474.13,216.687 475.413,205.426L469.813,205.426C469.346,208.343 468.763,210.327 467.888,212.019C466.138,215.52 462.521,217.504 457.971,217.504C449.513,217.504 444.146,210.736 444.146,200.117C444.146,189.206 449.221,182.496 457.505,182.496C460.946,182.496 464.155,183.488 465.905,185.18C467.48,186.639 468.355,188.389 468.996,191.598L474.538,191.598Z" style="fill:#727272;fill-rule:nonzero;"/>
            <path d="M488.888,202.621L502.893,202.621C507.736,202.621 509.895,204.956 509.895,210.208L509.837,214.001C509.837,216.627 510.304,219.195 511.061,220.938L517.646,220.938L517.646,219.604C515.605,218.203 515.197,216.686 515.081,211.025C515.023,204.022 513.916,201.922 509.312,199.942C514.091,197.553 516.013,194.694 516.013,189.791C516.013,182.439 511.469,178.42 503.068,178.42L483.47,178.42L483.47,220.938L488.888,220.938L488.888,202.621ZM488.888,197.845L488.888,183.196L502.017,183.196C505.052,183.196 506.802,183.663 508.144,184.83C509.603,186.056 510.362,187.982 510.362,190.492C510.362,195.569 507.794,197.845 502.017,197.845L488.888,197.845Z" style="fill:#727272;fill-rule:nonzero;"/>
            <path d="M542.15,177.72C529.955,177.72 521.679,186.697 521.679,200C521.679,213.361 529.897,222.28 542.208,222.28C547.401,222.28 551.952,220.707 555.395,217.795C560,213.886 562.738,207.293 562.738,200.35C562.738,186.639 554.636,177.72 542.15,177.72ZM542.15,182.496C551.369,182.496 557.32,189.439 557.32,200.233C557.32,210.502 551.194,217.504 542.208,217.504C533.106,217.504 527.096,210.502 527.096,200C527.096,189.498 533.106,182.496 542.15,182.496Z" style="fill:#727272;fill-rule:nonzero;"/>
            <path d="M574.93,178.42L569.512,178.42L569.512,220.938L595.93,220.938L595.93,216.162L574.93,216.162L574.93,178.42Z" style="fill:#727272;fill-rule:nonzero;"/>
            <path d="M607.363,178.42L601.945,178.42L601.945,220.938L628.363,220.938L628.363,216.162L607.363,216.162L607.363,178.42Z" style="fill:#727272;fill-rule:nonzero;"/>
            <path d="M656.013,178.42L650.595,178.42L650.595,220.938L677.013,220.938L677.013,216.162L656.013,216.162L656.013,178.42Z" style="fill:#727272;fill-rule:nonzero;"/>
            <path d="M689.03,201.571L712.188,201.571L712.188,196.795L689.03,196.795L689.03,183.196L713.063,183.196L713.063,178.42L683.612,178.42L683.612,220.938L714.113,220.938L714.113,216.162L689.03,216.162L689.03,201.571Z" style="fill:#727272;fill-rule:nonzero;"/>
            <path d="M739.258,220.938L754.017,178.42L748.242,178.42L736.458,214.411L723.975,178.42L718.142,178.42L733.425,220.938L739.258,220.938Z" style="fill:#727272;fill-rule:nonzero;"/>
            <path d="M764.863,201.571L788.021,201.571L788.021,196.795L764.863,196.795L764.863,183.196L788.896,183.196L788.896,178.42L759.445,178.42L759.445,220.938L789.946,220.938L789.946,216.162L764.863,216.162L764.863,201.571Z" style="fill:#727272;fill-rule:nonzero;"/>
            <path d="M803.188,178.42L797.77,178.42L797.77,220.938L824.188,220.938L824.188,216.162L803.188,216.162L803.188,178.42Z" style="fill:#727272;fill-rule:nonzero;"/>
        </g>
        <g id="LETTERS">
            <path d="M1231.69,510.307L1235.69,522.557L1248.52,522.557L1227.52,461.818L1213.69,461.818L1192.1,522.557L1204.85,522.557L1208.94,510.307L1231.69,510.307ZM1228.27,499.901L1212.44,499.901L1220.35,476.144L1228.27,499.901Z" style="fill:#727272;fill-rule:nonzero;"/>
            <path d="M1338.65,679.005L1326.16,679.005L1326.16,739.745L1367.73,739.745L1367.73,729.339L1338.65,729.339L1338.65,679.005Z" style="fill:#727272;fill-rule:nonzero;"/>
            <path d="M1840.82,715.661L1855.15,715.661C1860.57,715.661 1862.91,717.829 1862.91,722.832L1862.91,725.333C1862.83,726.917 1862.83,728.417 1862.83,729.335C1862.83,735.087 1863.16,736.838 1864.66,739.745L1878.07,739.745L1878.07,737.505C1876.15,736.421 1875.4,735.171 1875.4,732.503C1875.07,714.579 1874.73,713.747 1866.99,710.417C1873.82,707.753 1877.23,702.837 1877.23,695.415C1877.23,690.579 1875.57,686.165 1872.65,683.168C1869.9,680.337 1866.07,679.005 1860.91,679.005L1828.33,679.005L1828.33,739.745L1840.82,739.745L1840.82,715.661ZM1840.82,705.255L1840.82,689.411L1855.9,689.411C1859.49,689.411 1860.91,689.745 1862.49,690.996C1863.99,692.247 1864.74,694.331 1864.74,697.167C1864.74,700.085 1863.99,702.42 1862.49,703.671C1861.07,704.838 1859.49,705.255 1855.9,705.255L1840.82,705.255Z" style="fill:#727272;fill-rule:nonzero;"/>
            <path d="M1954.53,522.557L1978.27,522.557C1987.52,522.557 1993.36,520.393 1997.52,515.481C2002.27,509.817 2004.85,501.648 2004.85,492.146C2004.85,482.727 2002.27,474.558 1997.52,468.811C1993.36,463.899 1987.61,461.818 1978.27,461.818L1954.53,461.818L1954.53,522.557ZM1967.02,512.151L1967.02,472.224L1978.27,472.224C1987.69,472.224 1992.36,478.809 1992.36,492.229C1992.36,505.566 1987.69,512.151 1978.27,512.151L1967.02,512.151Z" style="fill:#727272;fill-rule:nonzero;"/>
            <path d="M1753.02,481.935C1752.6,476.684 1751.52,473.35 1748.93,469.933C1744.27,463.773 1736.77,460.359 1727.68,460.359C1710.52,460.359 1699.86,472.599 1699.86,492.271C1699.86,511.859 1710.43,524.016 1727.35,524.016C1742.52,524.016 1752.52,515.274 1753.27,501.356L1741.1,501.356C1740.27,509.108 1735.43,513.526 1727.68,513.526C1718.02,513.526 1712.35,505.691 1712.35,492.438C1712.35,479.018 1718.27,471.016 1728.1,471.016C1735.35,471.016 1739.43,474.517 1741.1,481.935L1753.02,481.935Z" style="fill:#727272;fill-rule:nonzero;"/>
            <path d="M1449.11,522.557L1476.44,522.557C1483.44,522.557 1488.11,521.225 1491.77,518.145C1495.43,515.065 1497.77,509.983 1497.77,505.063C1497.77,499.059 1494.6,494.309 1487.69,490.313C1493.68,486.484 1496.02,482.982 1496.02,477.811C1496.02,473.558 1493.93,469.227 1490.52,466.23C1486.94,463.15 1482.69,461.818 1476.19,461.818L1449.11,461.818L1449.11,522.557ZM1461.6,472.224L1475.19,472.224C1481.03,472.224 1484.03,474.559 1484.03,479.062C1484.03,483.649 1481.03,485.984 1475.19,485.984L1461.6,485.984L1461.6,472.224ZM1461.6,496.391L1476.52,496.391C1482.61,496.391 1485.78,499.059 1485.78,504.313C1485.78,509.483 1482.61,512.151 1476.52,512.151L1461.6,512.151L1461.6,496.391Z" style="fill:#727272;fill-rule:nonzero;"/>
        </g>
    </g>
</svg>
