<?xml version="1.0" encoding="UTF-8" standalone="no"?>
<!DOCTYPE svg PUBLIC "-//W3C//DTD SVG 1.1//EN" "http://www.w3.org/Graphics/SVG/1.1/DTD/svg11.dtd">
<svg width="100%" height="100%" viewBox="0 0 3200 954" version="1.1" xmlns="http://www.w3.org/2000/svg" xmlns:xlink="http://www.w3.org/1999/xlink" xml:space="preserve" xmlns:serif="http://www.serif.com/" style="fill-rule:evenodd;clip-rule:evenodd;stroke-linejoin:round;stroke-miterlimit:2;">
    <rect id="OPTIONS" x="0" y="0" width="3200" height="953.125" style="fill:none;"/>
    <clipPath id="_clip1">
        <rect x="0" y="0" width="3200" height="953.125"/>
    </clipPath>
    <g clip-path="url(#_clip1)">
        <g id="CON">
            <path id="BACKGROUND" d="M2290.62,208.786L2290.62,744.339C2290.62,781.958 2260.08,812.5 2222.46,812.5L977.536,812.5C939.917,812.5 909.375,781.958 909.375,744.339L909.375,208.786C909.375,171.167 939.917,140.625 977.536,140.625L2222.46,140.625C2260.08,140.625 2290.62,171.167 2290.62,208.786Z" style="fill:#fff;"/>
            <clipPath id="_clip2">
                <path d="M2290.62,208.786L2290.62,744.339C2290.62,781.958 2260.08,812.5 2222.46,812.5L977.536,812.5C939.917,812.5 909.375,781.958 909.375,744.339L909.375,208.786C909.375,171.167 939.917,140.625 977.536,140.625L2222.46,140.625C2260.08,140.625 2290.62,171.167 2290.62,208.786Z"/>
            </clipPath>
            <g clip-path="url(#_clip2)">
                <rect x="942.272" y="803.125" width="1315.46" height="9.375" style="fill:#727272;"/>
            </g>
            <path d="M2300,208.786L2300,744.339C2300,787.132 2265.26,821.875 2222.46,821.875L977.536,821.875C934.743,821.875 900,787.132 900,744.339L900,208.786C900,165.993 934.743,131.25 977.536,131.25L2222.46,131.25C2265.26,131.25 2300,165.993 2300,208.786ZM2290.62,208.786C2290.62,171.167 2260.08,140.625 2222.46,140.625L977.536,140.625C939.917,140.625 909.375,171.167 909.375,208.786L909.375,744.339C909.375,781.958 939.917,812.5 977.536,812.5L2222.46,812.5C2260.08,812.5 2290.62,781.958 2290.62,744.339L2290.62,208.786Z" style="fill:#727272;"/>
            <g id="KNOB-L">
                <path d="M1068.75,178.125C1124.38,178.125 1168.75,216.46 1168.75,262.5C1168.75,308.54 1124.38,346.875 1068.75,346.875C1013.12,346.875 968.75,308.54 968.75,262.5C968.75,216.46 1013.12,178.125 1068.75,178.125ZM1068.75,187.5C1018.73,187.5 978.125,221.106 978.125,262.5C978.125,303.894 1018.73,337.5 1068.75,337.5C1118.77,337.5 1159.38,303.894 1159.38,262.5C1159.38,221.106 1118.77,187.5 1068.75,187.5Z" style="fill:#008cef;"/>
                <path d="M1018.75,262.5L1018.75,203.125L1118.75,203.125L1118.75,262.5C1118.75,284.922 1096.35,303.125 1068.75,303.125C1041.15,303.125 1018.75,284.922 1018.75,262.5Z" style="fill:#e5e5e5;"/>
                <path d="M1009.38,262.5L1009.38,203.125C1009.38,197.947 1013.57,193.75 1018.75,193.75L1118.75,193.75C1123.93,193.75 1128.12,197.947 1128.12,203.125L1128.12,262.5C1128.12,289.516 1102,312.5 1068.75,312.5C1035.5,312.5 1009.38,289.516 1009.38,262.5ZM1018.75,262.5C1018.75,284.922 1041.15,303.125 1068.75,303.125C1096.35,303.125 1118.75,284.922 1118.75,262.5L1118.75,203.125L1018.75,203.125L1018.75,262.5Z" style="fill:#727272;"/>
                <ellipse cx="1068.75" cy="203.125" rx="50" ry="40.625" style="fill:#e5e5e5;"/>
                <path d="M1068.75,153.125C1102,153.125 1128.12,176.109 1128.12,203.125C1128.12,230.141 1102,253.125 1068.75,253.125C1035.5,253.125 1009.38,230.141 1009.38,203.125C1009.38,176.109 1035.5,153.125 1068.75,153.125ZM1068.75,162.5C1041.15,162.5 1018.75,180.703 1018.75,203.125C1018.75,225.547 1041.15,243.75 1068.75,243.75C1096.35,243.75 1118.75,225.547 1118.75,203.125C1118.75,180.703 1096.35,162.5 1068.75,162.5Z" style="fill:#727272;"/>
            </g>
            <g id="KNOB-R">
                <path d="M2131.25,178.125C2186.88,178.125 2231.25,216.46 2231.25,262.5C2231.25,308.54 2186.88,346.875 2131.25,346.875C2075.62,346.875 2031.25,308.54 2031.25,262.5C2031.25,216.46 2075.62,178.125 2131.25,178.125ZM2131.25,187.5C2081.23,187.5 2040.62,221.106 2040.62,262.5C2040.62,303.894 2081.23,337.5 2131.25,337.5C2181.27,337.5 2221.88,303.894 2221.88,262.5C2221.88,221.106 2181.27,187.5 2131.25,187.5Z" style="fill:#f00000;"/>
                <path d="M2181.25,262.5L2181.25,203.125L2081.25,203.125L2081.25,262.5C2081.25,284.922 2103.65,303.125 2131.25,303.125C2158.85,303.125 2181.25,284.922 2181.25,262.5Z" style="fill:#e5e5e5;"/>
                <path d="M2190.62,262.5C2190.62,289.516 2164.5,312.5 2131.25,312.5C2098,312.5 2071.88,289.516 2071.88,262.5L2071.88,203.125C2071.88,197.947 2076.07,193.75 2081.25,193.75L2181.25,193.75C2186.43,193.75 2190.62,197.947 2190.62,203.125L2190.62,262.5ZM2181.25,262.5L2181.25,203.125L2081.25,203.125L2081.25,262.5C2081.25,284.922 2103.65,303.125 2131.25,303.125C2158.85,303.125 2181.25,284.922 2181.25,262.5Z" style="fill:#727272;"/>
                <ellipse cx="2131.25" cy="203.125" rx="50" ry="40.625" style="fill:#e5e5e5;"/>
                <path d="M2131.25,153.125C2164.5,153.125 2190.62,176.109 2190.62,203.125C2190.62,230.141 2164.5,253.125 2131.25,253.125C2098,253.125 2071.88,230.141 2071.88,203.125C2071.88,176.109 2098,153.125 2131.25,153.125ZM2131.25,162.5C2103.65,162.5 2081.25,180.703 2081.25,203.125C2081.25,225.547 2103.65,243.75 2131.25,243.75C2158.85,243.75 2181.25,225.547 2181.25,203.125C2181.25,180.703 2158.85,162.5 2131.25,162.5Z" style="fill:#727272;"/>
            </g>
            <g id="BT-A">
                <rect x="1118.75" y="390.625" width="203.125" height="212.5" style="fill:#fff;"/>
                <path d="M1331.25,390.625L1331.25,603.125C1331.25,608.303 1327.05,612.5 1321.88,612.5L1118.75,612.5C1113.57,612.5 1109.38,608.303 1109.38,603.125L1109.38,390.625C1109.38,385.447 1113.57,381.25 1118.75,381.25L1321.88,381.25C1327.05,381.25 1331.25,385.447 1331.25,390.625ZM1321.88,390.625L1118.75,390.625L1118.75,603.125L1321.88,603.125L1321.88,390.625Z" style="fill:#727272;"/>
                <rect x="1118.75" y="593.75" width="203.125" height="9.375" style="fill:#727272;"/>
            </g>
            <g id="BT-B">
                <rect x="1371.88" y="390.625" width="203.125" height="212.5" style="fill:#fff;"/>
                <path d="M1584.38,390.625L1584.38,603.125C1584.38,608.303 1580.18,612.5 1575,612.5L1371.88,612.5C1366.7,612.5 1362.5,608.303 1362.5,603.125L1362.5,390.625C1362.5,385.447 1366.7,381.25 1371.88,381.25L1575,381.25C1580.18,381.25 1584.38,385.447 1584.38,390.625ZM1575,390.625L1371.88,390.625L1371.88,603.125L1575,603.125L1575,390.625Z" style="fill:#727272;"/>
                <rect x="1371.88" y="593.75" width="203.125" height="9.375" style="fill:#727272;"/>
            </g>
            <g id="BT-C">
                <rect x="1625" y="390.625" width="203.125" height="212.5" style="fill:#fff;"/>
                <path d="M1837.5,390.625L1837.5,603.125C1837.5,608.303 1833.3,612.5 1828.12,612.5L1625,612.5C1619.82,612.5 1615.62,608.303 1615.62,603.125L1615.62,390.625C1615.62,385.447 1619.82,381.25 1625,381.25L1828.12,381.25C1833.3,381.25 1837.5,385.447 1837.5,390.625ZM1828.12,390.625L1625,390.625L1625,603.125L1828.12,603.125L1828.12,390.625Z" style="fill:#727272;"/>
                <rect x="1625" y="593.75" width="203.125" height="9.375" style="fill:#727272;"/>
            </g>
            <g id="BT-D">
                <rect x="1878.12" y="390.625" width="203.125" height="212.5" style="fill:#fff;"/>
                <path d="M1878.12,381.25L2081.25,381.25C2086.43,381.25 2090.62,385.447 2090.62,390.625L2090.62,603.125C2090.62,608.303 2086.43,612.5 2081.25,612.5L1878.12,612.5C1872.95,612.5 1868.75,608.303 1868.75,603.125L1868.75,390.625C1868.75,385.447 1872.95,381.25 1878.12,381.25ZM1878.12,390.625L1878.12,603.125L2081.25,603.125L2081.25,390.625L1878.12,390.625Z" style="fill:#727272;"/>
                <rect x="1878.12" y="593.75" width="203.125" height="9.375" style="fill:#727272;"/>
            </g>
            <g id="FX-L">
                <rect x="1246.88" y="659.375" width="200" height="109.375" style="fill:#e5e5e5;"/>
                <path d="M1456.25,659.375L1456.25,768.75C1456.25,773.928 1452.05,778.125 1446.88,778.125L1246.88,778.125C1241.7,778.125 1237.5,773.928 1237.5,768.75L1237.5,659.375C1237.5,654.197 1241.7,650 1246.88,650L1446.88,650C1452.05,650 1456.25,654.197 1456.25,659.375ZM1446.88,659.375L1246.88,659.375L1246.88,768.75L1446.88,768.75L1446.88,659.375Z" style="fill:#727272;"/>
                <rect x="1246.88" y="759.375" width="200" height="9.375" style="fill:#727272;"/>
            </g>
            <g id="FX-R">
                <rect x="1753.12" y="659.375" width="200" height="109.375" style="fill:#e5e5e5;"/>
                <path d="M1753.12,650L1953.12,650C1958.3,650 1962.5,654.197 1962.5,659.375L1962.5,768.75C1962.5,773.928 1958.3,778.125 1953.12,778.125L1753.12,778.125C1747.95,778.125 1743.75,773.928 1743.75,768.75L1743.75,659.375C1743.75,654.197 1747.95,650 1753.12,650ZM1753.12,659.375L1753.12,768.75L1953.12,768.75L1953.12,659.375L1753.12,659.375Z" style="fill:#727272;"/>
                <rect x="1753.12" y="759.375" width="200" height="9.375" style="fill:#727272;"/>
            </g>
            <g id="START">
                <rect x="1550" y="225" width="100" height="103.125" style="fill:#fff;"/>
                <path d="M1659.38,225L1659.38,328.125C1659.38,333.303 1655.18,337.5 1650,337.5L1550,337.5C1544.82,337.5 1540.62,333.303 1540.62,328.125L1540.62,225C1540.62,219.822 1544.82,215.625 1550,215.625L1650,215.625C1655.18,215.625 1659.38,219.822 1659.38,225ZM1650,225L1550,225L1550,328.125L1650,328.125L1650,225Z" style="fill:#727272;"/>
                <rect x="1550" y="318.75" width="100" height="9.375" style="fill:#727272;"/>
            </g>
        </g>
        <path id="FX-L_ANCHOR" d="M1348.62,778.029C1342.64,778.698 1336.54,775.857 1333.34,770.313C1329.03,762.844 1331.59,753.28 1339.06,748.969C1346.53,744.657 1356.1,747.219 1360.41,754.688C1363.61,760.232 1363.02,766.931 1359.45,771.779L1449.66,926.879L1438.84,933.129L1348.62,778.029Z" style="fill:#ff8fbc;"/>
        <path d="M1343.12,787.213C1335.87,786.107 1329.17,781.839 1325.22,775C1318.33,763.051 1322.43,747.749 1334.38,740.85C1346.32,733.951 1361.63,738.051 1368.53,750C1372.47,756.826 1372.82,764.745 1370.17,771.565L1457.77,922.166C1459.02,924.319 1459.36,926.883 1458.72,929.291C1458.08,931.699 1456.51,933.752 1454.35,934.998L1443.52,941.248C1439.05,943.831 1433.33,942.308 1430.73,937.843L1343.12,787.213ZM1348.62,778.029L1438.84,933.129L1449.66,926.879L1359.45,771.779C1363.02,766.931 1363.61,760.232 1360.41,754.688C1356.1,747.219 1346.53,744.657 1339.06,748.969C1331.59,753.28 1329.03,762.844 1333.34,770.313C1336.54,775.857 1342.64,778.698 1348.62,778.029Z" style="fill:#fff;"/>
        <path id="FX-R_ANCHOR" d="M1851.38,778.029C1857.36,778.698 1863.46,775.857 1866.66,770.313C1870.97,762.844 1868.41,753.28 1860.94,748.969C1853.47,744.657 1843.9,747.219 1839.59,754.688C1836.39,760.232 1836.98,766.931 1840.55,771.779L1750.34,926.879L1761.16,933.129L1851.38,778.029Z" style="fill:#ff8fbc;"/>
        <path d="M1856.88,787.213L1769.27,937.843C1766.67,942.308 1760.95,943.831 1756.48,941.248L1745.65,934.998C1743.49,933.752 1741.92,931.699 1741.28,929.291C1740.64,926.883 1740.98,924.319 1742.23,922.166C1742.23,922.166 1829.83,771.565 1829.83,771.567C1827.18,764.745 1827.53,756.826 1831.47,750C1838.37,738.051 1853.68,733.951 1865.62,740.85C1877.57,747.749 1881.67,763.051 1874.78,775C1870.83,781.839 1864.13,786.107 1856.88,787.213ZM1851.38,778.029C1857.36,778.698 1863.46,775.857 1866.66,770.313C1870.97,762.844 1868.41,753.28 1860.94,748.969C1853.47,744.657 1843.9,747.219 1839.59,754.688C1836.39,760.232 1836.98,766.931 1840.55,771.779L1750.34,926.879L1761.16,933.129L1851.38,778.029Z" style="fill:#fff;"/>
        <g id="OPTIONS1" serif:id="OPTIONS">
            <rect x="1384.38" y="856.25" width="778.125" height="87.5" style="fill:#fff;"/>
            <path d="M2175,953.125L1025,953.125L1025,846.875L2175,846.875L2175,953.125ZM1384.38,943.75C1621.02,943.75 2162.5,943.75 2162.5,943.75L2162.5,856.25C2112.49,856.25 1599.48,856.25 1384.38,856.25L1384.38,943.75Z" style="fill:#ff8fbc;"/>
            <path d="M1077.85,902.182L1104.43,902.182L1104.43,891.776L1077.85,891.776L1077.85,878.016L1108.02,878.016L1108.02,867.609L1065.36,867.609L1065.36,928.349L1077.85,928.349L1077.85,902.182Z" style="fill:#fff;fill-rule:nonzero;"/>
            <path d="M1145.02,897.354L1163.77,867.609L1149.27,867.609L1138.11,887.602L1127.44,867.609L1112.61,867.609L1131.11,897.771L1111.94,928.349L1126.44,928.349L1138.02,907.272L1149.69,928.349L1164.52,928.349L1145.02,897.354Z" style="fill:#fff;fill-rule:nonzero;"/>
            <rect x="1165.52" y="899.859" width="22.667" height="11.24" style="fill:#fff;fill-rule:nonzero;"/>
            <path d="M1210.27,867.609L1197.78,867.609L1197.78,928.349L1239.35,928.349L1239.35,917.943L1210.27,917.943L1210.27,867.609Z" style="fill:#fff;fill-rule:nonzero;"/>
            <path d="M1286.43,904.109L1271.27,904.109L1271.27,888.943L1261.36,888.943L1261.36,904.109L1246.19,904.109L1246.19,914.016L1261.36,914.016L1261.36,929.182L1271.27,929.182L1271.27,914.016L1286.43,914.016L1286.43,904.109Z" style="fill:#fff;fill-rule:nonzero;"/>
            <path d="M1309.85,904.266L1324.19,904.266C1329.61,904.266 1331.94,906.433 1331.94,911.436L1331.94,913.937C1331.86,915.521 1331.86,917.022 1331.86,917.939C1331.86,923.691 1332.19,925.442 1333.69,928.349L1347.1,928.349L1347.1,926.109C1345.19,925.025 1344.44,923.775 1344.44,921.107C1344.1,903.183 1343.77,902.351 1336.03,899.021C1342.85,896.357 1346.27,891.441 1346.27,884.02C1346.27,879.183 1344.6,874.769 1341.69,871.772C1338.94,868.941 1335.11,867.609 1329.94,867.609L1297.36,867.609L1297.36,928.349L1309.85,928.349L1309.85,904.266ZM1309.85,893.859L1309.85,878.016L1324.94,878.016C1328.53,878.016 1329.94,878.349 1331.53,879.6C1333.03,880.851 1333.78,882.936 1333.78,885.771C1333.78,888.689 1333.03,891.024 1331.53,892.275C1330.11,893.442 1328.53,893.859 1324.94,893.859L1309.85,893.859Z" style="fill:#fff;fill-rule:nonzero;"/>
            <path d="M1473.29,876.158C1461.09,876.158 1452.82,885.135 1452.82,898.437C1452.82,911.799 1461.04,920.717 1473.35,920.717C1478.54,920.717 1483.09,919.145 1486.53,916.232C1491.14,912.324 1493.88,905.731 1493.88,898.787C1493.88,885.076 1485.77,876.158 1473.29,876.158ZM1473.29,880.934C1482.51,880.934 1488.46,887.877 1488.46,898.671C1488.46,908.94 1482.33,915.941 1473.35,915.941C1464.24,915.941 1458.23,908.94 1458.23,898.437C1458.23,887.935 1464.24,880.934 1473.29,880.934Z" style="fill:#727272;fill-rule:nonzero;"/>
            <path d="M1506.3,901.351L1519.66,901.351C1522.99,901.351 1525.62,900.36 1527.89,898.322C1530.45,895.991 1531.56,893.248 1531.56,889.338C1531.56,881.343 1526.84,876.858 1518.44,876.858L1500.88,876.858L1500.88,919.376L1506.3,919.376L1506.3,901.351ZM1506.3,896.574L1506.3,881.634L1517.62,881.634C1522.82,881.634 1525.91,884.435 1525.91,889.104C1525.91,893.773 1522.82,896.574 1517.62,896.574L1506.3,896.574Z" style="fill:#727272;fill-rule:nonzero;"/>
            <path d="M1543.23,900.009L1566.38,900.009L1566.38,895.233L1543.23,895.233L1543.23,881.634L1567.26,881.634L1567.26,876.858L1537.81,876.858L1537.81,919.376L1568.31,919.376L1568.31,914.599L1543.23,914.599L1543.23,900.009Z" style="fill:#727272;fill-rule:nonzero;"/>
            <path d="M1609.14,876.858L1604.02,876.858L1604.02,911.623L1581.78,876.858L1575.9,876.858L1575.9,919.376L1581.03,919.376L1581.03,884.902L1603.02,919.376L1609.14,919.376L1609.14,876.858Z" style="fill:#727272;fill-rule:nonzero;"/>
            <path d="M1626.94,876.858L1613.11,920.542L1616.32,920.542L1630.15,876.858L1626.94,876.858Z" style="fill:#727272;fill-rule:nonzero;"/>
            <path d="M1668.41,890.036C1666.72,880.701 1661.35,876.158 1652.02,876.158C1646.3,876.158 1641.69,877.963 1638.54,881.459C1634.7,885.66 1632.6,891.728 1632.6,898.612C1632.6,905.614 1634.76,911.624 1638.72,915.766C1642.04,919.145 1646.24,920.717 1651.78,920.717C1662.17,920.717 1668,915.124 1669.28,903.864L1663.68,903.864C1663.22,906.781 1662.63,908.765 1661.76,910.457C1660.01,913.957 1656.39,915.941 1651.84,915.941C1643.38,915.941 1638.02,909.173 1638.02,898.554C1638.02,887.643 1643.09,880.934 1651.38,880.934C1654.82,880.934 1658.03,881.926 1659.78,883.618C1661.35,885.076 1662.23,886.827 1662.87,890.036L1668.41,890.036Z" style="fill:#727272;fill-rule:nonzero;"/>
            <path d="M1682,876.858L1676.58,876.858L1676.58,919.376L1703,919.376L1703,914.599L1682,914.599L1682,876.858Z" style="fill:#727272;fill-rule:nonzero;"/>
            <path d="M1724.65,876.158C1712.45,876.158 1704.17,885.135 1704.17,898.437C1704.17,911.799 1712.39,920.717 1724.7,920.717C1729.9,920.717 1734.45,919.145 1737.89,916.232C1742.5,912.324 1745.23,905.731 1745.23,898.787C1745.23,885.076 1737.13,876.158 1724.65,876.158ZM1724.65,880.934C1733.87,880.934 1739.82,887.877 1739.82,898.671C1739.82,908.94 1733.69,915.941 1724.7,915.941C1715.6,915.941 1709.59,908.94 1709.59,898.437C1709.59,887.935 1715.6,880.934 1724.65,880.934Z" style="fill:#727272;fill-rule:nonzero;"/>
            <path d="M1781.52,889.335C1781.52,886.418 1781.34,885.601 1780.41,883.618C1778.08,878.72 1773.12,876.158 1765.94,876.158C1756.61,876.158 1750.84,880.934 1750.84,888.635C1750.84,893.828 1753.58,897.095 1759.18,898.554L1769.74,901.355C1775.16,902.755 1777.56,904.914 1777.56,908.24C1777.56,910.515 1776.33,912.849 1774.52,914.132C1772.83,915.358 1770.15,915.941 1766.7,915.941C1762.04,915.941 1758.94,914.833 1756.9,912.382C1755.33,910.515 1754.63,908.473 1754.69,905.847L1749.56,905.847C1749.62,909.756 1750.37,912.324 1752.06,914.658C1754.98,918.679 1759.88,920.717 1766.35,920.717C1771.43,920.717 1775.57,919.552 1778.32,917.456C1781.17,915.183 1782.98,911.39 1782.98,907.714C1782.98,902.463 1779.71,898.612 1773.94,897.037L1763.26,894.178C1758.13,892.778 1756.26,891.144 1756.26,887.877C1756.26,883.559 1760.05,880.701 1765.77,880.701C1772.54,880.701 1776.33,883.734 1776.39,889.335L1781.52,889.335Z" style="fill:#727272;fill-rule:nonzero;"/>
            <path d="M1796.33,900.009L1819.49,900.009L1819.49,895.233L1796.33,895.233L1796.33,881.634L1820.37,881.634L1820.37,876.858L1790.92,876.858L1790.92,919.376L1821.42,919.376L1821.42,914.599L1796.33,914.599L1796.33,900.009Z" style="fill:#727272;fill-rule:nonzero;"/>
            <path d="M1863.48,876.158C1851.29,876.158 1843.01,885.135 1843.01,898.437C1843.01,911.799 1851.23,920.717 1863.54,920.717C1868.73,920.717 1873.28,919.145 1876.72,916.232C1881.33,912.324 1884.07,905.731 1884.07,898.787C1884.07,885.076 1875.97,876.158 1863.48,876.158ZM1863.48,880.934C1872.7,880.934 1878.65,887.877 1878.65,898.671C1878.65,908.94 1872.52,915.941 1863.54,915.941C1854.43,915.941 1848.43,908.94 1848.43,898.437C1848.43,887.935 1854.43,880.934 1863.48,880.934Z" style="fill:#727272;fill-rule:nonzero;"/>
            <path d="M1896.49,901.351L1909.86,901.351C1913.18,901.351 1915.81,900.36 1918.08,898.322C1920.64,895.991 1921.75,893.248 1921.75,889.338C1921.75,881.343 1917.03,876.858 1908.63,876.858L1891.07,876.858L1891.07,919.376L1896.49,919.376L1896.49,901.351ZM1896.49,896.574L1896.49,881.634L1907.81,881.634C1913.01,881.634 1916.1,884.435 1916.1,889.104C1916.1,893.773 1913.01,896.574 1907.81,896.574L1896.49,896.574Z" style="fill:#727272;fill-rule:nonzero;"/>
            <path d="M1944.44,881.634L1958.38,881.634L1958.38,876.858L1925.02,876.858L1925.02,881.634L1939.02,881.634L1939.02,919.376L1944.44,919.376L1944.44,881.634Z" style="fill:#727272;fill-rule:nonzero;"/>
            <rect x="1963.99" y="876.858" width="5.476" height="42.518" style="fill:#727272;fill-rule:nonzero;"/>
            <path d="M1997.06,876.158C1984.87,876.158 1976.59,885.135 1976.59,898.437C1976.59,911.799 1984.81,920.717 1997.12,920.717C2002.31,920.717 2006.87,919.145 2010.31,916.232C2014.91,912.324 2017.65,905.731 2017.65,898.787C2017.65,885.076 2009.55,876.158 1997.06,876.158ZM1997.06,880.934C2006.28,880.934 2012.23,887.877 2012.23,898.671C2012.23,908.94 2006.11,915.941 1997.12,915.941C1988.02,915.941 1982.01,908.94 1982.01,898.437C1982.01,887.935 1988.02,880.934 1997.06,880.934Z" style="fill:#727272;fill-rule:nonzero;"/>
            <path d="M2057.43,876.858L2052.31,876.858L2052.31,911.623L2030.08,876.858L2024.19,876.858L2024.19,919.376L2029.32,919.376L2029.32,884.902L2051.32,919.376L2057.43,919.376L2057.43,876.858Z" style="fill:#727272;fill-rule:nonzero;"/>
            <path d="M2096.64,889.335C2096.64,886.418 2096.46,885.601 2095.53,883.618C2093.2,878.72 2088.24,876.158 2081.06,876.158C2071.73,876.158 2065.96,880.934 2065.96,888.635C2065.96,893.828 2068.7,897.095 2074.29,898.554L2084.86,901.355C2090.28,902.755 2092.67,904.914 2092.67,908.24C2092.67,910.515 2091.45,912.849 2089.64,914.132C2087.95,915.358 2085.26,915.941 2081.82,915.941C2077.15,915.941 2074.06,914.833 2072.02,912.382C2070.44,910.515 2069.74,908.473 2069.8,905.847L2064.67,905.847C2064.73,909.756 2065.49,912.324 2067.18,914.658C2070.09,918.679 2074.99,920.717 2081.47,920.717C2086.55,920.717 2090.69,919.552 2093.43,917.456C2096.29,915.183 2098.09,911.39 2098.09,907.714C2098.09,902.463 2094.83,898.612 2089.06,897.037L2078.38,894.178C2073.24,892.778 2071.38,891.144 2071.38,887.877C2071.38,883.559 2075.17,880.701 2080.89,880.701C2087.66,880.701 2091.45,883.734 2091.51,889.335L2096.64,889.335Z" style="fill:#727272;fill-rule:nonzero;"/>
        </g>
        <path id="VOL-R_ANCHOR" d="M2145.57,193.75C2143.16,188.234 2137.65,184.375 2131.25,184.375C2122.63,184.375 2115.62,191.376 2115.62,200C2115.62,208.624 2122.63,215.625 2131.25,215.625C2137.65,215.625 2143.16,211.766 2145.57,206.25L2334.38,206.25L2334.38,193.75L2145.57,193.75Z" style="fill:#ff8fbc;"/>
        <path d="M2150.76,184.376L2334.38,184.375C2339.55,184.375 2343.75,188.572 2343.75,193.75L2343.75,206.25C2343.75,211.428 2339.55,215.625 2334.38,215.625C2334.38,215.625 2150.76,215.625 2150.76,215.624C2146.18,221.339 2139.14,225 2131.25,225C2117.45,225 2106.25,213.798 2106.25,200C2106.25,186.202 2117.45,175 2131.25,175C2139.14,175 2146.18,178.66 2150.76,184.376ZM2145.57,193.75C2143.16,188.234 2137.65,184.375 2131.25,184.375C2122.63,184.375 2115.62,191.376 2115.62,200C2115.62,208.624 2122.63,215.625 2131.25,215.625C2137.65,215.625 2143.16,211.766 2145.57,206.25L2334.38,206.25L2334.38,193.75L2145.57,193.75Z" style="fill:#fff;"/>
        <g id="VOL-R">
            <rect x="2684.38" y="156.25" width="506.25" height="87.5" style="fill:#fff;"/>
            <path d="M3200,253.125L2325,253.125L2325,146.875L3200,146.875L3200,253.125ZM2684.38,243.75C2921.02,243.75 3190.62,243.75 3190.62,243.75L3190.62,156.25C3140.62,156.25 2899.47,156.25 2684.38,156.25L2684.38,243.75Z" style="fill:#ff8fbc;"/>
            <path d="M2410.52,229.911L2431.36,169.172L2418.77,169.172L2405.52,214.919L2392.02,169.172L2379.44,169.172L2399.94,229.911L2410.52,229.911Z" style="fill:#fff;fill-rule:nonzero;"/>
            <path d="M2462.52,168.172C2454.02,168.172 2447.02,171.002 2441.86,176.58C2436.44,182.412 2433.36,190.914 2433.36,200C2433.36,209.086 2436.44,217.671 2441.86,223.42C2447.1,229.081 2453.94,231.828 2462.61,231.828C2471.28,231.828 2478.11,229.081 2483.36,223.42C2488.6,217.838 2491.85,209.002 2491.85,200.417C2491.85,190.914 2488.77,182.329 2483.36,176.58C2478.03,170.836 2471.36,168.172 2462.52,168.172ZM2462.61,178.828C2472.86,178.828 2479.36,187.164 2479.36,200.333C2479.36,212.837 2472.61,221.172 2462.61,221.172C2452.44,221.172 2445.85,212.837 2445.85,200C2445.85,187.164 2452.44,178.828 2462.61,178.828Z" style="fill:#fff;fill-rule:nonzero;"/>
            <path d="M2514.02,169.172L2501.53,169.172L2501.53,229.911L2543.1,229.911L2543.1,219.505L2514.02,219.505L2514.02,169.172Z" style="fill:#fff;fill-rule:nonzero;"/>
            <rect x="2546.86" y="201.422" width="22.667" height="11.24" style="fill:#fff;fill-rule:nonzero;"/>
            <path d="M2591.6,205.828L2605.94,205.828C2611.36,205.828 2613.7,207.996 2613.7,212.998L2613.7,215.499C2613.61,217.083 2613.61,218.584 2613.61,219.501C2613.61,225.254 2613.95,227.005 2615.45,229.911L2628.85,229.911L2628.85,227.672C2626.94,226.588 2626.19,225.337 2626.19,222.669C2625.85,204.746 2625.52,203.913 2617.78,200.583C2624.6,197.919 2628.02,193.004 2628.02,185.582C2628.02,180.746 2626.35,176.331 2623.44,173.334C2620.69,170.504 2616.86,169.172 2611.69,169.172L2579.11,169.172L2579.11,229.911L2591.6,229.911L2591.6,205.828ZM2591.6,195.422L2591.6,179.578L2606.69,179.578C2610.28,179.578 2611.69,179.912 2613.28,181.163C2614.78,182.413 2615.53,184.498 2615.53,187.333C2615.53,190.252 2614.78,192.587 2613.28,193.838C2611.86,195.005 2610.28,195.422 2606.69,195.422L2591.6,195.422Z" style="fill:#fff;fill-rule:nonzero;"/>
            <path d="M2732.51,191.598C2730.82,182.263 2725.45,177.72 2716.12,177.72C2710.41,177.72 2705.8,179.526 2702.65,183.021C2698.8,187.222 2696.7,193.29 2696.7,200.175C2696.7,207.176 2698.86,213.186 2702.82,217.329C2706.15,220.707 2710.35,222.28 2715.89,222.28C2726.27,222.28 2732.11,216.687 2733.39,205.426L2727.79,205.426C2727.32,208.343 2726.74,210.327 2725.86,212.019C2724.11,215.52 2720.5,217.504 2715.95,217.504C2707.49,217.504 2702.12,210.736 2702.12,200.117C2702.12,189.206 2707.2,182.496 2715.48,182.496C2718.92,182.496 2722.13,183.488 2723.88,185.18C2725.45,186.639 2726.33,188.389 2726.97,191.598L2732.51,191.598Z" style="fill:#727272;fill-rule:nonzero;"/>
            <path d="M2767.46,201.571L2767.46,220.938L2772.88,220.938L2772.88,178.42L2767.46,178.42L2767.46,196.795L2745.58,196.795L2745.58,178.42L2740.16,178.42L2740.16,220.938L2745.58,220.938L2745.58,201.571L2767.46,201.571Z" style="fill:#727272;fill-rule:nonzero;"/>
            <path d="M2804.44,208.163L2808.82,220.938L2814.88,220.938L2799.95,178.42L2792.95,178.42L2777.78,220.938L2783.56,220.938L2788.05,208.163L2804.44,208.163ZM2802.93,203.62L2789.39,203.62L2796.39,184.248L2802.93,203.62Z" style="fill:#727272;fill-rule:nonzero;"/>
            <path d="M2853.38,178.42L2848.25,178.42L2848.25,213.186L2826.02,178.42L2820.14,178.42L2820.14,220.938L2825.26,220.938L2825.26,186.464L2847.26,220.938L2853.38,220.938L2853.38,178.42Z" style="fill:#727272;fill-rule:nonzero;"/>
            <path d="M2899.11,198.487L2881.38,198.487L2881.38,203.263L2894.33,203.263L2894.33,204.43C2894.33,212.017 2888.73,217.504 2880.97,217.504C2876.66,217.504 2872.75,215.928 2870.24,213.185C2867.44,210.15 2865.75,205.072 2865.75,199.827C2865.75,189.383 2871.7,182.496 2880.68,182.496C2887.16,182.496 2891.82,185.823 2892.99,191.309L2898.53,191.309C2897.01,182.671 2890.48,177.72 2880.74,177.72C2875.55,177.72 2871.35,179.06 2868.02,181.797C2863.07,185.881 2860.33,192.476 2860.33,200.118C2860.33,213.185 2868.31,222.28 2879.8,222.28C2885.58,222.28 2890.13,220.125 2894.33,215.519L2895.67,221.173L2899.11,221.173L2899.11,198.487Z" style="fill:#727272;fill-rule:nonzero;"/>
            <path d="M2913.81,201.571L2936.97,201.571L2936.97,196.795L2913.81,196.795L2913.81,183.196L2937.85,183.196L2937.85,178.42L2908.39,178.42L2908.39,220.938L2938.9,220.938L2938.9,216.162L2913.81,216.162L2913.81,201.571Z" style="fill:#727272;fill-rule:nonzero;"/>
            <path d="M2980.96,177.72C2968.76,177.72 2960.49,186.697 2960.49,200C2960.49,213.361 2968.7,222.28 2981.02,222.28C2986.21,222.28 2990.76,220.707 2994.2,217.795C2998.81,213.886 3001.55,207.293 3001.55,200.35C3001.55,186.639 2993.45,177.72 2980.96,177.72ZM2980.96,182.496C2990.18,182.496 2996.13,189.439 2996.13,200.233C2996.13,210.502 2990,217.504 2981.02,217.504C2971.91,217.504 2965.91,210.502 2965.91,200C2965.91,189.498 2971.91,182.496 2980.96,182.496Z" style="fill:#727272;fill-rule:nonzero;"/>
            <path d="M3013.97,202.913L3027.34,202.913C3030.66,202.913 3033.29,201.923 3035.56,199.884C3038.12,197.553 3039.23,194.81 3039.23,190.9C3039.23,182.905 3034.51,178.42 3026.11,178.42L3008.55,178.42L3008.55,220.938L3013.97,220.938L3013.97,202.913ZM3013.97,198.137L3013.97,183.196L3025.29,183.196C3030.49,183.196 3033.58,185.998 3033.58,190.667C3033.58,195.336 3030.49,198.137 3025.29,198.137L3013.97,198.137Z" style="fill:#727272;fill-rule:nonzero;"/>
            <path d="M3061.92,183.196L3075.86,183.196L3075.86,178.42L3042.5,178.42L3042.5,183.196L3056.5,183.196L3056.5,220.938L3061.92,220.938L3061.92,183.196Z" style="fill:#727272;fill-rule:nonzero;"/>
            <rect x="3081.47" y="178.42" width="5.476" height="42.518" style="fill:#727272;fill-rule:nonzero;"/>
            <path d="M3114.54,177.72C3102.35,177.72 3094.07,186.697 3094.07,200C3094.07,213.361 3102.29,222.28 3114.6,222.28C3119.79,222.28 3124.34,220.707 3127.79,217.795C3132.39,213.886 3135.13,207.293 3135.13,200.35C3135.13,186.639 3127.03,177.72 3114.54,177.72ZM3114.54,182.496C3123.76,182.496 3129.71,189.439 3129.71,200.233C3129.71,210.502 3123.59,217.504 3114.6,217.504C3105.5,217.504 3099.49,210.502 3099.49,200C3099.49,189.498 3105.5,182.496 3114.54,182.496Z" style="fill:#727272;fill-rule:nonzero;"/>
            <path d="M3174.91,178.42L3169.79,178.42L3169.79,213.186L3147.56,178.42L3141.67,178.42L3141.67,220.938L3146.8,220.938L3146.8,186.464L3168.8,220.938L3174.91,220.938L3174.91,178.42Z" style="fill:#727272;fill-rule:nonzero;"/>
        </g>
        <path id="VOL-L_ANCHOR" d="M1054.43,193.75C1056.84,188.234 1062.35,184.375 1068.75,184.375C1077.37,184.375 1084.38,191.376 1084.38,200C1084.38,208.624 1077.37,215.625 1068.75,215.625C1062.35,215.625 1056.84,211.766 1054.43,206.25L865.625,206.25L865.625,193.75L1054.43,193.75Z" style="fill:#ff8fbc;"/>
        <path d="M1049.24,184.376C1053.82,178.66 1060.86,175 1068.75,175C1082.55,175 1093.75,186.202 1093.75,200C1093.75,213.798 1082.55,225 1068.75,225C1060.86,225 1053.82,221.339 1049.24,215.625L865.625,215.625C860.447,215.625 856.25,211.428 856.25,206.25L856.25,193.75C856.25,188.572 860.447,184.375 865.625,184.375L1049.24,184.376ZM1054.43,193.75L865.625,193.75L865.625,206.25L1054.43,206.25C1056.84,211.766 1062.35,215.625 1068.75,215.625C1077.37,215.625 1084.38,208.624 1084.38,200C1084.38,191.376 1077.37,184.375 1068.75,184.375C1062.35,184.375 1056.84,188.234 1054.43,193.75Z" style="fill:#fff;"/>
        <g id="VOL-L">
            <rect x="359.375" y="156.25" width="506.25" height="87.5" style="fill:#fff;"/>
            <path d="M875,253.125L0,253.125L0,146.875L875,146.875L875,253.125ZM359.375,243.75C596.018,243.75 865.625,243.75 865.625,243.75L865.625,156.25C815.615,156.25 574.475,156.25 359.375,156.25L359.375,243.75Z" style="fill:#ff8fbc;"/>
            <path d="M90.148,229.911L110.982,169.172L98.398,169.172L85.148,214.919L71.648,169.172L59.065,169.172L79.565,229.911L90.148,229.911Z" style="fill:#fff;fill-rule:nonzero;"/>
            <path d="M142.148,168.172C133.646,168.172 126.644,171.002 121.48,176.58C116.068,182.412 112.987,190.914 112.987,200C112.987,209.086 116.068,217.671 121.48,223.42C126.727,229.081 133.562,231.828 142.232,231.828C150.901,231.828 157.736,229.081 162.984,223.42C168.229,217.838 171.477,209.002 171.477,200.417C171.477,190.914 168.396,182.329 162.984,176.58C157.653,170.836 150.984,168.172 142.148,168.172ZM142.232,178.828C152.485,178.828 158.987,187.164 158.987,200.333C158.987,212.837 152.235,221.172 142.232,221.172C132.062,221.172 125.477,212.837 125.477,200C125.477,187.164 132.062,178.828 142.232,178.828Z" style="fill:#fff;fill-rule:nonzero;"/>
            <path d="M193.643,169.172L181.154,169.172L181.154,229.911L222.727,229.911L222.727,219.505L193.643,219.505L193.643,169.172Z" style="fill:#fff;fill-rule:nonzero;"/>
            <rect x="226.482" y="201.422" width="22.667" height="11.24" style="fill:#fff;fill-rule:nonzero;"/>
            <path d="M271.227,169.172L258.737,169.172L258.737,229.911L300.31,229.911L300.31,219.505L271.227,219.505L271.227,169.172Z" style="fill:#fff;fill-rule:nonzero;"/>
            <path d="M392.29,190.898C392.29,187.981 392.115,187.164 391.183,185.18C388.853,180.283 383.894,177.72 376.716,177.72C367.38,177.72 361.612,182.496 361.612,190.198C361.612,195.391 364.35,198.658 369.947,200.117L380.509,202.917C385.936,204.317 388.329,206.476 388.329,209.802C388.329,212.077 387.103,214.411 385.294,215.695C383.602,216.92 380.918,217.504 377.475,217.504C372.807,217.504 369.714,216.395 367.672,213.945C366.098,212.077 365.399,210.035 365.457,207.41L360.329,207.41C360.387,211.319 361.145,213.886 362.835,216.22C365.748,220.241 370.648,222.28 377.125,222.28C382.201,222.28 386.345,221.115 389.086,219.018C391.94,216.745 393.746,212.953 393.746,209.277C393.746,204.026 390.484,200.175 384.711,198.6L374.032,195.741C368.897,194.34 367.03,192.707 367.03,189.439C367.03,185.122 370.823,182.263 376.541,182.263C383.31,182.263 387.103,185.297 387.161,190.898L392.29,190.898Z" style="fill:#727272;fill-rule:nonzero;"/>
            <path d="M434.346,191.598C432.655,182.263 427.288,177.72 417.955,177.72C412.238,177.72 407.63,179.526 404.48,183.021C400.634,187.222 398.537,193.29 398.537,200.175C398.537,207.176 400.692,213.186 404.655,217.329C407.98,220.707 412.18,222.28 417.721,222.28C428.105,222.28 433.938,216.687 435.221,205.426L429.621,205.426C429.155,208.343 428.571,210.327 427.696,212.019C425.946,215.52 422.33,217.504 417.78,217.504C409.321,217.504 403.955,210.736 403.955,200.117C403.955,189.206 409.03,182.496 417.313,182.496C420.755,182.496 423.963,183.488 425.713,185.18C427.288,186.639 428.163,188.389 428.805,191.598L434.346,191.598Z" style="fill:#727272;fill-rule:nonzero;"/>
            <path d="M448.696,202.621L462.701,202.621C467.544,202.621 469.703,204.956 469.703,210.208L469.645,214.001C469.645,216.627 470.112,219.195 470.869,220.938L477.455,220.938L477.455,219.604C475.414,218.203 475.006,216.686 474.889,211.025C474.831,204.022 473.724,201.922 469.12,199.942C473.899,197.553 475.821,194.694 475.821,189.791C475.821,182.439 471.277,178.42 462.876,178.42L443.279,178.42L443.279,220.938L448.696,220.938L448.696,202.621ZM448.696,197.845L448.696,183.196L461.826,183.196C464.86,183.196 466.611,183.663 467.953,184.83C469.412,186.056 470.17,187.982 470.17,190.492C470.17,195.569 467.603,197.845 461.826,197.845L448.696,197.845Z" style="fill:#727272;fill-rule:nonzero;"/>
            <path d="M501.958,177.72C489.764,177.72 481.487,186.697 481.487,200C481.487,213.361 489.705,222.28 502.017,222.28C507.21,222.28 511.761,220.707 515.203,217.795C519.808,213.886 522.546,207.293 522.546,200.35C522.546,186.639 514.445,177.72 501.958,177.72ZM501.958,182.496C511.177,182.496 517.129,189.439 517.129,200.233C517.129,210.502 511.002,217.504 502.017,217.504C492.914,217.504 486.905,210.502 486.905,200C486.905,189.498 492.914,182.496 501.958,182.496Z" style="fill:#727272;fill-rule:nonzero;"/>
            <path d="M534.738,178.42L529.32,178.42L529.32,220.938L555.738,220.938L555.738,216.162L534.738,216.162L534.738,178.42Z" style="fill:#727272;fill-rule:nonzero;"/>
            <path d="M567.171,178.42L561.754,178.42L561.754,220.938L588.171,220.938L588.171,216.162L567.171,216.162L567.171,178.42Z" style="fill:#727272;fill-rule:nonzero;"/>
            <path d="M628.425,177.72C616.23,177.72 607.954,186.697 607.954,200C607.954,213.361 616.172,222.28 628.483,222.28C633.676,222.28 638.227,220.707 641.67,217.795C646.275,213.886 649.013,207.293 649.013,200.35C649.013,186.639 640.911,177.72 628.425,177.72ZM628.425,182.496C637.644,182.496 643.595,189.439 643.595,200.233C643.595,210.502 637.469,217.504 628.483,217.504C619.381,217.504 613.371,210.502 613.371,200C613.371,189.498 619.381,182.496 628.425,182.496Z" style="fill:#727272;fill-rule:nonzero;"/>
            <path d="M661.438,202.913L674.801,202.913C678.127,202.913 680.753,201.923 683.026,199.884C685.589,197.553 686.696,194.81 686.696,190.9C686.696,182.905 681.977,178.42 673.576,178.42L656.02,178.42L656.02,220.938L661.438,220.938L661.438,202.913ZM661.438,198.137L661.438,183.196L672.759,183.196C677.952,183.196 681.045,185.998 681.045,190.667C681.045,195.336 677.952,198.137 672.759,198.137L661.438,198.137Z" style="fill:#727272;fill-rule:nonzero;"/>
            <path d="M709.388,183.196L723.33,183.196L723.33,178.42L689.97,178.42L689.97,183.196L703.97,183.196L703.97,220.938L709.388,220.938L709.388,183.196Z" style="fill:#727272;fill-rule:nonzero;"/>
            <rect x="728.937" y="178.42" width="5.476" height="42.518" style="fill:#727272;fill-rule:nonzero;"/>
            <path d="M762.008,177.72C749.814,177.72 741.537,186.697 741.537,200C741.537,213.361 749.755,222.28 762.067,222.28C767.26,222.28 771.811,220.707 775.253,217.795C779.858,213.886 782.596,207.293 782.596,200.35C782.596,186.639 774.495,177.72 762.008,177.72ZM762.008,182.496C771.227,182.496 777.179,189.439 777.179,200.233C777.179,210.502 771.052,217.504 762.067,217.504C752.964,217.504 746.955,210.502 746.955,200C746.955,189.498 752.964,182.496 762.008,182.496Z" style="fill:#727272;fill-rule:nonzero;"/>
            <path d="M822.38,178.42L817.254,178.42L817.254,213.186L795.022,178.42L789.137,178.42L789.137,220.938L794.263,220.938L794.263,186.464L816.262,220.938L822.38,220.938L822.38,178.42Z" style="fill:#727272;fill-rule:nonzero;"/>
            <path d="M861.582,190.898C861.582,187.981 861.407,187.164 860.475,185.18C858.145,180.283 853.185,177.72 846.008,177.72C836.671,177.72 830.904,182.496 830.904,190.198C830.904,195.391 833.642,198.658 839.239,200.117L849.801,202.917C855.228,204.317 857.62,206.476 857.62,209.802C857.62,212.077 856.395,214.411 854.586,215.695C852.894,216.92 850.209,217.504 846.767,217.504C842.098,217.504 839.006,216.395 836.963,213.945C835.389,212.077 834.69,210.035 834.748,207.41L829.62,207.41C829.679,211.319 830.437,213.886 832.127,216.22C835.04,220.241 839.939,222.28 846.416,222.28C851.493,222.28 855.636,221.115 858.378,219.018C861.232,216.745 863.038,212.953 863.038,209.277C863.038,204.026 859.776,200.175 854.002,198.6L843.324,195.741C838.189,194.34 836.321,192.707 836.321,189.439C836.321,185.122 840.114,182.263 845.833,182.263C852.602,182.263 856.395,185.297 856.453,190.898L861.582,190.898Z" style="fill:#727272;fill-rule:nonzero;"/>
        </g>
        <g id="LETTERS">
            <path d="M1231.69,510.307L1235.69,522.557L1248.52,522.557L1227.52,461.818L1213.69,461.818L1192.1,522.557L1204.85,522.557L1208.94,510.307L1231.69,510.307ZM1228.27,499.901L1212.44,499.901L1220.35,476.144L1228.27,499.901Z" style="fill:#727272;fill-rule:nonzero;"/>
            <path d="M1338.65,679.005L1326.16,679.005L1326.16,739.745L1367.73,739.745L1367.73,729.339L1338.65,729.339L1338.65,679.005Z" style="fill:#727272;fill-rule:nonzero;"/>
            <path d="M1840.82,715.661L1855.15,715.661C1860.57,715.661 1862.91,717.829 1862.91,722.832L1862.91,725.333C1862.83,726.917 1862.83,728.417 1862.83,729.335C1862.83,735.087 1863.16,736.838 1864.66,739.745L1878.07,739.745L1878.07,737.505C1876.15,736.421 1875.4,735.171 1875.4,732.503C1875.07,714.579 1874.73,713.747 1866.99,710.417C1873.82,707.753 1877.23,702.837 1877.23,695.415C1877.23,690.579 1875.57,686.165 1872.65,683.168C1869.9,680.337 1866.07,679.005 1860.91,679.005L1828.33,679.005L1828.33,739.745L1840.82,739.745L1840.82,715.661ZM1840.82,705.255L1840.82,689.411L1855.9,689.411C1859.49,689.411 1860.91,689.745 1862.49,690.996C1863.99,692.247 1864.74,694.331 1864.74,697.167C1864.74,700.085 1863.99,702.42 1862.49,703.671C1861.07,704.838 1859.49,705.255 1855.9,705.255L1840.82,705.255Z" style="fill:#727272;fill-rule:nonzero;"/>
            <path d="M1954.53,522.557L1978.27,522.557C1987.52,522.557 1993.36,520.393 1997.52,515.481C2002.27,509.817 2004.85,501.648 2004.85,492.146C2004.85,482.727 2002.27,474.558 1997.52,468.811C1993.36,463.899 1987.61,461.818 1978.27,461.818L1954.53,461.818L1954.53,522.557ZM1967.02,512.151L1967.02,472.224L1978.27,472.224C1987.69,472.224 1992.36,478.809 1992.36,492.229C1992.36,505.566 1987.69,512.151 1978.27,512.151L1967.02,512.151Z" style="fill:#727272;fill-rule:nonzero;"/>
            <path d="M1753.02,481.935C1752.6,476.684 1751.52,473.35 1748.93,469.933C1744.27,463.773 1736.77,460.359 1727.68,460.359C1710.52,460.359 1699.86,472.599 1699.86,492.271C1699.86,511.859 1710.43,524.016 1727.35,524.016C1742.52,524.016 1752.52,515.274 1753.27,501.356L1741.1,501.356C1740.27,509.108 1735.43,513.526 1727.68,513.526C1718.02,513.526 1712.35,505.691 1712.35,492.438C1712.35,479.018 1718.27,471.016 1728.1,471.016C1735.35,471.016 1739.43,474.517 1741.1,481.935L1753.02,481.935Z" style="fill:#727272;fill-rule:nonzero;"/>
            <path d="M1449.11,522.557L1476.44,522.557C1483.44,522.557 1488.11,521.225 1491.77,518.145C1495.43,515.065 1497.77,509.983 1497.77,505.063C1497.77,499.059 1494.6,494.309 1487.69,490.313C1493.68,486.484 1496.02,482.982 1496.02,477.811C1496.02,473.558 1493.93,469.227 1490.52,466.23C1486.94,463.15 1482.69,461.818 1476.19,461.818L1449.11,461.818L1449.11,522.557ZM1461.6,472.224L1475.19,472.224C1481.03,472.224 1484.03,474.559 1484.03,479.062C1484.03,483.649 1481.03,485.984 1475.19,485.984L1461.6,485.984L1461.6,472.224ZM1461.6,496.391L1476.52,496.391C1482.61,496.391 1485.78,499.059 1485.78,504.313C1485.78,509.483 1482.61,512.151 1476.52,512.151L1461.6,512.151L1461.6,496.391Z" style="fill:#727272;fill-rule:nonzero;"/>
        </g>
    </g>
</svg>
