<?xml version="1.0" encoding="UTF-8" standalone="no"?>
<!DOCTYPE svg PUBLIC "-//W3C//DTD SVG 1.1//EN" "http://www.w3.org/Graphics/SVG/1.1/DTD/svg11.dtd">
<svg width="100%" height="100%" viewBox="0 0 3200 1372" version="1.1" xmlns="http://www.w3.org/2000/svg" xmlns:xlink="http://www.w3.org/1999/xlink" xml:space="preserve" xmlns:serif="http://www.serif.com/" style="fill-rule:evenodd;clip-rule:evenodd;stroke-linejoin:round;stroke-miterlimit:2;">
    <rect id="PLAY" x="0" y="0" width="3200" height="1371.88" style="fill:none;"/>
    <clipPath id="_clip1">
        <rect x="0" y="0" width="3200" height="1371.88"/>
    </clipPath>
    <g clip-path="url(#_clip1)">
        <g id="QUICK">
            <rect x="718.75" y="1275" width="1556.25" height="87.5" style="fill:#fff;"/>
            <path d="M2287.5,1371.88L0,1371.88L0,1265.62L2287.5,1265.62L2287.5,1371.88ZM718.75,1362.5C955.393,1362.5 2275,1362.5 2275,1362.5L2275,1275C2224.99,1275 933.85,1275 718.75,1275L718.75,1362.5Z" style="fill:#e4d68b;"/>
            <path d="M104.038,1304.85C103.955,1292.27 95.546,1285.36 80.208,1285.36C65.623,1285.36 57.214,1292.19 57.214,1304.02C57.214,1313.44 61.959,1318.02 74.289,1320.36L82.792,1322.02C91.129,1323.61 94.214,1325.94 94.214,1330.86C94.214,1335.94 89.545,1339.03 81.958,1339.03C73.455,1339.03 68.704,1335.44 68.287,1328.94L56.13,1328.94C56.88,1341.94 65.789,1349.02 81.291,1349.02C96.961,1349.02 106.203,1341.77 106.203,1329.36C106.203,1319.77 101.374,1314.77 90.128,1312.6L80.625,1310.77C71.704,1309.02 69.12,1307.27 69.12,1302.85C69.12,1298.27 73.121,1295.35 79.624,1295.35C87.544,1295.35 91.963,1298.68 92.379,1304.85L104.038,1304.85Z" style="fill:#fff;fill-rule:nonzero;"/>
            <path d="M140.62,1296.77L158.37,1296.77L158.37,1286.36L109.714,1286.36L109.714,1296.77L128.13,1296.77L128.13,1347.1L140.62,1347.1L140.62,1296.77Z" style="fill:#fff;fill-rule:nonzero;"/>
            <path d="M193.958,1334.85L197.958,1347.1L210.792,1347.1L189.792,1286.36L175.958,1286.36L154.375,1347.1L167.125,1347.1L171.208,1334.85L193.958,1334.85ZM190.542,1324.44L174.708,1324.44L182.625,1300.69L190.542,1324.44Z" style="fill:#fff;fill-rule:nonzero;"/>
            <path d="M231.536,1323.02L245.876,1323.02C251.295,1323.02 253.63,1325.18 253.63,1330.19L253.63,1332.69C253.546,1334.27 253.546,1335.77 253.546,1336.69C253.546,1342.44 253.88,1344.19 255.38,1347.1L268.786,1347.1L268.786,1344.86C266.871,1343.78 266.121,1342.53 266.121,1339.86C265.788,1321.93 265.455,1321.1 257.712,1317.77C264.539,1315.11 267.953,1310.19 267.953,1302.77C267.953,1297.93 266.288,1293.52 263.374,1290.52C260.626,1287.69 256.796,1286.36 251.629,1286.36L219.047,1286.36L219.047,1347.1L231.536,1347.1L231.536,1323.02ZM231.536,1312.61L231.536,1296.77L246.626,1296.77C250.211,1296.77 251.629,1297.1 253.213,1298.35C254.713,1299.6 255.464,1301.69 255.464,1304.52C255.464,1307.44 254.713,1309.77 253.213,1311.03C251.795,1312.19 250.211,1312.61 246.626,1312.61L231.536,1312.61Z" style="fill:#fff;fill-rule:nonzero;"/>
            <path d="M304.536,1296.77L322.286,1296.77L322.286,1286.36L273.63,1286.36L273.63,1296.77L292.047,1296.77L292.047,1347.1L304.536,1347.1L304.536,1296.77Z" style="fill:#fff;fill-rule:nonzero;"/>
            <path d="M367.786,1322.86L352.62,1322.86L352.62,1307.69L342.714,1307.69L342.714,1322.86L327.547,1322.86L327.547,1332.77L342.714,1332.77L342.714,1347.93L352.62,1347.93L352.62,1332.77L367.786,1332.77L367.786,1322.86Z" style="fill:#fff;fill-rule:nonzero;"/>
            <path d="M390.703,1320.93L417.286,1320.93L417.286,1310.53L390.703,1310.53L390.703,1296.77L420.87,1296.77L420.87,1286.36L378.214,1286.36L378.214,1347.1L390.703,1347.1L390.703,1320.93Z" style="fill:#fff;fill-rule:nonzero;"/>
            <path d="M457.875,1316.1L476.625,1286.36L462.125,1286.36L450.958,1306.35L440.292,1286.36L425.458,1286.36L443.958,1316.52L424.792,1347.1L439.292,1347.1L450.875,1326.02L462.542,1347.1L477.375,1347.1L457.875,1316.1Z" style="fill:#fff;fill-rule:nonzero;"/>
            <rect x="478.375" y="1318.61" width="22.667" height="11.24" style="fill:#fff;fill-rule:nonzero;"/>
            <path d="M523.12,1286.36L510.63,1286.36L510.63,1347.1L552.203,1347.1L552.203,1336.69L523.12,1336.69L523.12,1286.36Z" style="fill:#fff;fill-rule:nonzero;"/>
            <path d="M599.286,1322.86L584.12,1322.86L584.12,1307.69L574.214,1307.69L574.214,1322.86L559.047,1322.86L559.047,1332.77L574.214,1332.77L574.214,1347.93L584.12,1347.93L584.12,1332.77L599.286,1332.77L599.286,1322.86Z" style="fill:#fff;fill-rule:nonzero;"/>
            <path d="M622.703,1323.02L637.043,1323.02C642.462,1323.02 644.796,1325.18 644.796,1330.19L644.796,1332.69C644.713,1334.27 644.713,1335.77 644.713,1336.69C644.713,1342.44 645.046,1344.19 646.547,1347.1L659.953,1347.1L659.953,1344.86C658.037,1343.78 657.288,1342.53 657.288,1339.86C656.955,1321.93 656.622,1321.1 648.878,1317.77C655.706,1315.11 659.12,1310.19 659.12,1302.77C659.12,1297.93 657.454,1293.52 654.54,1290.52C651.793,1287.69 647.962,1286.36 642.795,1286.36L610.214,1286.36L610.214,1347.1L622.703,1347.1L622.703,1323.02ZM622.703,1312.61L622.703,1296.77L637.793,1296.77C641.378,1296.77 642.795,1297.1 644.379,1298.35C645.88,1299.6 646.63,1301.69 646.63,1304.52C646.63,1307.44 645.88,1309.77 644.379,1311.03C642.962,1312.19 641.378,1312.61 637.793,1312.61L622.703,1312.61Z" style="fill:#fff;fill-rule:nonzero;"/>
            <path d="M782.52,1318.76L782.52,1338.13L787.938,1338.13L787.938,1295.61L782.52,1295.61L782.52,1313.98L760.638,1313.98L760.638,1295.61L755.22,1295.61L755.22,1338.13L760.638,1338.13L760.638,1318.76L782.52,1318.76Z" style="fill:#727272;fill-rule:nonzero;"/>
            <path d="M815.183,1294.91C802.989,1294.91 794.712,1303.88 794.712,1317.19C794.712,1330.55 802.93,1339.47 815.242,1339.47C820.435,1339.47 824.986,1337.89 828.428,1334.98C833.033,1331.07 835.771,1324.48 835.771,1317.54C835.771,1303.83 827.67,1294.91 815.183,1294.91ZM815.183,1299.68C824.402,1299.68 830.354,1306.63 830.354,1317.42C830.354,1327.69 824.227,1334.69 815.242,1334.69C806.139,1334.69 800.13,1327.69 800.13,1317.19C800.13,1306.68 806.139,1299.68 815.183,1299.68Z" style="fill:#727272;fill-rule:nonzero;"/>
            <path d="M847.963,1295.61L842.545,1295.61L842.545,1338.13L868.963,1338.13L868.963,1333.35L847.963,1333.35L847.963,1295.61Z" style="fill:#727272;fill-rule:nonzero;"/>
            <path d="M875.504,1338.13L891.892,1338.13C902.628,1338.13 909.213,1330.08 909.213,1316.84C909.213,1303.65 902.687,1295.61 891.892,1295.61L875.504,1295.61L875.504,1338.13ZM880.921,1333.35L880.921,1300.38L890.958,1300.38C899.361,1300.38 903.795,1306.04 903.795,1316.9C903.795,1327.69 899.361,1333.35 890.958,1333.35L880.921,1333.35Z" style="fill:#727272;fill-rule:nonzero;"/>
            <path d="M924.905,1332.07L918.845,1332.07L918.845,1338.13L924.905,1338.13L924.905,1332.07ZM924.905,1307.57L918.845,1307.57L918.845,1313.63L924.905,1313.63L924.905,1307.57Z" style="fill:#727272;fill-rule:nonzero;"/>
            <path d="M987.614,1338.19L982.137,1333.7C986.157,1329.27 988.138,1323.84 988.138,1317.07C988.138,1303.83 979.861,1294.91 967.608,1294.91C955.297,1294.91 947.079,1303.83 947.079,1317.19C947.079,1330.49 955.297,1339.47 967.608,1339.47C971.868,1339.47 975.31,1338.54 978.753,1336.5L984.876,1341.57L987.614,1338.19ZM972.918,1326.17L970.234,1329.44L974.552,1333.06C972.043,1334.28 970.117,1334.69 967.55,1334.69C958.506,1334.69 952.496,1327.69 952.496,1317.19C952.496,1306.68 958.506,1299.68 967.608,1299.68C976.652,1299.68 982.72,1306.68 982.72,1317.13C982.72,1322.67 981.262,1326.87 978.111,1330.43L972.918,1326.17Z" style="fill:#727272;fill-rule:nonzero;"/>
            <path d="M1022.21,1295.61L1022.21,1325.47C1022.21,1331.19 1018.07,1334.69 1011.24,1334.69C1008.09,1334.69 1005.52,1333.93 1003.48,1332.47C1001.38,1330.84 1000.39,1328.68 1000.39,1325.47L1000.39,1295.61L994.97,1295.61L994.97,1325.47C994.97,1334.11 1001.15,1339.47 1011.24,1339.47C1021.22,1339.47 1027.63,1333.99 1027.63,1325.47L1027.63,1295.61L1022.21,1295.61Z" style="fill:#727272;fill-rule:nonzero;"/>
            <rect x="1037.96" y="1295.61" width="5.476" height="42.518" style="fill:#727272;fill-rule:nonzero;"/>
            <path d="M1086.95,1308.79C1085.26,1299.45 1079.9,1294.91 1070.56,1294.91C1064.85,1294.91 1060.24,1296.71 1057.09,1300.21C1053.24,1304.41 1051.14,1310.48 1051.14,1317.36C1051.14,1324.36 1053.3,1330.37 1057.26,1334.52C1060.59,1337.89 1064.79,1339.47 1070.33,1339.47C1080.71,1339.47 1086.55,1333.87 1087.83,1322.61L1082.23,1322.61C1081.76,1325.53 1081.18,1327.52 1080.31,1329.21C1078.56,1332.71 1074.94,1334.69 1070.39,1334.69C1061.93,1334.69 1056.56,1327.92 1056.56,1317.3C1056.56,1306.39 1061.64,1299.68 1069.92,1299.68C1073.36,1299.68 1076.57,1300.68 1078.32,1302.37C1079.9,1303.83 1080.77,1305.58 1081.41,1308.79L1086.95,1308.79Z" style="fill:#727272;fill-rule:nonzero;"/>
            <path d="M1099.9,1323.26L1106.85,1316.31L1121.84,1338.13L1128.26,1338.13L1110.76,1312.93L1128.08,1295.61L1121.08,1295.61L1099.9,1317.13L1099.9,1295.61L1094.49,1295.61L1094.49,1338.13L1099.9,1338.13L1099.9,1323.26Z" style="fill:#727272;fill-rule:nonzero;"/>
            <path d="M1155.85,1319.81L1169.85,1319.81C1174.69,1319.81 1176.85,1322.14 1176.85,1327.4L1176.8,1331.19C1176.8,1333.82 1177.26,1336.38 1178.02,1338.13L1184.61,1338.13L1184.61,1336.79C1182.56,1335.39 1182.16,1333.87 1182.04,1328.21C1181.98,1321.21 1180.87,1319.11 1176.27,1317.13C1181.05,1314.74 1182.97,1311.88 1182.97,1306.98C1182.97,1299.63 1178.43,1295.61 1170.03,1295.61L1150.43,1295.61L1150.43,1338.13L1155.85,1338.13L1155.85,1319.81ZM1155.85,1315.03L1155.85,1300.38L1168.98,1300.38C1172.01,1300.38 1173.76,1300.85 1175.1,1302.02C1176.56,1303.24 1177.32,1305.17 1177.32,1307.68C1177.32,1312.76 1174.75,1315.03 1168.98,1315.03L1155.85,1315.03Z" style="fill:#727272;fill-rule:nonzero;"/>
            <path d="M1197.09,1318.76L1220.25,1318.76L1220.25,1313.98L1197.09,1313.98L1197.09,1300.38L1221.12,1300.38L1221.12,1295.61L1191.67,1295.61L1191.67,1338.13L1222.17,1338.13L1222.17,1333.35L1197.09,1333.35L1197.09,1318.76Z" style="fill:#727272;fill-rule:nonzero;"/>
            <path d="M1245.39,1300.38L1259.33,1300.38L1259.33,1295.61L1225.97,1295.61L1225.97,1300.38L1239.97,1300.38L1239.97,1338.13L1245.39,1338.13L1245.39,1300.38Z" style="fill:#727272;fill-rule:nonzero;"/>
            <path d="M1270.12,1319.81L1284.13,1319.81C1288.97,1319.81 1291.13,1322.14 1291.13,1327.4L1291.07,1331.19C1291.07,1333.82 1291.54,1336.38 1292.29,1338.13L1298.88,1338.13L1298.88,1336.79C1296.84,1335.39 1296.43,1333.87 1296.31,1328.21C1296.26,1321.21 1295.15,1319.11 1290.55,1317.13C1295.32,1314.74 1297.25,1311.88 1297.25,1306.98C1297.25,1299.63 1292.7,1295.61 1284.3,1295.61L1264.7,1295.61L1264.7,1338.13L1270.12,1338.13L1270.12,1319.81ZM1270.12,1315.03L1270.12,1300.38L1283.25,1300.38C1286.29,1300.38 1288.04,1300.85 1289.38,1302.02C1290.84,1303.24 1291.6,1305.17 1291.6,1307.68C1291.6,1312.76 1289.03,1315.03 1283.25,1315.03L1270.12,1315.03Z" style="fill:#727272;fill-rule:nonzero;"/>
            <path d="M1321.45,1321.45L1337.44,1295.61L1330.96,1295.61L1318.83,1316.31L1306.35,1295.61L1299.64,1295.61L1316.04,1321.45L1316.04,1338.13L1321.45,1338.13L1321.45,1321.45Z" style="fill:#727272;fill-rule:nonzero;"/>
        </g>
        <g id="CRASH">
            <rect x="718.75" y="1143.75" width="1556.25" height="87.5" style="fill:#fff;"/>
            <path d="M2287.5,1240.62L0,1240.62L0,1134.38L2287.5,1134.38L2287.5,1240.62ZM718.75,1231.25C955.393,1231.25 2275,1231.25 2275,1231.25L2275,1143.75C2224.99,1143.75 933.85,1143.75 718.75,1143.75L718.75,1231.25Z" style="fill:#e4d68b;"/>
            <path d="M104.038,1173.6C103.955,1161.02 95.546,1154.11 80.208,1154.11C65.623,1154.11 57.214,1160.94 57.214,1172.77C57.214,1182.19 61.959,1186.77 74.289,1189.11L82.792,1190.77C91.129,1192.36 94.214,1194.69 94.214,1199.61C94.214,1204.69 89.545,1207.78 81.958,1207.78C73.455,1207.78 68.704,1204.19 68.287,1197.69L56.13,1197.69C56.88,1210.69 65.789,1217.77 81.291,1217.77C96.961,1217.77 106.203,1210.52 106.203,1198.11C106.203,1188.52 101.374,1183.52 90.128,1181.35L80.625,1179.52C71.704,1177.77 69.12,1176.02 69.12,1171.6C69.12,1167.02 73.121,1164.1 79.624,1164.1C87.544,1164.1 91.963,1167.43 92.379,1173.6L104.038,1173.6Z" style="fill:#fff;fill-rule:nonzero;"/>
            <path d="M140.62,1165.52L158.37,1165.52L158.37,1155.11L109.714,1155.11L109.714,1165.52L128.13,1165.52L128.13,1215.85L140.62,1215.85L140.62,1165.52Z" style="fill:#fff;fill-rule:nonzero;"/>
            <path d="M193.958,1203.6L197.958,1215.85L210.792,1215.85L189.792,1155.11L175.958,1155.11L154.375,1215.85L167.125,1215.85L171.208,1203.6L193.958,1203.6ZM190.542,1193.19L174.708,1193.19L182.625,1169.44L190.542,1193.19Z" style="fill:#fff;fill-rule:nonzero;"/>
            <path d="M231.536,1191.77L245.876,1191.77C251.295,1191.77 253.63,1193.93 253.63,1198.94L253.63,1201.44C253.546,1203.02 253.546,1204.52 253.546,1205.44C253.546,1211.19 253.88,1212.94 255.38,1215.85L268.786,1215.85L268.786,1213.61C266.871,1212.53 266.121,1211.28 266.121,1208.61C265.788,1190.68 265.455,1189.85 257.712,1186.52C264.539,1183.86 267.953,1178.94 267.953,1171.52C267.953,1166.68 266.288,1162.27 263.374,1159.27C260.626,1156.44 256.796,1155.11 251.629,1155.11L219.047,1155.11L219.047,1215.85L231.536,1215.85L231.536,1191.77ZM231.536,1181.36L231.536,1165.52L246.626,1165.52C250.211,1165.52 251.629,1165.85 253.213,1167.1C254.713,1168.35 255.464,1170.44 255.464,1173.27C255.464,1176.19 254.713,1178.52 253.213,1179.78C251.795,1180.94 250.211,1181.36 246.626,1181.36L231.536,1181.36Z" style="fill:#fff;fill-rule:nonzero;"/>
            <path d="M304.536,1165.52L322.286,1165.52L322.286,1155.11L273.63,1155.11L273.63,1165.52L292.047,1165.52L292.047,1215.85L304.536,1215.85L304.536,1165.52Z" style="fill:#fff;fill-rule:nonzero;"/>
            <path d="M367.786,1191.61L352.62,1191.61L352.62,1176.44L342.714,1176.44L342.714,1191.61L327.547,1191.61L327.547,1201.52L342.714,1201.52L342.714,1216.68L352.62,1216.68L352.62,1201.52L367.786,1201.52L367.786,1191.61Z" style="fill:#fff;fill-rule:nonzero;"/>
            <path d="M390.703,1189.68L417.286,1189.68L417.286,1179.28L390.703,1179.28L390.703,1165.52L420.87,1165.52L420.87,1155.11L378.214,1155.11L378.214,1215.85L390.703,1215.85L390.703,1189.68Z" style="fill:#fff;fill-rule:nonzero;"/>
            <path d="M457.875,1184.85L476.625,1155.11L462.125,1155.11L450.958,1175.1L440.292,1155.11L425.458,1155.11L443.958,1185.27L424.792,1215.85L439.292,1215.85L450.875,1194.77L462.542,1215.85L477.375,1215.85L457.875,1184.85Z" style="fill:#fff;fill-rule:nonzero;"/>
            <rect x="478.375" y="1187.36" width="22.667" height="11.24" style="fill:#fff;fill-rule:nonzero;"/>
            <path d="M523.12,1155.11L510.63,1155.11L510.63,1215.85L552.203,1215.85L552.203,1205.44L523.12,1205.44L523.12,1155.11Z" style="fill:#fff;fill-rule:nonzero;"/>
            <path d="M599.286,1191.61L584.12,1191.61L584.12,1176.44L574.214,1176.44L574.214,1191.61L559.047,1191.61L559.047,1201.52L574.214,1201.52L574.214,1216.68L584.12,1216.68L584.12,1201.52L599.286,1201.52L599.286,1191.61Z" style="fill:#fff;fill-rule:nonzero;"/>
            <path d="M622.703,1191.77L637.043,1191.77C642.462,1191.77 644.796,1193.93 644.796,1198.94L644.796,1201.44C644.713,1203.02 644.713,1204.52 644.713,1205.44C644.713,1211.19 645.046,1212.94 646.547,1215.85L659.953,1215.85L659.953,1213.61C658.037,1212.53 657.288,1211.28 657.288,1208.61C656.955,1190.68 656.622,1189.85 648.878,1186.52C655.706,1183.86 659.12,1178.94 659.12,1171.52C659.12,1166.68 657.454,1162.27 654.54,1159.27C651.793,1156.44 647.962,1155.11 642.795,1155.11L610.214,1155.11L610.214,1215.85L622.703,1215.85L622.703,1191.77ZM622.703,1181.36L622.703,1165.52L637.793,1165.52C641.378,1165.52 642.795,1165.85 644.379,1167.1C645.88,1168.35 646.63,1170.44 646.63,1173.27C646.63,1176.19 645.88,1178.52 644.379,1179.78C642.962,1180.94 641.378,1181.36 637.793,1181.36L622.703,1181.36Z" style="fill:#fff;fill-rule:nonzero;"/>
            <path d="M771.021,1169.13L784.963,1169.13L784.963,1164.36L751.604,1164.36L751.604,1169.13L765.604,1169.13L765.604,1206.88L771.021,1206.88L771.021,1169.13Z" style="fill:#727272;fill-rule:nonzero;"/>
            <path d="M795.755,1188.56L809.759,1188.56C814.603,1188.56 816.762,1190.89 816.762,1196.15L816.703,1199.94C816.703,1202.57 817.17,1205.13 817.928,1206.88L824.513,1206.88L824.513,1205.54C822.472,1204.14 822.064,1202.62 821.948,1196.96C821.889,1189.96 820.782,1187.86 816.178,1185.88C820.957,1183.49 822.88,1180.63 822.88,1175.73C822.88,1168.38 818.336,1164.36 809.934,1164.36L790.337,1164.36L790.337,1206.88L795.755,1206.88L795.755,1188.56ZM795.755,1183.78L795.755,1169.13L808.884,1169.13C811.918,1169.13 813.669,1169.6 815.011,1170.77C816.47,1171.99 817.229,1173.92 817.229,1176.43C817.229,1181.51 814.661,1183.78 808.884,1183.78L795.755,1183.78Z" style="fill:#727272;fill-rule:nonzero;"/>
            <path d="M855.025,1194.1L859.4,1206.88L865.467,1206.88L850.533,1164.36L843.533,1164.36L828.367,1206.88L834.142,1206.88L838.633,1194.1L855.025,1194.1ZM853.508,1189.56L839.975,1189.56L846.975,1170.18L853.508,1189.56Z" style="fill:#727272;fill-rule:nonzero;"/>
            <path d="M902.855,1177.54C901.163,1168.2 895.796,1163.66 886.463,1163.66C880.746,1163.66 876.138,1165.46 872.988,1168.96C869.142,1173.16 867.045,1179.23 867.045,1186.11C867.045,1193.11 869.201,1199.12 873.163,1203.27C876.488,1206.64 880.688,1208.22 886.23,1208.22C896.613,1208.22 902.446,1202.62 903.73,1191.36L898.13,1191.36C897.663,1194.28 897.08,1196.27 896.205,1197.96C894.455,1201.46 890.838,1203.44 886.288,1203.44C877.83,1203.44 872.463,1196.67 872.463,1186.05C872.463,1175.14 877.538,1168.43 885.821,1168.43C889.263,1168.43 892.471,1169.43 894.221,1171.12C895.796,1172.58 896.671,1174.33 897.313,1177.54L902.855,1177.54Z" style="fill:#727272;fill-rule:nonzero;"/>
            <path d="M915.805,1192.01L922.746,1185.06L937.738,1206.88L944.155,1206.88L926.655,1181.68L943.98,1164.36L936.98,1164.36L915.805,1185.88L915.805,1164.36L910.387,1164.36L910.387,1206.88L915.805,1206.88L915.805,1192.01Z" style="fill:#727272;fill-rule:nonzero;"/>
            <path d="M999.513,1177.54C997.821,1168.2 992.455,1163.66 983.121,1163.66C977.405,1163.66 972.796,1165.46 969.646,1168.96C965.801,1173.16 963.704,1179.23 963.704,1186.11C963.704,1193.11 965.859,1199.12 969.821,1203.27C973.146,1206.64 977.346,1208.22 982.888,1208.22C993.271,1208.22 999.105,1202.62 1000.39,1191.36L994.788,1191.36C994.321,1194.28 993.738,1196.27 992.863,1197.96C991.113,1201.46 987.496,1203.44 982.946,1203.44C974.488,1203.44 969.121,1196.67 969.121,1186.05C969.121,1175.14 974.196,1168.43 982.48,1168.43C985.921,1168.43 989.13,1169.43 990.88,1171.12C992.455,1172.58 993.33,1174.33 993.971,1177.54L999.513,1177.54Z" style="fill:#727272;fill-rule:nonzero;"/>
            <path d="M1013.86,1188.56L1027.87,1188.56C1032.71,1188.56 1034.87,1190.89 1034.87,1196.15L1034.81,1199.94C1034.81,1202.57 1035.28,1205.13 1036.04,1206.88L1042.62,1206.88L1042.62,1205.54C1040.58,1204.14 1040.17,1202.62 1040.06,1196.96C1040,1189.96 1038.89,1187.86 1034.29,1185.88C1039.07,1183.49 1040.99,1180.63 1040.99,1175.73C1040.99,1168.38 1036.44,1164.36 1028.04,1164.36L1008.45,1164.36L1008.45,1206.88L1013.86,1206.88L1013.86,1188.56ZM1013.86,1183.78L1013.86,1169.13L1026.99,1169.13C1030.03,1169.13 1031.78,1169.6 1033.12,1170.77C1034.58,1171.99 1035.34,1173.92 1035.34,1176.43C1035.34,1181.51 1032.77,1183.78 1026.99,1183.78L1013.86,1183.78Z" style="fill:#727272;fill-rule:nonzero;"/>
            <path d="M1073.13,1194.1L1077.51,1206.88L1083.58,1206.88L1068.64,1164.36L1061.64,1164.36L1046.47,1206.88L1052.25,1206.88L1056.74,1194.1L1073.13,1194.1ZM1071.62,1189.56L1058.08,1189.56L1065.08,1170.18L1071.62,1189.56Z" style="fill:#727272;fill-rule:nonzero;"/>
            <path d="M1117.82,1176.84C1117.82,1173.92 1117.64,1173.1 1116.71,1171.12C1114.38,1166.22 1109.42,1163.66 1102.24,1163.66C1092.9,1163.66 1087.14,1168.43 1087.14,1176.13C1087.14,1181.33 1089.88,1184.6 1095.47,1186.05L1106.03,1188.86C1111.46,1190.26 1113.85,1192.41 1113.85,1195.74C1113.85,1198.02 1112.63,1200.35 1110.82,1201.63C1109.13,1202.86 1106.44,1203.44 1103,1203.44C1098.33,1203.44 1095.24,1202.33 1093.2,1199.88C1091.62,1198.02 1090.92,1195.97 1090.98,1193.35L1085.85,1193.35C1085.91,1197.26 1086.67,1199.82 1088.36,1202.16C1091.27,1206.18 1096.17,1208.22 1102.65,1208.22C1107.73,1208.22 1111.87,1207.05 1114.61,1204.96C1117.46,1202.68 1119.27,1198.89 1119.27,1195.21C1119.27,1189.96 1116.01,1186.11 1110.24,1184.54L1099.56,1181.68C1094.42,1180.28 1092.56,1178.64 1092.56,1175.38C1092.56,1171.06 1096.35,1168.2 1102.07,1168.2C1108.84,1168.2 1112.63,1171.23 1112.69,1176.84L1117.82,1176.84Z" style="fill:#727272;fill-rule:nonzero;"/>
            <path d="M1154.1,1187.51L1154.1,1206.88L1159.52,1206.88L1159.52,1164.36L1154.1,1164.36L1154.1,1182.73L1132.22,1182.73L1132.22,1164.36L1126.8,1164.36L1126.8,1206.88L1132.22,1206.88L1132.22,1187.51L1154.1,1187.51Z" style="fill:#727272;fill-rule:nonzero;"/>
        </g>
        <g id="HISPEED">
            <rect x="718.75" y="1012.5" width="1556.25" height="87.5" style="fill:#fff;"/>
            <path d="M2287.5,1109.38L0,1109.38L0,1003.12L2287.5,1003.12L2287.5,1109.38ZM718.75,1100C955.393,1100 2275,1100 2275,1100L2275,1012.5C2224.99,1012.5 933.85,1012.5 718.75,1012.5L718.75,1100Z" style="fill:#ff8fbc;"/>
            <path d="M165.705,1042.35C165.622,1029.77 157.212,1022.86 141.874,1022.86C127.29,1022.86 118.88,1029.69 118.88,1041.52C118.88,1050.94 123.626,1055.52 135.955,1057.86L144.459,1059.52C152.796,1061.11 155.88,1063.44 155.88,1068.36C155.88,1073.44 151.212,1076.53 143.625,1076.53C135.122,1076.53 130.37,1072.94 129.954,1066.44L117.797,1066.44C118.547,1079.44 127.456,1086.52 142.958,1086.52C158.628,1086.52 167.87,1079.27 167.87,1066.86C167.87,1057.27 163.041,1052.27 151.795,1050.1L142.291,1048.27C133.371,1046.52 130.786,1044.77 130.786,1040.35C130.786,1035.77 134.788,1032.85 141.291,1032.85C149.211,1032.85 153.629,1036.18 154.046,1042.35L165.705,1042.35Z" style="fill:#fff;fill-rule:nonzero;"/>
            <path d="M202.286,1034.27L220.036,1034.27L220.036,1023.86L171.38,1023.86L171.38,1034.27L189.797,1034.27L189.797,1084.6L202.286,1084.6L202.286,1034.27Z" style="fill:#fff;fill-rule:nonzero;"/>
            <path d="M255.625,1072.35L259.625,1084.6L272.458,1084.6L251.458,1023.86L237.625,1023.86L216.042,1084.6L228.792,1084.6L232.875,1072.35L255.625,1072.35ZM252.208,1061.94L236.375,1061.94L244.292,1038.19L252.208,1061.94Z" style="fill:#fff;fill-rule:nonzero;"/>
            <path d="M293.203,1060.52L307.543,1060.52C312.962,1060.52 315.296,1062.68 315.296,1067.69L315.296,1070.19C315.213,1071.77 315.213,1073.27 315.213,1074.19C315.213,1079.94 315.546,1081.69 317.047,1084.6L330.453,1084.6L330.453,1082.36C328.537,1081.28 327.788,1080.03 327.788,1077.36C327.455,1059.43 327.122,1058.6 319.378,1055.27C326.206,1052.61 329.62,1047.69 329.62,1040.27C329.62,1035.43 327.954,1031.02 325.04,1028.02C322.293,1025.19 318.462,1023.86 313.295,1023.86L280.714,1023.86L280.714,1084.6L293.203,1084.6L293.203,1060.52ZM293.203,1050.11L293.203,1034.27L308.293,1034.27C311.878,1034.27 313.295,1034.6 314.879,1035.85C316.38,1037.1 317.13,1039.19 317.13,1042.02C317.13,1044.94 316.38,1047.27 314.879,1048.53C313.462,1049.69 311.878,1050.11 308.293,1050.11L293.203,1050.11Z" style="fill:#fff;fill-rule:nonzero;"/>
            <path d="M366.203,1034.27L383.953,1034.27L383.953,1023.86L335.297,1023.86L335.297,1034.27L353.714,1034.27L353.714,1084.6L366.203,1084.6L366.203,1034.27Z" style="fill:#fff;fill-rule:nonzero;"/>
            <path d="M429.453,1060.36L414.286,1060.36L414.286,1045.19L404.38,1045.19L404.38,1060.36L389.214,1060.36L389.214,1070.27L404.38,1070.27L404.38,1085.43L414.286,1085.43L414.286,1070.27L429.453,1070.27L429.453,1060.36Z" style="fill:#fff;fill-rule:nonzero;"/>
            <path d="M466.792,1084.6L487.625,1023.86L475.042,1023.86L461.792,1069.61L448.292,1023.86L435.708,1023.86L456.208,1084.6L466.792,1084.6Z" style="fill:#fff;fill-rule:nonzero;"/>
            <path d="M518.792,1022.86C510.289,1022.86 503.287,1025.69 498.123,1031.27C492.711,1037.1 489.63,1045.6 489.63,1054.69C489.63,1063.77 492.711,1072.36 498.123,1078.11C503.37,1083.77 510.206,1086.52 518.875,1086.52C527.544,1086.52 534.38,1083.77 539.627,1078.11C544.872,1072.53 548.12,1063.69 548.12,1055.1C548.12,1045.6 545.039,1037.02 539.627,1031.27C534.296,1025.52 527.628,1022.86 518.792,1022.86ZM518.875,1033.52C529.128,1033.52 535.63,1041.85 535.63,1055.02C535.63,1067.52 528.878,1075.86 518.875,1075.86C508.705,1075.86 502.12,1067.52 502.12,1054.69C502.12,1041.85 508.705,1033.52 518.875,1033.52Z" style="fill:#fff;fill-rule:nonzero;"/>
            <path d="M570.286,1023.86L557.797,1023.86L557.797,1084.6L599.37,1084.6L599.37,1074.19L570.286,1074.19L570.286,1023.86Z" style="fill:#fff;fill-rule:nonzero;"/>
            <path d="M788.988,1046.29C787.296,1036.95 781.93,1032.41 772.596,1032.41C766.88,1032.41 762.271,1034.21 759.121,1037.71C755.276,1041.91 753.179,1047.98 753.179,1054.86C753.179,1061.86 755.334,1067.87 759.296,1072.02C762.621,1075.39 766.821,1076.97 772.363,1076.97C782.746,1076.97 788.58,1071.37 789.863,1060.11L784.263,1060.11C783.796,1063.03 783.213,1065.02 782.338,1066.71C780.588,1070.21 776.971,1072.19 772.421,1072.19C763.963,1072.19 758.596,1065.42 758.596,1054.8C758.596,1043.89 763.671,1037.18 771.955,1037.18C775.396,1037.18 778.605,1038.18 780.355,1039.87C781.93,1041.33 782.805,1043.08 783.446,1046.29L788.988,1046.29Z" style="fill:#727272;fill-rule:nonzero;"/>
            <path d="M823.937,1056.26L823.937,1075.63L829.355,1075.63L829.355,1033.11L823.937,1033.11L823.937,1051.48L802.055,1051.48L802.055,1033.11L796.637,1033.11L796.637,1075.63L802.055,1075.63L802.055,1056.26L823.937,1056.26Z" style="fill:#727272;fill-rule:nonzero;"/>
            <path d="M860.917,1062.85L865.292,1075.63L871.358,1075.63L856.425,1033.11L849.425,1033.11L834.258,1075.63L840.033,1075.63L844.525,1062.85L860.917,1062.85ZM859.4,1058.31L845.867,1058.31L852.867,1038.93L859.4,1058.31Z" style="fill:#727272;fill-rule:nonzero;"/>
            <path d="M909.855,1033.11L904.729,1033.11L904.729,1067.87L882.497,1033.11L876.612,1033.11L876.612,1075.63L881.738,1075.63L881.738,1041.15L903.737,1075.63L909.855,1075.63L909.855,1033.11Z" style="fill:#727272;fill-rule:nonzero;"/>
            <path d="M955.588,1053.17L937.855,1053.17L937.855,1057.95L950.805,1057.95L950.805,1059.12C950.805,1066.7 945.205,1072.19 937.446,1072.19C933.13,1072.19 929.221,1070.62 926.713,1067.87C923.913,1064.84 922.221,1059.76 922.221,1054.51C922.221,1044.07 928.171,1037.18 937.155,1037.18C943.63,1037.18 948.296,1040.51 949.463,1046L955.005,1046C953.488,1037.36 946.955,1032.41 937.213,1032.41C932.021,1032.41 927.821,1033.75 924.496,1036.49C919.542,1040.57 916.804,1047.16 916.804,1054.81C916.804,1067.87 924.788,1076.97 936.28,1076.97C942.055,1076.97 946.605,1074.81 950.805,1070.21L952.146,1075.86L955.588,1075.86L955.588,1053.17Z" style="fill:#727272;fill-rule:nonzero;"/>
            <path d="M970.288,1056.26L993.446,1056.26L993.446,1051.48L970.288,1051.48L970.288,1037.88L994.321,1037.88L994.321,1033.11L964.87,1033.11L964.87,1075.63L995.371,1075.63L995.371,1070.85L970.288,1070.85L970.288,1056.26Z" style="fill:#727272;fill-rule:nonzero;"/>
            <path d="M1046.89,1056.26L1046.89,1075.63L1052.31,1075.63L1052.31,1033.11L1046.89,1033.11L1046.89,1051.48L1025.01,1051.48L1025.01,1033.11L1019.59,1033.11L1019.59,1075.63L1025.01,1075.63L1025.01,1056.26L1046.89,1056.26Z" style="fill:#727272;fill-rule:nonzero;"/>
            <rect x="1061.94" y="1033.11" width="5.476" height="42.518" style="fill:#727272;fill-rule:nonzero;"/>
            <rect x="1075" y="1057.43" width="13.876" height="4.193" style="fill:#727272;fill-rule:nonzero;"/>
            <path d="M1126.8,1045.59C1126.8,1042.67 1126.62,1041.85 1125.69,1039.87C1123.36,1034.97 1118.4,1032.41 1111.23,1032.41C1101.89,1032.41 1096.12,1037.18 1096.12,1044.88C1096.12,1050.08 1098.86,1053.35 1104.46,1054.8L1115.02,1057.61C1120.44,1059.01 1122.84,1061.16 1122.84,1064.49C1122.84,1066.77 1121.61,1069.1 1119.8,1070.38C1118.11,1071.61 1115.43,1072.19 1111.98,1072.19C1107.32,1072.19 1104.22,1071.08 1102.18,1068.63C1100.61,1066.77 1099.91,1064.72 1099.96,1062.1L1094.84,1062.1C1094.89,1066.01 1095.65,1068.57 1097.34,1070.91C1100.26,1074.93 1105.16,1076.97 1111.63,1076.97C1116.71,1076.97 1120.85,1075.8 1123.59,1073.71C1126.45,1071.43 1128.26,1067.64 1128.26,1063.96C1128.26,1058.71 1124.99,1054.86 1119.22,1053.29L1108.54,1050.43C1103.4,1049.03 1101.54,1047.39 1101.54,1044.13C1101.54,1039.81 1105.33,1036.95 1111.05,1036.95C1117.82,1036.95 1121.61,1039.98 1121.67,1045.59L1126.8,1045.59Z" style="fill:#727272;fill-rule:nonzero;"/>
            <path d="M1141.67,1057.6L1155.04,1057.6C1158.36,1057.6 1160.99,1056.61 1163.26,1054.57C1165.82,1052.24 1166.93,1049.5 1166.93,1045.59C1166.93,1037.59 1162.21,1033.11 1153.81,1033.11L1136.25,1033.11L1136.25,1075.63L1141.67,1075.63L1141.67,1057.6ZM1141.67,1052.83L1141.67,1037.88L1152.99,1037.88C1158.19,1037.88 1161.28,1040.68 1161.28,1045.35C1161.28,1050.02 1158.19,1052.83 1152.99,1052.83L1141.67,1052.83Z" style="fill:#727272;fill-rule:nonzero;"/>
            <path d="M1178.6,1056.26L1201.76,1056.26L1201.76,1051.48L1178.6,1051.48L1178.6,1037.88L1202.63,1037.88L1202.63,1033.11L1173.18,1033.11L1173.18,1075.63L1203.68,1075.63L1203.68,1070.85L1178.6,1070.85L1178.6,1056.26Z" style="fill:#727272;fill-rule:nonzero;"/>
            <path d="M1217.51,1056.26L1240.66,1056.26L1240.66,1051.48L1217.51,1051.48L1217.51,1037.88L1241.54,1037.88L1241.54,1033.11L1212.09,1033.11L1212.09,1075.63L1242.59,1075.63L1242.59,1070.85L1217.51,1070.85L1217.51,1056.26Z" style="fill:#727272;fill-rule:nonzero;"/>
            <path d="M1250.94,1075.63L1267.33,1075.63C1278.06,1075.63 1284.65,1067.58 1284.65,1054.34C1284.65,1041.15 1278.12,1033.11 1267.33,1033.11L1250.94,1033.11L1250.94,1075.63ZM1256.36,1070.85L1256.36,1037.88L1266.39,1037.88C1274.79,1037.88 1279.23,1043.54 1279.23,1054.4C1279.23,1065.19 1274.79,1070.85 1266.39,1070.85L1256.36,1070.85Z" style="fill:#727272;fill-rule:nonzero;"/>
        </g>
        <g id="CON">
            <path id="BACKGROUND" d="M2290.62,208.786L2290.62,744.339C2290.62,781.958 2260.08,812.5 2222.46,812.5L977.536,812.5C939.917,812.5 909.375,781.958 909.375,744.339L909.375,208.786C909.375,171.167 939.917,140.625 977.536,140.625L2222.46,140.625C2260.08,140.625 2290.62,171.167 2290.62,208.786Z" style="fill:#fff;"/>
            <clipPath id="_clip2">
                <path d="M2290.62,208.786L2290.62,744.339C2290.62,781.958 2260.08,812.5 2222.46,812.5L977.536,812.5C939.917,812.5 909.375,781.958 909.375,744.339L909.375,208.786C909.375,171.167 939.917,140.625 977.536,140.625L2222.46,140.625C2260.08,140.625 2290.62,171.167 2290.62,208.786Z"/>
            </clipPath>
            <g clip-path="url(#_clip2)">
                <rect x="942.272" y="803.125" width="1315.46" height="9.375" style="fill:#727272;"/>
            </g>
            <path d="M2300,208.786L2300,744.339C2300,787.132 2265.26,821.875 2222.46,821.875L977.536,821.875C934.743,821.875 900,787.132 900,744.339L900,208.786C900,165.993 934.743,131.25 977.536,131.25L2222.46,131.25C2265.26,131.25 2300,165.993 2300,208.786ZM2290.62,208.786C2290.62,171.167 2260.08,140.625 2222.46,140.625L977.536,140.625C939.917,140.625 909.375,171.167 909.375,208.786L909.375,744.339C909.375,781.958 939.917,812.5 977.536,812.5L2222.46,812.5C2260.08,812.5 2290.62,781.958 2290.62,744.339L2290.62,208.786Z" style="fill:#727272;"/>
            <g id="KNOB-L">
                <path d="M1068.75,178.125C1124.38,178.125 1168.75,216.46 1168.75,262.5C1168.75,308.54 1124.38,346.875 1068.75,346.875C1013.12,346.875 968.75,308.54 968.75,262.5C968.75,216.46 1013.12,178.125 1068.75,178.125ZM1068.75,187.5C1018.73,187.5 978.125,221.106 978.125,262.5C978.125,303.894 1018.73,337.5 1068.75,337.5C1118.77,337.5 1159.38,303.894 1159.38,262.5C1159.38,221.106 1118.77,187.5 1068.75,187.5Z" style="fill:#008cef;"/>
                <path d="M1018.75,262.5L1018.75,203.125L1118.75,203.125L1118.75,262.5C1118.75,284.922 1096.35,303.125 1068.75,303.125C1041.15,303.125 1018.75,284.922 1018.75,262.5Z" style="fill:#e5e5e5;"/>
                <path d="M1009.38,262.5L1009.38,203.125C1009.38,197.947 1013.57,193.75 1018.75,193.75L1118.75,193.75C1123.93,193.75 1128.12,197.947 1128.12,203.125L1128.12,262.5C1128.12,289.516 1102,312.5 1068.75,312.5C1035.5,312.5 1009.38,289.516 1009.38,262.5ZM1018.75,262.5C1018.75,284.922 1041.15,303.125 1068.75,303.125C1096.35,303.125 1118.75,284.922 1118.75,262.5L1118.75,203.125L1018.75,203.125L1018.75,262.5Z" style="fill:#727272;"/>
                <ellipse cx="1068.75" cy="203.125" rx="50" ry="40.625" style="fill:#e5e5e5;"/>
                <path d="M1068.75,153.125C1102,153.125 1128.12,176.109 1128.12,203.125C1128.12,230.141 1102,253.125 1068.75,253.125C1035.5,253.125 1009.38,230.141 1009.38,203.125C1009.38,176.109 1035.5,153.125 1068.75,153.125ZM1068.75,162.5C1041.15,162.5 1018.75,180.703 1018.75,203.125C1018.75,225.547 1041.15,243.75 1068.75,243.75C1096.35,243.75 1118.75,225.547 1118.75,203.125C1118.75,180.703 1096.35,162.5 1068.75,162.5Z" style="fill:#727272;"/>
            </g>
            <g id="KNOB-R">
                <path d="M2131.25,178.125C2186.88,178.125 2231.25,216.46 2231.25,262.5C2231.25,308.54 2186.88,346.875 2131.25,346.875C2075.62,346.875 2031.25,308.54 2031.25,262.5C2031.25,216.46 2075.62,178.125 2131.25,178.125ZM2131.25,187.5C2081.23,187.5 2040.62,221.106 2040.62,262.5C2040.62,303.894 2081.23,337.5 2131.25,337.5C2181.27,337.5 2221.88,303.894 2221.88,262.5C2221.88,221.106 2181.27,187.5 2131.25,187.5Z" style="fill:#f00000;"/>
                <path d="M2181.25,262.5L2181.25,203.125L2081.25,203.125L2081.25,262.5C2081.25,284.922 2103.65,303.125 2131.25,303.125C2158.85,303.125 2181.25,284.922 2181.25,262.5Z" style="fill:#e5e5e5;"/>
                <path d="M2190.62,262.5C2190.62,289.516 2164.5,312.5 2131.25,312.5C2098,312.5 2071.88,289.516 2071.88,262.5L2071.88,203.125C2071.88,197.947 2076.07,193.75 2081.25,193.75L2181.25,193.75C2186.43,193.75 2190.62,197.947 2190.62,203.125L2190.62,262.5ZM2181.25,262.5L2181.25,203.125L2081.25,203.125L2081.25,262.5C2081.25,284.922 2103.65,303.125 2131.25,303.125C2158.85,303.125 2181.25,284.922 2181.25,262.5Z" style="fill:#727272;"/>
                <ellipse cx="2131.25" cy="203.125" rx="50" ry="40.625" style="fill:#e5e5e5;"/>
                <path d="M2131.25,153.125C2164.5,153.125 2190.62,176.109 2190.62,203.125C2190.62,230.141 2164.5,253.125 2131.25,253.125C2098,253.125 2071.88,230.141 2071.88,203.125C2071.88,176.109 2098,153.125 2131.25,153.125ZM2131.25,162.5C2103.65,162.5 2081.25,180.703 2081.25,203.125C2081.25,225.547 2103.65,243.75 2131.25,243.75C2158.85,243.75 2181.25,225.547 2181.25,203.125C2181.25,180.703 2158.85,162.5 2131.25,162.5Z" style="fill:#727272;"/>
            </g>
            <g id="BT-A">
                <rect x="1118.75" y="390.625" width="203.125" height="212.5" style="fill:#fff;"/>
                <path d="M1331.25,390.625L1331.25,603.125C1331.25,608.303 1327.05,612.5 1321.88,612.5L1118.75,612.5C1113.57,612.5 1109.38,608.303 1109.38,603.125L1109.38,390.625C1109.38,385.447 1113.57,381.25 1118.75,381.25L1321.88,381.25C1327.05,381.25 1331.25,385.447 1331.25,390.625ZM1321.88,390.625L1118.75,390.625L1118.75,603.125L1321.88,603.125L1321.88,390.625Z" style="fill:#727272;"/>
                <rect x="1118.75" y="593.75" width="203.125" height="9.375" style="fill:#727272;"/>
            </g>
            <g id="BT-B">
                <rect x="1371.88" y="390.625" width="203.125" height="212.5" style="fill:#fff;"/>
                <path d="M1584.38,390.625L1584.38,603.125C1584.38,608.303 1580.18,612.5 1575,612.5L1371.88,612.5C1366.7,612.5 1362.5,608.303 1362.5,603.125L1362.5,390.625C1362.5,385.447 1366.7,381.25 1371.88,381.25L1575,381.25C1580.18,381.25 1584.38,385.447 1584.38,390.625ZM1575,390.625L1371.88,390.625L1371.88,603.125L1575,603.125L1575,390.625Z" style="fill:#727272;"/>
                <rect x="1371.88" y="593.75" width="203.125" height="9.375" style="fill:#727272;"/>
            </g>
            <g id="BT-C">
                <rect x="1625" y="390.625" width="203.125" height="212.5" style="fill:#fff;"/>
                <path d="M1837.5,390.625L1837.5,603.125C1837.5,608.303 1833.3,612.5 1828.12,612.5L1625,612.5C1619.82,612.5 1615.62,608.303 1615.62,603.125L1615.62,390.625C1615.62,385.447 1619.82,381.25 1625,381.25L1828.12,381.25C1833.3,381.25 1837.5,385.447 1837.5,390.625ZM1828.12,390.625L1625,390.625L1625,603.125L1828.12,603.125L1828.12,390.625Z" style="fill:#727272;"/>
                <rect x="1625" y="593.75" width="203.125" height="9.375" style="fill:#727272;"/>
            </g>
            <g id="BT-D">
                <rect x="1878.12" y="390.625" width="203.125" height="212.5" style="fill:#fff;"/>
                <path d="M1878.12,381.25L2081.25,381.25C2086.43,381.25 2090.62,385.447 2090.62,390.625L2090.62,603.125C2090.62,608.303 2086.43,612.5 2081.25,612.5L1878.12,612.5C1872.95,612.5 1868.75,608.303 1868.75,603.125L1868.75,390.625C1868.75,385.447 1872.95,381.25 1878.12,381.25ZM1878.12,390.625L1878.12,603.125L2081.25,603.125L2081.25,390.625L1878.12,390.625Z" style="fill:#727272;"/>
                <rect x="1878.12" y="593.75" width="203.125" height="9.375" style="fill:#727272;"/>
            </g>
            <g id="FX-L">
                <rect x="1246.88" y="659.375" width="200" height="109.375" style="fill:#e5e5e5;"/>
                <path d="M1456.25,659.375L1456.25,768.75C1456.25,773.928 1452.05,778.125 1446.88,778.125L1246.88,778.125C1241.7,778.125 1237.5,773.928 1237.5,768.75L1237.5,659.375C1237.5,654.197 1241.7,650 1246.88,650L1446.88,650C1452.05,650 1456.25,654.197 1456.25,659.375ZM1446.88,659.375L1246.88,659.375L1246.88,768.75L1446.88,768.75L1446.88,659.375Z" style="fill:#727272;"/>
                <rect x="1246.88" y="759.375" width="200" height="9.375" style="fill:#727272;"/>
            </g>
            <g id="FX-R">
                <rect x="1753.12" y="659.375" width="200" height="109.375" style="fill:#e5e5e5;"/>
                <path d="M1753.12,650L1953.12,650C1958.3,650 1962.5,654.197 1962.5,659.375L1962.5,768.75C1962.5,773.928 1958.3,778.125 1953.12,778.125L1753.12,778.125C1747.95,778.125 1743.75,773.928 1743.75,768.75L1743.75,659.375C1743.75,654.197 1747.95,650 1753.12,650ZM1753.12,659.375L1753.12,768.75L1953.12,768.75L1953.12,659.375L1753.12,659.375Z" style="fill:#727272;"/>
                <rect x="1753.12" y="759.375" width="200" height="9.375" style="fill:#727272;"/>
            </g>
            <g id="START">
                <rect x="1550" y="225" width="100" height="103.125" style="fill:#fff;"/>
                <path d="M1659.38,225L1659.38,328.125C1659.38,333.303 1655.18,337.5 1650,337.5L1550,337.5C1544.82,337.5 1540.62,333.303 1540.62,328.125L1540.62,225C1540.62,219.822 1544.82,215.625 1550,215.625L1650,215.625C1655.18,215.625 1659.38,219.822 1659.38,225ZM1650,225L1550,225L1550,328.125L1650,328.125L1650,225Z" style="fill:#727272;"/>
                <rect x="1550" y="318.75" width="100" height="9.375" style="fill:#727272;"/>
            </g>
        </g>
        <path id="FX-L_ANCHOR" d="M1348.62,729.592C1342.64,730.26 1336.54,727.419 1333.34,721.875C1329.03,714.407 1331.59,704.843 1339.06,700.531C1346.53,696.219 1356.1,698.782 1360.41,706.25C1363.61,711.794 1363.02,718.494 1359.45,723.342L1449.66,878.441L1438.84,884.691L1348.62,729.592Z" style="fill:#ff8fbc;"/>
        <path d="M1343.12,738.775C1335.87,737.67 1329.17,733.401 1325.22,726.563C1318.33,714.613 1322.43,699.311 1334.38,692.412C1346.32,685.513 1361.63,689.613 1368.53,701.563C1372.47,708.388 1372.82,716.308 1370.17,723.127L1457.77,873.728C1459.02,875.882 1459.36,878.446 1458.72,880.853C1458.08,883.261 1456.51,885.315 1454.35,886.56L1443.52,892.81C1439.05,895.393 1433.33,893.871 1430.73,889.405L1343.12,738.775ZM1348.62,729.592L1438.84,884.691L1449.66,878.441L1359.45,723.342C1363.02,718.494 1363.61,711.794 1360.41,706.25C1356.1,698.782 1346.53,696.219 1339.06,700.531C1331.59,704.843 1329.03,714.407 1333.34,721.875C1336.54,727.419 1342.64,730.26 1348.62,729.592Z" style="fill:#fff;"/>
        <path id="FX-R_ANCHOR" d="M1851.38,729.592C1857.36,730.26 1863.46,727.419 1866.66,721.875C1870.97,714.407 1868.41,704.843 1860.94,700.531C1853.47,696.219 1843.9,698.782 1839.59,706.25C1836.39,711.794 1836.98,718.494 1840.55,723.342L1750.34,878.441L1761.16,884.691L1851.38,729.592Z" style="fill:#ff8fbc;"/>
        <path d="M1856.88,738.775L1769.27,889.405C1766.67,893.871 1760.95,895.393 1756.48,892.81L1745.65,886.56C1743.49,885.315 1741.92,883.261 1741.28,880.853C1740.64,878.446 1740.98,875.882 1742.23,873.728C1742.23,873.728 1829.83,723.127 1829.83,723.129C1827.18,716.308 1827.53,708.388 1831.47,701.563C1838.37,689.613 1853.68,685.513 1865.62,692.412C1877.57,699.311 1881.67,714.613 1874.78,726.563C1870.83,733.401 1864.13,737.67 1856.88,738.775ZM1851.38,729.592C1857.36,730.26 1863.46,727.419 1866.66,721.875C1870.97,714.407 1868.41,704.843 1860.94,700.531C1853.47,696.219 1843.9,698.782 1839.59,706.25C1836.39,711.794 1836.98,718.494 1840.55,723.342L1750.34,878.441L1761.16,884.691L1851.38,729.592Z" style="fill:#fff;"/>
        <g id="SKIP">
            <rect x="1384.38" y="856.25" width="778.125" height="87.5" style="fill:#fff;"/>
            <path d="M2175,953.125L1025,953.125L1025,846.875L2175,846.875L2175,953.125ZM1384.38,943.75C1621.02,943.75 2162.5,943.75 2162.5,943.75L2162.5,856.25C2112.49,856.25 1599.48,856.25 1384.38,856.25L1384.38,943.75Z" style="fill:#ff8fbc;"/>
            <path d="M1077.85,902.182L1104.43,902.182L1104.43,891.776L1077.85,891.776L1077.85,878.016L1108.02,878.016L1108.02,867.609L1065.36,867.609L1065.36,928.349L1077.85,928.349L1077.85,902.182Z" style="fill:#fff;fill-rule:nonzero;"/>
            <path d="M1145.02,897.354L1163.77,867.609L1149.27,867.609L1138.11,887.602L1127.44,867.609L1112.61,867.609L1131.11,897.771L1111.94,928.349L1126.44,928.349L1138.02,907.272L1149.69,928.349L1164.52,928.349L1145.02,897.354Z" style="fill:#fff;fill-rule:nonzero;"/>
            <rect x="1165.52" y="899.859" width="22.667" height="11.24" style="fill:#fff;fill-rule:nonzero;"/>
            <path d="M1210.27,867.609L1197.78,867.609L1197.78,928.349L1239.35,928.349L1239.35,917.943L1210.27,917.943L1210.27,867.609Z" style="fill:#fff;fill-rule:nonzero;"/>
            <path d="M1286.43,904.109L1271.27,904.109L1271.27,888.943L1261.36,888.943L1261.36,904.109L1246.19,904.109L1246.19,914.016L1261.36,914.016L1261.36,929.182L1271.27,929.182L1271.27,914.016L1286.43,914.016L1286.43,904.109Z" style="fill:#fff;fill-rule:nonzero;"/>
            <path d="M1309.85,904.266L1324.19,904.266C1329.61,904.266 1331.94,906.433 1331.94,911.436L1331.94,913.937C1331.86,915.521 1331.86,917.022 1331.86,917.939C1331.86,923.691 1332.19,925.442 1333.69,928.349L1347.1,928.349L1347.1,926.109C1345.19,925.025 1344.44,923.775 1344.44,921.107C1344.1,903.183 1343.77,902.351 1336.03,899.021C1342.85,896.357 1346.27,891.441 1346.27,884.02C1346.27,879.183 1344.6,874.769 1341.69,871.772C1338.94,868.941 1335.11,867.609 1329.94,867.609L1297.36,867.609L1297.36,928.349L1309.85,928.349L1309.85,904.266ZM1309.85,893.859L1309.85,878.016L1324.94,878.016C1328.53,878.016 1329.94,878.349 1331.53,879.6C1333.03,880.851 1333.78,882.936 1333.78,885.771C1333.78,888.689 1333.03,891.024 1331.53,892.275C1330.11,893.442 1328.53,893.859 1324.94,893.859L1309.85,893.859Z" style="fill:#fff;fill-rule:nonzero;"/>
            <path d="M1511.38,889.335C1511.38,886.418 1511.2,885.601 1510.27,883.618C1507.94,878.72 1502.98,876.158 1495.8,876.158C1486.47,876.158 1480.7,880.934 1480.7,888.635C1480.7,893.828 1483.44,897.095 1489.04,898.554L1499.6,901.355C1505.02,902.755 1507.42,904.914 1507.42,908.24C1507.42,910.515 1506.19,912.849 1504.38,914.132C1502.69,915.358 1500.01,915.941 1496.56,915.941C1491.89,915.941 1488.8,914.833 1486.76,912.382C1485.18,910.515 1484.49,908.473 1484.54,905.847L1479.42,905.847C1479.47,909.756 1480.23,912.324 1481.92,914.658C1484.84,918.679 1489.74,920.717 1496.21,920.717C1501.29,920.717 1505.43,919.552 1508.17,917.456C1511.03,915.183 1512.83,911.39 1512.83,907.714C1512.83,902.463 1509.57,898.612 1503.8,897.037L1493.12,894.178C1487.98,892.778 1486.12,891.144 1486.12,887.877C1486.12,883.559 1489.91,880.701 1495.63,880.701C1502.4,880.701 1506.19,883.734 1506.25,889.335L1511.38,889.335Z" style="fill:#727272;fill-rule:nonzero;"/>
            <path d="M1525.55,904.505L1532.49,897.562L1547.48,919.376L1553.9,919.376L1536.4,894.178L1553.73,876.858L1546.73,876.858L1525.55,898.379L1525.55,876.858L1520.13,876.858L1520.13,919.376L1525.55,919.376L1525.55,904.505Z" style="fill:#727272;fill-rule:nonzero;"/>
            <rect x="1559.16" y="876.858" width="5.476" height="42.518" style="fill:#727272;fill-rule:nonzero;"/>
            <path d="M1580.27,901.351L1593.63,901.351C1596.96,901.351 1599.58,900.36 1601.86,898.322C1604.42,895.991 1605.53,893.248 1605.53,889.338C1605.53,881.343 1600.81,876.858 1592.4,876.858L1574.85,876.858L1574.85,919.376L1580.27,919.376L1580.27,901.351ZM1580.27,896.574L1580.27,881.634L1591.59,881.634C1596.78,881.634 1599.87,884.435 1599.87,889.104C1599.87,893.773 1596.78,896.574 1591.59,896.574L1580.27,896.574Z" style="fill:#727272;fill-rule:nonzero;"/>
            <path d="M1668.06,919.376L1678.85,876.858L1672.79,876.858L1664.97,911.39L1655.29,876.858L1649.45,876.858L1640,911.39L1632.01,876.858L1625.95,876.858L1636.85,919.376L1642.8,919.376L1652.31,884.435L1662.11,919.376L1668.06,919.376Z" style="fill:#727272;fill-rule:nonzero;"/>
            <path d="M1704.46,906.601L1708.84,919.376L1714.9,919.376L1699.97,876.858L1692.97,876.858L1677.8,919.376L1683.58,919.376L1688.07,906.601L1704.46,906.601ZM1702.95,902.058L1689.41,902.058L1696.41,882.685L1702.95,902.058Z" style="fill:#727272;fill-rule:nonzero;"/>
            <rect x="1721.56" y="876.858" width="5.476" height="42.518" style="fill:#727272;fill-rule:nonzero;"/>
            <path d="M1751.65,881.634L1765.59,881.634L1765.59,876.858L1732.23,876.858L1732.23,881.634L1746.23,881.634L1746.23,919.376L1751.65,919.376L1751.65,881.634Z" style="fill:#727272;fill-rule:nonzero;"/>
            <rect x="1771.2" y="876.858" width="5.476" height="42.518" style="fill:#727272;fill-rule:nonzero;"/>
            <path d="M1819.26,876.858L1814.13,876.858L1814.13,911.623L1791.9,876.858L1786.02,876.858L1786.02,919.376L1791.14,919.376L1791.14,884.902L1813.14,919.376L1819.26,919.376L1819.26,876.858Z" style="fill:#727272;fill-rule:nonzero;"/>
            <path d="M1864.99,896.924L1847.26,896.924L1847.26,901.701L1860.21,901.701L1860.21,902.868C1860.21,910.455 1854.61,915.941 1846.85,915.941C1842.53,915.941 1838.63,914.365 1836.12,911.622C1833.32,908.587 1831.63,903.51 1831.63,898.264C1831.63,887.82 1837.58,880.934 1846.56,880.934C1853.03,880.934 1857.7,884.26 1858.87,889.746L1864.41,889.746C1862.89,881.109 1856.36,876.158 1846.62,876.158C1841.43,876.158 1837.23,877.497 1833.9,880.235C1828.95,884.319 1826.21,890.913 1826.21,898.555C1826.21,911.622 1834.19,920.717 1845.68,920.717C1851.46,920.717 1856.01,918.562 1860.21,913.957L1861.55,919.611L1864.99,919.611L1864.99,896.924Z" style="fill:#727272;fill-rule:nonzero;"/>
            <path d="M1895.33,876.858L1889.91,876.858L1889.91,919.376L1916.33,919.376L1916.33,914.599L1895.33,914.599L1895.33,876.858Z" style="fill:#727272;fill-rule:nonzero;"/>
            <path d="M1937.97,876.158C1925.78,876.158 1917.5,885.135 1917.5,898.437C1917.5,911.799 1925.72,920.717 1938.03,920.717C1943.22,920.717 1947.77,919.145 1951.22,916.232C1955.82,912.324 1958.56,905.731 1958.56,898.787C1958.56,885.076 1950.46,876.158 1937.97,876.158ZM1937.97,880.934C1947.19,880.934 1953.14,887.877 1953.14,898.671C1953.14,908.94 1947.02,915.941 1938.03,915.941C1928.93,915.941 1922.92,908.94 1922.92,898.437C1922.92,887.935 1928.93,880.934 1937.97,880.934Z" style="fill:#727272;fill-rule:nonzero;"/>
            <path d="M1965.27,919.376L1984.46,919.376C1988.49,919.376 1991.47,918.269 1993.74,915.823C1995.84,913.607 1997,910.572 1997,907.246C1997,902.11 1994.67,899.019 1989.25,896.922C1993.15,895.116 1995.13,892.023 1995.13,887.645C1995.13,884.494 1993.97,881.809 1991.76,879.828C1989.48,877.79 1986.62,876.858 1982.54,876.858L1965.27,876.858L1965.27,919.376ZM1970.69,895.174L1970.69,881.634L1981.2,881.634C1984.23,881.634 1985.92,882.042 1987.38,883.151C1988.9,884.319 1989.72,886.07 1989.72,888.404C1989.72,890.739 1988.9,892.49 1987.38,893.657C1985.92,894.766 1984.23,895.174 1981.2,895.174L1970.69,895.174ZM1970.69,914.599L1970.69,899.951L1983.94,899.951C1988.72,899.951 1991.58,902.693 1991.58,907.304C1991.58,911.856 1988.72,914.599 1983.94,914.599L1970.69,914.599Z" style="fill:#727272;fill-rule:nonzero;"/>
            <path d="M2004.18,919.376L2023.37,919.376C2027.4,919.376 2030.37,918.269 2032.65,915.823C2034.74,913.607 2035.91,910.572 2035.91,907.246C2035.91,902.11 2033.58,899.019 2028.16,896.922C2032.06,895.116 2034.04,892.023 2034.04,887.645C2034.04,884.494 2032.88,881.809 2030.66,879.828C2028.39,877.79 2025.53,876.858 2021.45,876.858L2004.18,876.858L2004.18,919.376ZM2009.6,895.174L2009.6,881.634L2020.11,881.634C2023.14,881.634 2024.83,882.042 2026.29,883.151C2027.81,884.319 2028.62,886.07 2028.62,888.404C2028.62,890.739 2027.81,892.49 2026.29,893.657C2024.83,894.766 2023.14,895.174 2020.11,895.174L2009.6,895.174ZM2009.6,914.599L2009.6,899.951L2022.85,899.951C2027.63,899.951 2030.49,902.693 2030.49,907.304C2030.49,911.856 2027.63,914.599 2022.85,914.599L2009.6,914.599Z" style="fill:#727272;fill-rule:nonzero;"/>
            <path d="M2058.43,902.697L2074.41,876.858L2067.93,876.858L2055.8,897.562L2043.32,876.858L2036.62,876.858L2053.01,902.697L2053.01,919.376L2058.43,919.376L2058.43,902.697Z" style="fill:#727272;fill-rule:nonzero;"/>
        </g>
    </g>
</svg>
