<?xml version="1.0" encoding="UTF-8" standalone="no"?>
<!DOCTYPE svg PUBLIC "-//W3C//DTD SVG 1.1//EN" "http://www.w3.org/Graphics/SVG/1.1/DTD/svg11.dtd">
<svg width="100%" height="100%" viewBox="0 0 3200 950" version="1.1" xmlns="http://www.w3.org/2000/svg" xmlns:xlink="http://www.w3.org/1999/xlink" xml:space="preserve" xmlns:serif="http://www.serif.com/" style="fill-rule:evenodd;clip-rule:evenodd;stroke-linejoin:round;stroke-miterlimit:2;">
    <rect id="PLAY_NUM" x="0" y="0" width="3200" height="950" style="fill:none;"/>
    <g id="PAD">
        <g id="_1" serif:id="1">
            <rect x="1418.75" y="521.875" width="100" height="103.125" style="fill:#fff;"/>
            <path d="M1528.12,521.875L1528.12,625C1528.12,630.178 1523.93,634.375 1518.75,634.375L1418.75,634.375C1413.57,634.375 1409.38,630.178 1409.38,625L1409.38,521.875C1409.38,516.697 1413.57,512.5 1418.75,512.5L1518.75,512.5C1523.93,512.5 1528.12,516.697 1528.12,521.875ZM1518.75,521.875L1418.75,521.875L1418.75,625L1518.75,625L1518.75,521.875Z" style="fill:#727272;"/>
            <rect x="1418.75" y="615.625" width="100" height="9.375" style="fill:#727272;"/>
        </g>
        <g id="_2" serif:id="2">
            <rect x="1550" y="521.875" width="100" height="103.125" style="fill:#fff;"/>
            <path d="M1659.38,521.875L1659.38,625C1659.38,630.178 1655.18,634.375 1650,634.375L1550,634.375C1544.82,634.375 1540.62,630.178 1540.62,625L1540.62,521.875C1540.62,516.697 1544.82,512.5 1550,512.5L1650,512.5C1655.18,512.5 1659.38,516.697 1659.38,521.875ZM1650,521.875L1550,521.875L1550,625L1650,625L1650,521.875Z" style="fill:#727272;"/>
            <rect x="1550" y="615.625" width="100" height="9.375" style="fill:#727272;"/>
        </g>
        <g id="_3" serif:id="3">
            <rect x="1681.25" y="521.875" width="100" height="103.125" style="fill:#fff;"/>
            <path d="M1790.62,521.875L1790.62,625C1790.62,630.178 1786.43,634.375 1781.25,634.375L1681.25,634.375C1676.07,634.375 1671.88,630.178 1671.88,625L1671.88,521.875C1671.88,516.697 1676.07,512.5 1681.25,512.5L1781.25,512.5C1786.43,512.5 1790.62,516.697 1790.62,521.875ZM1781.25,521.875L1681.25,521.875L1681.25,625L1781.25,625L1781.25,521.875Z" style="fill:#727272;"/>
            <rect x="1681.25" y="615.625" width="100" height="9.375" style="fill:#727272;"/>
        </g>
        <g id="_4" serif:id="4">
            <rect x="1418.75" y="387.5" width="100" height="103.125" style="fill:#fff;"/>
            <path d="M1528.12,387.5L1528.12,490.625C1528.12,495.803 1523.93,500 1518.75,500L1418.75,500C1413.57,500 1409.38,495.803 1409.38,490.625L1409.38,387.5C1409.38,382.322 1413.57,378.125 1418.75,378.125L1518.75,378.125C1523.93,378.125 1528.12,382.322 1528.12,387.5ZM1518.75,387.5L1418.75,387.5L1418.75,490.625L1518.75,490.625L1518.75,387.5Z" style="fill:#727272;"/>
            <rect x="1418.75" y="481.25" width="100" height="9.375" style="fill:#727272;"/>
        </g>
        <g id="_5" serif:id="5">
            <rect x="1550" y="387.5" width="100" height="103.125" style="fill:#fff;"/>
            <path d="M1659.38,387.5L1659.38,490.625C1659.38,495.803 1655.18,500 1650,500L1550,500C1544.82,500 1540.62,495.803 1540.62,490.625L1540.62,387.5C1540.62,382.322 1544.82,378.125 1550,378.125L1650,378.125C1655.18,378.125 1659.38,382.322 1659.38,387.5ZM1650,387.5L1550,387.5L1550,490.625L1650,490.625L1650,387.5Z" style="fill:#727272;"/>
            <rect x="1550" y="481.25" width="100" height="9.375" style="fill:#727272;"/>
        </g>
        <g id="_6" serif:id="6">
            <rect x="1681.25" y="387.5" width="100" height="103.125" style="fill:#fff;"/>
            <path d="M1790.62,387.5L1790.62,490.625C1790.62,495.803 1786.43,500 1781.25,500L1681.25,500C1676.07,500 1671.88,495.803 1671.88,490.625L1671.88,387.5C1671.88,382.322 1676.07,378.125 1681.25,378.125L1781.25,378.125C1786.43,378.125 1790.62,382.322 1790.62,387.5ZM1781.25,387.5L1681.25,387.5L1681.25,490.625L1781.25,490.625L1781.25,387.5Z" style="fill:#727272;"/>
            <rect x="1681.25" y="481.25" width="100" height="9.375" style="fill:#727272;"/>
        </g>
        <g id="_7" serif:id="7">
            <rect x="1418.75" y="253.125" width="100" height="103.125" style="fill:#fff;"/>
            <path d="M1528.12,253.125L1528.12,356.25C1528.12,361.428 1523.93,365.625 1518.75,365.625L1418.75,365.625C1413.57,365.625 1409.38,361.428 1409.38,356.25L1409.38,253.125C1409.38,247.947 1413.57,243.75 1418.75,243.75L1518.75,243.75C1523.93,243.75 1528.12,247.947 1528.12,253.125ZM1518.75,253.125L1418.75,253.125L1418.75,356.25L1518.75,356.25L1518.75,253.125Z" style="fill:#727272;"/>
            <rect x="1418.75" y="346.875" width="100" height="9.375" style="fill:#727272;"/>
        </g>
        <g id="_8" serif:id="8">
            <rect x="1550" y="253.125" width="100" height="103.125" style="fill:#fff;"/>
            <path d="M1659.38,253.125L1659.38,356.25C1659.38,361.428 1655.18,365.625 1650,365.625L1550,365.625C1544.82,365.625 1540.62,361.428 1540.62,356.25L1540.62,253.125C1540.62,247.947 1544.82,243.75 1550,243.75L1650,243.75C1655.18,243.75 1659.38,247.947 1659.38,253.125ZM1650,253.125L1550,253.125L1550,356.25L1650,356.25L1650,253.125Z" style="fill:#727272;"/>
            <rect x="1550" y="346.875" width="100" height="9.375" style="fill:#727272;"/>
        </g>
        <g id="_9" serif:id="9">
            <rect x="1681.25" y="253.125" width="100" height="103.125" style="fill:#fff;"/>
            <path d="M1790.62,253.125L1790.62,356.25C1790.62,361.428 1786.43,365.625 1781.25,365.625L1681.25,365.625C1676.07,365.625 1671.88,361.428 1671.88,356.25L1671.88,253.125C1671.88,247.947 1676.07,243.75 1681.25,243.75L1781.25,243.75C1786.43,243.75 1790.62,247.947 1790.62,253.125ZM1781.25,253.125L1681.25,253.125L1681.25,356.25L1781.25,356.25L1781.25,253.125Z" style="fill:#727272;"/>
            <rect x="1681.25" y="346.875" width="100" height="9.375" style="fill:#727272;"/>
        </g>
        <g id="_0" serif:id="0">
            <rect x="1418.75" y="656.25" width="100" height="103.125" style="fill:#fff;"/>
            <path d="M1528.12,656.25L1528.12,759.375C1528.12,764.553 1523.93,768.75 1518.75,768.75L1418.75,768.75C1413.57,768.75 1409.38,764.553 1409.38,759.375L1409.38,656.25C1409.38,651.072 1413.57,646.875 1418.75,646.875L1518.75,646.875C1523.93,646.875 1528.12,651.072 1528.12,656.25ZM1518.75,656.25L1418.75,656.25L1418.75,759.375L1518.75,759.375L1518.75,656.25Z" style="fill:#727272;"/>
            <rect x="1418.75" y="750" width="100" height="9.375" style="fill:#727272;"/>
        </g>
        <g id="_00" serif:id="00">
            <rect x="1550" y="656.25" width="100" height="103.125" style="fill:#fff;"/>
            <path d="M1659.38,656.25L1659.38,759.375C1659.38,764.553 1655.18,768.75 1650,768.75L1550,768.75C1544.82,768.75 1540.62,764.553 1540.62,759.375L1540.62,656.25C1540.62,651.072 1544.82,646.875 1550,646.875L1650,646.875C1655.18,646.875 1659.38,651.072 1659.38,656.25ZM1650,656.25L1550,656.25L1550,759.375L1650,759.375L1650,656.25Z" style="fill:#727272;"/>
            <rect x="1550" y="750" width="100" height="9.375" style="fill:#727272;"/>
        </g>
        <g id="EMPTY">
            <rect x="1681.25" y="656.25" width="100" height="103.125" style="fill:#fff;"/>
            <path d="M1790.62,656.25L1790.62,759.375C1790.62,764.553 1786.43,768.75 1781.25,768.75L1681.25,768.75C1676.07,768.75 1671.88,764.553 1671.88,759.375L1671.88,656.25C1671.88,651.072 1676.07,646.875 1681.25,646.875L1781.25,646.875C1786.43,646.875 1790.62,651.072 1790.62,656.25ZM1781.25,656.25L1681.25,656.25L1681.25,759.375L1781.25,759.375L1781.25,656.25Z" style="fill:#727272;"/>
            <rect x="1681.25" y="750" width="100" height="9.375" style="fill:#727272;"/>
        </g>
    </g>
    <g id="HIDDENNUMS">
        <path d="M1576.83,672.005C1570.5,672.005 1565.08,674.669 1561.5,679.58C1558.09,684.162 1556.51,691.664 1556.51,703.167C1556.51,713.669 1557.84,721.004 1560.67,725.504C1564.16,731.165 1569.91,734.245 1576.83,734.245C1583.25,734.245 1588.5,731.664 1592.17,726.753C1595.5,722.171 1597.16,714.586 1597.16,703.5C1597.16,692.664 1595.83,685.329 1593,680.746C1589.5,675.085 1583.75,672.005 1576.83,672.005ZM1576.83,681.411C1579.84,681.411 1582.25,683.078 1583.67,686.163C1584.84,688.663 1585.51,695.081 1585.51,703.25C1585.51,709.918 1584.92,716.42 1584,718.837C1582.67,722.338 1580.17,724.255 1576.83,724.255C1573.75,724.255 1571.41,722.671 1570,719.671C1568.83,717.17 1568.16,711.002 1568.16,703.083C1568.16,696.082 1568.75,689.413 1569.66,686.996C1570.91,683.412 1573.5,681.411 1576.83,681.411Z" style="fill:#727272;fill-rule:nonzero;"/>
        <path d="M1623.17,672.005C1616.83,672.005 1611.41,674.669 1607.83,679.58C1604.42,684.162 1602.84,691.664 1602.84,703.167C1602.84,713.669 1604.17,721.004 1607,725.504C1610.5,731.165 1616.25,734.245 1623.17,734.245C1629.59,734.245 1634.84,731.664 1638.5,726.753C1641.83,722.171 1643.5,714.586 1643.5,703.5C1643.5,692.664 1642.16,685.329 1639.33,680.746C1635.84,675.085 1630.09,672.005 1623.17,672.005ZM1623.17,681.411C1626.17,681.411 1628.59,683.078 1630,686.163C1631.17,688.663 1631.84,695.081 1631.84,703.25C1631.84,709.918 1631.26,716.42 1630.34,718.837C1629,722.338 1626.5,724.255 1623.17,724.255C1620.08,724.255 1617.75,722.671 1616.33,719.671C1615.16,717.17 1614.5,711.002 1614.5,703.083C1614.5,696.082 1615.08,689.413 1616,686.996C1617.25,683.412 1619.83,681.411 1623.17,681.411Z" style="fill:#727272;fill-rule:nonzero;"/>
        <path d="M1465.26,554.906L1465.26,603.794L1479.24,603.794L1479.24,532.906L1469.95,532.906C1467.75,541.306 1460.46,545.606 1448.26,545.606L1448.26,554.906L1465.26,554.906Z" style="fill:#727272;fill-rule:nonzero;"/>
        <path d="M1494.25,264.156L1444.35,264.156L1444.35,276.644L1479.65,276.644C1475.35,281.244 1466.85,294.147 1464.05,300.349C1459.15,310.651 1456.65,319.953 1454.75,335.044L1468.85,335.044C1470.15,312.652 1477.45,295.448 1494.25,275.145L1494.25,264.156Z" style="fill:#727272;fill-rule:nonzero;"/>
    </g>
    <path id="_00_ANCHOR" serif:id="00_ANCHOR" d="M1593.75,776.823C1588.23,774.41 1584.38,768.902 1584.38,762.5C1584.38,753.876 1591.38,746.875 1600,746.875C1608.62,746.875 1615.62,753.876 1615.62,762.5C1615.62,768.902 1611.77,774.41 1606.25,776.823L1606.83,852.969L1594.33,852.969L1593.75,776.823Z" style="fill:#e4d68b;"/>
    <path d="M1584.41,782.043C1578.68,777.461 1575,770.407 1575,762.5C1575,748.702 1586.2,737.5 1600,737.5C1613.8,737.5 1625,748.702 1625,762.5C1625,770.37 1621.36,777.397 1615.66,781.979L1616.2,852.898C1616.22,855.396 1615.24,857.799 1613.48,859.573C1611.72,861.346 1609.33,862.344 1606.83,862.344L1594.33,862.344C1589.18,862.344 1584.99,858.19 1584.95,853.04L1584.41,782.043ZM1593.75,776.823L1594.33,852.969L1606.83,852.969L1606.25,776.823C1611.77,774.41 1615.62,768.902 1615.62,762.5C1615.62,753.876 1608.62,746.875 1600,746.875C1591.38,746.875 1584.38,753.876 1584.38,762.5C1584.38,768.902 1588.23,774.41 1593.75,776.823Z" style="fill:#fff;"/>
    <g id="_001" serif:id="00">
        <rect x="1268.75" y="852.969" width="759.375" height="87.5" style="fill:#fff;"/>
        <path d="M2037.5,949.844L1162.5,949.844L1162.5,843.594L2037.5,843.594L2037.5,949.844ZM1268.75,940.469C1505.39,940.469 2028.12,940.469 2028.12,940.469L2028.12,852.969C1978.12,852.969 1483.85,852.969 1268.75,852.969L1268.75,940.469Z" style="fill:#e4d68b;"/>
        <path d="M1192.46,866.307C1186.12,866.307 1180.71,868.971 1177.13,873.882C1173.71,878.464 1172.13,885.966 1172.13,897.469C1172.13,907.971 1173.46,915.306 1176.29,919.806C1179.79,925.467 1185.54,928.547 1192.46,928.547C1198.88,928.547 1204.13,925.966 1207.79,921.055C1211.12,916.473 1212.79,908.888 1212.79,897.802C1212.79,886.966 1211.45,879.631 1208.62,875.048C1205.13,869.387 1199.38,866.307 1192.46,866.307ZM1192.46,875.714C1195.46,875.714 1197.88,877.381 1199.3,880.465C1200.46,882.965 1201.13,889.384 1201.13,897.552C1201.13,904.22 1200.55,910.722 1199.63,913.139C1198.3,916.64 1195.79,918.557 1192.46,918.557C1189.37,918.557 1187.04,916.974 1185.62,913.973C1184.45,911.472 1183.79,905.304 1183.79,897.385C1183.79,890.384 1184.37,883.715 1185.29,881.298C1186.54,877.714 1189.12,875.714 1192.46,875.714Z" style="fill:#fff;fill-rule:nonzero;"/>
        <path d="M1238.79,866.307C1232.45,866.307 1227.04,868.971 1223.46,873.882C1220.05,878.464 1218.46,885.966 1218.46,897.469C1218.46,907.971 1219.8,915.306 1222.63,919.806C1226.12,925.467 1231.87,928.547 1238.79,928.547C1245.21,928.547 1250.46,925.966 1254.12,921.055C1257.45,916.473 1259.12,908.888 1259.12,897.802C1259.12,886.966 1257.79,879.631 1254.96,875.048C1251.46,869.387 1245.71,866.307 1238.79,866.307ZM1238.79,875.714C1241.79,875.714 1244.21,877.381 1245.63,880.465C1246.8,882.965 1247.46,889.384 1247.46,897.552C1247.46,904.22 1246.88,910.722 1245.96,913.139C1244.63,916.64 1242.13,918.557 1238.79,918.557C1235.71,918.557 1233.37,916.974 1231.95,913.973C1230.79,911.472 1230.12,905.304 1230.12,897.385C1230.12,890.384 1230.7,883.715 1231.62,881.298C1232.87,877.714 1235.46,875.714 1238.79,875.714Z" style="fill:#fff;fill-rule:nonzero;"/>
        <path d="M1386.11,904.882L1390.49,917.657L1396.55,917.657L1381.62,875.139L1374.62,875.139L1359.45,917.657L1365.23,917.657L1369.72,904.882L1386.11,904.882ZM1384.6,900.339L1371.06,900.339L1378.06,880.966L1384.6,900.339Z" style="fill:#727272;fill-rule:nonzero;"/>
        <path d="M1427.53,875.139L1427.53,905.004C1427.53,910.722 1423.39,914.222 1416.56,914.222C1413.41,914.222 1410.84,913.464 1408.8,912.005C1406.7,910.372 1405.71,908.213 1405.71,905.004L1405.71,875.139L1400.29,875.139L1400.29,905.004C1400.29,913.639 1406.47,918.998 1416.56,918.998C1426.54,918.998 1432.95,913.522 1432.95,905.004L1432.95,875.139L1427.53,875.139Z" style="fill:#727272;fill-rule:nonzero;"/>
        <path d="M1457.39,879.915L1471.33,879.915L1471.33,875.139L1437.97,875.139L1437.97,879.915L1451.97,879.915L1451.97,917.657L1457.39,917.657L1457.39,879.915Z" style="fill:#727272;fill-rule:nonzero;"/>
        <path d="M1492.57,874.439C1480.38,874.439 1472.1,883.416 1472.1,896.719C1472.1,910.08 1480.32,918.998 1492.63,918.998C1497.82,918.998 1502.37,917.426 1505.82,914.514C1510.42,910.605 1513.16,904.012 1513.16,897.069C1513.16,883.357 1505.06,874.439 1492.57,874.439ZM1492.57,879.215C1501.79,879.215 1507.74,886.158 1507.74,896.952C1507.74,907.221 1501.62,914.222 1492.63,914.222C1483.53,914.222 1477.52,907.221 1477.52,896.719C1477.52,886.216 1483.53,879.215 1492.57,879.215Z" style="fill:#727272;fill-rule:nonzero;"/>
        <path d="M1542.33,899.34L1556.33,899.34C1561.17,899.34 1563.33,901.674 1563.33,906.927L1563.27,910.72C1563.27,913.346 1563.74,915.914 1564.5,917.657L1571.08,917.657L1571.08,916.322C1569.04,914.922 1568.63,913.404 1568.52,907.744C1568.46,900.741 1567.35,898.641 1562.75,896.661C1567.53,894.272 1569.45,891.412 1569.45,886.51C1569.45,879.158 1564.91,875.139 1556.51,875.139L1536.91,875.139L1536.91,917.657L1542.33,917.657L1542.33,899.34ZM1542.33,894.564L1542.33,879.915L1555.45,879.915C1558.49,879.915 1560.24,880.382 1561.58,881.549C1563.04,882.775 1563.8,884.701 1563.8,887.21C1563.8,892.288 1561.23,894.564 1555.45,894.564L1542.33,894.564Z" style="fill:#727272;fill-rule:nonzero;"/>
        <path d="M1583.57,898.29L1606.73,898.29L1606.73,893.514L1583.57,893.514L1583.57,879.915L1607.6,879.915L1607.6,875.139L1578.15,875.139L1578.15,917.657L1608.65,917.657L1608.65,912.881L1583.57,912.881L1583.57,898.29Z" style="fill:#727272;fill-rule:nonzero;"/>
        <path d="M1631.87,879.915L1645.81,879.915L1645.81,875.139L1612.45,875.139L1612.45,879.915L1626.45,879.915L1626.45,917.657L1631.87,917.657L1631.87,879.915Z" style="fill:#727272;fill-rule:nonzero;"/>
        <path d="M1656.6,899.34L1670.61,899.34C1675.45,899.34 1677.61,901.674 1677.61,906.927L1677.55,910.72C1677.55,913.346 1678.02,915.914 1678.77,917.657L1685.36,917.657L1685.36,916.322C1683.32,914.922 1682.91,913.404 1682.79,907.744C1682.74,900.741 1681.63,898.641 1677.02,896.661C1681.8,894.272 1683.73,891.412 1683.73,886.51C1683.73,879.158 1679.18,875.139 1670.78,875.139L1651.18,875.139L1651.18,917.657L1656.6,917.657L1656.6,899.34ZM1656.6,894.564L1656.6,879.915L1669.73,879.915C1672.76,879.915 1674.52,880.382 1675.86,881.549C1677.32,882.775 1678.07,884.701 1678.07,887.21C1678.07,892.288 1675.51,894.564 1669.73,894.564L1656.6,894.564Z" style="fill:#727272;fill-rule:nonzero;"/>
        <path d="M1707.93,900.978L1723.92,875.139L1717.44,875.139L1705.31,895.844L1692.83,875.139L1686.12,875.139L1702.52,900.978L1702.52,917.657L1707.93,917.657L1707.93,900.978Z" style="fill:#727272;fill-rule:nonzero;"/>
        <path d="M1754.25,875.139C1748.42,882.773 1744.75,893.39 1744.75,902.548C1744.75,911.765 1748.42,922.382 1754.25,930.023L1757.46,930.023C1752.33,921.682 1749.47,911.882 1749.47,902.548C1749.47,893.273 1752.33,883.415 1757.46,875.139L1754.25,875.139Z" style="fill:#727272;fill-rule:nonzero;"/>
        <path d="M1801.27,895.206L1783.53,895.206L1783.53,899.982L1796.48,899.982L1796.48,901.149C1796.48,908.736 1790.88,914.222 1783.13,914.222C1778.81,914.222 1774.9,912.647 1772.39,909.903C1769.59,906.869 1767.9,901.791 1767.9,896.545C1767.9,886.102 1773.85,879.215 1782.83,879.215C1789.31,879.215 1793.98,882.542 1795.14,888.027L1800.68,888.027C1799.17,879.39 1792.63,874.439 1782.89,874.439C1777.7,874.439 1773.5,875.779 1770.18,878.516C1765.22,882.6 1762.48,889.195 1762.48,896.837C1762.48,909.903 1770.47,918.998 1781.96,918.998C1787.73,918.998 1792.28,916.843 1796.48,912.238L1797.83,917.892L1801.27,917.892L1801.27,895.206Z" style="fill:#727272;fill-rule:nonzero;"/>
        <path d="M1827.99,874.439C1815.79,874.439 1807.52,883.416 1807.52,896.719C1807.52,910.08 1815.74,918.998 1828.05,918.998C1833.24,918.998 1837.79,917.426 1841.23,914.514C1845.84,910.605 1848.58,904.012 1848.58,897.069C1848.58,883.357 1840.47,874.439 1827.99,874.439ZM1827.99,879.215C1837.21,879.215 1843.16,886.158 1843.16,896.952C1843.16,907.221 1837.03,914.222 1828.05,914.222C1818.94,914.222 1812.93,907.221 1812.93,896.719C1812.93,886.216 1818.94,879.215 1827.99,879.215Z" style="fill:#727272;fill-rule:nonzero;"/>
        <path d="M1876.35,904.882L1880.72,917.657L1886.79,917.657L1871.85,875.139L1864.85,875.139L1849.69,917.657L1855.46,917.657L1859.95,904.882L1876.35,904.882ZM1874.83,900.339L1861.3,900.339L1868.3,880.966L1874.83,900.339Z" style="fill:#727272;fill-rule:nonzero;"/>
        <path d="M1897.69,875.139L1892.27,875.139L1892.27,917.657L1918.69,917.657L1918.69,912.881L1897.69,912.881L1897.69,875.139Z" style="fill:#727272;fill-rule:nonzero;"/>
        <path d="M1922.96,930.023C1928.79,922.382 1932.46,911.765 1932.46,902.607C1932.46,893.39 1928.79,882.773 1922.96,875.139L1919.75,875.139C1924.88,883.473 1927.74,893.273 1927.74,902.607C1927.74,911.882 1924.88,921.74 1919.75,930.023L1922.96,930.023Z" style="fill:#727272;fill-rule:nonzero;"/>
    </g>
    <path id="_2_ANCHOR" serif:id="2_ANCHOR" d="M1532.55,568.75C1534.97,563.234 1540.47,559.375 1546.88,559.375C1555.5,559.375 1562.5,566.376 1562.5,575C1562.5,583.624 1555.5,590.625 1546.88,590.625C1540.47,590.625 1534.97,586.766 1532.55,581.25L1321.88,581.827L1321.88,569.327L1532.55,568.75Z" style="fill:#ff8fbc;"/>
    <path d="M1527.35,559.39C1531.93,553.666 1538.98,550 1546.88,550C1560.67,550 1571.88,561.202 1571.88,575C1571.88,588.798 1560.67,600 1546.88,600C1538.99,600 1531.96,596.345 1527.38,590.639L1321.9,591.202C1319.41,591.209 1317.02,590.224 1315.26,588.465C1313.49,586.706 1312.5,584.318 1312.5,581.827L1312.5,569.327C1312.5,564.159 1316.68,559.966 1321.85,559.952L1527.35,559.39ZM1532.55,568.75L1321.88,569.327L1321.88,581.827L1532.55,581.25C1534.97,586.766 1540.47,590.625 1546.88,590.625C1555.5,590.625 1562.5,583.624 1562.5,575C1562.5,566.376 1555.5,559.375 1546.88,559.375C1540.47,559.375 1534.97,563.234 1532.55,568.75Z" style="fill:#fff;"/>
    <g id="_21" serif:id="2">
        <rect x="565.628" y="531.25" width="759.375" height="87.5" style="fill:#fff;"/>
        <path d="M1334.38,628.125L459.378,628.125L459.378,521.875L1334.38,521.875L1334.38,628.125ZM565.628,618.75C802.271,618.75 1325,618.75 1325,618.75L1325,531.25C1274.99,531.25 780.728,531.25 565.628,531.25L565.628,618.75Z" style="fill:#ff8fbc;"/>
        <path d="M532.415,594.505L507.333,594.505C508.917,591.338 510.752,589.587 519.424,583.336C529.667,575.834 532.665,571.416 532.665,563.33C532.665,551.914 524.755,544.589 512.42,544.589C500.168,544.589 493.008,551.831 493.008,564.331L493.008,566.415L504.248,566.415L504.248,564.497C504.248,557.912 507.333,554.078 512.67,554.078C517.84,554.078 521.008,557.662 521.008,563.581C521.008,570.166 519.007,572.583 505.832,581.919C495.839,588.754 492.758,593.922 492.258,604.911L532.415,604.911L532.415,594.505Z" style="fill:#fff;fill-rule:nonzero;"/>
        <rect x="698.832" y="577.745" width="13.876" height="4.193" style="fill:#727272;fill-rule:nonzero;"/>
        <path d="M751.215,553.42L751.215,583.343C751.215,586.727 750.865,588.653 749.873,590.111C748.822,591.745 746.838,592.737 744.678,592.737C740.592,592.737 738.316,589.995 738.316,585.035L738.316,582.293L732.782,582.293L732.782,586.027C732.782,592.912 737.326,597.28 744.62,597.28C752.031,597.28 756.633,592.679 756.633,585.327L756.633,553.42L751.215,553.42Z" style="fill:#727272;fill-rule:nonzero;"/>
        <path d="M793.157,553.42L793.157,583.285C793.157,589.003 789.014,592.504 782.186,592.504C779.035,592.504 776.468,591.745 774.425,590.287C772.325,588.653 771.333,586.494 771.333,583.285L771.333,553.42L765.915,553.42L765.915,583.285C765.915,591.92 772.091,597.28 782.186,597.28C792.165,597.28 798.574,591.804 798.574,583.285L798.574,553.42L793.157,553.42Z" style="fill:#727272;fill-rule:nonzero;"/>
        <path d="M808.265,595.938L824.653,595.938C835.39,595.938 841.974,587.895 841.974,574.65C841.974,561.464 835.448,553.42 824.653,553.42L808.265,553.42L808.265,595.938ZM813.683,591.162L813.683,558.196L823.719,558.196C832.122,558.196 836.557,563.856 836.557,574.708C836.557,585.502 832.122,591.162 823.719,591.162L813.683,591.162Z" style="fill:#727272;fill-rule:nonzero;"/>
        <path d="M886.541,573.487L868.808,573.487L868.808,578.263L881.758,578.263L881.758,579.43C881.758,587.017 876.158,592.504 868.399,592.504C864.083,592.504 860.174,590.928 857.666,588.185C854.866,585.15 853.174,580.072 853.174,574.827C853.174,564.383 859.124,557.496 868.108,557.496C874.583,557.496 879.249,560.823 880.416,566.309L885.958,566.309C884.441,557.671 877.908,552.72 868.166,552.72C862.974,552.72 858.774,554.06 855.449,556.797C850.495,560.881 847.757,567.476 847.757,575.118C847.757,588.185 855.741,597.28 867.233,597.28C873.008,597.28 877.558,595.125 881.758,590.519L883.099,596.173L886.541,596.173L886.541,573.487Z" style="fill:#727272;fill-rule:nonzero;"/>
        <path d="M901.241,576.571L924.399,576.571L924.399,571.795L901.241,571.795L901.241,558.196L925.274,558.196L925.274,553.42L895.823,553.42L895.823,595.938L926.324,595.938L926.324,591.162L901.241,591.162L901.241,576.571Z" style="fill:#727272;fill-rule:nonzero;"/>
        <path d="M959.458,553.42C953.626,561.055 949.957,571.671 949.957,580.83C949.957,590.046 953.626,600.663 959.458,608.305L962.666,608.305C957.533,599.963 954.674,590.163 954.674,580.83C954.674,571.555 957.533,561.696 962.666,553.42L959.458,553.42Z" style="fill:#727272;fill-rule:nonzero;"/>
        <rect x="970.957" y="553.42" width="5.476" height="42.518" style="fill:#727272;fill-rule:nonzero;"/>
        <path d="M992.008,576.571L1012.31,576.571L1012.31,571.795L992.008,571.795L992.008,558.196L1015.11,558.196L1015.11,553.42L986.59,553.42L986.59,595.938L992.008,595.938L992.008,576.571Z" style="fill:#727272;fill-rule:nonzero;"/>
        <path d="M1043.28,553.42L1037.87,553.42L1037.87,595.938L1064.28,595.938L1064.28,591.162L1043.28,591.162L1043.28,553.42Z" style="fill:#727272;fill-rule:nonzero;"/>
        <path d="M1094.21,583.163L1098.59,595.938L1104.65,595.938L1089.72,553.42L1082.72,553.42L1067.55,595.938L1073.33,595.938L1077.82,583.163L1094.21,583.163ZM1092.69,578.62L1079.16,578.62L1086.16,559.248L1092.69,578.62Z" style="fill:#727272;fill-rule:nonzero;"/>
        <path d="M1120.69,558.196L1134.63,558.196L1134.63,553.42L1101.27,553.42L1101.27,558.196L1115.27,558.196L1115.27,595.938L1120.69,595.938L1120.69,558.196Z" style="fill:#727272;fill-rule:nonzero;"/>
        <path d="M1145.37,576.571L1168.52,576.571L1168.52,571.795L1145.37,571.795L1145.37,558.196L1169.4,558.196L1169.4,553.42L1139.95,553.42L1139.95,595.938L1170.45,595.938L1170.45,591.162L1145.37,591.162L1145.37,576.571Z" style="fill:#727272;fill-rule:nonzero;"/>
        <path d="M1179.03,608.305C1184.86,600.663 1188.53,590.046 1188.53,580.888C1188.53,571.671 1184.86,561.055 1179.03,553.42L1175.82,553.42C1180.96,561.755 1183.82,571.555 1183.82,580.888C1183.82,590.163 1180.96,600.021 1175.82,608.305L1179.03,608.305Z" style="fill:#727272;fill-rule:nonzero;"/>
    </g>
    <path id="_8_ANCHOR" serif:id="8_ANCHOR" d="M1532.55,300C1534.97,294.484 1540.47,290.625 1546.88,290.625C1555.5,290.625 1562.5,297.626 1562.5,306.25C1562.5,314.874 1555.5,321.875 1546.88,321.875C1540.47,321.875 1534.97,318.016 1532.55,312.5L1321.88,313.077L1321.88,300.577L1532.55,300Z" style="fill:#ff8fbc;"/>
    <path d="M1527.35,290.64C1531.93,284.916 1538.98,281.25 1546.88,281.25C1560.67,281.25 1571.88,292.452 1571.88,306.25C1571.88,320.048 1560.67,331.25 1546.88,331.25C1538.99,331.25 1531.96,327.595 1527.38,321.889L1321.9,322.452C1319.41,322.459 1317.02,321.474 1315.26,319.715C1313.49,317.956 1312.5,315.568 1312.5,313.077L1312.5,300.577C1312.5,295.409 1316.68,291.216 1321.85,291.202L1527.35,290.64ZM1532.55,300L1321.88,300.577L1321.88,313.077L1532.55,312.5C1534.97,318.016 1540.47,321.875 1546.88,321.875C1555.5,321.875 1562.5,314.874 1562.5,306.25C1562.5,297.626 1555.5,290.625 1546.88,290.625C1540.47,290.625 1534.97,294.484 1532.55,300Z" style="fill:#fff;"/>
    <g id="_81" serif:id="8">
        <rect x="565.628" y="262.5" width="759.375" height="87.5" style="fill:#fff;"/>
        <path d="M1334.38,359.375L459.378,359.375L459.378,253.125L1334.38,253.125L1334.38,359.375ZM565.628,350C802.271,350 1325,350 1325,350L1325,262.5C1274.99,262.5 780.728,262.5 565.628,262.5L565.628,350Z" style="fill:#ff8fbc;"/>
        <path d="M523.839,304.001C525.837,302.919 526.753,302.336 527.668,301.504C530.083,299.254 531.498,295.668 531.498,291.833C531.498,282.581 523.506,275.839 512.586,275.839C501.583,275.839 493.592,282.581 493.592,291.916C493.592,297.586 495.923,301.171 501.25,304.001C494.422,307.746 491.592,312.163 491.592,319.167C491.592,330.336 500.167,338.078 512.586,338.078C524.922,338.078 533.498,330.336 533.498,319.167C533.498,312.163 530.667,307.746 523.84,304.001L523.839,304.001ZM512.67,285.245C517.84,285.245 521.425,288.414 521.425,293C521.425,297.503 517.756,300.755 512.67,300.755C507.417,300.755 503.831,297.586 503.831,292.917C503.831,288.414 507.417,285.245 512.67,285.245ZM512.503,308.661C518.256,308.661 521.842,312.497 521.842,318.667C521.842,324.337 518.173,328.089 512.503,328.089C506.833,328.089 503.248,324.337 503.248,318.5C503.248,312.497 506.833,308.661 512.503,308.661Z" style="fill:#fff;fill-rule:nonzero;"/>
        <path d="M697.891,311.62L685.816,311.62L685.816,299.545L681.74,299.545L681.74,311.62L669.665,311.62L669.665,315.696L681.74,315.696L681.74,327.771L685.816,327.771L685.816,315.696L697.891,315.696L697.891,311.62Z" style="fill:#727272;fill-rule:nonzero;"/>
        <path d="M736.457,284.67L736.457,314.593C736.457,317.977 736.106,319.903 735.114,321.361C734.064,322.995 732.079,323.987 729.92,323.987C725.834,323.987 723.558,321.245 723.558,316.285L723.558,313.543L718.023,313.543L718.023,317.277C718.023,324.162 722.567,328.53 729.861,328.53C737.272,328.53 741.874,323.929 741.874,316.577L741.874,284.67L736.457,284.67Z" style="fill:#727272;fill-rule:nonzero;"/>
        <path d="M778.398,284.67L778.398,314.535C778.398,320.253 774.255,323.754 767.428,323.754C764.277,323.754 761.709,322.995 759.667,321.537C757.566,319.903 756.574,317.744 756.574,314.535L756.574,284.67L751.157,284.67L751.157,314.535C751.157,323.17 757.333,328.53 767.428,328.53C777.406,328.53 783.816,323.054 783.816,314.535L783.816,284.67L778.398,284.67Z" style="fill:#727272;fill-rule:nonzero;"/>
        <path d="M793.507,327.188L809.895,327.188C820.631,327.188 827.216,319.145 827.216,305.9C827.216,292.714 820.69,284.67 809.895,284.67L793.507,284.67L793.507,327.188ZM798.924,322.412L798.924,289.446L808.961,289.446C817.364,289.446 821.798,295.106 821.798,305.958C821.798,316.752 817.364,322.412 808.961,322.412L798.924,322.412Z" style="fill:#727272;fill-rule:nonzero;"/>
        <path d="M871.783,304.737L854.049,304.737L854.049,309.513L866.999,309.513L866.999,310.68C866.999,318.267 861.399,323.754 853.641,323.754C849.324,323.754 845.416,322.178 842.908,319.435C840.108,316.4 838.416,311.322 838.416,306.077C838.416,295.633 844.366,288.746 853.349,288.746C859.824,288.746 864.491,292.073 865.658,297.559L871.199,297.559C869.683,288.921 863.149,283.97 853.408,283.97C848.216,283.97 844.016,285.31 840.691,288.047C835.736,292.131 832.998,298.726 832.998,306.368C832.998,319.435 840.983,328.53 852.474,328.53C858.249,328.53 862.799,326.375 866.999,321.769L868.341,327.423L871.783,327.423L871.783,304.737Z" style="fill:#727272;fill-rule:nonzero;"/>
        <path d="M886.483,307.821L909.641,307.821L909.641,303.045L886.483,303.045L886.483,289.446L910.516,289.446L910.516,284.67L881.065,284.67L881.065,327.188L911.566,327.188L911.566,322.412L886.483,322.412L886.483,307.821Z" style="fill:#727272;fill-rule:nonzero;"/>
        <path d="M944.699,284.67C938.868,292.305 935.198,302.921 935.198,312.08C935.198,321.296 938.868,331.913 944.699,339.555L947.908,339.555C942.774,331.213 939.916,321.413 939.916,312.08C939.916,302.805 942.774,292.946 947.908,284.67L944.699,284.67Z" style="fill:#727272;fill-rule:nonzero;"/>
        <rect x="956.198" y="284.67" width="5.476" height="42.518" style="fill:#727272;fill-rule:nonzero;"/>
        <path d="M977.249,307.821L997.549,307.821L997.549,303.045L977.249,303.045L977.249,289.446L1000.35,289.446L1000.35,284.67L971.832,284.67L971.832,327.188L977.249,327.188L977.249,307.821Z" style="fill:#727272;fill-rule:nonzero;"/>
        <path d="M1029.11,307.821L1052.27,307.821L1052.27,303.045L1029.11,303.045L1029.11,289.446L1053.14,289.446L1053.14,284.67L1023.69,284.67L1023.69,327.188L1054.19,327.188L1054.19,322.412L1029.11,322.412L1029.11,307.821Z" style="fill:#727272;fill-rule:nonzero;"/>
        <path d="M1085.05,314.413L1089.43,327.188L1095.5,327.188L1080.56,284.67L1073.56,284.67L1058.39,327.188L1064.17,327.188L1068.66,314.413L1085.05,314.413ZM1083.54,309.87L1070,309.87L1077,290.498L1083.54,309.87Z" style="fill:#727272;fill-rule:nonzero;"/>
        <path d="M1107.16,308.871L1121.16,308.871C1126.01,308.871 1128.16,311.206 1128.16,316.458L1128.11,320.251C1128.11,322.877 1128.57,325.445 1129.33,327.188L1135.92,327.188L1135.92,325.854C1133.88,324.453 1133.47,322.936 1133.35,317.275C1133.29,310.272 1132.18,308.172 1127.58,306.192C1132.36,303.803 1134.28,300.944 1134.28,296.041C1134.28,288.689 1129.74,284.67 1121.34,284.67L1101.74,284.67L1101.74,327.188L1107.16,327.188L1107.16,308.871ZM1107.16,304.095L1107.16,289.446L1120.29,289.446C1123.32,289.446 1125.07,289.913 1126.41,291.08C1127.87,292.306 1128.63,294.232 1128.63,296.742C1128.63,301.819 1126.06,304.095 1120.29,304.095L1107.16,304.095Z" style="fill:#727272;fill-rule:nonzero;"/>
        <path d="M1148.11,284.67L1142.69,284.67L1142.69,327.188L1169.11,327.188L1169.11,322.412L1148.11,322.412L1148.11,284.67Z" style="fill:#727272;fill-rule:nonzero;"/>
        <path d="M1185.91,310.509L1201.89,284.67L1195.42,284.67L1183.29,305.375L1170.81,284.67L1164.1,284.67L1180.49,310.509L1180.49,327.188L1185.91,327.188L1185.91,310.509Z" style="fill:#727272;fill-rule:nonzero;"/>
        <path d="M1208.43,339.555C1214.26,331.913 1217.93,321.296 1217.93,312.138C1217.93,302.921 1214.26,292.305 1208.43,284.67L1205.22,284.67C1210.36,293.005 1213.21,302.805 1213.21,312.138C1213.21,321.413 1210.36,331.271 1205.22,339.555L1208.43,339.555Z" style="fill:#727272;fill-rule:nonzero;"/>
    </g>
    <path id="_3_ANCHOR" serif:id="3_ANCHOR" d="M1798.7,568.75C1796.29,563.234 1790.78,559.375 1784.38,559.375C1775.75,559.375 1768.75,566.376 1768.75,575C1768.75,583.624 1775.75,590.625 1784.38,590.625C1790.78,590.625 1796.29,586.766 1798.7,581.25L1978.12,581.827L1978.12,569.327L1798.7,568.75Z" style="fill:#ff8fbc;"/>
    <path d="M1803.9,559.392L1978.15,559.952C1983.32,559.969 1987.5,564.161 1987.5,569.327L1987.5,581.827C1987.5,584.319 1986.51,586.708 1984.74,588.467C1982.98,590.226 1980.59,591.21 1978.1,591.202C1978.1,591.202 1803.87,590.642 1803.87,590.64C1799.29,596.346 1792.26,600 1784.38,600C1770.58,600 1759.38,588.798 1759.38,575C1759.38,561.202 1770.58,550 1784.38,550C1792.27,550 1799.32,553.667 1803.9,559.392ZM1798.7,568.75C1796.29,563.234 1790.78,559.375 1784.38,559.375C1775.75,559.375 1768.75,566.376 1768.75,575C1768.75,583.624 1775.75,590.625 1784.38,590.625C1790.78,590.625 1796.29,586.766 1798.7,581.25L1978.12,581.827L1978.12,569.327L1798.7,568.75Z" style="fill:#fff;"/>
    <g id="_31" serif:id="3">
        <rect x="1971.88" y="531.25" width="759.375" height="87.5" style="fill:#fff;"/>
        <path d="M2740.62,628.125L1865.62,628.125L1865.62,521.875L2740.62,521.875L2740.62,628.125ZM1971.88,618.75C2208.52,618.75 2731.25,618.75 2731.25,618.75L2731.25,531.25C2681.24,531.25 2186.97,531.25 1971.88,531.25L1971.88,618.75Z" style="fill:#ff8fbc;"/>
        <path d="M1914.09,578.501C1918.59,578.501 1918.84,578.501 1920.92,579.084C1924.84,580.168 1927.34,583.585 1927.34,587.92C1927.34,593.171 1923.67,596.839 1918.59,596.839C1913.09,596.839 1910.09,593.671 1909.76,587.586L1898.42,587.586C1898.51,599.419 1906.17,606.828 1918.34,606.828C1930.92,606.828 1939,599.419 1939,587.92C1939,581.001 1936,576.5 1929.34,573.249C1934.75,569.832 1937.08,566.081 1937.08,560.663C1937.08,550.832 1929.75,544.589 1918.34,544.589C1909.76,544.589 1903.17,548.334 1900.59,554.745C1899.51,557.579 1899.17,559.496 1899.17,564.414L1910.01,564.414C1910.09,561.247 1910.34,559.663 1910.92,558.162C1912.01,555.578 1914.67,553.995 1918.09,553.995C1922.76,553.995 1925.42,556.829 1925.42,561.747C1925.42,567.748 1922.01,570.665 1915.09,570.665L1914.09,570.665L1914.09,578.501Z" style="fill:#fff;fill-rule:nonzero;"/>
        <rect x="2116.05" y="577.745" width="13.876" height="4.193" style="fill:#727272;fill-rule:nonzero;"/>
        <path d="M2154.2,595.938L2170.58,595.938C2181.32,595.938 2187.91,587.895 2187.91,574.65C2187.91,561.464 2181.38,553.42 2170.58,553.42L2154.2,553.42L2154.2,595.938ZM2159.61,591.162L2159.61,558.196L2169.65,558.196C2178.05,558.196 2182.49,563.856 2182.49,574.708C2182.49,585.502 2178.05,591.162 2169.65,591.162L2159.61,591.162Z" style="fill:#727272;fill-rule:nonzero;"/>
        <path d="M2201.96,577.621L2215.97,577.621C2220.81,577.621 2222.97,579.956 2222.97,585.208L2222.91,589.001C2222.91,591.627 2223.38,594.195 2224.14,595.938L2230.72,595.938L2230.72,594.604C2228.68,593.203 2228.27,591.686 2228.16,586.025C2228.1,579.022 2226.99,576.922 2222.39,574.942C2227.17,572.553 2229.09,569.694 2229.09,564.791C2229.09,557.439 2224.54,553.42 2216.14,553.42L2196.55,553.42L2196.55,595.938L2201.96,595.938L2201.96,577.621ZM2201.96,572.845L2201.96,558.196L2215.09,558.196C2218.13,558.196 2219.88,558.663 2221.22,559.83C2222.68,561.056 2223.44,562.982 2223.44,565.492C2223.44,570.569 2220.87,572.845 2215.09,572.845L2201.96,572.845Z" style="fill:#727272;fill-rule:nonzero;"/>
        <path d="M2261.23,583.163L2265.61,595.938L2271.68,595.938L2256.74,553.42L2249.74,553.42L2234.58,595.938L2240.35,595.938L2244.84,583.163L2261.23,583.163ZM2259.72,578.62L2246.18,578.62L2253.18,559.248L2259.72,578.62Z" style="fill:#727272;fill-rule:nonzero;"/>
        <path d="M2313.09,595.938L2323.88,553.42L2317.82,553.42L2310,587.952L2300.32,553.42L2294.48,553.42L2285.03,587.952L2277.04,553.42L2270.97,553.42L2281.88,595.938L2287.83,595.938L2297.34,560.997L2307.14,595.938L2313.09,595.938Z" style="fill:#727272;fill-rule:nonzero;"/>
        <path d="M2354.74,553.42C2348.91,561.055 2345.24,571.671 2345.24,580.83C2345.24,590.046 2348.91,600.663 2354.74,608.305L2357.95,608.305C2352.81,599.963 2349.95,590.163 2349.95,580.83C2349.95,571.555 2352.81,561.696 2357.95,553.42L2354.74,553.42Z" style="fill:#727272;fill-rule:nonzero;"/>
        <rect x="2366.24" y="553.42" width="5.476" height="42.518" style="fill:#727272;fill-rule:nonzero;"/>
        <path d="M2387.29,576.571L2407.59,576.571L2407.59,571.795L2387.29,571.795L2387.29,558.196L2410.39,558.196L2410.39,553.42L2381.87,553.42L2381.87,595.938L2387.29,595.938L2387.29,576.571Z" style="fill:#727272;fill-rule:nonzero;"/>
        <path d="M2438.56,553.42L2433.14,553.42L2433.14,595.938L2459.56,595.938L2459.56,591.162L2438.56,591.162L2438.56,553.42Z" style="fill:#727272;fill-rule:nonzero;"/>
        <path d="M2489.49,583.163L2493.87,595.938L2499.93,595.938L2485,553.42L2478,553.42L2462.83,595.938L2468.61,595.938L2473.1,583.163L2489.49,583.163ZM2487.97,578.62L2474.44,578.62L2481.44,559.248L2487.97,578.62Z" style="fill:#727272;fill-rule:nonzero;"/>
        <path d="M2515.97,558.196L2529.91,558.196L2529.91,553.42L2496.55,553.42L2496.55,558.196L2510.55,558.196L2510.55,595.938L2515.97,595.938L2515.97,558.196Z" style="fill:#727272;fill-rule:nonzero;"/>
        <path d="M2540.65,576.571L2563.8,576.571L2563.8,571.795L2540.65,571.795L2540.65,558.196L2564.68,558.196L2564.68,553.42L2535.23,553.42L2535.23,595.938L2565.73,595.938L2565.73,591.162L2540.65,591.162L2540.65,576.571Z" style="fill:#727272;fill-rule:nonzero;"/>
        <path d="M2574.31,608.305C2580.14,600.663 2583.81,590.046 2583.81,580.888C2583.81,571.671 2580.14,561.055 2574.31,553.42L2571.1,553.42C2576.24,561.755 2579.1,571.555 2579.1,580.888C2579.1,590.163 2576.24,600.021 2571.1,608.305L2574.31,608.305Z" style="fill:#727272;fill-rule:nonzero;"/>
    </g>
    <path id="_9_ANCHOR" serif:id="9_ANCHOR" d="M1798.7,300C1796.29,294.484 1790.78,290.625 1784.38,290.625C1775.75,290.625 1768.75,297.626 1768.75,306.25C1768.75,314.874 1775.75,321.875 1784.38,321.875C1790.78,321.875 1796.29,318.016 1798.7,312.5L1978.12,313.077L1978.12,300.577L1798.7,300Z" style="fill:#ff8fbc;"/>
    <path d="M1803.9,290.642L1978.15,291.202C1983.32,291.219 1987.5,295.411 1987.5,300.577L1987.5,313.077C1987.5,315.569 1986.51,317.958 1984.74,319.717C1982.98,321.476 1980.59,322.46 1978.1,322.452C1978.1,322.452 1803.87,321.892 1803.87,321.89C1799.29,327.596 1792.26,331.25 1784.38,331.25C1770.58,331.25 1759.38,320.048 1759.38,306.25C1759.38,292.452 1770.58,281.25 1784.38,281.25C1792.27,281.25 1799.32,284.917 1803.9,290.642ZM1798.7,300C1796.29,294.484 1790.78,290.625 1784.38,290.625C1775.75,290.625 1768.75,297.626 1768.75,306.25C1768.75,314.874 1775.75,321.875 1784.38,321.875C1790.78,321.875 1796.29,318.016 1798.7,312.5L1978.12,313.077L1978.12,300.577L1798.7,300Z" style="fill:#fff;"/>
    <g id="_91" serif:id="9">
        <rect x="1971.88" y="262.5" width="759.375" height="87.5" style="fill:#fff;"/>
        <path d="M2740.62,359.375L1865.62,359.375L1865.62,253.125L2740.62,253.125L2740.62,359.375ZM1971.88,350C2208.52,350 2731.25,350 2731.25,350L2731.25,262.5C2681.24,262.5 2186.97,262.5 1971.88,262.5L1971.88,350Z" style="fill:#ff8fbc;"/>
        <path d="M1899.17,322.416C1899.42,331.502 1907.08,338.161 1917.25,338.161C1924.83,338.161 1930.58,334.998 1934.08,329.004C1937.16,323.751 1939,314.831 1939,305.338C1939,296.667 1937.66,289.997 1934.91,285.495C1931.16,279.168 1925.33,275.839 1918.25,275.839C1906.41,275.839 1898.34,284.329 1898.34,296.667C1898.34,308.837 1905.5,317.161 1916,317.161C1919,317.161 1921.83,316.329 1923.66,314.997C1924.75,314.248 1925.41,313.499 1927.33,311.334C1927.33,322.75 1924.16,328.172 1917.58,328.172C1913.41,328.172 1910.66,325.92 1910.41,322.416L1899.17,322.416ZM1917.91,285.328C1923.58,285.328 1927.08,289.663 1927.08,296.667C1927.08,303.17 1923.5,307.505 1918.08,307.505C1912.75,307.505 1909.41,303.337 1909.41,296.5C1909.41,289.663 1912.66,285.328 1917.91,285.328Z" style="fill:#fff;fill-rule:nonzero;"/>
        <path d="M2115.11,311.62L2103.03,311.62L2103.03,299.545L2098.95,299.545L2098.95,311.62L2086.88,311.62L2086.88,315.696L2098.95,315.696L2098.95,327.771L2103.03,327.771L2103.03,315.696L2115.11,315.696L2115.11,311.62Z" style="fill:#727272;fill-rule:nonzero;"/>
        <path d="M2139.44,327.188L2155.82,327.188C2166.56,327.188 2173.15,319.145 2173.15,305.9C2173.15,292.714 2166.62,284.67 2155.82,284.67L2139.44,284.67L2139.44,327.188ZM2144.86,322.412L2144.86,289.446L2154.89,289.446C2163.29,289.446 2167.73,295.106 2167.73,305.958C2167.73,316.752 2163.29,322.412 2154.89,322.412L2144.86,322.412Z" style="fill:#727272;fill-rule:nonzero;"/>
        <path d="M2187.2,308.871L2201.21,308.871C2206.05,308.871 2208.21,311.206 2208.21,316.458L2208.15,320.251C2208.15,322.877 2208.62,325.445 2209.38,327.188L2215.96,327.188L2215.96,325.854C2213.92,324.453 2213.51,322.936 2213.4,317.275C2213.34,310.272 2212.23,308.172 2207.63,306.192C2212.41,303.803 2214.33,300.944 2214.33,296.041C2214.33,288.689 2209.79,284.67 2201.38,284.67L2181.79,284.67L2181.79,327.188L2187.2,327.188L2187.2,308.871ZM2187.2,304.095L2187.2,289.446L2200.33,289.446C2203.37,289.446 2205.12,289.913 2206.46,291.08C2207.92,292.306 2208.68,294.232 2208.68,296.742C2208.68,301.819 2206.11,304.095 2200.33,304.095L2187.2,304.095Z" style="fill:#727272;fill-rule:nonzero;"/>
        <path d="M2246.47,314.413L2250.85,327.188L2256.92,327.188L2241.98,284.67L2234.98,284.67L2219.82,327.188L2225.59,327.188L2230.08,314.413L2246.47,314.413ZM2244.96,309.87L2231.43,309.87L2238.43,290.498L2244.96,309.87Z" style="fill:#727272;fill-rule:nonzero;"/>
        <path d="M2298.33,327.188L2309.12,284.67L2303.06,284.67L2295.24,319.202L2285.56,284.67L2279.72,284.67L2270.28,319.202L2262.28,284.67L2256.22,284.67L2267.12,327.188L2273.08,327.188L2282.58,292.247L2292.38,327.188L2298.33,327.188Z" style="fill:#727272;fill-rule:nonzero;"/>
        <path d="M2339.98,284.67C2334.15,292.305 2330.48,302.921 2330.48,312.08C2330.48,321.296 2334.15,331.913 2339.98,339.555L2343.19,339.555C2338.05,331.213 2335.2,321.413 2335.2,312.08C2335.2,302.805 2338.05,292.946 2343.19,284.67L2339.98,284.67Z" style="fill:#727272;fill-rule:nonzero;"/>
        <rect x="2351.48" y="284.67" width="5.476" height="42.518" style="fill:#727272;fill-rule:nonzero;"/>
        <path d="M2372.53,307.821L2392.83,307.821L2392.83,303.045L2372.53,303.045L2372.53,289.446L2395.63,289.446L2395.63,284.67L2367.11,284.67L2367.11,327.188L2372.53,327.188L2372.53,307.821Z" style="fill:#727272;fill-rule:nonzero;"/>
        <path d="M2424.39,307.821L2447.55,307.821L2447.55,303.045L2424.39,303.045L2424.39,289.446L2448.42,289.446L2448.42,284.67L2418.97,284.67L2418.97,327.188L2449.47,327.188L2449.47,322.412L2424.39,322.412L2424.39,307.821Z" style="fill:#727272;fill-rule:nonzero;"/>
        <path d="M2480.33,314.413L2484.71,327.188L2490.78,327.188L2475.84,284.67L2468.84,284.67L2453.68,327.188L2459.45,327.188L2463.94,314.413L2480.33,314.413ZM2478.82,309.87L2465.28,309.87L2472.28,290.498L2478.82,309.87Z" style="fill:#727272;fill-rule:nonzero;"/>
        <path d="M2502.44,308.871L2516.44,308.871C2521.29,308.871 2523.45,311.206 2523.45,316.458L2523.39,320.251C2523.39,322.877 2523.85,325.445 2524.61,327.188L2531.2,327.188L2531.2,325.854C2529.16,324.453 2528.75,322.936 2528.63,317.275C2528.57,310.272 2527.47,308.172 2522.86,306.192C2527.64,303.803 2529.56,300.944 2529.56,296.041C2529.56,288.689 2525.02,284.67 2516.62,284.67L2497.02,284.67L2497.02,327.188L2502.44,327.188L2502.44,308.871ZM2502.44,304.095L2502.44,289.446L2515.57,289.446C2518.6,289.446 2520.35,289.913 2521.69,291.08C2523.15,292.306 2523.91,294.232 2523.91,296.742C2523.91,301.819 2521.34,304.095 2515.57,304.095L2502.44,304.095Z" style="fill:#727272;fill-rule:nonzero;"/>
        <path d="M2543.39,284.67L2537.97,284.67L2537.97,327.188L2564.39,327.188L2564.39,322.412L2543.39,322.412L2543.39,284.67Z" style="fill:#727272;fill-rule:nonzero;"/>
        <path d="M2581.19,310.509L2597.17,284.67L2590.7,284.67L2578.57,305.375L2566.09,284.67L2559.38,284.67L2575.77,310.509L2575.77,327.188L2581.19,327.188L2581.19,310.509Z" style="fill:#727272;fill-rule:nonzero;"/>
        <path d="M2603.71,339.555C2609.54,331.913 2613.21,321.296 2613.21,312.138C2613.21,302.921 2609.54,292.305 2603.71,284.67L2600.5,284.67C2605.64,293.005 2608.49,302.805 2608.49,312.138C2608.49,321.413 2605.64,331.271 2600.5,339.555L2603.71,339.555Z" style="fill:#727272;fill-rule:nonzero;"/>
    </g>
    <g id="NUMS">
        <path d="M1623.89,591.306L1593.8,591.306C1595.7,587.505 1597.9,585.405 1608.31,577.903C1620.6,568.9 1624.19,563.599 1624.19,553.897C1624.19,540.197 1614.7,531.406 1599.9,531.406C1585.2,531.406 1576.61,540.097 1576.61,555.097L1576.61,557.598L1590.09,557.598L1590.09,555.297C1590.09,547.395 1593.8,542.794 1600.2,542.794C1606.4,542.794 1610.21,547.095 1610.21,554.197C1610.21,562.099 1607.81,564.999 1592,576.202C1580,584.404 1576.31,590.606 1575.71,603.794L1623.89,603.794L1623.89,591.306Z" style="fill:#727272;fill-rule:nonzero;"/>
        <path d="M1725.66,572.101C1731.06,572.101 1731.36,572.101 1733.86,572.801C1738.56,574.101 1741.56,578.202 1741.56,583.404C1741.56,589.705 1737.16,594.106 1731.06,594.106C1724.46,594.106 1720.86,590.305 1720.46,583.004L1706.86,583.004C1706.96,597.203 1716.16,606.094 1730.76,606.094C1745.85,606.094 1755.54,597.203 1755.54,583.404C1755.54,575.102 1751.95,569.7 1743.95,565.799C1750.45,561.698 1753.24,557.197 1753.24,550.696C1753.24,538.898 1744.45,531.406 1730.76,531.406C1720.46,531.406 1712.56,535.901 1709.46,543.594C1708.16,546.995 1707.76,549.295 1707.76,555.197L1720.76,555.197C1720.86,551.396 1721.16,549.495 1721.86,547.695C1723.16,544.594 1726.36,542.694 1730.46,542.694C1736.06,542.694 1739.26,546.095 1739.26,551.996C1739.26,559.198 1735.16,562.699 1726.86,562.699L1725.66,562.699L1725.66,572.101Z" style="fill:#727272;fill-rule:nonzero;"/>
        <path d="M1493.64,442.131L1486.24,442.131L1486.24,398.531L1469.76,398.531L1443.86,441.931L1443.86,453.719L1472.26,453.719L1472.26,469.419L1486.24,469.419L1486.24,453.719L1493.64,453.719L1493.64,442.131ZM1472.26,442.131L1453.76,442.131L1472.26,411.831L1472.26,442.131Z" style="fill:#727272;fill-rule:nonzero;"/>
        <path d="M1621.6,398.531L1583.71,398.531L1577.41,438.021L1590.01,438.021C1591.51,434.52 1594.71,432.619 1599.01,432.619C1606.11,432.619 1610.41,437.721 1610.41,446.325C1610.41,454.629 1606.11,459.731 1599.01,459.731C1592.91,459.731 1589.51,456.63 1589.21,450.927L1575.41,450.927C1575.61,463.327 1585.01,471.719 1598.81,471.719C1614,471.719 1624.39,461.33 1624.39,446.025C1624.39,431.42 1615.4,421.531 1602.31,421.531C1597.61,421.531 1594.11,422.73 1590.01,425.826L1592.31,411.019L1621.6,411.019L1621.6,398.531Z" style="fill:#727272;fill-rule:nonzero;"/>
        <path d="M1754.64,414.624C1753.94,410.02 1753.05,407.719 1751.25,405.122C1747.55,400.028 1741.06,397.031 1733.35,397.031C1724.55,397.031 1717.35,400.927 1713.05,408.019C1708.86,414.924 1707.16,422.831 1707.16,435.72C1707.16,447.925 1708.65,455.529 1712.25,461.23C1716.35,467.823 1723.75,471.719 1732.15,471.719C1746.25,471.719 1755.84,461.23 1755.84,445.724C1755.84,432.121 1747.45,422.731 1735.25,422.731C1729.45,422.731 1725.55,424.429 1721.14,429.024L1721.24,427.526C1721.44,420.93 1721.74,418.828 1722.75,416.126C1724.65,410.921 1728.05,408.319 1732.95,408.319C1737.45,408.319 1739.86,410.12 1741.66,414.624L1754.64,414.624ZM1731.75,433.819C1738.35,433.819 1742.56,438.821 1742.56,446.725C1742.56,454.229 1737.95,459.731 1731.75,459.731C1725.35,459.731 1720.94,454.529 1720.94,446.925C1720.94,439.221 1725.35,433.819 1731.75,433.819Z" style="fill:#727272;fill-rule:nonzero;"/>
        <path d="M1613.6,296.451C1616,295.153 1617.1,294.454 1618.2,293.455C1621.1,290.755 1622.79,286.452 1622.79,281.849C1622.79,270.747 1613.2,262.656 1600.1,262.656C1586.9,262.656 1577.31,270.747 1577.31,281.949C1577.31,288.754 1580.1,293.056 1586.5,296.451C1578.3,300.945 1574.91,306.246 1574.91,314.651C1574.91,328.053 1585.2,337.344 1600.1,337.344C1614.9,337.344 1625.19,328.053 1625.19,314.651C1625.19,306.246 1621.8,300.945 1613.6,296.451L1613.6,296.451ZM1600.2,273.944C1606.4,273.944 1610.71,277.746 1610.71,283.25C1610.71,288.654 1606.3,292.556 1600.2,292.556C1593.9,292.556 1589.59,288.754 1589.59,283.15C1589.59,277.746 1593.9,273.944 1600.2,273.944ZM1600,302.044C1606.9,302.044 1611.21,306.646 1611.21,314.05C1611.21,320.854 1606.8,325.356 1600,325.356C1593.2,325.356 1588.89,320.854 1588.89,313.85C1588.89,306.646 1593.2,302.044 1600,302.044Z" style="fill:#727272;fill-rule:nonzero;"/>
        <path d="M1707.76,318.55C1708.06,329.452 1717.25,337.444 1729.44,337.444C1738.54,337.444 1745.44,333.648 1749.64,326.455C1753.34,320.151 1755.54,309.447 1755.54,298.055C1755.54,287.65 1753.94,279.646 1750.64,274.244C1746.14,266.652 1739.14,262.656 1730.64,262.656C1716.45,262.656 1706.76,272.845 1706.76,287.65C1706.76,302.255 1715.35,312.244 1727.94,312.244C1731.54,312.244 1734.94,311.245 1737.14,309.647C1738.44,308.748 1739.24,307.849 1741.54,305.251C1741.54,318.95 1737.74,325.456 1729.84,325.456C1724.84,325.456 1721.54,322.754 1721.24,318.55L1707.76,318.55ZM1730.24,274.044C1737.04,274.044 1741.24,279.246 1741.24,287.65C1741.24,295.454 1736.94,300.656 1730.44,300.656C1724.04,300.656 1720.04,295.654 1720.04,287.45C1720.04,279.246 1723.94,274.044 1730.24,274.044Z" style="fill:#727272;fill-rule:nonzero;"/>
        <path d="M1468.75,665.781C1461.14,665.781 1454.65,668.978 1450.35,674.871C1446.26,680.37 1444.36,689.372 1444.36,703.175C1444.36,715.778 1445.95,724.58 1449.35,729.98C1453.55,736.773 1460.44,740.469 1468.75,740.469C1476.45,740.469 1482.75,737.372 1487.15,731.478C1491.14,725.981 1493.14,716.878 1493.14,703.575C1493.14,690.572 1491.55,681.77 1488.15,676.27C1483.95,669.477 1477.06,665.781 1468.75,665.781ZM1468.75,677.069C1472.35,677.069 1475.25,679.069 1476.95,682.77C1478.36,685.771 1479.16,693.473 1479.16,703.275C1479.16,711.277 1478.46,719.079 1477.36,721.98C1475.75,726.181 1472.75,728.481 1468.75,728.481C1465.05,728.481 1462.25,726.581 1460.55,722.98C1459.14,719.979 1458.34,712.577 1458.34,703.075C1458.34,694.673 1459.04,686.671 1460.14,683.77C1461.65,679.469 1464.75,677.069 1468.75,677.069Z" style="fill:#727272;fill-rule:nonzero;"/>
    </g>
</svg>
