<?xml version="1.0" encoding="UTF-8" standalone="no"?>
<!DOCTYPE svg PUBLIC "-//W3C//DTD SVG 1.1//EN" "http://www.w3.org/Graphics/SVG/1.1/DTD/svg11.dtd">
<svg width="100%" height="100%" viewBox="0 0 3200 1216" version="1.1" xmlns="http://www.w3.org/2000/svg" xmlns:xlink="http://www.w3.org/1999/xlink" xml:space="preserve" xmlns:serif="http://www.serif.com/" style="fill-rule:evenodd;clip-rule:evenodd;stroke-linejoin:round;stroke-miterlimit:2;">
    <rect id="PLAY" x="0" y="0" width="3200" height="1215.62" style="fill:none;"/>
    <clipPath id="_clip1">
        <rect x="0" y="0" width="3200" height="1215.62"/>
    </clipPath>
    <g clip-path="url(#_clip1)">
        <g id="QUICK">
            <rect x="718.75" y="1118.75" width="1556.25" height="87.5" style="fill:#fff;"/>
            <path d="M2287.5,1215.62L0,1215.62L0,1109.38L2287.5,1109.38L2287.5,1215.62ZM718.75,1206.25C955.393,1206.25 2275,1206.25 2275,1206.25L2275,1118.75C2224.99,1118.75 933.85,1118.75 718.75,1118.75L718.75,1206.25Z" style="fill:#e4d68b;"/>
            <path d="M104.038,1148.6C103.955,1136.02 95.546,1129.11 80.208,1129.11C65.623,1129.11 57.214,1135.94 57.214,1147.77C57.214,1157.19 61.959,1161.77 74.289,1164.11L82.792,1165.77C91.129,1167.36 94.214,1169.69 94.214,1174.61C94.214,1179.69 89.545,1182.78 81.958,1182.78C73.455,1182.78 68.704,1179.19 68.287,1172.69L56.13,1172.69C56.88,1185.69 65.789,1192.77 81.291,1192.77C96.961,1192.77 106.203,1185.52 106.203,1173.11C106.203,1163.52 101.374,1158.52 90.128,1156.35L80.625,1154.52C71.704,1152.77 69.12,1151.02 69.12,1146.6C69.12,1142.02 73.121,1139.1 79.624,1139.1C87.544,1139.1 91.963,1142.43 92.379,1148.6L104.038,1148.6Z" style="fill:#fff;fill-rule:nonzero;"/>
            <path d="M140.62,1140.52L158.37,1140.52L158.37,1130.11L109.714,1130.11L109.714,1140.52L128.13,1140.52L128.13,1190.85L140.62,1190.85L140.62,1140.52Z" style="fill:#fff;fill-rule:nonzero;"/>
            <path d="M193.958,1178.6L197.958,1190.85L210.792,1190.85L189.792,1130.11L175.958,1130.11L154.375,1190.85L167.125,1190.85L171.208,1178.6L193.958,1178.6ZM190.542,1168.19L174.708,1168.19L182.625,1144.44L190.542,1168.19Z" style="fill:#fff;fill-rule:nonzero;"/>
            <path d="M231.536,1166.77L245.876,1166.77C251.295,1166.77 253.63,1168.93 253.63,1173.94L253.63,1176.44C253.546,1178.02 253.546,1179.52 253.546,1180.44C253.546,1186.19 253.88,1187.94 255.38,1190.85L268.786,1190.85L268.786,1188.61C266.871,1187.53 266.121,1186.28 266.121,1183.61C265.788,1165.68 265.455,1164.85 257.712,1161.52C264.539,1158.86 267.953,1153.94 267.953,1146.52C267.953,1141.68 266.288,1137.27 263.374,1134.27C260.626,1131.44 256.796,1130.11 251.629,1130.11L219.047,1130.11L219.047,1190.85L231.536,1190.85L231.536,1166.77ZM231.536,1156.36L231.536,1140.52L246.626,1140.52C250.211,1140.52 251.629,1140.85 253.213,1142.1C254.713,1143.35 255.464,1145.44 255.464,1148.27C255.464,1151.19 254.713,1153.52 253.213,1154.78C251.795,1155.94 250.211,1156.36 246.626,1156.36L231.536,1156.36Z" style="fill:#fff;fill-rule:nonzero;"/>
            <path d="M304.536,1140.52L322.286,1140.52L322.286,1130.11L273.63,1130.11L273.63,1140.52L292.047,1140.52L292.047,1190.85L304.536,1190.85L304.536,1140.52Z" style="fill:#fff;fill-rule:nonzero;"/>
            <path d="M367.786,1166.61L352.62,1166.61L352.62,1151.44L342.714,1151.44L342.714,1166.61L327.547,1166.61L327.547,1176.52L342.714,1176.52L342.714,1191.68L352.62,1191.68L352.62,1176.52L367.786,1176.52L367.786,1166.61Z" style="fill:#fff;fill-rule:nonzero;"/>
            <path d="M390.703,1164.68L417.286,1164.68L417.286,1154.28L390.703,1154.28L390.703,1140.52L420.87,1140.52L420.87,1130.11L378.214,1130.11L378.214,1190.85L390.703,1190.85L390.703,1164.68Z" style="fill:#fff;fill-rule:nonzero;"/>
            <path d="M457.875,1159.85L476.625,1130.11L462.125,1130.11L450.958,1150.1L440.292,1130.11L425.458,1130.11L443.958,1160.27L424.792,1190.85L439.292,1190.85L450.875,1169.77L462.542,1190.85L477.375,1190.85L457.875,1159.85Z" style="fill:#fff;fill-rule:nonzero;"/>
            <rect x="478.375" y="1162.36" width="22.667" height="11.24" style="fill:#fff;fill-rule:nonzero;"/>
            <path d="M523.12,1130.11L510.63,1130.11L510.63,1190.85L552.203,1190.85L552.203,1180.44L523.12,1180.44L523.12,1130.11Z" style="fill:#fff;fill-rule:nonzero;"/>
            <path d="M599.286,1166.61L584.12,1166.61L584.12,1151.44L574.214,1151.44L574.214,1166.61L559.047,1166.61L559.047,1176.52L574.214,1176.52L574.214,1191.68L584.12,1191.68L584.12,1176.52L599.286,1176.52L599.286,1166.61Z" style="fill:#fff;fill-rule:nonzero;"/>
            <path d="M622.703,1166.77L637.043,1166.77C642.462,1166.77 644.796,1168.93 644.796,1173.94L644.796,1176.44C644.713,1178.02 644.713,1179.52 644.713,1180.44C644.713,1186.19 645.046,1187.94 646.547,1190.85L659.953,1190.85L659.953,1188.61C658.037,1187.53 657.288,1186.28 657.288,1183.61C656.955,1165.68 656.622,1164.85 648.878,1161.52C655.706,1158.86 659.12,1153.94 659.12,1146.52C659.12,1141.68 657.454,1137.27 654.54,1134.27C651.793,1131.44 647.962,1130.11 642.795,1130.11L610.214,1130.11L610.214,1190.85L622.703,1190.85L622.703,1166.77ZM622.703,1156.36L622.703,1140.52L637.793,1140.52C641.378,1140.52 642.795,1140.85 644.379,1142.1C645.88,1143.35 646.63,1145.44 646.63,1148.27C646.63,1151.19 645.88,1153.52 644.379,1154.78C642.962,1155.94 641.378,1156.36 637.793,1156.36L622.703,1156.36Z" style="fill:#fff;fill-rule:nonzero;"/>
            <path d="M782.52,1162.51L782.52,1181.88L787.938,1181.88L787.938,1139.36L782.52,1139.36L782.52,1157.73L760.638,1157.73L760.638,1139.36L755.22,1139.36L755.22,1181.88L760.638,1181.88L760.638,1162.51L782.52,1162.51Z" style="fill:#727272;fill-rule:nonzero;"/>
            <path d="M815.183,1138.66C802.989,1138.66 794.712,1147.63 794.712,1160.94C794.712,1174.3 802.93,1183.22 815.242,1183.22C820.435,1183.22 824.986,1181.64 828.428,1178.73C833.033,1174.82 835.771,1168.23 835.771,1161.29C835.771,1147.58 827.67,1138.66 815.183,1138.66ZM815.183,1143.43C824.402,1143.43 830.354,1150.38 830.354,1161.17C830.354,1171.44 824.227,1178.44 815.242,1178.44C806.139,1178.44 800.13,1171.44 800.13,1160.94C800.13,1150.43 806.139,1143.43 815.183,1143.43Z" style="fill:#727272;fill-rule:nonzero;"/>
            <path d="M847.963,1139.36L842.545,1139.36L842.545,1181.88L868.963,1181.88L868.963,1177.1L847.963,1177.1L847.963,1139.36Z" style="fill:#727272;fill-rule:nonzero;"/>
            <path d="M875.504,1181.88L891.892,1181.88C902.628,1181.88 909.213,1173.83 909.213,1160.59C909.213,1147.4 902.687,1139.36 891.892,1139.36L875.504,1139.36L875.504,1181.88ZM880.921,1177.1L880.921,1144.13L890.958,1144.13C899.361,1144.13 903.795,1149.79 903.795,1160.65C903.795,1171.44 899.361,1177.1 890.958,1177.1L880.921,1177.1Z" style="fill:#727272;fill-rule:nonzero;"/>
            <path d="M924.905,1175.82L918.845,1175.82L918.845,1181.88L924.905,1181.88L924.905,1175.82ZM924.905,1151.32L918.845,1151.32L918.845,1157.38L924.905,1157.38L924.905,1151.32Z" style="fill:#727272;fill-rule:nonzero;"/>
            <path d="M987.614,1181.94L982.137,1177.45C986.157,1173.02 988.138,1167.59 988.138,1160.82C988.138,1147.58 979.861,1138.66 967.608,1138.66C955.297,1138.66 947.079,1147.58 947.079,1160.94C947.079,1174.24 955.297,1183.22 967.608,1183.22C971.868,1183.22 975.31,1182.29 978.753,1180.25L984.876,1185.32L987.614,1181.94ZM972.918,1169.92L970.234,1173.19L974.552,1176.81C972.043,1178.03 970.117,1178.44 967.55,1178.44C958.506,1178.44 952.496,1171.44 952.496,1160.94C952.496,1150.43 958.506,1143.43 967.608,1143.43C976.652,1143.43 982.72,1150.43 982.72,1160.88C982.72,1166.42 981.262,1170.62 978.111,1174.18L972.918,1169.92Z" style="fill:#727272;fill-rule:nonzero;"/>
            <path d="M1022.21,1139.36L1022.21,1169.22C1022.21,1174.94 1018.07,1178.44 1011.24,1178.44C1008.09,1178.44 1005.52,1177.68 1003.48,1176.22C1001.38,1174.59 1000.39,1172.43 1000.39,1169.22L1000.39,1139.36L994.97,1139.36L994.97,1169.22C994.97,1177.86 1001.15,1183.22 1011.24,1183.22C1021.22,1183.22 1027.63,1177.74 1027.63,1169.22L1027.63,1139.36L1022.21,1139.36Z" style="fill:#727272;fill-rule:nonzero;"/>
            <rect x="1037.96" y="1139.36" width="5.476" height="42.518" style="fill:#727272;fill-rule:nonzero;"/>
            <path d="M1086.95,1152.54C1085.26,1143.2 1079.9,1138.66 1070.56,1138.66C1064.85,1138.66 1060.24,1140.46 1057.09,1143.96C1053.24,1148.16 1051.14,1154.23 1051.14,1161.11C1051.14,1168.11 1053.3,1174.12 1057.26,1178.27C1060.59,1181.64 1064.79,1183.22 1070.33,1183.22C1080.71,1183.22 1086.55,1177.62 1087.83,1166.36L1082.23,1166.36C1081.76,1169.28 1081.18,1171.27 1080.31,1172.96C1078.56,1176.46 1074.94,1178.44 1070.39,1178.44C1061.93,1178.44 1056.56,1171.67 1056.56,1161.05C1056.56,1150.14 1061.64,1143.43 1069.92,1143.43C1073.36,1143.43 1076.57,1144.43 1078.32,1146.12C1079.9,1147.58 1080.77,1149.33 1081.41,1152.54L1086.95,1152.54Z" style="fill:#727272;fill-rule:nonzero;"/>
            <path d="M1099.9,1167.01L1106.85,1160.06L1121.84,1181.88L1128.26,1181.88L1110.76,1156.68L1128.08,1139.36L1121.08,1139.36L1099.9,1160.88L1099.9,1139.36L1094.49,1139.36L1094.49,1181.88L1099.9,1181.88L1099.9,1167.01Z" style="fill:#727272;fill-rule:nonzero;"/>
            <path d="M1155.85,1163.56L1169.85,1163.56C1174.69,1163.56 1176.85,1165.89 1176.85,1171.15L1176.8,1174.94C1176.8,1177.57 1177.26,1180.13 1178.02,1181.88L1184.61,1181.88L1184.61,1180.54C1182.56,1179.14 1182.16,1177.62 1182.04,1171.96C1181.98,1164.96 1180.87,1162.86 1176.27,1160.88C1181.05,1158.49 1182.97,1155.63 1182.97,1150.73C1182.97,1143.38 1178.43,1139.36 1170.03,1139.36L1150.43,1139.36L1150.43,1181.88L1155.85,1181.88L1155.85,1163.56ZM1155.85,1158.78L1155.85,1144.13L1168.98,1144.13C1172.01,1144.13 1173.76,1144.6 1175.1,1145.77C1176.56,1146.99 1177.32,1148.92 1177.32,1151.43C1177.32,1156.51 1174.75,1158.78 1168.98,1158.78L1155.85,1158.78Z" style="fill:#727272;fill-rule:nonzero;"/>
            <path d="M1197.09,1162.51L1220.25,1162.51L1220.25,1157.73L1197.09,1157.73L1197.09,1144.13L1221.12,1144.13L1221.12,1139.36L1191.67,1139.36L1191.67,1181.88L1222.17,1181.88L1222.17,1177.1L1197.09,1177.1L1197.09,1162.51Z" style="fill:#727272;fill-rule:nonzero;"/>
            <path d="M1245.39,1144.13L1259.33,1144.13L1259.33,1139.36L1225.97,1139.36L1225.97,1144.13L1239.97,1144.13L1239.97,1181.88L1245.39,1181.88L1245.39,1144.13Z" style="fill:#727272;fill-rule:nonzero;"/>
            <path d="M1270.12,1163.56L1284.13,1163.56C1288.97,1163.56 1291.13,1165.89 1291.13,1171.15L1291.07,1174.94C1291.07,1177.57 1291.54,1180.13 1292.29,1181.88L1298.88,1181.88L1298.88,1180.54C1296.84,1179.14 1296.43,1177.62 1296.31,1171.96C1296.26,1164.96 1295.15,1162.86 1290.55,1160.88C1295.32,1158.49 1297.25,1155.63 1297.25,1150.73C1297.25,1143.38 1292.7,1139.36 1284.3,1139.36L1264.7,1139.36L1264.7,1181.88L1270.12,1181.88L1270.12,1163.56ZM1270.12,1158.78L1270.12,1144.13L1283.25,1144.13C1286.29,1144.13 1288.04,1144.6 1289.38,1145.77C1290.84,1146.99 1291.6,1148.92 1291.6,1151.43C1291.6,1156.51 1289.03,1158.78 1283.25,1158.78L1270.12,1158.78Z" style="fill:#727272;fill-rule:nonzero;"/>
            <path d="M1321.45,1165.2L1337.44,1139.36L1330.96,1139.36L1318.83,1160.06L1306.35,1139.36L1299.64,1139.36L1316.04,1165.2L1316.04,1181.88L1321.45,1181.88L1321.45,1165.2Z" style="fill:#727272;fill-rule:nonzero;"/>
        </g>
        <g id="CRASH">
            <rect x="718.75" y="987.5" width="1556.25" height="87.5" style="fill:#fff;"/>
            <path d="M2287.5,1084.38L0,1084.38L0,978.125L2287.5,978.125L2287.5,1084.38ZM718.75,1075C955.393,1075 2275,1075 2275,1075L2275,987.5C2224.99,987.5 933.85,987.5 718.75,987.5L718.75,1075Z" style="fill:#e4d68b;"/>
            <path d="M104.038,1017.35C103.955,1004.77 95.546,997.86 80.208,997.86C65.623,997.86 57.214,1004.69 57.214,1016.52C57.214,1025.94 61.959,1030.52 74.289,1032.86L82.792,1034.52C91.129,1036.11 94.214,1038.44 94.214,1043.36C94.214,1048.44 89.545,1051.53 81.958,1051.53C73.455,1051.53 68.704,1047.94 68.287,1041.44L56.13,1041.44C56.88,1054.44 65.789,1061.52 81.291,1061.52C96.961,1061.52 106.203,1054.27 106.203,1041.86C106.203,1032.27 101.374,1027.27 90.128,1025.1L80.625,1023.27C71.704,1021.52 69.12,1019.77 69.12,1015.35C69.12,1010.77 73.121,1007.85 79.624,1007.85C87.544,1007.85 91.963,1011.18 92.379,1017.35L104.038,1017.35Z" style="fill:#fff;fill-rule:nonzero;"/>
            <path d="M140.62,1009.27L158.37,1009.27L158.37,998.86L109.714,998.86L109.714,1009.27L128.13,1009.27L128.13,1059.6L140.62,1059.6L140.62,1009.27Z" style="fill:#fff;fill-rule:nonzero;"/>
            <path d="M193.958,1047.35L197.958,1059.6L210.792,1059.6L189.792,998.86L175.958,998.86L154.375,1059.6L167.125,1059.6L171.208,1047.35L193.958,1047.35ZM190.542,1036.94L174.708,1036.94L182.625,1013.19L190.542,1036.94Z" style="fill:#fff;fill-rule:nonzero;"/>
            <path d="M231.536,1035.52L245.876,1035.52C251.295,1035.52 253.63,1037.68 253.63,1042.69L253.63,1045.19C253.546,1046.77 253.546,1048.27 253.546,1049.19C253.546,1054.94 253.88,1056.69 255.38,1059.6L268.786,1059.6L268.786,1057.36C266.871,1056.28 266.121,1055.03 266.121,1052.36C265.788,1034.43 265.455,1033.6 257.712,1030.27C264.539,1027.61 267.953,1022.69 267.953,1015.27C267.953,1010.43 266.288,1006.02 263.374,1003.02C260.626,1000.19 256.796,998.86 251.629,998.86L219.047,998.86L219.047,1059.6L231.536,1059.6L231.536,1035.52ZM231.536,1025.11L231.536,1009.27L246.626,1009.27C250.211,1009.27 251.629,1009.6 253.213,1010.85C254.713,1012.1 255.464,1014.19 255.464,1017.02C255.464,1019.94 254.713,1022.27 253.213,1023.52C251.795,1024.69 250.211,1025.11 246.626,1025.11L231.536,1025.11Z" style="fill:#fff;fill-rule:nonzero;"/>
            <path d="M304.536,1009.27L322.286,1009.27L322.286,998.86L273.63,998.86L273.63,1009.27L292.047,1009.27L292.047,1059.6L304.536,1059.6L304.536,1009.27Z" style="fill:#fff;fill-rule:nonzero;"/>
            <path d="M367.786,1035.36L352.62,1035.36L352.62,1020.19L342.714,1020.19L342.714,1035.36L327.547,1035.36L327.547,1045.27L342.714,1045.27L342.714,1060.43L352.62,1060.43L352.62,1045.27L367.786,1045.27L367.786,1035.36Z" style="fill:#fff;fill-rule:nonzero;"/>
            <path d="M390.703,1033.43L417.286,1033.43L417.286,1023.03L390.703,1023.03L390.703,1009.27L420.87,1009.27L420.87,998.86L378.214,998.86L378.214,1059.6L390.703,1059.6L390.703,1033.43Z" style="fill:#fff;fill-rule:nonzero;"/>
            <path d="M457.875,1028.6L476.625,998.86L462.125,998.86L450.958,1018.85L440.292,998.86L425.458,998.86L443.958,1029.02L424.792,1059.6L439.292,1059.6L450.875,1038.52L462.542,1059.6L477.375,1059.6L457.875,1028.6Z" style="fill:#fff;fill-rule:nonzero;"/>
            <rect x="478.375" y="1031.11" width="22.667" height="11.24" style="fill:#fff;fill-rule:nonzero;"/>
            <path d="M523.12,998.86L510.63,998.86L510.63,1059.6L552.203,1059.6L552.203,1049.19L523.12,1049.19L523.12,998.86Z" style="fill:#fff;fill-rule:nonzero;"/>
            <path d="M599.286,1035.36L584.12,1035.36L584.12,1020.19L574.214,1020.19L574.214,1035.36L559.047,1035.36L559.047,1045.27L574.214,1045.27L574.214,1060.43L584.12,1060.43L584.12,1045.27L599.286,1045.27L599.286,1035.36Z" style="fill:#fff;fill-rule:nonzero;"/>
            <path d="M622.703,1035.52L637.043,1035.52C642.462,1035.52 644.796,1037.68 644.796,1042.69L644.796,1045.19C644.713,1046.77 644.713,1048.27 644.713,1049.19C644.713,1054.94 645.046,1056.69 646.547,1059.6L659.953,1059.6L659.953,1057.36C658.037,1056.28 657.288,1055.03 657.288,1052.36C656.955,1034.43 656.622,1033.6 648.878,1030.27C655.706,1027.61 659.12,1022.69 659.12,1015.27C659.12,1010.43 657.454,1006.02 654.54,1003.02C651.793,1000.19 647.962,998.86 642.795,998.86L610.214,998.86L610.214,1059.6L622.703,1059.6L622.703,1035.52ZM622.703,1025.11L622.703,1009.27L637.793,1009.27C641.378,1009.27 642.795,1009.6 644.379,1010.85C645.88,1012.1 646.63,1014.19 646.63,1017.02C646.63,1019.94 645.88,1022.27 644.379,1023.52C642.962,1024.69 641.378,1025.11 637.793,1025.11L622.703,1025.11Z" style="fill:#fff;fill-rule:nonzero;"/>
            <path d="M771.021,1012.88L784.963,1012.88L784.963,1008.11L751.604,1008.11L751.604,1012.88L765.604,1012.88L765.604,1050.63L771.021,1050.63L771.021,1012.88Z" style="fill:#727272;fill-rule:nonzero;"/>
            <path d="M795.755,1032.31L809.759,1032.31C814.603,1032.31 816.762,1034.64 816.762,1039.9L816.703,1043.69C816.703,1046.32 817.17,1048.88 817.928,1050.63L824.513,1050.63L824.513,1049.29C822.472,1047.89 822.064,1046.37 821.948,1040.71C821.889,1033.71 820.782,1031.61 816.178,1029.63C820.957,1027.24 822.88,1024.38 822.88,1019.48C822.88,1012.13 818.336,1008.11 809.934,1008.11L790.337,1008.11L790.337,1050.63L795.755,1050.63L795.755,1032.31ZM795.755,1027.53L795.755,1012.88L808.884,1012.88C811.918,1012.88 813.669,1013.35 815.011,1014.52C816.47,1015.74 817.229,1017.67 817.229,1020.18C817.229,1025.26 814.661,1027.53 808.884,1027.53L795.755,1027.53Z" style="fill:#727272;fill-rule:nonzero;"/>
            <path d="M855.025,1037.85L859.4,1050.63L865.467,1050.63L850.533,1008.11L843.533,1008.11L828.367,1050.63L834.142,1050.63L838.633,1037.85L855.025,1037.85ZM853.508,1033.31L839.975,1033.31L846.975,1013.94L853.508,1033.31Z" style="fill:#727272;fill-rule:nonzero;"/>
            <path d="M902.855,1021.29C901.163,1011.95 895.796,1007.41 886.463,1007.41C880.746,1007.41 876.138,1009.21 872.988,1012.71C869.142,1016.91 867.045,1022.98 867.045,1029.86C867.045,1036.86 869.201,1042.87 873.163,1047.02C876.488,1050.39 880.688,1051.97 886.23,1051.97C896.613,1051.97 902.446,1046.37 903.73,1035.11L898.13,1035.11C897.663,1038.03 897.08,1040.02 896.205,1041.71C894.455,1045.21 890.838,1047.19 886.288,1047.19C877.83,1047.19 872.463,1040.42 872.463,1029.8C872.463,1018.89 877.538,1012.18 885.821,1012.18C889.263,1012.18 892.471,1013.18 894.221,1014.87C895.796,1016.33 896.671,1018.08 897.313,1021.29L902.855,1021.29Z" style="fill:#727272;fill-rule:nonzero;"/>
            <path d="M915.805,1035.76L922.746,1028.81L937.738,1050.63L944.155,1050.63L926.655,1025.43L943.98,1008.11L936.98,1008.11L915.805,1029.63L915.805,1008.11L910.387,1008.11L910.387,1050.63L915.805,1050.63L915.805,1035.76Z" style="fill:#727272;fill-rule:nonzero;"/>
            <path d="M999.513,1021.29C997.821,1011.95 992.455,1007.41 983.121,1007.41C977.405,1007.41 972.796,1009.21 969.646,1012.71C965.801,1016.91 963.704,1022.98 963.704,1029.86C963.704,1036.86 965.859,1042.87 969.821,1047.02C973.146,1050.39 977.346,1051.97 982.888,1051.97C993.271,1051.97 999.105,1046.37 1000.39,1035.11L994.788,1035.11C994.321,1038.03 993.738,1040.02 992.863,1041.71C991.113,1045.21 987.496,1047.19 982.946,1047.19C974.488,1047.19 969.121,1040.42 969.121,1029.8C969.121,1018.89 974.196,1012.18 982.48,1012.18C985.921,1012.18 989.13,1013.18 990.88,1014.87C992.455,1016.33 993.33,1018.08 993.971,1021.29L999.513,1021.29Z" style="fill:#727272;fill-rule:nonzero;"/>
            <path d="M1013.86,1032.31L1027.87,1032.31C1032.71,1032.31 1034.87,1034.64 1034.87,1039.9L1034.81,1043.69C1034.81,1046.32 1035.28,1048.88 1036.04,1050.63L1042.62,1050.63L1042.62,1049.29C1040.58,1047.89 1040.17,1046.37 1040.06,1040.71C1040,1033.71 1038.89,1031.61 1034.29,1029.63C1039.07,1027.24 1040.99,1024.38 1040.99,1019.48C1040.99,1012.13 1036.44,1008.11 1028.04,1008.11L1008.45,1008.11L1008.45,1050.63L1013.86,1050.63L1013.86,1032.31ZM1013.86,1027.53L1013.86,1012.88L1026.99,1012.88C1030.03,1012.88 1031.78,1013.35 1033.12,1014.52C1034.58,1015.74 1035.34,1017.67 1035.34,1020.18C1035.34,1025.26 1032.77,1027.53 1026.99,1027.53L1013.86,1027.53Z" style="fill:#727272;fill-rule:nonzero;"/>
            <path d="M1073.13,1037.85L1077.51,1050.63L1083.58,1050.63L1068.64,1008.11L1061.64,1008.11L1046.47,1050.63L1052.25,1050.63L1056.74,1037.85L1073.13,1037.85ZM1071.62,1033.31L1058.08,1033.31L1065.08,1013.94L1071.62,1033.31Z" style="fill:#727272;fill-rule:nonzero;"/>
            <path d="M1117.82,1020.59C1117.82,1017.67 1117.64,1016.85 1116.71,1014.87C1114.38,1009.97 1109.42,1007.41 1102.24,1007.41C1092.9,1007.41 1087.14,1012.18 1087.14,1019.88C1087.14,1025.08 1089.88,1028.35 1095.47,1029.8L1106.03,1032.61C1111.46,1034.01 1113.85,1036.16 1113.85,1039.49C1113.85,1041.77 1112.63,1044.1 1110.82,1045.38C1109.13,1046.61 1106.44,1047.19 1103,1047.19C1098.33,1047.19 1095.24,1046.08 1093.2,1043.63C1091.62,1041.77 1090.92,1039.72 1090.98,1037.1L1085.85,1037.1C1085.91,1041.01 1086.67,1043.57 1088.36,1045.91C1091.27,1049.93 1096.17,1051.97 1102.65,1051.97C1107.73,1051.97 1111.87,1050.8 1114.61,1048.71C1117.46,1046.43 1119.27,1042.64 1119.27,1038.96C1119.27,1033.71 1116.01,1029.86 1110.24,1028.29L1099.56,1025.43C1094.42,1024.03 1092.56,1022.39 1092.56,1019.13C1092.56,1014.81 1096.35,1011.95 1102.07,1011.95C1108.84,1011.95 1112.63,1014.98 1112.69,1020.59L1117.82,1020.59Z" style="fill:#727272;fill-rule:nonzero;"/>
            <path d="M1154.1,1031.26L1154.1,1050.63L1159.52,1050.63L1159.52,1008.11L1154.1,1008.11L1154.1,1026.48L1132.22,1026.48L1132.22,1008.11L1126.8,1008.11L1126.8,1050.63L1132.22,1050.63L1132.22,1031.26L1154.1,1031.26Z" style="fill:#727272;fill-rule:nonzero;"/>
        </g>
        <g id="HISPEED">
            <rect x="718.75" y="856.25" width="1556.25" height="87.5" style="fill:#fff;"/>
            <path d="M2287.5,953.125L0,953.125L0,846.875L2287.5,846.875L2287.5,953.125ZM718.75,943.75C955.393,943.75 2275,943.75 2275,943.75L2275,856.25C2224.99,856.25 933.85,856.25 718.75,856.25L718.75,943.75Z" style="fill:#ff8fbc;"/>
            <path d="M165.705,886.101C165.622,873.519 157.212,866.609 141.874,866.609C127.29,866.609 118.88,873.436 118.88,885.268C118.88,894.687 123.626,899.271 135.955,901.605L144.459,903.272C152.796,904.856 155.88,907.19 155.88,912.107C155.88,917.192 151.212,920.276 143.625,920.276C135.122,920.276 130.37,916.692 129.954,910.19L117.797,910.19C118.547,923.19 127.456,930.266 142.958,930.266C158.628,930.266 167.87,923.023 167.87,910.607C167.87,901.021 163.041,896.02 151.795,893.853L142.291,892.019C133.371,890.269 130.786,888.518 130.786,884.101C130.786,879.516 134.788,876.599 141.291,876.599C149.211,876.599 153.629,879.933 154.046,886.101L165.705,886.101Z" style="fill:#fff;fill-rule:nonzero;"/>
            <path d="M202.286,878.016L220.036,878.016L220.036,867.609L171.38,867.609L171.38,878.016L189.797,878.016L189.797,928.349L202.286,928.349L202.286,878.016Z" style="fill:#fff;fill-rule:nonzero;"/>
            <path d="M255.625,916.099L259.625,928.349L272.458,928.349L251.458,867.609L237.625,867.609L216.042,928.349L228.792,928.349L232.875,916.099L255.625,916.099ZM252.208,905.693L236.375,905.693L244.292,881.936L252.208,905.693Z" style="fill:#fff;fill-rule:nonzero;"/>
            <path d="M293.203,904.266L307.543,904.266C312.962,904.266 315.296,906.434 315.296,911.436L315.296,913.937C315.213,915.521 315.213,917.022 315.213,917.939C315.213,923.691 315.546,925.442 317.047,928.349L330.453,928.349L330.453,926.109C328.537,925.025 327.788,923.775 327.788,921.107C327.455,903.183 327.122,902.351 319.378,899.021C326.206,896.357 329.62,891.441 329.62,884.02C329.62,879.183 327.954,874.769 325.04,871.772C322.293,868.942 318.462,867.609 313.295,867.609L280.714,867.609L280.714,928.349L293.203,928.349L293.203,904.266ZM293.203,893.859L293.203,878.016L308.293,878.016C311.878,878.016 313.295,878.349 314.879,879.6C316.38,880.851 317.13,882.936 317.13,885.771C317.13,888.689 316.38,891.024 314.879,892.275C313.462,893.442 311.878,893.859 308.293,893.859L293.203,893.859Z" style="fill:#fff;fill-rule:nonzero;"/>
            <path d="M366.203,878.016L383.953,878.016L383.953,867.609L335.297,867.609L335.297,878.016L353.714,878.016L353.714,928.349L366.203,928.349L366.203,878.016Z" style="fill:#fff;fill-rule:nonzero;"/>
            <path d="M429.453,904.109L414.286,904.109L414.286,888.943L404.38,888.943L404.38,904.109L389.214,904.109L389.214,914.016L404.38,914.016L404.38,929.182L414.286,929.182L414.286,914.016L429.453,914.016L429.453,904.109Z" style="fill:#fff;fill-rule:nonzero;"/>
            <path d="M466.792,928.349L487.625,867.609L475.042,867.609L461.792,913.357L448.292,867.609L435.708,867.609L456.208,928.349L466.792,928.349Z" style="fill:#fff;fill-rule:nonzero;"/>
            <path d="M518.792,866.609C510.289,866.609 503.287,869.44 498.123,875.018C492.711,880.85 489.63,889.352 489.63,898.438C489.63,907.523 492.711,916.109 498.123,921.857C503.37,927.518 510.206,930.266 518.875,930.266C527.544,930.266 534.38,927.518 539.627,921.857C544.872,916.275 548.12,907.44 548.12,898.854C548.12,889.352 545.039,880.767 539.627,875.018C534.296,869.274 527.628,866.609 518.792,866.609ZM518.875,877.266C529.128,877.266 535.63,885.601 535.63,898.771C535.63,911.274 528.878,919.609 518.875,919.609C508.705,919.609 502.12,911.274 502.12,898.438C502.12,885.601 508.705,877.266 518.875,877.266Z" style="fill:#fff;fill-rule:nonzero;"/>
            <path d="M570.286,867.609L557.797,867.609L557.797,928.349L599.37,928.349L599.37,917.943L570.286,917.943L570.286,867.609Z" style="fill:#fff;fill-rule:nonzero;"/>
            <path d="M788.988,890.036C787.296,880.701 781.93,876.158 772.596,876.158C766.88,876.158 762.271,877.963 759.121,881.459C755.276,885.66 753.179,891.728 753.179,898.613C753.179,905.614 755.334,911.624 759.296,915.766C762.621,919.145 766.821,920.717 772.363,920.717C782.746,920.717 788.58,915.124 789.863,903.864L784.263,903.864C783.796,906.781 783.213,908.765 782.338,910.457C780.588,913.957 776.971,915.941 772.421,915.941C763.963,915.941 758.596,909.173 758.596,898.554C758.596,887.643 763.671,880.934 771.955,880.934C775.396,880.934 778.605,881.926 780.355,883.618C781.93,885.076 782.805,886.827 783.446,890.036L788.988,890.036Z" style="fill:#727272;fill-rule:nonzero;"/>
            <path d="M823.937,900.009L823.937,919.376L829.355,919.376L829.355,876.858L823.937,876.858L823.937,895.233L802.055,895.233L802.055,876.858L796.637,876.858L796.637,919.376L802.055,919.376L802.055,900.009L823.937,900.009Z" style="fill:#727272;fill-rule:nonzero;"/>
            <path d="M860.917,906.601L865.292,919.376L871.358,919.376L856.425,876.858L849.425,876.858L834.258,919.376L840.033,919.376L844.525,906.601L860.917,906.601ZM859.4,902.058L845.867,902.058L852.867,882.685L859.4,902.058Z" style="fill:#727272;fill-rule:nonzero;"/>
            <path d="M909.855,876.858L904.729,876.858L904.729,911.623L882.497,876.858L876.612,876.858L876.612,919.376L881.738,919.376L881.738,884.902L903.737,919.376L909.855,919.376L909.855,876.858Z" style="fill:#727272;fill-rule:nonzero;"/>
            <path d="M955.588,896.925L937.855,896.925L937.855,901.701L950.805,901.701L950.805,902.868C950.805,910.455 945.205,915.941 937.446,915.941C933.13,915.941 929.221,914.365 926.713,911.622C923.913,908.587 922.221,903.51 922.221,898.264C922.221,887.82 928.171,880.934 937.155,880.934C943.63,880.934 948.296,884.26 949.463,889.746L955.005,889.746C953.488,881.109 946.955,876.158 937.213,876.158C932.021,876.158 927.821,877.498 924.496,880.235C919.542,884.319 916.804,890.913 916.804,898.555C916.804,911.622 924.788,920.717 936.28,920.717C942.055,920.717 946.605,918.562 950.805,913.957L952.146,919.611L955.588,919.611L955.588,896.925Z" style="fill:#727272;fill-rule:nonzero;"/>
            <path d="M970.288,900.009L993.446,900.009L993.446,895.233L970.288,895.233L970.288,881.634L994.321,881.634L994.321,876.858L964.87,876.858L964.87,919.376L995.371,919.376L995.371,914.6L970.288,914.6L970.288,900.009Z" style="fill:#727272;fill-rule:nonzero;"/>
            <path d="M1046.89,900.009L1046.89,919.376L1052.31,919.376L1052.31,876.858L1046.89,876.858L1046.89,895.233L1025.01,895.233L1025.01,876.858L1019.59,876.858L1019.59,919.376L1025.01,919.376L1025.01,900.009L1046.89,900.009Z" style="fill:#727272;fill-rule:nonzero;"/>
            <rect x="1061.94" y="876.858" width="5.476" height="42.518" style="fill:#727272;fill-rule:nonzero;"/>
            <rect x="1075" y="901.183" width="13.876" height="4.193" style="fill:#727272;fill-rule:nonzero;"/>
            <path d="M1126.8,889.336C1126.8,886.418 1126.62,885.601 1125.69,883.618C1123.36,878.72 1118.4,876.158 1111.23,876.158C1101.89,876.158 1096.12,880.934 1096.12,888.635C1096.12,893.828 1098.86,897.096 1104.46,898.554L1115.02,901.355C1120.44,902.755 1122.84,904.914 1122.84,908.24C1122.84,910.515 1121.61,912.849 1119.8,914.132C1118.11,915.358 1115.43,915.941 1111.98,915.941C1107.32,915.941 1104.22,914.833 1102.18,912.382C1100.61,910.515 1099.91,908.473 1099.96,905.847L1094.84,905.847C1094.89,909.757 1095.65,912.324 1097.34,914.658C1100.26,918.679 1105.16,920.717 1111.63,920.717C1116.71,920.717 1120.85,919.552 1123.59,917.456C1126.45,915.183 1128.26,911.39 1128.26,907.714C1128.26,902.463 1124.99,898.613 1119.22,897.037L1108.54,894.178C1103.4,892.778 1101.54,891.144 1101.54,887.877C1101.54,883.559 1105.33,880.701 1111.05,880.701C1117.82,880.701 1121.61,883.734 1121.67,889.336L1126.8,889.336Z" style="fill:#727272;fill-rule:nonzero;"/>
            <path d="M1141.67,901.351L1155.04,901.351C1158.36,901.351 1160.99,900.36 1163.26,898.322C1165.82,895.991 1166.93,893.248 1166.93,889.338C1166.93,881.343 1162.21,876.858 1153.81,876.858L1136.25,876.858L1136.25,919.376L1141.67,919.376L1141.67,901.351ZM1141.67,896.575L1141.67,881.634L1152.99,881.634C1158.19,881.634 1161.28,884.435 1161.28,889.104C1161.28,893.773 1158.19,896.575 1152.99,896.575L1141.67,896.575Z" style="fill:#727272;fill-rule:nonzero;"/>
            <path d="M1178.6,900.009L1201.76,900.009L1201.76,895.233L1178.6,895.233L1178.6,881.634L1202.63,881.634L1202.63,876.858L1173.18,876.858L1173.18,919.376L1203.68,919.376L1203.68,914.6L1178.6,914.6L1178.6,900.009Z" style="fill:#727272;fill-rule:nonzero;"/>
            <path d="M1217.51,900.009L1240.66,900.009L1240.66,895.233L1217.51,895.233L1217.51,881.634L1241.54,881.634L1241.54,876.858L1212.09,876.858L1212.09,919.376L1242.59,919.376L1242.59,914.6L1217.51,914.6L1217.51,900.009Z" style="fill:#727272;fill-rule:nonzero;"/>
            <path d="M1250.94,919.376L1267.33,919.376C1278.06,919.376 1284.65,911.332 1284.65,898.088C1284.65,884.902 1278.12,876.858 1267.33,876.858L1250.94,876.858L1250.94,919.376ZM1256.36,914.6L1256.36,881.634L1266.39,881.634C1274.79,881.634 1279.23,887.294 1279.23,898.146C1279.23,908.94 1274.79,914.6 1266.39,914.6L1256.36,914.6Z" style="fill:#727272;fill-rule:nonzero;"/>
        </g>
        <g id="CON">
            <path id="BACKGROUND" d="M2290.62,208.786L2290.62,744.339C2290.62,781.958 2260.08,812.5 2222.46,812.5L977.536,812.5C939.917,812.5 909.375,781.958 909.375,744.339L909.375,208.786C909.375,171.167 939.917,140.625 977.536,140.625L2222.46,140.625C2260.08,140.625 2290.62,171.167 2290.62,208.786Z" style="fill:#fff;"/>
            <clipPath id="_clip2">
                <path d="M2290.62,208.786L2290.62,744.339C2290.62,781.958 2260.08,812.5 2222.46,812.5L977.536,812.5C939.917,812.5 909.375,781.958 909.375,744.339L909.375,208.786C909.375,171.167 939.917,140.625 977.536,140.625L2222.46,140.625C2260.08,140.625 2290.62,171.167 2290.62,208.786Z"/>
            </clipPath>
            <g clip-path="url(#_clip2)">
                <rect x="942.272" y="803.125" width="1315.46" height="9.375" style="fill:#727272;"/>
            </g>
            <path d="M2300,208.786L2300,744.339C2300,787.132 2265.26,821.875 2222.46,821.875L977.536,821.875C934.743,821.875 900,787.132 900,744.339L900,208.786C900,165.993 934.743,131.25 977.536,131.25L2222.46,131.25C2265.26,131.25 2300,165.993 2300,208.786ZM2290.62,208.786C2290.62,171.167 2260.08,140.625 2222.46,140.625L977.536,140.625C939.917,140.625 909.375,171.167 909.375,208.786L909.375,744.339C909.375,781.958 939.917,812.5 977.536,812.5L2222.46,812.5C2260.08,812.5 2290.62,781.958 2290.62,744.339L2290.62,208.786Z" style="fill:#727272;"/>
            <g id="KNOB-L">
                <path d="M1068.75,178.125C1124.38,178.125 1168.75,216.46 1168.75,262.5C1168.75,308.54 1124.38,346.875 1068.75,346.875C1013.12,346.875 968.75,308.54 968.75,262.5C968.75,216.46 1013.12,178.125 1068.75,178.125ZM1068.75,187.5C1018.73,187.5 978.125,221.106 978.125,262.5C978.125,303.894 1018.73,337.5 1068.75,337.5C1118.77,337.5 1159.38,303.894 1159.38,262.5C1159.38,221.106 1118.77,187.5 1068.75,187.5Z" style="fill:#008cef;"/>
                <path d="M1018.75,262.5L1018.75,203.125L1118.75,203.125L1118.75,262.5C1118.75,284.922 1096.35,303.125 1068.75,303.125C1041.15,303.125 1018.75,284.922 1018.75,262.5Z" style="fill:#e5e5e5;"/>
                <path d="M1009.38,262.5L1009.38,203.125C1009.38,197.947 1013.57,193.75 1018.75,193.75L1118.75,193.75C1123.93,193.75 1128.12,197.947 1128.12,203.125L1128.12,262.5C1128.12,289.516 1102,312.5 1068.75,312.5C1035.5,312.5 1009.38,289.516 1009.38,262.5ZM1018.75,262.5C1018.75,284.922 1041.15,303.125 1068.75,303.125C1096.35,303.125 1118.75,284.922 1118.75,262.5L1118.75,203.125L1018.75,203.125L1018.75,262.5Z" style="fill:#727272;"/>
                <ellipse cx="1068.75" cy="203.125" rx="50" ry="40.625" style="fill:#e5e5e5;"/>
                <path d="M1068.75,153.125C1102,153.125 1128.12,176.109 1128.12,203.125C1128.12,230.141 1102,253.125 1068.75,253.125C1035.5,253.125 1009.38,230.141 1009.38,203.125C1009.38,176.109 1035.5,153.125 1068.75,153.125ZM1068.75,162.5C1041.15,162.5 1018.75,180.703 1018.75,203.125C1018.75,225.547 1041.15,243.75 1068.75,243.75C1096.35,243.75 1118.75,225.547 1118.75,203.125C1118.75,180.703 1096.35,162.5 1068.75,162.5Z" style="fill:#727272;"/>
            </g>
            <g id="KNOB-R">
                <path d="M2131.25,178.125C2186.88,178.125 2231.25,216.46 2231.25,262.5C2231.25,308.54 2186.88,346.875 2131.25,346.875C2075.62,346.875 2031.25,308.54 2031.25,262.5C2031.25,216.46 2075.62,178.125 2131.25,178.125ZM2131.25,187.5C2081.23,187.5 2040.62,221.106 2040.62,262.5C2040.62,303.894 2081.23,337.5 2131.25,337.5C2181.27,337.5 2221.88,303.894 2221.88,262.5C2221.88,221.106 2181.27,187.5 2131.25,187.5Z" style="fill:#f00000;"/>
                <path d="M2181.25,262.5L2181.25,203.125L2081.25,203.125L2081.25,262.5C2081.25,284.922 2103.65,303.125 2131.25,303.125C2158.85,303.125 2181.25,284.922 2181.25,262.5Z" style="fill:#e5e5e5;"/>
                <path d="M2190.62,262.5C2190.62,289.516 2164.5,312.5 2131.25,312.5C2098,312.5 2071.88,289.516 2071.88,262.5L2071.88,203.125C2071.88,197.947 2076.07,193.75 2081.25,193.75L2181.25,193.75C2186.43,193.75 2190.62,197.947 2190.62,203.125L2190.62,262.5ZM2181.25,262.5L2181.25,203.125L2081.25,203.125L2081.25,262.5C2081.25,284.922 2103.65,303.125 2131.25,303.125C2158.85,303.125 2181.25,284.922 2181.25,262.5Z" style="fill:#727272;"/>
                <ellipse cx="2131.25" cy="203.125" rx="50" ry="40.625" style="fill:#e5e5e5;"/>
                <path d="M2131.25,153.125C2164.5,153.125 2190.62,176.109 2190.62,203.125C2190.62,230.141 2164.5,253.125 2131.25,253.125C2098,253.125 2071.88,230.141 2071.88,203.125C2071.88,176.109 2098,153.125 2131.25,153.125ZM2131.25,162.5C2103.65,162.5 2081.25,180.703 2081.25,203.125C2081.25,225.547 2103.65,243.75 2131.25,243.75C2158.85,243.75 2181.25,225.547 2181.25,203.125C2181.25,180.703 2158.85,162.5 2131.25,162.5Z" style="fill:#727272;"/>
            </g>
            <g id="BT-A">
                <rect x="1118.75" y="390.625" width="203.125" height="212.5" style="fill:#fff;"/>
                <path d="M1331.25,390.625L1331.25,603.125C1331.25,608.303 1327.05,612.5 1321.88,612.5L1118.75,612.5C1113.57,612.5 1109.38,608.303 1109.38,603.125L1109.38,390.625C1109.38,385.447 1113.57,381.25 1118.75,381.25L1321.88,381.25C1327.05,381.25 1331.25,385.447 1331.25,390.625ZM1321.88,390.625L1118.75,390.625L1118.75,603.125L1321.88,603.125L1321.88,390.625Z" style="fill:#727272;"/>
                <rect x="1118.75" y="593.75" width="203.125" height="9.375" style="fill:#727272;"/>
            </g>
            <g id="BT-B">
                <rect x="1371.88" y="390.625" width="203.125" height="212.5" style="fill:#fff;"/>
                <path d="M1584.38,390.625L1584.38,603.125C1584.38,608.303 1580.18,612.5 1575,612.5L1371.88,612.5C1366.7,612.5 1362.5,608.303 1362.5,603.125L1362.5,390.625C1362.5,385.447 1366.7,381.25 1371.88,381.25L1575,381.25C1580.18,381.25 1584.38,385.447 1584.38,390.625ZM1575,390.625L1371.88,390.625L1371.88,603.125L1575,603.125L1575,390.625Z" style="fill:#727272;"/>
                <rect x="1371.88" y="593.75" width="203.125" height="9.375" style="fill:#727272;"/>
            </g>
            <g id="BT-C">
                <rect x="1625" y="390.625" width="203.125" height="212.5" style="fill:#fff;"/>
                <path d="M1837.5,390.625L1837.5,603.125C1837.5,608.303 1833.3,612.5 1828.12,612.5L1625,612.5C1619.82,612.5 1615.62,608.303 1615.62,603.125L1615.62,390.625C1615.62,385.447 1619.82,381.25 1625,381.25L1828.12,381.25C1833.3,381.25 1837.5,385.447 1837.5,390.625ZM1828.12,390.625L1625,390.625L1625,603.125L1828.12,603.125L1828.12,390.625Z" style="fill:#727272;"/>
                <rect x="1625" y="593.75" width="203.125" height="9.375" style="fill:#727272;"/>
            </g>
            <g id="BT-D">
                <rect x="1878.12" y="390.625" width="203.125" height="212.5" style="fill:#fff;"/>
                <path d="M1878.12,381.25L2081.25,381.25C2086.43,381.25 2090.62,385.447 2090.62,390.625L2090.62,603.125C2090.62,608.303 2086.43,612.5 2081.25,612.5L1878.12,612.5C1872.95,612.5 1868.75,608.303 1868.75,603.125L1868.75,390.625C1868.75,385.447 1872.95,381.25 1878.12,381.25ZM1878.12,390.625L1878.12,603.125L2081.25,603.125L2081.25,390.625L1878.12,390.625Z" style="fill:#727272;"/>
                <rect x="1878.12" y="593.75" width="203.125" height="9.375" style="fill:#727272;"/>
            </g>
            <g id="FX-L">
                <rect x="1246.88" y="659.375" width="200" height="109.375" style="fill:#e5e5e5;"/>
                <path d="M1456.25,659.375L1456.25,768.75C1456.25,773.928 1452.05,778.125 1446.88,778.125L1246.88,778.125C1241.7,778.125 1237.5,773.928 1237.5,768.75L1237.5,659.375C1237.5,654.197 1241.7,650 1246.88,650L1446.88,650C1452.05,650 1456.25,654.197 1456.25,659.375ZM1446.88,659.375L1246.88,659.375L1246.88,768.75L1446.88,768.75L1446.88,659.375Z" style="fill:#727272;"/>
                <rect x="1246.88" y="759.375" width="200" height="9.375" style="fill:#727272;"/>
            </g>
            <g id="FX-R">
                <rect x="1753.12" y="659.375" width="200" height="109.375" style="fill:#e5e5e5;"/>
                <path d="M1753.12,650L1953.12,650C1958.3,650 1962.5,654.197 1962.5,659.375L1962.5,768.75C1962.5,773.928 1958.3,778.125 1953.12,778.125L1753.12,778.125C1747.95,778.125 1743.75,773.928 1743.75,768.75L1743.75,659.375C1743.75,654.197 1747.95,650 1753.12,650ZM1753.12,659.375L1753.12,768.75L1953.12,768.75L1953.12,659.375L1753.12,659.375Z" style="fill:#727272;"/>
                <rect x="1753.12" y="759.375" width="200" height="9.375" style="fill:#727272;"/>
            </g>
            <g id="START">
                <rect x="1550" y="225" width="100" height="103.125" style="fill:#fff;"/>
                <path d="M1659.38,225L1659.38,328.125C1659.38,333.303 1655.18,337.5 1650,337.5L1550,337.5C1544.82,337.5 1540.62,333.303 1540.62,328.125L1540.62,225C1540.62,219.822 1544.82,215.625 1550,215.625L1650,215.625C1655.18,215.625 1659.38,219.822 1659.38,225ZM1650,225L1550,225L1550,328.125L1650,328.125L1650,225Z" style="fill:#727272;"/>
                <rect x="1550" y="318.75" width="100" height="9.375" style="fill:#727272;"/>
            </g>
        </g>
        <g id="LETTERS">
            <path d="M1231.69,510.307L1235.69,522.557L1248.52,522.557L1227.52,461.818L1213.69,461.818L1192.1,522.557L1204.85,522.557L1208.94,510.307L1231.69,510.307ZM1228.27,499.901L1212.44,499.901L1220.35,476.144L1228.27,499.901Z" style="fill:#727272;fill-rule:nonzero;"/>
            <path d="M1338.65,679.005L1326.16,679.005L1326.16,739.745L1367.73,739.745L1367.73,729.339L1338.65,729.339L1338.65,679.005Z" style="fill:#727272;fill-rule:nonzero;"/>
            <path d="M1840.82,715.661L1855.15,715.661C1860.57,715.661 1862.91,717.829 1862.91,722.832L1862.91,725.333C1862.83,726.917 1862.83,728.417 1862.83,729.335C1862.83,735.087 1863.16,736.838 1864.66,739.745L1878.07,739.745L1878.07,737.505C1876.15,736.421 1875.4,735.171 1875.4,732.503C1875.07,714.579 1874.73,713.747 1866.99,710.417C1873.82,707.753 1877.23,702.837 1877.23,695.415C1877.23,690.579 1875.57,686.165 1872.65,683.168C1869.9,680.337 1866.07,679.005 1860.91,679.005L1828.33,679.005L1828.33,739.745L1840.82,739.745L1840.82,715.661ZM1840.82,705.255L1840.82,689.411L1855.9,689.411C1859.49,689.411 1860.91,689.745 1862.49,690.996C1863.99,692.247 1864.74,694.331 1864.74,697.167C1864.74,700.085 1863.99,702.42 1862.49,703.671C1861.07,704.838 1859.49,705.255 1855.9,705.255L1840.82,705.255Z" style="fill:#727272;fill-rule:nonzero;"/>
            <path d="M1954.53,522.557L1978.27,522.557C1987.52,522.557 1993.36,520.393 1997.52,515.481C2002.27,509.817 2004.85,501.648 2004.85,492.146C2004.85,482.727 2002.27,474.558 1997.52,468.811C1993.36,463.899 1987.61,461.818 1978.27,461.818L1954.53,461.818L1954.53,522.557ZM1967.02,512.151L1967.02,472.224L1978.27,472.224C1987.69,472.224 1992.36,478.809 1992.36,492.229C1992.36,505.566 1987.69,512.151 1978.27,512.151L1967.02,512.151Z" style="fill:#727272;fill-rule:nonzero;"/>
            <path d="M1753.02,481.935C1752.6,476.684 1751.52,473.35 1748.93,469.933C1744.27,463.773 1736.77,460.359 1727.68,460.359C1710.52,460.359 1699.86,472.599 1699.86,492.271C1699.86,511.859 1710.43,524.016 1727.35,524.016C1742.52,524.016 1752.52,515.274 1753.27,501.356L1741.1,501.356C1740.27,509.108 1735.43,513.526 1727.68,513.526C1718.02,513.526 1712.35,505.691 1712.35,492.438C1712.35,479.018 1718.27,471.016 1728.1,471.016C1735.35,471.016 1739.43,474.517 1741.1,481.935L1753.02,481.935Z" style="fill:#727272;fill-rule:nonzero;"/>
            <path d="M1449.11,522.557L1476.44,522.557C1483.44,522.557 1488.11,521.225 1491.77,518.145C1495.43,515.065 1497.77,509.983 1497.77,505.063C1497.77,499.059 1494.6,494.309 1487.69,490.313C1493.68,486.484 1496.02,482.982 1496.02,477.811C1496.02,473.558 1493.93,469.227 1490.52,466.23C1486.94,463.15 1482.69,461.818 1476.19,461.818L1449.11,461.818L1449.11,522.557ZM1461.6,472.224L1475.19,472.224C1481.03,472.224 1484.03,474.559 1484.03,479.062C1484.03,483.649 1481.03,485.984 1475.19,485.984L1461.6,485.984L1461.6,472.224ZM1461.6,496.391L1476.52,496.391C1482.61,496.391 1485.78,499.059 1485.78,504.313C1485.78,509.483 1482.61,512.151 1476.52,512.151L1461.6,512.151L1461.6,496.391Z" style="fill:#727272;fill-rule:nonzero;"/>
        </g>
    </g>
</svg>
