<?xml version="1.0" encoding="UTF-8" standalone="no"?>
<!DOCTYPE svg PUBLIC "-//W3C//DTD SVG 1.1//EN" "http://www.w3.org/Graphics/SVG/1.1/DTD/svg11.dtd">
<svg width="100%" height="100%" viewBox="0 0 3200 707" version="1.1" xmlns="http://www.w3.org/2000/svg" xmlns:xlink="http://www.w3.org/1999/xlink" xml:space="preserve" xmlns:serif="http://www.serif.com/" style="fill-rule:evenodd;clip-rule:evenodd;stroke-linejoin:round;stroke-miterlimit:2;">
    <rect id="PLAY_NUM" x="0" y="-0" width="3200" height="706.25" style="fill:none;"/>
    <g id="PAD">
        <g id="_1" serif:id="1">
            <rect x="1418.75" y="278.125" width="100" height="103.125" style="fill:#fff;"/>
            <path d="M1528.12,278.125L1528.12,381.25C1528.12,386.428 1523.93,390.625 1518.75,390.625L1418.75,390.625C1413.57,390.625 1409.38,386.428 1409.38,381.25L1409.38,278.125C1409.38,272.947 1413.57,268.75 1418.75,268.75L1518.75,268.75C1523.93,268.75 1528.12,272.947 1528.12,278.125ZM1518.75,278.125L1418.75,278.125L1418.75,381.25L1518.75,381.25L1518.75,278.125Z" style="fill:#727272;"/>
            <rect x="1418.75" y="371.875" width="100" height="9.375" style="fill:#727272;"/>
        </g>
        <g id="_2" serif:id="2">
            <rect x="1550" y="278.125" width="100" height="103.125" style="fill:#fff;"/>
            <path d="M1659.38,278.125L1659.38,381.25C1659.38,386.428 1655.18,390.625 1650,390.625L1550,390.625C1544.82,390.625 1540.62,386.428 1540.62,381.25L1540.62,278.125C1540.62,272.947 1544.82,268.75 1550,268.75L1650,268.75C1655.18,268.75 1659.38,272.947 1659.38,278.125ZM1650,278.125L1550,278.125L1550,381.25L1650,381.25L1650,278.125Z" style="fill:#727272;"/>
            <rect x="1550" y="371.875" width="100" height="9.375" style="fill:#727272;"/>
        </g>
        <g id="_3" serif:id="3">
            <rect x="1681.25" y="278.125" width="100" height="103.125" style="fill:#fff;"/>
            <path d="M1790.62,278.125L1790.62,381.25C1790.62,386.428 1786.43,390.625 1781.25,390.625L1681.25,390.625C1676.07,390.625 1671.88,386.428 1671.88,381.25L1671.88,278.125C1671.88,272.947 1676.07,268.75 1681.25,268.75L1781.25,268.75C1786.43,268.75 1790.62,272.947 1790.62,278.125ZM1781.25,278.125L1681.25,278.125L1681.25,381.25L1781.25,381.25L1781.25,278.125Z" style="fill:#727272;"/>
            <rect x="1681.25" y="371.875" width="100" height="9.375" style="fill:#727272;"/>
        </g>
        <g id="_4" serif:id="4">
            <rect x="1418.75" y="143.75" width="100" height="103.125" style="fill:#fff;"/>
            <path d="M1528.12,143.75L1528.12,246.875C1528.12,252.053 1523.93,256.25 1518.75,256.25L1418.75,256.25C1413.57,256.25 1409.38,252.053 1409.38,246.875L1409.38,143.75C1409.38,138.572 1413.57,134.375 1418.75,134.375L1518.75,134.375C1523.93,134.375 1528.12,138.572 1528.12,143.75ZM1518.75,143.75L1418.75,143.75L1418.75,246.875L1518.75,246.875L1518.75,143.75Z" style="fill:#727272;"/>
            <rect x="1418.75" y="237.5" width="100" height="9.375" style="fill:#727272;"/>
        </g>
        <g id="_5" serif:id="5">
            <rect x="1550" y="143.75" width="100" height="103.125" style="fill:#fff;"/>
            <path d="M1659.38,143.75L1659.38,246.875C1659.38,252.053 1655.18,256.25 1650,256.25L1550,256.25C1544.82,256.25 1540.62,252.053 1540.62,246.875L1540.62,143.75C1540.62,138.572 1544.82,134.375 1550,134.375L1650,134.375C1655.18,134.375 1659.38,138.572 1659.38,143.75ZM1650,143.75L1550,143.75L1550,246.875L1650,246.875L1650,143.75Z" style="fill:#727272;"/>
            <rect x="1550" y="237.5" width="100" height="9.375" style="fill:#727272;"/>
        </g>
        <g id="_6" serif:id="6">
            <rect x="1681.25" y="143.75" width="100" height="103.125" style="fill:#fff;"/>
            <path d="M1790.62,143.75L1790.62,246.875C1790.62,252.053 1786.43,256.25 1781.25,256.25L1681.25,256.25C1676.07,256.25 1671.88,252.053 1671.88,246.875L1671.88,143.75C1671.88,138.572 1676.07,134.375 1681.25,134.375L1781.25,134.375C1786.43,134.375 1790.62,138.572 1790.62,143.75ZM1781.25,143.75L1681.25,143.75L1681.25,246.875L1781.25,246.875L1781.25,143.75Z" style="fill:#727272;"/>
            <rect x="1681.25" y="237.5" width="100" height="9.375" style="fill:#727272;"/>
        </g>
        <g id="_7" serif:id="7">
            <rect x="1418.75" y="9.375" width="100" height="103.125" style="fill:#fff;"/>
            <path d="M1528.12,9.375L1528.12,112.5C1528.12,117.678 1523.93,121.875 1518.75,121.875L1418.75,121.875C1413.57,121.875 1409.38,117.678 1409.38,112.5L1409.38,9.375C1409.38,4.197 1413.57,0 1418.75,0L1518.75,0C1523.93,0 1528.12,4.197 1528.12,9.375ZM1518.75,9.375L1418.75,9.375L1418.75,112.5L1518.75,112.5L1518.75,9.375Z" style="fill:#727272;"/>
            <rect x="1418.75" y="103.125" width="100" height="9.375" style="fill:#727272;"/>
        </g>
        <g id="_8" serif:id="8">
            <rect x="1550" y="9.375" width="100" height="103.125" style="fill:#fff;"/>
            <path d="M1659.38,9.375L1659.38,112.5C1659.38,117.678 1655.18,121.875 1650,121.875L1550,121.875C1544.82,121.875 1540.62,117.678 1540.62,112.5L1540.62,9.375C1540.62,4.197 1544.82,0 1550,0L1650,0C1655.18,0 1659.38,4.197 1659.38,9.375ZM1650,9.375L1550,9.375L1550,112.5L1650,112.5L1650,9.375Z" style="fill:#727272;"/>
            <rect x="1550" y="103.125" width="100" height="9.375" style="fill:#727272;"/>
        </g>
        <g id="_9" serif:id="9">
            <rect x="1681.25" y="9.375" width="100" height="103.125" style="fill:#fff;"/>
            <path d="M1790.62,9.375L1790.62,112.5C1790.62,117.678 1786.43,121.875 1781.25,121.875L1681.25,121.875C1676.07,121.875 1671.88,117.678 1671.88,112.5L1671.88,9.375C1671.88,4.197 1676.07,0 1681.25,0L1781.25,0C1786.43,0 1790.62,4.197 1790.62,9.375ZM1781.25,9.375L1681.25,9.375L1681.25,112.5L1781.25,112.5L1781.25,9.375Z" style="fill:#727272;"/>
            <rect x="1681.25" y="103.125" width="100" height="9.375" style="fill:#727272;"/>
        </g>
        <g id="_0" serif:id="0">
            <rect x="1418.75" y="412.5" width="100" height="103.125" style="fill:#fff;"/>
            <path d="M1528.12,412.5L1528.12,515.625C1528.12,520.803 1523.93,525 1518.75,525L1418.75,525C1413.57,525 1409.38,520.803 1409.38,515.625L1409.38,412.5C1409.38,407.322 1413.57,403.125 1418.75,403.125L1518.75,403.125C1523.93,403.125 1528.12,407.322 1528.12,412.5ZM1518.75,412.5L1418.75,412.5L1418.75,515.625L1518.75,515.625L1518.75,412.5Z" style="fill:#727272;"/>
            <rect x="1418.75" y="506.25" width="100" height="9.375" style="fill:#727272;"/>
        </g>
        <g id="_00" serif:id="00">
            <rect x="1550" y="412.5" width="100" height="103.125" style="fill:#fff;"/>
            <path d="M1659.38,412.5L1659.38,515.625C1659.38,520.803 1655.18,525 1650,525L1550,525C1544.82,525 1540.62,520.803 1540.62,515.625L1540.62,412.5C1540.62,407.322 1544.82,403.125 1550,403.125L1650,403.125C1655.18,403.125 1659.38,407.322 1659.38,412.5ZM1650,412.5L1550,412.5L1550,515.625L1650,515.625L1650,412.5Z" style="fill:#727272;"/>
            <rect x="1550" y="506.25" width="100" height="9.375" style="fill:#727272;"/>
        </g>
        <g id="EMPTY">
            <rect x="1681.25" y="412.5" width="100" height="103.125" style="fill:#fff;"/>
            <path d="M1790.62,412.5L1790.62,515.625C1790.62,520.803 1786.43,525 1781.25,525L1681.25,525C1676.07,525 1671.88,520.803 1671.88,515.625L1671.88,412.5C1671.88,407.322 1676.07,403.125 1681.25,403.125L1781.25,403.125C1786.43,403.125 1790.62,407.322 1790.62,412.5ZM1781.25,412.5L1681.25,412.5L1681.25,515.625L1781.25,515.625L1781.25,412.5Z" style="fill:#727272;"/>
            <rect x="1681.25" y="506.25" width="100" height="9.375" style="fill:#727272;"/>
        </g>
    </g>
    <g id="HIDDENNUMS">
        <path d="M1576.83,428.255C1570.5,428.255 1565.08,430.919 1561.5,435.83C1558.09,440.412 1556.51,447.914 1556.51,459.417C1556.51,469.919 1557.84,477.254 1560.67,481.754C1564.16,487.415 1569.91,490.495 1576.83,490.495C1583.25,490.495 1588.5,487.914 1592.17,483.003C1595.5,478.421 1597.16,470.836 1597.16,459.75C1597.16,448.914 1595.83,441.579 1593,436.996C1589.5,431.335 1583.75,428.255 1576.83,428.255ZM1576.83,437.661C1579.84,437.661 1582.25,439.328 1583.67,442.413C1584.84,444.913 1585.51,451.331 1585.51,459.5C1585.51,466.168 1584.92,472.67 1584,475.087C1582.67,478.588 1580.17,480.505 1576.83,480.505C1573.75,480.505 1571.41,478.921 1570,475.921C1568.83,473.42 1568.16,467.252 1568.16,459.333C1568.16,452.332 1568.75,445.663 1569.66,443.246C1570.91,439.662 1573.5,437.661 1576.83,437.661Z" style="fill:#727272;fill-rule:nonzero;"/>
        <path d="M1623.17,428.255C1616.83,428.255 1611.41,430.919 1607.83,435.83C1604.42,440.412 1602.84,447.914 1602.84,459.417C1602.84,469.919 1604.17,477.254 1607,481.754C1610.5,487.415 1616.25,490.495 1623.17,490.495C1629.59,490.495 1634.84,487.914 1638.5,483.003C1641.83,478.421 1643.5,470.836 1643.5,459.75C1643.5,448.914 1642.16,441.579 1639.33,436.996C1635.84,431.335 1630.09,428.255 1623.17,428.255ZM1623.17,437.661C1626.17,437.661 1628.59,439.328 1630,442.413C1631.17,444.913 1631.84,451.331 1631.84,459.5C1631.84,466.168 1631.26,472.67 1630.34,475.087C1629,478.588 1626.5,480.505 1623.17,480.505C1620.08,480.505 1617.75,478.921 1616.33,475.921C1615.16,473.42 1614.5,467.252 1614.5,459.333C1614.5,452.332 1615.08,445.663 1616,443.246C1617.25,439.662 1619.83,437.661 1623.17,437.661Z" style="fill:#727272;fill-rule:nonzero;"/>
        <path d="M1465.26,311.156L1465.26,360.044L1479.24,360.044L1479.24,289.156L1469.95,289.156C1467.75,297.556 1460.46,301.856 1448.26,301.856L1448.26,311.156L1465.26,311.156Z" style="fill:#727272;fill-rule:nonzero;"/>
        <path d="M1494.25,20.406L1444.35,20.406L1444.35,32.894L1479.65,32.894C1475.35,37.494 1466.85,50.397 1464.05,56.599C1459.15,66.901 1456.65,76.203 1454.75,91.294L1468.85,91.294C1470.15,68.902 1477.45,51.698 1494.25,31.395L1494.25,20.406Z" style="fill:#727272;fill-rule:nonzero;"/>
    </g>
    <path id="_00_ANCHOR" serif:id="00_ANCHOR" d="M1593.75,533.073C1588.23,530.66 1584.38,525.152 1584.38,518.75C1584.38,510.126 1591.38,503.125 1600,503.125C1608.62,503.125 1615.62,510.126 1615.62,518.75C1615.62,525.152 1611.77,530.66 1606.25,533.073L1606.83,609.219L1594.33,609.219L1593.75,533.073Z" style="fill:#e4d68b;"/>
    <path d="M1584.41,538.293C1578.68,533.711 1575,526.657 1575,518.75C1575,504.952 1586.2,493.75 1600,493.75C1613.8,493.75 1625,504.952 1625,518.75C1625,526.62 1621.36,533.647 1615.66,538.229L1616.2,609.148C1616.22,611.646 1615.24,614.049 1613.48,615.823C1611.72,617.596 1609.33,618.594 1606.83,618.594L1594.33,618.594C1589.18,618.594 1584.99,614.44 1584.95,609.29L1584.41,538.293ZM1593.75,533.073L1594.33,609.219L1606.83,609.219L1606.25,533.073C1611.77,530.66 1615.62,525.152 1615.62,518.75C1615.62,510.126 1608.62,503.125 1600,503.125C1591.38,503.125 1584.38,510.126 1584.38,518.75C1584.38,525.152 1588.23,530.66 1593.75,533.073Z" style="fill:#fff;"/>
    <g id="_001" serif:id="00">
        <rect x="1268.75" y="609.219" width="759.375" height="87.5" style="fill:#fff;"/>
        <path d="M2037.5,706.094L1162.5,706.094L1162.5,599.844L2037.5,599.844L2037.5,706.094ZM1268.75,696.719C1505.39,696.719 2028.12,696.719 2028.12,696.719L2028.12,609.219C1978.12,609.219 1483.85,609.219 1268.75,609.219L1268.75,696.719Z" style="fill:#e4d68b;"/>
        <path d="M1192.46,622.557C1186.12,622.557 1180.71,625.221 1177.13,630.132C1173.71,634.714 1172.13,642.216 1172.13,653.719C1172.13,664.221 1173.46,671.556 1176.29,676.056C1179.79,681.717 1185.54,684.797 1192.46,684.797C1198.88,684.797 1204.13,682.216 1207.79,677.305C1211.12,672.723 1212.79,665.138 1212.79,654.052C1212.79,643.216 1211.45,635.881 1208.62,631.298C1205.13,625.637 1199.38,622.557 1192.46,622.557ZM1192.46,631.964C1195.46,631.964 1197.88,633.631 1199.3,636.715C1200.46,639.215 1201.13,645.634 1201.13,653.802C1201.13,660.47 1200.55,666.972 1199.63,669.389C1198.3,672.89 1195.79,674.807 1192.46,674.807C1189.37,674.807 1187.04,673.224 1185.62,670.223C1184.45,667.722 1183.79,661.554 1183.79,653.635C1183.79,646.634 1184.37,639.965 1185.29,637.548C1186.54,633.964 1189.12,631.964 1192.46,631.964Z" style="fill:#fff;fill-rule:nonzero;"/>
        <path d="M1238.79,622.557C1232.45,622.557 1227.04,625.221 1223.46,630.132C1220.05,634.714 1218.46,642.216 1218.46,653.719C1218.46,664.221 1219.8,671.556 1222.63,676.056C1226.12,681.717 1231.87,684.797 1238.79,684.797C1245.21,684.797 1250.46,682.216 1254.12,677.305C1257.45,672.723 1259.12,665.138 1259.12,654.052C1259.12,643.216 1257.79,635.881 1254.96,631.298C1251.46,625.637 1245.71,622.557 1238.79,622.557ZM1238.79,631.964C1241.79,631.964 1244.21,633.631 1245.63,636.715C1246.8,639.215 1247.46,645.634 1247.46,653.802C1247.46,660.47 1246.88,666.972 1245.96,669.389C1244.63,672.89 1242.13,674.807 1238.79,674.807C1235.71,674.807 1233.37,673.224 1231.95,670.223C1230.79,667.722 1230.12,661.554 1230.12,653.635C1230.12,646.634 1230.7,639.965 1231.62,637.548C1232.87,633.964 1235.46,631.964 1238.79,631.964Z" style="fill:#fff;fill-rule:nonzero;"/>
        <path d="M1386.11,661.132L1390.49,673.907L1396.55,673.907L1381.62,631.389L1374.62,631.389L1359.45,673.907L1365.23,673.907L1369.72,661.132L1386.11,661.132ZM1384.6,656.589L1371.06,656.589L1378.06,637.216L1384.6,656.589Z" style="fill:#727272;fill-rule:nonzero;"/>
        <path d="M1427.53,631.389L1427.53,661.254C1427.53,666.972 1423.39,670.472 1416.56,670.472C1413.41,670.472 1410.84,669.714 1408.8,668.255C1406.7,666.622 1405.71,664.463 1405.71,661.254L1405.71,631.389L1400.29,631.389L1400.29,661.254C1400.29,669.889 1406.47,675.248 1416.56,675.248C1426.54,675.248 1432.95,669.772 1432.95,661.254L1432.95,631.389L1427.53,631.389Z" style="fill:#727272;fill-rule:nonzero;"/>
        <path d="M1457.39,636.165L1471.33,636.165L1471.33,631.389L1437.97,631.389L1437.97,636.165L1451.97,636.165L1451.97,673.907L1457.39,673.907L1457.39,636.165Z" style="fill:#727272;fill-rule:nonzero;"/>
        <path d="M1492.57,630.689C1480.38,630.689 1472.1,639.666 1472.1,652.969C1472.1,666.33 1480.32,675.248 1492.63,675.248C1497.82,675.248 1502.37,673.676 1505.82,670.764C1510.42,666.855 1513.16,660.262 1513.16,653.319C1513.16,639.607 1505.06,630.689 1492.57,630.689ZM1492.57,635.465C1501.79,635.465 1507.74,642.408 1507.74,653.202C1507.74,663.471 1501.62,670.472 1492.63,670.472C1483.53,670.472 1477.52,663.471 1477.52,652.969C1477.52,642.466 1483.53,635.465 1492.57,635.465Z" style="fill:#727272;fill-rule:nonzero;"/>
        <path d="M1542.33,655.59L1556.33,655.59C1561.17,655.59 1563.33,657.924 1563.33,663.177L1563.27,666.97C1563.27,669.596 1563.74,672.164 1564.5,673.907L1571.08,673.907L1571.08,672.572C1569.04,671.172 1568.63,669.654 1568.52,663.994C1568.46,656.991 1567.35,654.891 1562.75,652.911C1567.53,650.522 1569.45,647.662 1569.45,642.76C1569.45,635.408 1564.91,631.389 1556.51,631.389L1536.91,631.389L1536.91,673.907L1542.33,673.907L1542.33,655.59ZM1542.33,650.814L1542.33,636.165L1555.45,636.165C1558.49,636.165 1560.24,636.632 1561.58,637.799C1563.04,639.025 1563.8,640.951 1563.8,643.46C1563.8,648.538 1561.23,650.814 1555.45,650.814L1542.33,650.814Z" style="fill:#727272;fill-rule:nonzero;"/>
        <path d="M1583.57,654.54L1606.73,654.54L1606.73,649.764L1583.57,649.764L1583.57,636.165L1607.6,636.165L1607.6,631.389L1578.15,631.389L1578.15,673.907L1608.65,673.907L1608.65,669.131L1583.57,669.131L1583.57,654.54Z" style="fill:#727272;fill-rule:nonzero;"/>
        <path d="M1631.87,636.165L1645.81,636.165L1645.81,631.389L1612.45,631.389L1612.45,636.165L1626.45,636.165L1626.45,673.907L1631.87,673.907L1631.87,636.165Z" style="fill:#727272;fill-rule:nonzero;"/>
        <path d="M1656.6,655.59L1670.61,655.59C1675.45,655.59 1677.61,657.924 1677.61,663.177L1677.55,666.97C1677.55,669.596 1678.02,672.164 1678.77,673.907L1685.36,673.907L1685.36,672.572C1683.32,671.172 1682.91,669.654 1682.79,663.994C1682.74,656.991 1681.63,654.891 1677.02,652.911C1681.8,650.522 1683.73,647.662 1683.73,642.76C1683.73,635.408 1679.18,631.389 1670.78,631.389L1651.18,631.389L1651.18,673.907L1656.6,673.907L1656.6,655.59ZM1656.6,650.814L1656.6,636.165L1669.73,636.165C1672.76,636.165 1674.52,636.632 1675.86,637.799C1677.32,639.025 1678.07,640.951 1678.07,643.46C1678.07,648.538 1675.51,650.814 1669.73,650.814L1656.6,650.814Z" style="fill:#727272;fill-rule:nonzero;"/>
        <path d="M1707.93,657.228L1723.92,631.389L1717.44,631.389L1705.31,652.094L1692.83,631.389L1686.12,631.389L1702.52,657.228L1702.52,673.907L1707.93,673.907L1707.93,657.228Z" style="fill:#727272;fill-rule:nonzero;"/>
        <path d="M1754.25,631.389C1748.42,639.023 1744.75,649.64 1744.75,658.798C1744.75,668.015 1748.42,678.632 1754.25,686.273L1757.46,686.273C1752.33,677.932 1749.47,668.132 1749.47,658.798C1749.47,649.523 1752.33,639.665 1757.46,631.389L1754.25,631.389Z" style="fill:#727272;fill-rule:nonzero;"/>
        <path d="M1801.27,651.456L1783.53,651.456L1783.53,656.232L1796.48,656.232L1796.48,657.399C1796.48,664.986 1790.88,670.472 1783.13,670.472C1778.81,670.472 1774.9,668.897 1772.39,666.153C1769.59,663.119 1767.9,658.041 1767.9,652.795C1767.9,642.352 1773.85,635.465 1782.83,635.465C1789.31,635.465 1793.98,638.792 1795.14,644.277L1800.68,644.277C1799.17,635.64 1792.63,630.689 1782.89,630.689C1777.7,630.689 1773.5,632.029 1770.18,634.766C1765.22,638.85 1762.48,645.445 1762.48,653.087C1762.48,666.153 1770.47,675.248 1781.96,675.248C1787.73,675.248 1792.28,673.093 1796.48,668.488L1797.83,674.142L1801.27,674.142L1801.27,651.456Z" style="fill:#727272;fill-rule:nonzero;"/>
        <path d="M1827.99,630.689C1815.79,630.689 1807.52,639.666 1807.52,652.969C1807.52,666.33 1815.74,675.248 1828.05,675.248C1833.24,675.248 1837.79,673.676 1841.23,670.764C1845.84,666.855 1848.58,660.262 1848.58,653.319C1848.58,639.607 1840.47,630.689 1827.99,630.689ZM1827.99,635.465C1837.21,635.465 1843.16,642.408 1843.16,653.202C1843.16,663.471 1837.03,670.472 1828.05,670.472C1818.94,670.472 1812.93,663.471 1812.93,652.969C1812.93,642.466 1818.94,635.465 1827.99,635.465Z" style="fill:#727272;fill-rule:nonzero;"/>
        <path d="M1876.35,661.132L1880.72,673.907L1886.79,673.907L1871.85,631.389L1864.85,631.389L1849.69,673.907L1855.46,673.907L1859.95,661.132L1876.35,661.132ZM1874.83,656.589L1861.3,656.589L1868.3,637.216L1874.83,656.589Z" style="fill:#727272;fill-rule:nonzero;"/>
        <path d="M1897.69,631.389L1892.27,631.389L1892.27,673.907L1918.69,673.907L1918.69,669.131L1897.69,669.131L1897.69,631.389Z" style="fill:#727272;fill-rule:nonzero;"/>
        <path d="M1922.96,686.273C1928.79,678.632 1932.46,668.015 1932.46,658.857C1932.46,649.64 1928.79,639.023 1922.96,631.389L1919.75,631.389C1924.88,639.723 1927.74,649.523 1927.74,658.857C1927.74,668.132 1924.88,677.99 1919.75,686.273L1922.96,686.273Z" style="fill:#727272;fill-rule:nonzero;"/>
    </g>
    <path id="_2_ANCHOR" serif:id="2_ANCHOR" d="M1532.55,325C1534.97,319.484 1540.47,315.625 1546.88,315.625C1555.5,315.625 1562.5,322.626 1562.5,331.25C1562.5,339.874 1555.5,346.875 1546.88,346.875C1540.47,346.875 1534.97,343.016 1532.55,337.5L1321.88,338.077L1321.88,325.577L1532.55,325Z" style="fill:#ff8fbc;"/>
    <path d="M1527.35,315.64C1531.93,309.916 1538.98,306.25 1546.88,306.25C1560.67,306.25 1571.88,317.452 1571.88,331.25C1571.88,345.048 1560.67,356.25 1546.88,356.25C1538.99,356.25 1531.96,352.595 1527.38,346.889L1321.9,347.452C1319.41,347.459 1317.02,346.474 1315.26,344.715C1313.49,342.956 1312.5,340.568 1312.5,338.077L1312.5,325.577C1312.5,320.409 1316.68,316.216 1321.85,316.202L1527.35,315.64ZM1532.55,325L1321.88,325.577L1321.88,338.077L1532.55,337.5C1534.97,343.016 1540.47,346.875 1546.88,346.875C1555.5,346.875 1562.5,339.874 1562.5,331.25C1562.5,322.626 1555.5,315.625 1546.88,315.625C1540.47,315.625 1534.97,319.484 1532.55,325Z" style="fill:#fff;"/>
    <g id="_21" serif:id="2">
        <rect x="565.628" y="287.5" width="759.375" height="87.5" style="fill:#fff;"/>
        <path d="M1334.38,384.375L459.378,384.375L459.378,278.125L1334.38,278.125L1334.38,384.375ZM565.628,375C802.271,375 1325,375 1325,375L1325,287.5C1274.99,287.5 780.728,287.5 565.628,287.5L565.628,375Z" style="fill:#ff8fbc;"/>
        <path d="M532.415,350.755L507.333,350.755C508.917,347.588 510.752,345.837 519.424,339.586C529.667,332.084 532.665,327.666 532.665,319.58C532.665,308.164 524.755,300.839 512.42,300.839C500.168,300.839 493.008,308.081 493.008,320.581L493.008,322.665L504.248,322.665L504.248,320.747C504.248,314.162 507.333,310.328 512.67,310.328C517.84,310.328 521.008,313.912 521.008,319.831C521.008,326.416 519.007,328.833 505.832,338.169C495.839,345.004 492.758,350.172 492.258,361.161L532.415,361.161L532.415,350.755Z" style="fill:#fff;fill-rule:nonzero;"/>
        <rect x="698.832" y="333.995" width="13.876" height="4.193" style="fill:#727272;fill-rule:nonzero;"/>
        <path d="M751.215,309.67L751.215,339.593C751.215,342.977 750.865,344.903 749.873,346.361C748.822,347.995 746.838,348.987 744.678,348.987C740.592,348.987 738.316,346.245 738.316,341.285L738.316,338.543L732.782,338.543L732.782,342.277C732.782,349.162 737.326,353.53 744.62,353.53C752.031,353.53 756.633,348.929 756.633,341.577L756.633,309.67L751.215,309.67Z" style="fill:#727272;fill-rule:nonzero;"/>
        <path d="M793.157,309.67L793.157,339.535C793.157,345.253 789.014,348.754 782.186,348.754C779.035,348.754 776.468,347.995 774.425,346.537C772.325,344.903 771.333,342.744 771.333,339.535L771.333,309.67L765.915,309.67L765.915,339.535C765.915,348.17 772.091,353.53 782.186,353.53C792.165,353.53 798.574,348.054 798.574,339.535L798.574,309.67L793.157,309.67Z" style="fill:#727272;fill-rule:nonzero;"/>
        <path d="M808.265,352.188L824.653,352.188C835.39,352.188 841.974,344.145 841.974,330.9C841.974,317.714 835.448,309.67 824.653,309.67L808.265,309.67L808.265,352.188ZM813.683,347.412L813.683,314.446L823.719,314.446C832.122,314.446 836.557,320.106 836.557,330.958C836.557,341.752 832.122,347.412 823.719,347.412L813.683,347.412Z" style="fill:#727272;fill-rule:nonzero;"/>
        <path d="M886.541,329.737L868.808,329.737L868.808,334.513L881.758,334.513L881.758,335.68C881.758,343.267 876.158,348.754 868.399,348.754C864.083,348.754 860.174,347.178 857.666,344.435C854.866,341.4 853.174,336.322 853.174,331.077C853.174,320.633 859.124,313.746 868.108,313.746C874.583,313.746 879.249,317.073 880.416,322.559L885.958,322.559C884.441,313.921 877.908,308.97 868.166,308.97C862.974,308.97 858.774,310.31 855.449,313.047C850.495,317.131 847.757,323.726 847.757,331.368C847.757,344.435 855.741,353.53 867.233,353.53C873.008,353.53 877.558,351.375 881.758,346.769L883.099,352.423L886.541,352.423L886.541,329.737Z" style="fill:#727272;fill-rule:nonzero;"/>
        <path d="M901.241,332.821L924.399,332.821L924.399,328.045L901.241,328.045L901.241,314.446L925.274,314.446L925.274,309.67L895.823,309.67L895.823,352.188L926.324,352.188L926.324,347.412L901.241,347.412L901.241,332.821Z" style="fill:#727272;fill-rule:nonzero;"/>
        <path d="M959.458,309.67C953.626,317.305 949.957,327.921 949.957,337.08C949.957,346.296 953.626,356.913 959.458,364.555L962.666,364.555C957.533,356.213 954.674,346.413 954.674,337.08C954.674,327.805 957.533,317.946 962.666,309.67L959.458,309.67Z" style="fill:#727272;fill-rule:nonzero;"/>
        <rect x="970.957" y="309.67" width="5.476" height="42.518" style="fill:#727272;fill-rule:nonzero;"/>
        <path d="M992.008,332.821L1012.31,332.821L1012.31,328.045L992.008,328.045L992.008,314.446L1015.11,314.446L1015.11,309.67L986.59,309.67L986.59,352.188L992.008,352.188L992.008,332.821Z" style="fill:#727272;fill-rule:nonzero;"/>
        <path d="M1043.28,309.67L1037.87,309.67L1037.87,352.188L1064.28,352.188L1064.28,347.412L1043.28,347.412L1043.28,309.67Z" style="fill:#727272;fill-rule:nonzero;"/>
        <path d="M1094.21,339.413L1098.59,352.188L1104.65,352.188L1089.72,309.67L1082.72,309.67L1067.55,352.188L1073.33,352.188L1077.82,339.413L1094.21,339.413ZM1092.69,334.87L1079.16,334.87L1086.16,315.498L1092.69,334.87Z" style="fill:#727272;fill-rule:nonzero;"/>
        <path d="M1120.69,314.446L1134.63,314.446L1134.63,309.67L1101.27,309.67L1101.27,314.446L1115.27,314.446L1115.27,352.188L1120.69,352.188L1120.69,314.446Z" style="fill:#727272;fill-rule:nonzero;"/>
        <path d="M1145.37,332.821L1168.52,332.821L1168.52,328.045L1145.37,328.045L1145.37,314.446L1169.4,314.446L1169.4,309.67L1139.95,309.67L1139.95,352.188L1170.45,352.188L1170.45,347.412L1145.37,347.412L1145.37,332.821Z" style="fill:#727272;fill-rule:nonzero;"/>
        <path d="M1179.03,364.555C1184.86,356.913 1188.53,346.296 1188.53,337.138C1188.53,327.921 1184.86,317.305 1179.03,309.67L1175.82,309.67C1180.96,318.005 1183.82,327.805 1183.82,337.138C1183.82,346.413 1180.96,356.271 1175.82,364.555L1179.03,364.555Z" style="fill:#727272;fill-rule:nonzero;"/>
    </g>
    <path id="_8_ANCHOR" serif:id="8_ANCHOR" d="M1532.55,56.25C1534.97,50.734 1540.47,46.875 1546.88,46.875C1555.5,46.875 1562.5,53.876 1562.5,62.5C1562.5,71.124 1555.5,78.125 1546.88,78.125C1540.47,78.125 1534.97,74.266 1532.55,68.75L1321.88,69.327L1321.88,56.827L1532.55,56.25Z" style="fill:#ff8fbc;"/>
    <path d="M1527.35,46.89C1531.93,41.166 1538.98,37.5 1546.88,37.5C1560.67,37.5 1571.88,48.702 1571.88,62.5C1571.88,76.298 1560.67,87.5 1546.88,87.5C1538.99,87.5 1531.96,83.845 1527.38,78.139L1321.9,78.702C1319.41,78.709 1317.02,77.724 1315.26,75.965C1313.49,74.206 1312.5,71.818 1312.5,69.327L1312.5,56.827C1312.5,51.659 1316.68,47.466 1321.85,47.452L1527.35,46.89ZM1532.55,56.25L1321.88,56.827L1321.88,69.327L1532.55,68.75C1534.97,74.266 1540.47,78.125 1546.88,78.125C1555.5,78.125 1562.5,71.124 1562.5,62.5C1562.5,53.876 1555.5,46.875 1546.88,46.875C1540.47,46.875 1534.97,50.734 1532.55,56.25Z" style="fill:#fff;"/>
    <g id="_81" serif:id="8">
        <rect x="565.628" y="18.75" width="759.375" height="87.5" style="fill:#fff;"/>
        <path d="M1334.38,115.625L459.378,115.625L459.378,9.375L1334.38,9.375L1334.38,115.625ZM565.628,106.25C802.271,106.25 1325,106.25 1325,106.25L1325,18.75C1274.99,18.75 780.728,18.75 565.628,18.75L565.628,106.25Z" style="fill:#ff8fbc;"/>
        <path d="M523.839,60.251C525.837,59.169 526.753,58.586 527.668,57.754C530.083,55.504 531.498,51.918 531.498,48.083C531.498,38.831 523.506,32.089 512.586,32.089C501.583,32.089 493.592,38.831 493.592,48.166C493.592,53.836 495.923,57.421 501.25,60.251C494.422,63.996 491.592,68.413 491.592,75.417C491.592,86.586 500.167,94.328 512.586,94.328C524.922,94.328 533.498,86.586 533.498,75.417C533.498,68.413 530.667,63.996 523.84,60.251L523.839,60.251ZM512.67,41.495C517.84,41.495 521.425,44.664 521.425,49.25C521.425,53.753 517.756,57.005 512.67,57.005C507.417,57.005 503.831,53.836 503.831,49.167C503.831,44.664 507.417,41.495 512.67,41.495ZM512.503,64.911C518.256,64.911 521.842,68.747 521.842,74.917C521.842,80.587 518.173,84.339 512.503,84.339C506.833,84.339 503.248,80.587 503.248,74.75C503.248,68.747 506.833,64.911 512.503,64.911Z" style="fill:#fff;fill-rule:nonzero;"/>
        <path d="M697.891,67.87L685.816,67.87L685.816,55.795L681.74,55.795L681.74,67.87L669.665,67.87L669.665,71.946L681.74,71.946L681.74,84.021L685.816,84.021L685.816,71.946L697.891,71.946L697.891,67.87Z" style="fill:#727272;fill-rule:nonzero;"/>
        <path d="M736.457,40.92L736.457,70.843C736.457,74.227 736.106,76.153 735.114,77.611C734.064,79.245 732.079,80.237 729.92,80.237C725.834,80.237 723.558,77.495 723.558,72.535L723.558,69.793L718.023,69.793L718.023,73.527C718.023,80.412 722.567,84.78 729.861,84.78C737.272,84.78 741.874,80.179 741.874,72.827L741.874,40.92L736.457,40.92Z" style="fill:#727272;fill-rule:nonzero;"/>
        <path d="M778.398,40.92L778.398,70.785C778.398,76.503 774.255,80.004 767.428,80.004C764.277,80.004 761.709,79.245 759.667,77.787C757.566,76.153 756.574,73.994 756.574,70.785L756.574,40.92L751.157,40.92L751.157,70.785C751.157,79.42 757.333,84.78 767.428,84.78C777.406,84.78 783.816,79.304 783.816,70.785L783.816,40.92L778.398,40.92Z" style="fill:#727272;fill-rule:nonzero;"/>
        <path d="M793.507,83.438L809.895,83.438C820.631,83.438 827.216,75.395 827.216,62.15C827.216,48.964 820.69,40.92 809.895,40.92L793.507,40.92L793.507,83.438ZM798.924,78.662L798.924,45.696L808.961,45.696C817.364,45.696 821.798,51.356 821.798,62.208C821.798,73.002 817.364,78.662 808.961,78.662L798.924,78.662Z" style="fill:#727272;fill-rule:nonzero;"/>
        <path d="M871.783,60.987L854.049,60.987L854.049,65.763L866.999,65.763L866.999,66.93C866.999,74.517 861.399,80.004 853.641,80.004C849.324,80.004 845.416,78.428 842.908,75.685C840.108,72.65 838.416,67.572 838.416,62.327C838.416,51.883 844.366,44.996 853.349,44.996C859.824,44.996 864.491,48.323 865.658,53.809L871.199,53.809C869.683,45.171 863.149,40.22 853.408,40.22C848.216,40.22 844.016,41.56 840.691,44.297C835.736,48.381 832.998,54.976 832.998,62.618C832.998,75.685 840.983,84.78 852.474,84.78C858.249,84.78 862.799,82.625 866.999,78.019L868.341,83.673L871.783,83.673L871.783,60.987Z" style="fill:#727272;fill-rule:nonzero;"/>
        <path d="M886.483,64.071L909.641,64.071L909.641,59.295L886.483,59.295L886.483,45.696L910.516,45.696L910.516,40.92L881.065,40.92L881.065,83.438L911.566,83.438L911.566,78.662L886.483,78.662L886.483,64.071Z" style="fill:#727272;fill-rule:nonzero;"/>
        <path d="M944.699,40.92C938.868,48.555 935.198,59.171 935.198,68.33C935.198,77.546 938.868,88.163 944.699,95.805L947.908,95.805C942.774,87.463 939.916,77.663 939.916,68.33C939.916,59.055 942.774,49.196 947.908,40.92L944.699,40.92Z" style="fill:#727272;fill-rule:nonzero;"/>
        <rect x="956.198" y="40.92" width="5.476" height="42.518" style="fill:#727272;fill-rule:nonzero;"/>
        <path d="M977.249,64.071L997.549,64.071L997.549,59.295L977.249,59.295L977.249,45.696L1000.35,45.696L1000.35,40.92L971.832,40.92L971.832,83.438L977.249,83.438L977.249,64.071Z" style="fill:#727272;fill-rule:nonzero;"/>
        <path d="M1029.11,64.071L1052.27,64.071L1052.27,59.295L1029.11,59.295L1029.11,45.696L1053.14,45.696L1053.14,40.92L1023.69,40.92L1023.69,83.438L1054.19,83.438L1054.19,78.662L1029.11,78.662L1029.11,64.071Z" style="fill:#727272;fill-rule:nonzero;"/>
        <path d="M1085.05,70.663L1089.43,83.438L1095.5,83.438L1080.56,40.92L1073.56,40.92L1058.39,83.438L1064.17,83.438L1068.66,70.663L1085.05,70.663ZM1083.54,66.12L1070,66.12L1077,46.748L1083.54,66.12Z" style="fill:#727272;fill-rule:nonzero;"/>
        <path d="M1107.16,65.121L1121.16,65.121C1126.01,65.121 1128.16,67.456 1128.16,72.708L1128.11,76.501C1128.11,79.127 1128.57,81.695 1129.33,83.438L1135.92,83.438L1135.92,82.104C1133.88,80.703 1133.47,79.186 1133.35,73.525C1133.29,66.522 1132.18,64.422 1127.58,62.442C1132.36,60.053 1134.28,57.194 1134.28,52.291C1134.28,44.939 1129.74,40.92 1121.34,40.92L1101.74,40.92L1101.74,83.438L1107.16,83.438L1107.16,65.121ZM1107.16,60.345L1107.16,45.696L1120.29,45.696C1123.32,45.696 1125.07,46.163 1126.41,47.33C1127.87,48.556 1128.63,50.482 1128.63,52.992C1128.63,58.069 1126.06,60.345 1120.29,60.345L1107.16,60.345Z" style="fill:#727272;fill-rule:nonzero;"/>
        <path d="M1148.11,40.92L1142.69,40.92L1142.69,83.438L1169.11,83.438L1169.11,78.662L1148.11,78.662L1148.11,40.92Z" style="fill:#727272;fill-rule:nonzero;"/>
        <path d="M1185.91,66.759L1201.89,40.92L1195.42,40.92L1183.29,61.625L1170.81,40.92L1164.1,40.92L1180.49,66.759L1180.49,83.438L1185.91,83.438L1185.91,66.759Z" style="fill:#727272;fill-rule:nonzero;"/>
        <path d="M1208.43,95.805C1214.26,88.163 1217.93,77.546 1217.93,68.388C1217.93,59.171 1214.26,48.555 1208.43,40.92L1205.22,40.92C1210.36,49.255 1213.21,59.055 1213.21,68.388C1213.21,77.663 1210.36,87.521 1205.22,95.805L1208.43,95.805Z" style="fill:#727272;fill-rule:nonzero;"/>
    </g>
    <path id="_3_ANCHOR" serif:id="3_ANCHOR" d="M1798.7,325C1796.29,319.484 1790.78,315.625 1784.38,315.625C1775.75,315.625 1768.75,322.626 1768.75,331.25C1768.75,339.874 1775.75,346.875 1784.38,346.875C1790.78,346.875 1796.29,343.016 1798.7,337.5L1978.12,338.077L1978.12,325.577L1798.7,325Z" style="fill:#ff8fbc;"/>
    <path d="M1803.9,315.642L1978.15,316.202C1983.32,316.219 1987.5,320.411 1987.5,325.577L1987.5,338.077C1987.5,340.569 1986.51,342.958 1984.74,344.717C1982.98,346.476 1980.59,347.46 1978.1,347.452C1978.1,347.452 1803.87,346.892 1803.87,346.89C1799.29,352.596 1792.26,356.25 1784.38,356.25C1770.58,356.25 1759.38,345.048 1759.38,331.25C1759.38,317.452 1770.58,306.25 1784.38,306.25C1792.27,306.25 1799.32,309.917 1803.9,315.642ZM1798.7,325C1796.29,319.484 1790.78,315.625 1784.38,315.625C1775.75,315.625 1768.75,322.626 1768.75,331.25C1768.75,339.874 1775.75,346.875 1784.38,346.875C1790.78,346.875 1796.29,343.016 1798.7,337.5L1978.12,338.077L1978.12,325.577L1798.7,325Z" style="fill:#fff;"/>
    <g id="_31" serif:id="3">
        <rect x="1971.88" y="287.5" width="759.375" height="87.5" style="fill:#fff;"/>
        <path d="M2740.62,384.375L1865.62,384.375L1865.62,278.125L2740.62,278.125L2740.62,384.375ZM1971.88,375C2208.52,375 2731.25,375 2731.25,375L2731.25,287.5C2681.24,287.5 2186.97,287.5 1971.88,287.5L1971.88,375Z" style="fill:#ff8fbc;"/>
        <path d="M1914.09,334.751C1918.59,334.751 1918.84,334.751 1920.92,335.334C1924.84,336.418 1927.34,339.835 1927.34,344.17C1927.34,349.421 1923.67,353.089 1918.59,353.089C1913.09,353.089 1910.09,349.921 1909.76,343.836L1898.42,343.836C1898.51,355.669 1906.17,363.078 1918.34,363.078C1930.92,363.078 1939,355.669 1939,344.17C1939,337.251 1936,332.75 1929.34,329.499C1934.75,326.082 1937.08,322.331 1937.08,316.913C1937.08,307.082 1929.75,300.839 1918.34,300.839C1909.76,300.839 1903.17,304.584 1900.59,310.995C1899.51,313.829 1899.17,315.746 1899.17,320.664L1910.01,320.664C1910.09,317.497 1910.34,315.913 1910.92,314.412C1912.01,311.828 1914.67,310.245 1918.09,310.245C1922.76,310.245 1925.42,313.079 1925.42,317.997C1925.42,323.998 1922.01,326.915 1915.09,326.915L1914.09,326.915L1914.09,334.751Z" style="fill:#fff;fill-rule:nonzero;"/>
        <rect x="2116.05" y="333.995" width="13.876" height="4.193" style="fill:#727272;fill-rule:nonzero;"/>
        <path d="M2154.2,352.188L2170.58,352.188C2181.32,352.188 2187.91,344.145 2187.91,330.9C2187.91,317.714 2181.38,309.67 2170.58,309.67L2154.2,309.67L2154.2,352.188ZM2159.61,347.412L2159.61,314.446L2169.65,314.446C2178.05,314.446 2182.49,320.106 2182.49,330.958C2182.49,341.752 2178.05,347.412 2169.65,347.412L2159.61,347.412Z" style="fill:#727272;fill-rule:nonzero;"/>
        <path d="M2201.96,333.871L2215.97,333.871C2220.81,333.871 2222.97,336.206 2222.97,341.458L2222.91,345.251C2222.91,347.877 2223.38,350.445 2224.14,352.188L2230.72,352.188L2230.72,350.854C2228.68,349.453 2228.27,347.936 2228.16,342.275C2228.1,335.272 2226.99,333.172 2222.39,331.192C2227.17,328.803 2229.09,325.944 2229.09,321.041C2229.09,313.689 2224.54,309.67 2216.14,309.67L2196.55,309.67L2196.55,352.188L2201.96,352.188L2201.96,333.871ZM2201.96,329.095L2201.96,314.446L2215.09,314.446C2218.13,314.446 2219.88,314.913 2221.22,316.08C2222.68,317.306 2223.44,319.232 2223.44,321.742C2223.44,326.819 2220.87,329.095 2215.09,329.095L2201.96,329.095Z" style="fill:#727272;fill-rule:nonzero;"/>
        <path d="M2261.23,339.413L2265.61,352.188L2271.68,352.188L2256.74,309.67L2249.74,309.67L2234.58,352.188L2240.35,352.188L2244.84,339.413L2261.23,339.413ZM2259.72,334.87L2246.18,334.87L2253.18,315.498L2259.72,334.87Z" style="fill:#727272;fill-rule:nonzero;"/>
        <path d="M2313.09,352.188L2323.88,309.67L2317.82,309.67L2310,344.202L2300.32,309.67L2294.48,309.67L2285.03,344.202L2277.04,309.67L2270.97,309.67L2281.88,352.188L2287.83,352.188L2297.34,317.247L2307.14,352.188L2313.09,352.188Z" style="fill:#727272;fill-rule:nonzero;"/>
        <path d="M2354.74,309.67C2348.91,317.305 2345.24,327.921 2345.24,337.08C2345.24,346.296 2348.91,356.913 2354.74,364.555L2357.95,364.555C2352.81,356.213 2349.95,346.413 2349.95,337.08C2349.95,327.805 2352.81,317.946 2357.95,309.67L2354.74,309.67Z" style="fill:#727272;fill-rule:nonzero;"/>
        <rect x="2366.24" y="309.67" width="5.476" height="42.518" style="fill:#727272;fill-rule:nonzero;"/>
        <path d="M2387.29,332.821L2407.59,332.821L2407.59,328.045L2387.29,328.045L2387.29,314.446L2410.39,314.446L2410.39,309.67L2381.87,309.67L2381.87,352.188L2387.29,352.188L2387.29,332.821Z" style="fill:#727272;fill-rule:nonzero;"/>
        <path d="M2438.56,309.67L2433.14,309.67L2433.14,352.188L2459.56,352.188L2459.56,347.412L2438.56,347.412L2438.56,309.67Z" style="fill:#727272;fill-rule:nonzero;"/>
        <path d="M2489.49,339.413L2493.87,352.188L2499.93,352.188L2485,309.67L2478,309.67L2462.83,352.188L2468.61,352.188L2473.1,339.413L2489.49,339.413ZM2487.97,334.87L2474.44,334.87L2481.44,315.498L2487.97,334.87Z" style="fill:#727272;fill-rule:nonzero;"/>
        <path d="M2515.97,314.446L2529.91,314.446L2529.91,309.67L2496.55,309.67L2496.55,314.446L2510.55,314.446L2510.55,352.188L2515.97,352.188L2515.97,314.446Z" style="fill:#727272;fill-rule:nonzero;"/>
        <path d="M2540.65,332.821L2563.8,332.821L2563.8,328.045L2540.65,328.045L2540.65,314.446L2564.68,314.446L2564.68,309.67L2535.23,309.67L2535.23,352.188L2565.73,352.188L2565.73,347.412L2540.65,347.412L2540.65,332.821Z" style="fill:#727272;fill-rule:nonzero;"/>
        <path d="M2574.31,364.555C2580.14,356.913 2583.81,346.296 2583.81,337.138C2583.81,327.921 2580.14,317.305 2574.31,309.67L2571.1,309.67C2576.24,318.005 2579.1,327.805 2579.1,337.138C2579.1,346.413 2576.24,356.271 2571.1,364.555L2574.31,364.555Z" style="fill:#727272;fill-rule:nonzero;"/>
    </g>
    <path id="_9_ANCHOR" serif:id="9_ANCHOR" d="M1798.7,56.25C1796.29,50.734 1790.78,46.875 1784.38,46.875C1775.75,46.875 1768.75,53.876 1768.75,62.5C1768.75,71.124 1775.75,78.125 1784.38,78.125C1790.78,78.125 1796.29,74.266 1798.7,68.75L1978.12,69.327L1978.12,56.827L1798.7,56.25Z" style="fill:#ff8fbc;"/>
    <path d="M1803.9,46.892L1978.15,47.452C1983.32,47.469 1987.5,51.661 1987.5,56.827L1987.5,69.327C1987.5,71.819 1986.51,74.208 1984.74,75.967C1982.98,77.726 1980.59,78.71 1978.1,78.702C1978.1,78.702 1803.87,78.142 1803.87,78.14C1799.29,83.846 1792.26,87.5 1784.38,87.5C1770.58,87.5 1759.38,76.298 1759.38,62.5C1759.38,48.702 1770.58,37.5 1784.38,37.5C1792.27,37.5 1799.32,41.167 1803.9,46.892ZM1798.7,56.25C1796.29,50.734 1790.78,46.875 1784.38,46.875C1775.75,46.875 1768.75,53.876 1768.75,62.5C1768.75,71.124 1775.75,78.125 1784.38,78.125C1790.78,78.125 1796.29,74.266 1798.7,68.75L1978.12,69.327L1978.12,56.827L1798.7,56.25Z" style="fill:#fff;"/>
    <g id="_91" serif:id="9">
        <rect x="1971.88" y="18.75" width="759.375" height="87.5" style="fill:#fff;"/>
        <path d="M2740.62,115.625L1865.62,115.625L1865.62,9.375L2740.62,9.375L2740.62,115.625ZM1971.88,106.25C2208.52,106.25 2731.25,106.25 2731.25,106.25L2731.25,18.75C2681.24,18.75 2186.97,18.75 1971.88,18.75L1971.88,106.25Z" style="fill:#ff8fbc;"/>
        <path d="M1899.17,78.666C1899.42,87.752 1907.08,94.411 1917.25,94.411C1924.83,94.411 1930.58,91.248 1934.08,85.254C1937.16,80.001 1939,71.081 1939,61.588C1939,52.917 1937.66,46.247 1934.91,41.745C1931.16,35.418 1925.33,32.089 1918.25,32.089C1906.41,32.089 1898.34,40.579 1898.34,52.917C1898.34,65.087 1905.5,73.411 1916,73.411C1919,73.411 1921.83,72.579 1923.66,71.247C1924.75,70.498 1925.41,69.749 1927.33,67.584C1927.33,79 1924.16,84.422 1917.58,84.422C1913.41,84.422 1910.66,82.17 1910.41,78.666L1899.17,78.666ZM1917.91,41.578C1923.58,41.578 1927.08,45.913 1927.08,52.917C1927.08,59.42 1923.5,63.755 1918.08,63.755C1912.75,63.755 1909.41,59.587 1909.41,52.75C1909.41,45.913 1912.66,41.578 1917.91,41.578Z" style="fill:#fff;fill-rule:nonzero;"/>
        <path d="M2115.11,67.87L2103.03,67.87L2103.03,55.795L2098.95,55.795L2098.95,67.87L2086.88,67.87L2086.88,71.946L2098.95,71.946L2098.95,84.021L2103.03,84.021L2103.03,71.946L2115.11,71.946L2115.11,67.87Z" style="fill:#727272;fill-rule:nonzero;"/>
        <path d="M2139.44,83.438L2155.82,83.438C2166.56,83.438 2173.15,75.395 2173.15,62.15C2173.15,48.964 2166.62,40.92 2155.82,40.92L2139.44,40.92L2139.44,83.438ZM2144.86,78.662L2144.86,45.696L2154.89,45.696C2163.29,45.696 2167.73,51.356 2167.73,62.208C2167.73,73.002 2163.29,78.662 2154.89,78.662L2144.86,78.662Z" style="fill:#727272;fill-rule:nonzero;"/>
        <path d="M2187.2,65.121L2201.21,65.121C2206.05,65.121 2208.21,67.456 2208.21,72.708L2208.15,76.501C2208.15,79.127 2208.62,81.695 2209.38,83.438L2215.96,83.438L2215.96,82.104C2213.92,80.703 2213.51,79.186 2213.4,73.525C2213.34,66.522 2212.23,64.422 2207.63,62.442C2212.41,60.053 2214.33,57.194 2214.33,52.291C2214.33,44.939 2209.79,40.92 2201.38,40.92L2181.79,40.92L2181.79,83.438L2187.2,83.438L2187.2,65.121ZM2187.2,60.345L2187.2,45.696L2200.33,45.696C2203.37,45.696 2205.12,46.163 2206.46,47.33C2207.92,48.556 2208.68,50.482 2208.68,52.992C2208.68,58.069 2206.11,60.345 2200.33,60.345L2187.2,60.345Z" style="fill:#727272;fill-rule:nonzero;"/>
        <path d="M2246.47,70.663L2250.85,83.438L2256.92,83.438L2241.98,40.92L2234.98,40.92L2219.82,83.438L2225.59,83.438L2230.08,70.663L2246.47,70.663ZM2244.96,66.12L2231.43,66.12L2238.43,46.748L2244.96,66.12Z" style="fill:#727272;fill-rule:nonzero;"/>
        <path d="M2298.33,83.438L2309.12,40.92L2303.06,40.92L2295.24,75.452L2285.56,40.92L2279.72,40.92L2270.28,75.452L2262.28,40.92L2256.22,40.92L2267.12,83.438L2273.08,83.438L2282.58,48.497L2292.38,83.438L2298.33,83.438Z" style="fill:#727272;fill-rule:nonzero;"/>
        <path d="M2339.98,40.92C2334.15,48.555 2330.48,59.171 2330.48,68.33C2330.48,77.546 2334.15,88.163 2339.98,95.805L2343.19,95.805C2338.05,87.463 2335.2,77.663 2335.2,68.33C2335.2,59.055 2338.05,49.196 2343.19,40.92L2339.98,40.92Z" style="fill:#727272;fill-rule:nonzero;"/>
        <rect x="2351.48" y="40.92" width="5.476" height="42.518" style="fill:#727272;fill-rule:nonzero;"/>
        <path d="M2372.53,64.071L2392.83,64.071L2392.83,59.295L2372.53,59.295L2372.53,45.696L2395.63,45.696L2395.63,40.92L2367.11,40.92L2367.11,83.438L2372.53,83.438L2372.53,64.071Z" style="fill:#727272;fill-rule:nonzero;"/>
        <path d="M2424.39,64.071L2447.55,64.071L2447.55,59.295L2424.39,59.295L2424.39,45.696L2448.42,45.696L2448.42,40.92L2418.97,40.92L2418.97,83.438L2449.47,83.438L2449.47,78.662L2424.39,78.662L2424.39,64.071Z" style="fill:#727272;fill-rule:nonzero;"/>
        <path d="M2480.33,70.663L2484.71,83.438L2490.78,83.438L2475.84,40.92L2468.84,40.92L2453.68,83.438L2459.45,83.438L2463.94,70.663L2480.33,70.663ZM2478.82,66.12L2465.28,66.12L2472.28,46.748L2478.82,66.12Z" style="fill:#727272;fill-rule:nonzero;"/>
        <path d="M2502.44,65.121L2516.44,65.121C2521.29,65.121 2523.45,67.456 2523.45,72.708L2523.39,76.501C2523.39,79.127 2523.85,81.695 2524.61,83.438L2531.2,83.438L2531.2,82.104C2529.16,80.703 2528.75,79.186 2528.63,73.525C2528.57,66.522 2527.47,64.422 2522.86,62.442C2527.64,60.053 2529.56,57.194 2529.56,52.291C2529.56,44.939 2525.02,40.92 2516.62,40.92L2497.02,40.92L2497.02,83.438L2502.44,83.438L2502.44,65.121ZM2502.44,60.345L2502.44,45.696L2515.57,45.696C2518.6,45.696 2520.35,46.163 2521.69,47.33C2523.15,48.556 2523.91,50.482 2523.91,52.992C2523.91,58.069 2521.34,60.345 2515.57,60.345L2502.44,60.345Z" style="fill:#727272;fill-rule:nonzero;"/>
        <path d="M2543.39,40.92L2537.97,40.92L2537.97,83.438L2564.39,83.438L2564.39,78.662L2543.39,78.662L2543.39,40.92Z" style="fill:#727272;fill-rule:nonzero;"/>
        <path d="M2581.19,66.759L2597.17,40.92L2590.7,40.92L2578.57,61.625L2566.09,40.92L2559.38,40.92L2575.77,66.759L2575.77,83.438L2581.19,83.438L2581.19,66.759Z" style="fill:#727272;fill-rule:nonzero;"/>
        <path d="M2603.71,95.805C2609.54,88.163 2613.21,77.546 2613.21,68.388C2613.21,59.171 2609.54,48.555 2603.71,40.92L2600.5,40.92C2605.64,49.255 2608.49,59.055 2608.49,68.388C2608.49,77.663 2605.64,87.521 2600.5,95.805L2603.71,95.805Z" style="fill:#727272;fill-rule:nonzero;"/>
    </g>
    <g id="NUMS">
        <path d="M1623.89,347.556L1593.8,347.556C1595.7,343.755 1597.9,341.655 1608.31,334.153C1620.6,325.15 1624.19,319.849 1624.19,310.147C1624.19,296.447 1614.7,287.656 1599.9,287.656C1585.2,287.656 1576.61,296.347 1576.61,311.347L1576.61,313.848L1590.09,313.848L1590.09,311.547C1590.09,303.645 1593.8,299.044 1600.2,299.044C1606.4,299.044 1610.21,303.345 1610.21,310.447C1610.21,318.349 1607.81,321.249 1592,332.452C1580,340.654 1576.31,346.856 1575.71,360.044L1623.89,360.044L1623.89,347.556Z" style="fill:#727272;fill-rule:nonzero;"/>
        <path d="M1725.66,328.351C1731.06,328.351 1731.36,328.351 1733.86,329.051C1738.56,330.351 1741.56,334.452 1741.56,339.654C1741.56,345.955 1737.16,350.356 1731.06,350.356C1724.46,350.356 1720.86,346.555 1720.46,339.254L1706.86,339.254C1706.96,353.453 1716.16,362.344 1730.76,362.344C1745.85,362.344 1755.54,353.453 1755.54,339.654C1755.54,331.352 1751.95,325.95 1743.95,322.049C1750.45,317.948 1753.24,313.447 1753.24,306.946C1753.24,295.148 1744.45,287.656 1730.76,287.656C1720.46,287.656 1712.56,292.151 1709.46,299.844C1708.16,303.245 1707.76,305.545 1707.76,311.447L1720.76,311.447C1720.86,307.646 1721.16,305.745 1721.86,303.945C1723.16,300.844 1726.36,298.944 1730.46,298.944C1736.06,298.944 1739.26,302.345 1739.26,308.246C1739.26,315.448 1735.16,318.949 1726.86,318.949L1725.66,318.949L1725.66,328.351Z" style="fill:#727272;fill-rule:nonzero;"/>
        <path d="M1493.64,198.381L1486.24,198.381L1486.24,154.781L1469.76,154.781L1443.86,198.181L1443.86,209.969L1472.26,209.969L1472.26,225.669L1486.24,225.669L1486.24,209.969L1493.64,209.969L1493.64,198.381ZM1472.26,198.381L1453.76,198.381L1472.26,168.081L1472.26,198.381Z" style="fill:#727272;fill-rule:nonzero;"/>
        <path d="M1621.6,154.781L1583.71,154.781L1577.41,194.271L1590.01,194.271C1591.51,190.77 1594.71,188.869 1599.01,188.869C1606.11,188.869 1610.41,193.971 1610.41,202.575C1610.41,210.879 1606.11,215.981 1599.01,215.981C1592.91,215.981 1589.51,212.88 1589.21,207.177L1575.41,207.177C1575.61,219.577 1585.01,227.969 1598.81,227.969C1614,227.969 1624.39,217.58 1624.39,202.275C1624.39,187.67 1615.4,177.781 1602.31,177.781C1597.61,177.781 1594.11,178.98 1590.01,182.076L1592.31,167.269L1621.6,167.269L1621.6,154.781Z" style="fill:#727272;fill-rule:nonzero;"/>
        <path d="M1754.64,170.874C1753.94,166.27 1753.05,163.969 1751.25,161.372C1747.55,156.278 1741.06,153.281 1733.35,153.281C1724.55,153.281 1717.35,157.177 1713.05,164.269C1708.86,171.174 1707.16,179.081 1707.16,191.97C1707.16,204.175 1708.65,211.779 1712.25,217.48C1716.35,224.073 1723.75,227.969 1732.15,227.969C1746.25,227.969 1755.84,217.48 1755.84,201.974C1755.84,188.371 1747.45,178.981 1735.25,178.981C1729.45,178.981 1725.55,180.679 1721.14,185.274L1721.24,183.776C1721.44,177.18 1721.74,175.078 1722.75,172.376C1724.65,167.171 1728.05,164.569 1732.95,164.569C1737.45,164.569 1739.86,166.37 1741.66,170.874L1754.64,170.874ZM1731.75,190.069C1738.35,190.069 1742.56,195.071 1742.56,202.975C1742.56,210.479 1737.95,215.981 1731.75,215.981C1725.35,215.981 1720.94,210.779 1720.94,203.175C1720.94,195.471 1725.35,190.069 1731.75,190.069Z" style="fill:#727272;fill-rule:nonzero;"/>
        <path d="M1613.6,52.701C1616,51.403 1617.1,50.704 1618.2,49.705C1621.1,47.005 1622.79,42.702 1622.79,38.099C1622.79,26.997 1613.2,18.906 1600.1,18.906C1586.9,18.906 1577.31,26.997 1577.31,38.199C1577.31,45.004 1580.1,49.306 1586.5,52.701C1578.3,57.195 1574.91,62.496 1574.91,70.901C1574.91,84.303 1585.2,93.594 1600.1,93.594C1614.9,93.594 1625.19,84.303 1625.19,70.901C1625.19,62.496 1621.8,57.195 1613.6,52.701L1613.6,52.701ZM1600.2,30.194C1606.4,30.194 1610.71,33.996 1610.71,39.5C1610.71,44.904 1606.3,48.806 1600.2,48.806C1593.9,48.806 1589.59,45.004 1589.59,39.4C1589.59,33.996 1593.9,30.194 1600.2,30.194ZM1600,58.294C1606.9,58.294 1611.21,62.896 1611.21,70.3C1611.21,77.104 1606.8,81.606 1600,81.606C1593.2,81.606 1588.89,77.104 1588.89,70.1C1588.89,62.896 1593.2,58.294 1600,58.294Z" style="fill:#727272;fill-rule:nonzero;"/>
        <path d="M1707.76,74.8C1708.06,85.702 1717.25,93.694 1729.44,93.694C1738.54,93.694 1745.44,89.898 1749.64,82.705C1753.34,76.401 1755.54,65.697 1755.54,54.305C1755.54,43.9 1753.94,35.896 1750.64,30.494C1746.14,22.902 1739.14,18.906 1730.64,18.906C1716.45,18.906 1706.76,29.095 1706.76,43.9C1706.76,58.505 1715.35,68.494 1727.94,68.494C1731.54,68.494 1734.94,67.495 1737.14,65.897C1738.44,64.998 1739.24,64.099 1741.54,61.501C1741.54,75.2 1737.74,81.706 1729.84,81.706C1724.84,81.706 1721.54,79.004 1721.24,74.8L1707.76,74.8ZM1730.24,30.294C1737.04,30.294 1741.24,35.496 1741.24,43.9C1741.24,51.704 1736.94,56.906 1730.44,56.906C1724.04,56.906 1720.04,51.904 1720.04,43.7C1720.04,35.496 1723.94,30.294 1730.24,30.294Z" style="fill:#727272;fill-rule:nonzero;"/>
        <path d="M1468.75,422.031C1461.14,422.031 1454.65,425.228 1450.35,431.121C1446.26,436.62 1444.36,445.622 1444.36,459.425C1444.36,472.028 1445.95,480.83 1449.35,486.23C1453.55,493.023 1460.44,496.719 1468.75,496.719C1476.45,496.719 1482.75,493.622 1487.15,487.728C1491.14,482.231 1493.14,473.128 1493.14,459.825C1493.14,446.822 1491.55,438.02 1488.15,432.52C1483.95,425.727 1477.06,422.031 1468.75,422.031ZM1468.75,433.319C1472.35,433.319 1475.25,435.319 1476.95,439.02C1478.36,442.021 1479.16,449.723 1479.16,459.525C1479.16,467.527 1478.46,475.329 1477.36,478.23C1475.75,482.431 1472.75,484.731 1468.75,484.731C1465.05,484.731 1462.25,482.831 1460.55,479.23C1459.14,476.229 1458.34,468.827 1458.34,459.325C1458.34,450.923 1459.04,442.921 1460.14,440.02C1461.65,435.719 1464.75,433.319 1468.75,433.319Z" style="fill:#727272;fill-rule:nonzero;"/>
    </g>
</svg>
