<?xml version="1.0" encoding="UTF-8" standalone="no"?>
<!DOCTYPE svg PUBLIC "-//W3C//DTD SVG 1.1//EN" "http://www.w3.org/Graphics/SVG/1.1/DTD/svg11.dtd">
<svg width="100%" height="100%" viewBox="0 0 3200 950" version="1.1" xmlns="http://www.w3.org/2000/svg" xmlns:xlink="http://www.w3.org/1999/xlink" xml:space="preserve" xmlns:serif="http://www.serif.com/" style="fill-rule:evenodd;clip-rule:evenodd;stroke-linejoin:round;stroke-miterlimit:2;">
    <rect id="RESULT_NUM" x="0" y="0" width="3200" height="950" style="fill:none;"/>
    <g id="PAD">
        <g id="_1" serif:id="1">
            <rect x="1418.75" y="521.875" width="100" height="103.125" style="fill:#fff;"/>
            <path d="M1528.12,521.875L1528.12,625C1528.12,630.178 1523.93,634.375 1518.75,634.375L1418.75,634.375C1413.57,634.375 1409.38,630.178 1409.38,625L1409.38,521.875C1409.38,516.697 1413.57,512.5 1418.75,512.5L1518.75,512.5C1523.93,512.5 1528.12,516.697 1528.12,521.875ZM1518.75,521.875L1418.75,521.875L1418.75,625L1518.75,625L1518.75,521.875Z" style="fill:#727272;"/>
            <rect x="1418.75" y="615.625" width="100" height="9.375" style="fill:#727272;"/>
        </g>
        <g id="_2" serif:id="2">
            <rect x="1550" y="521.875" width="100" height="103.125" style="fill:#fff;"/>
            <path d="M1659.38,521.875L1659.38,625C1659.38,630.178 1655.18,634.375 1650,634.375L1550,634.375C1544.82,634.375 1540.62,630.178 1540.62,625L1540.62,521.875C1540.62,516.697 1544.82,512.5 1550,512.5L1650,512.5C1655.18,512.5 1659.38,516.697 1659.38,521.875ZM1650,521.875L1550,521.875L1550,625L1650,625L1650,521.875Z" style="fill:#727272;"/>
            <rect x="1550" y="615.625" width="100" height="9.375" style="fill:#727272;"/>
        </g>
        <g id="_3" serif:id="3">
            <rect x="1681.25" y="521.875" width="100" height="103.125" style="fill:#fff;"/>
            <path d="M1790.62,521.875L1790.62,625C1790.62,630.178 1786.43,634.375 1781.25,634.375L1681.25,634.375C1676.07,634.375 1671.88,630.178 1671.88,625L1671.88,521.875C1671.88,516.697 1676.07,512.5 1681.25,512.5L1781.25,512.5C1786.43,512.5 1790.62,516.697 1790.62,521.875ZM1781.25,521.875L1681.25,521.875L1681.25,625L1781.25,625L1781.25,521.875Z" style="fill:#727272;"/>
            <rect x="1681.25" y="615.625" width="100" height="9.375" style="fill:#727272;"/>
        </g>
        <g id="_4" serif:id="4">
            <rect x="1418.75" y="387.5" width="100" height="103.125" style="fill:#fff;"/>
            <path d="M1528.12,387.5L1528.12,490.625C1528.12,495.803 1523.93,500 1518.75,500L1418.75,500C1413.57,500 1409.38,495.803 1409.38,490.625L1409.38,387.5C1409.38,382.322 1413.57,378.125 1418.75,378.125L1518.75,378.125C1523.93,378.125 1528.12,382.322 1528.12,387.5ZM1518.75,387.5L1418.75,387.5L1418.75,490.625L1518.75,490.625L1518.75,387.5Z" style="fill:#727272;"/>
            <rect x="1418.75" y="481.25" width="100" height="9.375" style="fill:#727272;"/>
        </g>
        <g id="_5" serif:id="5">
            <rect x="1550" y="387.5" width="100" height="103.125" style="fill:#fff;"/>
            <path d="M1659.38,387.5L1659.38,490.625C1659.38,495.803 1655.18,500 1650,500L1550,500C1544.82,500 1540.62,495.803 1540.62,490.625L1540.62,387.5C1540.62,382.322 1544.82,378.125 1550,378.125L1650,378.125C1655.18,378.125 1659.38,382.322 1659.38,387.5ZM1650,387.5L1550,387.5L1550,490.625L1650,490.625L1650,387.5Z" style="fill:#727272;"/>
            <rect x="1550" y="481.25" width="100" height="9.375" style="fill:#727272;"/>
        </g>
        <g id="_6" serif:id="6">
            <rect x="1681.25" y="387.5" width="100" height="103.125" style="fill:#fff;"/>
            <path d="M1790.62,387.5L1790.62,490.625C1790.62,495.803 1786.43,500 1781.25,500L1681.25,500C1676.07,500 1671.88,495.803 1671.88,490.625L1671.88,387.5C1671.88,382.322 1676.07,378.125 1681.25,378.125L1781.25,378.125C1786.43,378.125 1790.62,382.322 1790.62,387.5ZM1781.25,387.5L1681.25,387.5L1681.25,490.625L1781.25,490.625L1781.25,387.5Z" style="fill:#727272;"/>
            <rect x="1681.25" y="481.25" width="100" height="9.375" style="fill:#727272;"/>
        </g>
        <g id="_7" serif:id="7">
            <rect x="1418.75" y="253.125" width="100" height="103.125" style="fill:#fff;"/>
            <path d="M1528.12,253.125L1528.12,356.25C1528.12,361.428 1523.93,365.625 1518.75,365.625L1418.75,365.625C1413.57,365.625 1409.38,361.428 1409.38,356.25L1409.38,253.125C1409.38,247.947 1413.57,243.75 1418.75,243.75L1518.75,243.75C1523.93,243.75 1528.12,247.947 1528.12,253.125ZM1518.75,253.125L1418.75,253.125L1418.75,356.25L1518.75,356.25L1518.75,253.125Z" style="fill:#727272;"/>
            <rect x="1418.75" y="346.875" width="100" height="9.375" style="fill:#727272;"/>
        </g>
        <g id="_8" serif:id="8">
            <rect x="1550" y="253.125" width="100" height="103.125" style="fill:#fff;"/>
            <path d="M1659.38,253.125L1659.38,356.25C1659.38,361.428 1655.18,365.625 1650,365.625L1550,365.625C1544.82,365.625 1540.62,361.428 1540.62,356.25L1540.62,253.125C1540.62,247.947 1544.82,243.75 1550,243.75L1650,243.75C1655.18,243.75 1659.38,247.947 1659.38,253.125ZM1650,253.125L1550,253.125L1550,356.25L1650,356.25L1650,253.125Z" style="fill:#727272;"/>
            <rect x="1550" y="346.875" width="100" height="9.375" style="fill:#727272;"/>
        </g>
        <g id="_9" serif:id="9">
            <rect x="1681.25" y="253.125" width="100" height="103.125" style="fill:#fff;"/>
            <path d="M1790.62,253.125L1790.62,356.25C1790.62,361.428 1786.43,365.625 1781.25,365.625L1681.25,365.625C1676.07,365.625 1671.88,361.428 1671.88,356.25L1671.88,253.125C1671.88,247.947 1676.07,243.75 1681.25,243.75L1781.25,243.75C1786.43,243.75 1790.62,247.947 1790.62,253.125ZM1781.25,253.125L1681.25,253.125L1681.25,356.25L1781.25,356.25L1781.25,253.125Z" style="fill:#727272;"/>
            <rect x="1681.25" y="346.875" width="100" height="9.375" style="fill:#727272;"/>
        </g>
        <g id="_0" serif:id="0">
            <rect x="1418.75" y="656.25" width="100" height="103.125" style="fill:#fff;"/>
            <path d="M1528.12,656.25L1528.12,759.375C1528.12,764.553 1523.93,768.75 1518.75,768.75L1418.75,768.75C1413.57,768.75 1409.38,764.553 1409.38,759.375L1409.38,656.25C1409.38,651.072 1413.57,646.875 1418.75,646.875L1518.75,646.875C1523.93,646.875 1528.12,651.072 1528.12,656.25ZM1518.75,656.25L1418.75,656.25L1418.75,759.375L1518.75,759.375L1518.75,656.25Z" style="fill:#727272;"/>
            <rect x="1418.75" y="750" width="100" height="9.375" style="fill:#727272;"/>
        </g>
        <g id="_00" serif:id="00">
            <rect x="1550" y="656.25" width="100" height="103.125" style="fill:#fff;"/>
            <path d="M1659.38,656.25L1659.38,759.375C1659.38,764.553 1655.18,768.75 1650,768.75L1550,768.75C1544.82,768.75 1540.62,764.553 1540.62,759.375L1540.62,656.25C1540.62,651.072 1544.82,646.875 1550,646.875L1650,646.875C1655.18,646.875 1659.38,651.072 1659.38,656.25ZM1650,656.25L1550,656.25L1550,759.375L1650,759.375L1650,656.25Z" style="fill:#727272;"/>
            <rect x="1550" y="750" width="100" height="9.375" style="fill:#727272;"/>
        </g>
        <g id="EMPTY">
            <rect x="1681.25" y="656.25" width="100" height="103.125" style="fill:#fff;"/>
            <path d="M1790.62,656.25L1790.62,759.375C1790.62,764.553 1786.43,768.75 1781.25,768.75L1681.25,768.75C1676.07,768.75 1671.88,764.553 1671.88,759.375L1671.88,656.25C1671.88,651.072 1676.07,646.875 1681.25,646.875L1781.25,646.875C1786.43,646.875 1790.62,651.072 1790.62,656.25ZM1781.25,656.25L1681.25,656.25L1681.25,759.375L1781.25,759.375L1781.25,656.25Z" style="fill:#727272;"/>
            <rect x="1681.25" y="750" width="100" height="9.375" style="fill:#727272;"/>
        </g>
    </g>
    <g id="NUMS">
        <path d="M1465.26,554.906L1465.26,603.794L1479.24,603.794L1479.24,532.906L1469.95,532.906C1467.75,541.306 1460.46,545.606 1448.26,545.606L1448.26,554.906L1465.26,554.906Z" style="fill:#727272;fill-rule:nonzero;"/>
        <path d="M1623.89,591.306L1593.8,591.306C1595.7,587.505 1597.9,585.405 1608.31,577.903C1620.6,568.9 1624.19,563.599 1624.19,553.897C1624.19,540.197 1614.7,531.406 1599.9,531.406C1585.2,531.406 1576.61,540.097 1576.61,555.097L1576.61,557.598L1590.09,557.598L1590.09,555.297C1590.09,547.395 1593.8,542.794 1600.2,542.794C1606.4,542.794 1610.21,547.095 1610.21,554.197C1610.21,562.099 1607.81,564.999 1592,576.202C1580,584.404 1576.31,590.606 1575.71,603.794L1623.89,603.794L1623.89,591.306Z" style="fill:#727272;fill-rule:nonzero;"/>
        <path d="M1725.66,572.101C1731.06,572.101 1731.36,572.101 1733.86,572.801C1738.56,574.101 1741.56,578.202 1741.56,583.404C1741.56,589.705 1737.16,594.106 1731.06,594.106C1724.46,594.106 1720.86,590.305 1720.46,583.004L1706.86,583.004C1706.96,597.203 1716.16,606.094 1730.76,606.094C1745.85,606.094 1755.54,597.203 1755.54,583.404C1755.54,575.102 1751.95,569.7 1743.95,565.799C1750.45,561.698 1753.24,557.197 1753.24,550.696C1753.24,538.898 1744.45,531.406 1730.76,531.406C1720.46,531.406 1712.56,535.901 1709.46,543.594C1708.16,546.995 1707.76,549.295 1707.76,555.197L1720.76,555.197C1720.86,551.396 1721.16,549.495 1721.86,547.695C1723.16,544.594 1726.36,542.694 1730.46,542.694C1736.06,542.694 1739.26,546.095 1739.26,551.996C1739.26,559.198 1735.16,562.699 1726.86,562.699L1725.66,562.699L1725.66,572.101Z" style="fill:#727272;fill-rule:nonzero;"/>
        <path d="M1493.64,442.131L1486.24,442.131L1486.24,398.531L1469.76,398.531L1443.86,441.931L1443.86,453.719L1472.26,453.719L1472.26,469.419L1486.24,469.419L1486.24,453.719L1493.64,453.719L1493.64,442.131ZM1472.26,442.131L1453.76,442.131L1472.26,411.831L1472.26,442.131Z" style="fill:#727272;fill-rule:nonzero;"/>
        <path d="M1621.6,398.531L1583.71,398.531L1577.41,438.021L1590.01,438.021C1591.51,434.52 1594.71,432.619 1599.01,432.619C1606.11,432.619 1610.41,437.721 1610.41,446.325C1610.41,454.629 1606.11,459.731 1599.01,459.731C1592.91,459.731 1589.51,456.63 1589.21,450.927L1575.41,450.927C1575.61,463.327 1585.01,471.719 1598.81,471.719C1614,471.719 1624.39,461.33 1624.39,446.025C1624.39,431.42 1615.4,421.531 1602.31,421.531C1597.61,421.531 1594.11,422.73 1590.01,425.826L1592.31,411.019L1621.6,411.019L1621.6,398.531Z" style="fill:#727272;fill-rule:nonzero;"/>
        <path d="M1754.64,414.624C1753.94,410.02 1753.05,407.719 1751.25,405.122C1747.55,400.028 1741.06,397.031 1733.35,397.031C1724.55,397.031 1717.35,400.927 1713.05,408.019C1708.86,414.924 1707.16,422.831 1707.16,435.72C1707.16,447.925 1708.65,455.529 1712.25,461.23C1716.35,467.823 1723.75,471.719 1732.15,471.719C1746.25,471.719 1755.84,461.23 1755.84,445.724C1755.84,432.121 1747.45,422.731 1735.25,422.731C1729.45,422.731 1725.55,424.429 1721.14,429.024L1721.24,427.526C1721.44,420.93 1721.74,418.828 1722.75,416.126C1724.65,410.921 1728.05,408.319 1732.95,408.319C1737.45,408.319 1739.86,410.12 1741.66,414.624L1754.64,414.624ZM1731.75,433.819C1738.35,433.819 1742.56,438.821 1742.56,446.725C1742.56,454.229 1737.95,459.731 1731.75,459.731C1725.35,459.731 1720.94,454.529 1720.94,446.925C1720.94,439.221 1725.35,433.819 1731.75,433.819Z" style="fill:#727272;fill-rule:nonzero;"/>
        <path d="M1494.25,264.156L1444.35,264.156L1444.35,276.644L1479.65,276.644C1475.35,281.244 1466.85,294.147 1464.05,300.349C1459.15,310.651 1456.65,319.953 1454.75,335.044L1468.85,335.044C1470.15,312.652 1477.45,295.448 1494.25,275.145L1494.25,264.156Z" style="fill:#727272;fill-rule:nonzero;"/>
        <path d="M1613.6,296.451C1616,295.153 1617.1,294.454 1618.2,293.455C1621.1,290.755 1622.79,286.452 1622.79,281.849C1622.79,270.747 1613.2,262.656 1600.1,262.656C1586.9,262.656 1577.31,270.747 1577.31,281.949C1577.31,288.754 1580.1,293.056 1586.5,296.451C1578.3,300.945 1574.91,306.246 1574.91,314.651C1574.91,328.053 1585.2,337.344 1600.1,337.344C1614.9,337.344 1625.19,328.053 1625.19,314.651C1625.19,306.246 1621.8,300.945 1613.6,296.451L1613.6,296.451ZM1600.2,273.944C1606.4,273.944 1610.71,277.746 1610.71,283.25C1610.71,288.654 1606.3,292.556 1600.2,292.556C1593.9,292.556 1589.59,288.754 1589.59,283.15C1589.59,277.746 1593.9,273.944 1600.2,273.944ZM1600,302.044C1606.9,302.044 1611.21,306.646 1611.21,314.05C1611.21,320.854 1606.8,325.356 1600,325.356C1593.2,325.356 1588.89,320.854 1588.89,313.85C1588.89,306.646 1593.2,302.044 1600,302.044Z" style="fill:#727272;fill-rule:nonzero;"/>
        <path d="M1707.76,318.55C1708.06,329.452 1717.25,337.444 1729.44,337.444C1738.54,337.444 1745.44,333.648 1749.64,326.455C1753.34,320.151 1755.54,309.447 1755.54,298.055C1755.54,287.65 1753.94,279.646 1750.64,274.244C1746.14,266.652 1739.14,262.656 1730.64,262.656C1716.45,262.656 1706.76,272.845 1706.76,287.65C1706.76,302.255 1715.35,312.244 1727.94,312.244C1731.54,312.244 1734.94,311.245 1737.14,309.647C1738.44,308.748 1739.24,307.849 1741.54,305.251C1741.54,318.95 1737.74,325.456 1729.84,325.456C1724.84,325.456 1721.54,322.754 1721.24,318.55L1707.76,318.55ZM1730.24,274.044C1737.04,274.044 1741.24,279.246 1741.24,287.65C1741.24,295.454 1736.94,300.656 1730.44,300.656C1724.04,300.656 1720.04,295.654 1720.04,287.45C1720.04,279.246 1723.94,274.044 1730.24,274.044Z" style="fill:#727272;fill-rule:nonzero;"/>
        <path d="M1468.75,665.781C1461.14,665.781 1454.65,668.978 1450.35,674.871C1446.26,680.37 1444.36,689.372 1444.36,703.175C1444.36,715.778 1445.95,724.58 1449.35,729.98C1453.55,736.773 1460.44,740.469 1468.75,740.469C1476.45,740.469 1482.75,737.372 1487.15,731.478C1491.14,725.981 1493.14,716.878 1493.14,703.575C1493.14,690.572 1491.55,681.77 1488.15,676.27C1483.95,669.477 1477.06,665.781 1468.75,665.781ZM1468.75,677.069C1472.35,677.069 1475.25,679.069 1476.95,682.77C1478.36,685.771 1479.16,693.473 1479.16,703.275C1479.16,711.277 1478.46,719.079 1477.36,721.98C1475.75,726.181 1472.75,728.481 1468.75,728.481C1465.05,728.481 1462.25,726.581 1460.55,722.98C1459.14,719.979 1458.34,712.577 1458.34,703.075C1458.34,694.673 1459.04,686.671 1460.14,683.77C1461.65,679.469 1464.75,677.069 1468.75,677.069Z" style="fill:#727272;fill-rule:nonzero;"/>
        <path d="M1576.83,672.005C1570.5,672.005 1565.08,674.669 1561.5,679.58C1558.09,684.162 1556.51,691.664 1556.51,703.167C1556.51,713.669 1557.84,721.004 1560.67,725.504C1564.16,731.165 1569.91,734.245 1576.83,734.245C1583.25,734.245 1588.5,731.664 1592.17,726.753C1595.5,722.171 1597.16,714.586 1597.16,703.5C1597.16,692.664 1595.83,685.329 1593,680.746C1589.5,675.085 1583.75,672.005 1576.83,672.005ZM1576.83,681.411C1579.84,681.411 1582.25,683.078 1583.67,686.163C1584.84,688.663 1585.51,695.081 1585.51,703.25C1585.51,709.918 1584.92,716.42 1584,718.837C1582.67,722.338 1580.17,724.255 1576.83,724.255C1573.75,724.255 1571.41,722.671 1570,719.671C1568.83,717.17 1568.16,711.002 1568.16,703.083C1568.16,696.082 1568.75,689.413 1569.66,686.996C1570.91,683.412 1573.5,681.411 1576.83,681.411Z" style="fill:#727272;fill-rule:nonzero;"/>
        <path d="M1623.17,672.005C1616.83,672.005 1611.41,674.669 1607.83,679.58C1604.42,684.162 1602.84,691.664 1602.84,703.167C1602.84,713.669 1604.17,721.004 1607,725.504C1610.5,731.165 1616.25,734.245 1623.17,734.245C1629.59,734.245 1634.84,731.664 1638.5,726.753C1641.83,722.171 1643.5,714.586 1643.5,703.5C1643.5,692.664 1642.16,685.329 1639.33,680.746C1635.84,675.085 1630.09,672.005 1623.17,672.005ZM1623.17,681.411C1626.17,681.411 1628.59,683.078 1630,686.163C1631.17,688.663 1631.84,695.081 1631.84,703.25C1631.84,709.918 1631.26,716.42 1630.34,718.837C1629,722.338 1626.5,724.255 1623.17,724.255C1620.08,724.255 1617.75,722.671 1616.33,719.671C1615.16,717.17 1614.5,711.002 1614.5,703.083C1614.5,696.082 1615.08,689.413 1616,686.996C1617.25,683.412 1619.83,681.411 1623.17,681.411Z" style="fill:#727272;fill-rule:nonzero;"/>
    </g>
</svg>
