<?xml version="1.0" encoding="UTF-8" standalone="no"?>
<!DOCTYPE svg PUBLIC "-//W3C//DTD SVG 1.1//EN" "http://www.w3.org/Graphics/SVG/1.1/DTD/svg11.dtd">
<svg width="100%" height="100%" viewBox="0 0 3200 525" version="1.1" xmlns="http://www.w3.org/2000/svg" xmlns:xlink="http://www.w3.org/1999/xlink" xml:space="preserve" xmlns:serif="http://www.serif.com/" style="fill-rule:evenodd;clip-rule:evenodd;stroke-linejoin:round;stroke-miterlimit:2;">
    <rect id="RESULT_NUM" x="-0" y="-0" width="3200" height="525" style="fill:none;"/>
    <g id="PAD">
        <g id="_1" serif:id="1">
            <rect x="1418.75" y="278.125" width="100" height="103.125" style="fill:#fff;"/>
            <path d="M1528.12,278.125L1528.12,381.25C1528.12,386.428 1523.93,390.625 1518.75,390.625L1418.75,390.625C1413.57,390.625 1409.38,386.428 1409.38,381.25L1409.38,278.125C1409.38,272.947 1413.57,268.75 1418.75,268.75L1518.75,268.75C1523.93,268.75 1528.12,272.947 1528.12,278.125ZM1518.75,278.125L1418.75,278.125L1418.75,381.25L1518.75,381.25L1518.75,278.125Z" style="fill:#727272;"/>
            <rect x="1418.75" y="371.875" width="100" height="9.375" style="fill:#727272;"/>
        </g>
        <g id="_2" serif:id="2">
            <rect x="1550" y="278.125" width="100" height="103.125" style="fill:#fff;"/>
            <path d="M1659.38,278.125L1659.38,381.25C1659.38,386.428 1655.18,390.625 1650,390.625L1550,390.625C1544.82,390.625 1540.62,386.428 1540.62,381.25L1540.62,278.125C1540.62,272.947 1544.82,268.75 1550,268.75L1650,268.75C1655.18,268.75 1659.38,272.947 1659.38,278.125ZM1650,278.125L1550,278.125L1550,381.25L1650,381.25L1650,278.125Z" style="fill:#727272;"/>
            <rect x="1550" y="371.875" width="100" height="9.375" style="fill:#727272;"/>
        </g>
        <g id="_3" serif:id="3">
            <rect x="1681.25" y="278.125" width="100" height="103.125" style="fill:#fff;"/>
            <path d="M1790.62,278.125L1790.62,381.25C1790.62,386.428 1786.43,390.625 1781.25,390.625L1681.25,390.625C1676.07,390.625 1671.88,386.428 1671.88,381.25L1671.88,278.125C1671.88,272.947 1676.07,268.75 1681.25,268.75L1781.25,268.75C1786.43,268.75 1790.62,272.947 1790.62,278.125ZM1781.25,278.125L1681.25,278.125L1681.25,381.25L1781.25,381.25L1781.25,278.125Z" style="fill:#727272;"/>
            <rect x="1681.25" y="371.875" width="100" height="9.375" style="fill:#727272;"/>
        </g>
        <g id="_4" serif:id="4">
            <rect x="1418.75" y="143.75" width="100" height="103.125" style="fill:#fff;"/>
            <path d="M1528.12,143.75L1528.12,246.875C1528.12,252.053 1523.93,256.25 1518.75,256.25L1418.75,256.25C1413.57,256.25 1409.38,252.053 1409.38,246.875L1409.38,143.75C1409.38,138.572 1413.57,134.375 1418.75,134.375L1518.75,134.375C1523.93,134.375 1528.12,138.572 1528.12,143.75ZM1518.75,143.75L1418.75,143.75L1418.75,246.875L1518.75,246.875L1518.75,143.75Z" style="fill:#727272;"/>
            <rect x="1418.75" y="237.5" width="100" height="9.375" style="fill:#727272;"/>
        </g>
        <g id="_5" serif:id="5">
            <rect x="1550" y="143.75" width="100" height="103.125" style="fill:#fff;"/>
            <path d="M1659.38,143.75L1659.38,246.875C1659.38,252.053 1655.18,256.25 1650,256.25L1550,256.25C1544.82,256.25 1540.62,252.053 1540.62,246.875L1540.62,143.75C1540.62,138.572 1544.82,134.375 1550,134.375L1650,134.375C1655.18,134.375 1659.38,138.572 1659.38,143.75ZM1650,143.75L1550,143.75L1550,246.875L1650,246.875L1650,143.75Z" style="fill:#727272;"/>
            <rect x="1550" y="237.5" width="100" height="9.375" style="fill:#727272;"/>
        </g>
        <g id="_6" serif:id="6">
            <rect x="1681.25" y="143.75" width="100" height="103.125" style="fill:#fff;"/>
            <path d="M1790.62,143.75L1790.62,246.875C1790.62,252.053 1786.43,256.25 1781.25,256.25L1681.25,256.25C1676.07,256.25 1671.88,252.053 1671.88,246.875L1671.88,143.75C1671.88,138.572 1676.07,134.375 1681.25,134.375L1781.25,134.375C1786.43,134.375 1790.62,138.572 1790.62,143.75ZM1781.25,143.75L1681.25,143.75L1681.25,246.875L1781.25,246.875L1781.25,143.75Z" style="fill:#727272;"/>
            <rect x="1681.25" y="237.5" width="100" height="9.375" style="fill:#727272;"/>
        </g>
        <g id="_7" serif:id="7">
            <rect x="1418.75" y="9.375" width="100" height="103.125" style="fill:#fff;"/>
            <path d="M1528.12,9.375L1528.12,112.5C1528.12,117.678 1523.93,121.875 1518.75,121.875L1418.75,121.875C1413.57,121.875 1409.38,117.678 1409.38,112.5L1409.38,9.375C1409.38,4.197 1413.57,0 1418.75,0L1518.75,0C1523.93,0 1528.12,4.197 1528.12,9.375ZM1518.75,9.375L1418.75,9.375L1418.75,112.5L1518.75,112.5L1518.75,9.375Z" style="fill:#727272;"/>
            <rect x="1418.75" y="103.125" width="100" height="9.375" style="fill:#727272;"/>
        </g>
        <g id="_8" serif:id="8">
            <rect x="1550" y="9.375" width="100" height="103.125" style="fill:#fff;"/>
            <path d="M1659.38,9.375L1659.38,112.5C1659.38,117.678 1655.18,121.875 1650,121.875L1550,121.875C1544.82,121.875 1540.62,117.678 1540.62,112.5L1540.62,9.375C1540.62,4.197 1544.82,0 1550,0L1650,0C1655.18,0 1659.38,4.197 1659.38,9.375ZM1650,9.375L1550,9.375L1550,112.5L1650,112.5L1650,9.375Z" style="fill:#727272;"/>
            <rect x="1550" y="103.125" width="100" height="9.375" style="fill:#727272;"/>
        </g>
        <g id="_9" serif:id="9">
            <rect x="1681.25" y="9.375" width="100" height="103.125" style="fill:#fff;"/>
            <path d="M1790.62,9.375L1790.62,112.5C1790.62,117.678 1786.43,121.875 1781.25,121.875L1681.25,121.875C1676.07,121.875 1671.88,117.678 1671.88,112.5L1671.88,9.375C1671.88,4.197 1676.07,0 1681.25,0L1781.25,0C1786.43,0 1790.62,4.197 1790.62,9.375ZM1781.25,9.375L1681.25,9.375L1681.25,112.5L1781.25,112.5L1781.25,9.375Z" style="fill:#727272;"/>
            <rect x="1681.25" y="103.125" width="100" height="9.375" style="fill:#727272;"/>
        </g>
        <g id="_0" serif:id="0">
            <rect x="1418.75" y="412.5" width="100" height="103.125" style="fill:#fff;"/>
            <path d="M1528.12,412.5L1528.12,515.625C1528.12,520.803 1523.93,525 1518.75,525L1418.75,525C1413.57,525 1409.38,520.803 1409.38,515.625L1409.38,412.5C1409.38,407.322 1413.57,403.125 1418.75,403.125L1518.75,403.125C1523.93,403.125 1528.12,407.322 1528.12,412.5ZM1518.75,412.5L1418.75,412.5L1418.75,515.625L1518.75,515.625L1518.75,412.5Z" style="fill:#727272;"/>
            <rect x="1418.75" y="506.25" width="100" height="9.375" style="fill:#727272;"/>
        </g>
        <g id="_00" serif:id="00">
            <rect x="1550" y="412.5" width="100" height="103.125" style="fill:#fff;"/>
            <path d="M1659.38,412.5L1659.38,515.625C1659.38,520.803 1655.18,525 1650,525L1550,525C1544.82,525 1540.62,520.803 1540.62,515.625L1540.62,412.5C1540.62,407.322 1544.82,403.125 1550,403.125L1650,403.125C1655.18,403.125 1659.38,407.322 1659.38,412.5ZM1650,412.5L1550,412.5L1550,515.625L1650,515.625L1650,412.5Z" style="fill:#727272;"/>
            <rect x="1550" y="506.25" width="100" height="9.375" style="fill:#727272;"/>
        </g>
        <g id="EMPTY">
            <rect x="1681.25" y="412.5" width="100" height="103.125" style="fill:#fff;"/>
            <path d="M1790.62,412.5L1790.62,515.625C1790.62,520.803 1786.43,525 1781.25,525L1681.25,525C1676.07,525 1671.88,520.803 1671.88,515.625L1671.88,412.5C1671.88,407.322 1676.07,403.125 1681.25,403.125L1781.25,403.125C1786.43,403.125 1790.62,407.322 1790.62,412.5ZM1781.25,412.5L1681.25,412.5L1681.25,515.625L1781.25,515.625L1781.25,412.5Z" style="fill:#727272;"/>
            <rect x="1681.25" y="506.25" width="100" height="9.375" style="fill:#727272;"/>
        </g>
    </g>
    <g id="NUMS">
        <path d="M1465.26,311.156L1465.26,360.044L1479.24,360.044L1479.24,289.156L1469.95,289.156C1467.75,297.556 1460.46,301.856 1448.26,301.856L1448.26,311.156L1465.26,311.156Z" style="fill:#727272;fill-rule:nonzero;"/>
        <path d="M1623.89,347.556L1593.8,347.556C1595.7,343.755 1597.9,341.655 1608.31,334.153C1620.6,325.15 1624.19,319.849 1624.19,310.147C1624.19,296.447 1614.7,287.656 1599.9,287.656C1585.2,287.656 1576.61,296.347 1576.61,311.347L1576.61,313.848L1590.09,313.848L1590.09,311.547C1590.09,303.645 1593.8,299.044 1600.2,299.044C1606.4,299.044 1610.21,303.345 1610.21,310.447C1610.21,318.349 1607.81,321.249 1592,332.452C1580,340.654 1576.31,346.856 1575.71,360.044L1623.89,360.044L1623.89,347.556Z" style="fill:#727272;fill-rule:nonzero;"/>
        <path d="M1725.66,328.351C1731.06,328.351 1731.36,328.351 1733.86,329.051C1738.56,330.351 1741.56,334.452 1741.56,339.654C1741.56,345.955 1737.16,350.356 1731.06,350.356C1724.46,350.356 1720.86,346.555 1720.46,339.254L1706.86,339.254C1706.96,353.453 1716.16,362.344 1730.76,362.344C1745.85,362.344 1755.54,353.453 1755.54,339.654C1755.54,331.352 1751.95,325.95 1743.95,322.049C1750.45,317.948 1753.24,313.447 1753.24,306.946C1753.24,295.148 1744.45,287.656 1730.76,287.656C1720.46,287.656 1712.56,292.151 1709.46,299.844C1708.16,303.245 1707.76,305.545 1707.76,311.447L1720.76,311.447C1720.86,307.646 1721.16,305.745 1721.86,303.945C1723.16,300.844 1726.36,298.944 1730.46,298.944C1736.06,298.944 1739.26,302.345 1739.26,308.246C1739.26,315.448 1735.16,318.949 1726.86,318.949L1725.66,318.949L1725.66,328.351Z" style="fill:#727272;fill-rule:nonzero;"/>
        <path d="M1493.64,198.381L1486.24,198.381L1486.24,154.781L1469.76,154.781L1443.86,198.181L1443.86,209.969L1472.26,209.969L1472.26,225.669L1486.24,225.669L1486.24,209.969L1493.64,209.969L1493.64,198.381ZM1472.26,198.381L1453.76,198.381L1472.26,168.081L1472.26,198.381Z" style="fill:#727272;fill-rule:nonzero;"/>
        <path d="M1621.6,154.781L1583.71,154.781L1577.41,194.271L1590.01,194.271C1591.51,190.77 1594.71,188.869 1599.01,188.869C1606.11,188.869 1610.41,193.971 1610.41,202.575C1610.41,210.879 1606.11,215.981 1599.01,215.981C1592.91,215.981 1589.51,212.88 1589.21,207.177L1575.41,207.177C1575.61,219.577 1585.01,227.969 1598.81,227.969C1614,227.969 1624.39,217.58 1624.39,202.275C1624.39,187.67 1615.4,177.781 1602.31,177.781C1597.61,177.781 1594.11,178.98 1590.01,182.076L1592.31,167.269L1621.6,167.269L1621.6,154.781Z" style="fill:#727272;fill-rule:nonzero;"/>
        <path d="M1754.64,170.874C1753.94,166.27 1753.05,163.969 1751.25,161.372C1747.55,156.278 1741.06,153.281 1733.35,153.281C1724.55,153.281 1717.35,157.177 1713.05,164.269C1708.86,171.174 1707.16,179.081 1707.16,191.97C1707.16,204.175 1708.65,211.779 1712.25,217.48C1716.35,224.073 1723.75,227.969 1732.15,227.969C1746.25,227.969 1755.84,217.48 1755.84,201.974C1755.84,188.371 1747.45,178.981 1735.25,178.981C1729.45,178.981 1725.55,180.679 1721.14,185.274L1721.24,183.776C1721.44,177.18 1721.74,175.078 1722.75,172.376C1724.65,167.171 1728.05,164.569 1732.95,164.569C1737.45,164.569 1739.86,166.37 1741.66,170.874L1754.64,170.874ZM1731.75,190.069C1738.35,190.069 1742.56,195.071 1742.56,202.975C1742.56,210.479 1737.95,215.981 1731.75,215.981C1725.35,215.981 1720.94,210.779 1720.94,203.175C1720.94,195.471 1725.35,190.069 1731.75,190.069Z" style="fill:#727272;fill-rule:nonzero;"/>
        <path d="M1494.25,20.406L1444.35,20.406L1444.35,32.894L1479.65,32.894C1475.35,37.494 1466.85,50.397 1464.05,56.599C1459.15,66.901 1456.65,76.203 1454.75,91.294L1468.85,91.294C1470.15,68.902 1477.45,51.698 1494.25,31.395L1494.25,20.406Z" style="fill:#727272;fill-rule:nonzero;"/>
        <path d="M1613.6,52.701C1616,51.403 1617.1,50.704 1618.2,49.705C1621.1,47.005 1622.79,42.702 1622.79,38.099C1622.79,26.997 1613.2,18.906 1600.1,18.906C1586.9,18.906 1577.31,26.997 1577.31,38.199C1577.31,45.004 1580.1,49.306 1586.5,52.701C1578.3,57.195 1574.91,62.496 1574.91,70.901C1574.91,84.303 1585.2,93.594 1600.1,93.594C1614.9,93.594 1625.19,84.303 1625.19,70.901C1625.19,62.496 1621.8,57.195 1613.6,52.701L1613.6,52.701ZM1600.2,30.194C1606.4,30.194 1610.71,33.996 1610.71,39.5C1610.71,44.904 1606.3,48.806 1600.2,48.806C1593.9,48.806 1589.59,45.004 1589.59,39.4C1589.59,33.996 1593.9,30.194 1600.2,30.194ZM1600,58.294C1606.9,58.294 1611.21,62.896 1611.21,70.3C1611.21,77.104 1606.8,81.606 1600,81.606C1593.2,81.606 1588.89,77.104 1588.89,70.1C1588.89,62.896 1593.2,58.294 1600,58.294Z" style="fill:#727272;fill-rule:nonzero;"/>
        <path d="M1707.76,74.8C1708.06,85.702 1717.25,93.694 1729.44,93.694C1738.54,93.694 1745.44,89.898 1749.64,82.705C1753.34,76.401 1755.54,65.697 1755.54,54.305C1755.54,43.9 1753.94,35.896 1750.64,30.494C1746.14,22.902 1739.14,18.906 1730.64,18.906C1716.45,18.906 1706.76,29.095 1706.76,43.9C1706.76,58.505 1715.35,68.494 1727.94,68.494C1731.54,68.494 1734.94,67.495 1737.14,65.897C1738.44,64.998 1739.24,64.099 1741.54,61.501C1741.54,75.2 1737.74,81.706 1729.84,81.706C1724.84,81.706 1721.54,79.004 1721.24,74.8L1707.76,74.8ZM1730.24,30.294C1737.04,30.294 1741.24,35.496 1741.24,43.9C1741.24,51.704 1736.94,56.906 1730.44,56.906C1724.04,56.906 1720.04,51.904 1720.04,43.7C1720.04,35.496 1723.94,30.294 1730.24,30.294Z" style="fill:#727272;fill-rule:nonzero;"/>
        <path d="M1468.75,422.031C1461.14,422.031 1454.65,425.228 1450.35,431.121C1446.26,436.62 1444.36,445.622 1444.36,459.425C1444.36,472.028 1445.95,480.83 1449.35,486.23C1453.55,493.023 1460.44,496.719 1468.75,496.719C1476.45,496.719 1482.75,493.622 1487.15,487.728C1491.14,482.231 1493.14,473.128 1493.14,459.825C1493.14,446.822 1491.55,438.02 1488.15,432.52C1483.95,425.727 1477.06,422.031 1468.75,422.031ZM1468.75,433.319C1472.35,433.319 1475.25,435.319 1476.95,439.02C1478.36,442.021 1479.16,449.723 1479.16,459.525C1479.16,467.527 1478.46,475.329 1477.36,478.23C1475.75,482.431 1472.75,484.731 1468.75,484.731C1465.05,484.731 1462.25,482.831 1460.55,479.23C1459.14,476.229 1458.34,468.827 1458.34,459.325C1458.34,450.923 1459.04,442.921 1460.14,440.02C1461.65,435.719 1464.75,433.319 1468.75,433.319Z" style="fill:#727272;fill-rule:nonzero;"/>
        <path d="M1576.83,428.255C1570.5,428.255 1565.08,430.919 1561.5,435.83C1558.09,440.412 1556.51,447.914 1556.51,459.417C1556.51,469.919 1557.84,477.254 1560.67,481.754C1564.16,487.415 1569.91,490.495 1576.83,490.495C1583.25,490.495 1588.5,487.914 1592.17,483.003C1595.5,478.421 1597.16,470.836 1597.16,459.75C1597.16,448.914 1595.83,441.579 1593,436.996C1589.5,431.335 1583.75,428.255 1576.83,428.255ZM1576.83,437.661C1579.84,437.661 1582.25,439.328 1583.67,442.413C1584.84,444.913 1585.51,451.331 1585.51,459.5C1585.51,466.168 1584.92,472.67 1584,475.087C1582.67,478.588 1580.17,480.505 1576.83,480.505C1573.75,480.505 1571.41,478.921 1570,475.921C1568.83,473.42 1568.16,467.252 1568.16,459.333C1568.16,452.332 1568.75,445.663 1569.66,443.246C1570.91,439.662 1573.5,437.661 1576.83,437.661Z" style="fill:#727272;fill-rule:nonzero;"/>
        <path d="M1623.17,428.255C1616.83,428.255 1611.41,430.919 1607.83,435.83C1604.42,440.412 1602.84,447.914 1602.84,459.417C1602.84,469.919 1604.17,477.254 1607,481.754C1610.5,487.415 1616.25,490.495 1623.17,490.495C1629.59,490.495 1634.84,487.914 1638.5,483.003C1641.83,478.421 1643.5,470.836 1643.5,459.75C1643.5,448.914 1642.16,441.579 1639.33,436.996C1635.84,431.335 1630.09,428.255 1623.17,428.255ZM1623.17,437.661C1626.17,437.661 1628.59,439.328 1630,442.413C1631.17,444.913 1631.84,451.331 1631.84,459.5C1631.84,466.168 1631.26,472.67 1630.34,475.087C1629,478.588 1626.5,480.505 1623.17,480.505C1620.08,480.505 1617.75,478.921 1616.33,475.921C1615.16,473.42 1614.5,467.252 1614.5,459.333C1614.5,452.332 1615.08,445.663 1616,443.246C1617.25,439.662 1619.83,437.661 1623.17,437.661Z" style="fill:#727272;fill-rule:nonzero;"/>
    </g>
</svg>
