<?xml version="1.0" encoding="UTF-8" standalone="no"?>
<!DOCTYPE svg PUBLIC "-//W3C//DTD SVG 1.1//EN" "http://www.w3.org/Graphics/SVG/1.1/DTD/svg11.dtd">
<svg width="100%" height="100%" viewBox="0 0 3200 954" version="1.1" xmlns="http://www.w3.org/2000/svg" xmlns:xlink="http://www.w3.org/1999/xlink" xml:space="preserve" xmlns:serif="http://www.serif.com/" style="fill-rule:evenodd;clip-rule:evenodd;stroke-linejoin:round;stroke-miterlimit:2;">
    <rect id="RESULT" x="0" y="0" width="3200" height="953.125" style="fill:none;"/>
    <clipPath id="_clip1">
        <rect x="0" y="0" width="3200" height="953.125"/>
    </clipPath>
    <g clip-path="url(#_clip1)">
        <g id="CON">
            <path id="BACKGROUND" d="M2290.62,208.786L2290.62,744.339C2290.62,781.958 2260.08,812.5 2222.46,812.5L977.536,812.5C939.917,812.5 909.375,781.958 909.375,744.339L909.375,208.786C909.375,171.167 939.917,140.625 977.536,140.625L2222.46,140.625C2260.08,140.625 2290.62,171.167 2290.62,208.786Z" style="fill:#fff;"/>
            <clipPath id="_clip2">
                <path d="M2290.62,208.786L2290.62,744.339C2290.62,781.958 2260.08,812.5 2222.46,812.5L977.536,812.5C939.917,812.5 909.375,781.958 909.375,744.339L909.375,208.786C909.375,171.167 939.917,140.625 977.536,140.625L2222.46,140.625C2260.08,140.625 2290.62,171.167 2290.62,208.786Z"/>
            </clipPath>
            <g clip-path="url(#_clip2)">
                <rect x="942.272" y="803.125" width="1315.46" height="9.375" style="fill:#727272;"/>
            </g>
            <path d="M2300,208.786L2300,744.339C2300,787.132 2265.26,821.875 2222.46,821.875L977.536,821.875C934.743,821.875 900,787.132 900,744.339L900,208.786C900,165.993 934.743,131.25 977.536,131.25L2222.46,131.25C2265.26,131.25 2300,165.993 2300,208.786ZM2290.62,208.786C2290.62,171.167 2260.08,140.625 2222.46,140.625L977.536,140.625C939.917,140.625 909.375,171.167 909.375,208.786L909.375,744.339C909.375,781.958 939.917,812.5 977.536,812.5L2222.46,812.5C2260.08,812.5 2290.62,781.958 2290.62,744.339L2290.62,208.786Z" style="fill:#727272;"/>
            <g id="KNOB-L">
                <path d="M1068.75,178.125C1124.38,178.125 1168.75,216.46 1168.75,262.5C1168.75,308.54 1124.38,346.875 1068.75,346.875C1013.12,346.875 968.75,308.54 968.75,262.5C968.75,216.46 1013.12,178.125 1068.75,178.125ZM1068.75,187.5C1018.73,187.5 978.125,221.106 978.125,262.5C978.125,303.894 1018.73,337.5 1068.75,337.5C1118.77,337.5 1159.38,303.894 1159.38,262.5C1159.38,221.106 1118.77,187.5 1068.75,187.5Z" style="fill:#008cef;"/>
                <path d="M1018.75,262.5L1018.75,203.125L1118.75,203.125L1118.75,262.5C1118.75,284.922 1096.35,303.125 1068.75,303.125C1041.15,303.125 1018.75,284.922 1018.75,262.5Z" style="fill:#e5e5e5;"/>
                <path d="M1009.38,262.5L1009.38,203.125C1009.38,197.947 1013.57,193.75 1018.75,193.75L1118.75,193.75C1123.93,193.75 1128.12,197.947 1128.12,203.125L1128.12,262.5C1128.12,289.516 1102,312.5 1068.75,312.5C1035.5,312.5 1009.38,289.516 1009.38,262.5ZM1018.75,262.5C1018.75,284.922 1041.15,303.125 1068.75,303.125C1096.35,303.125 1118.75,284.922 1118.75,262.5L1118.75,203.125L1018.75,203.125L1018.75,262.5Z" style="fill:#727272;"/>
                <ellipse cx="1068.75" cy="203.125" rx="50" ry="40.625" style="fill:#e5e5e5;"/>
                <path d="M1068.75,153.125C1102,153.125 1128.12,176.109 1128.12,203.125C1128.12,230.141 1102,253.125 1068.75,253.125C1035.5,253.125 1009.38,230.141 1009.38,203.125C1009.38,176.109 1035.5,153.125 1068.75,153.125ZM1068.75,162.5C1041.15,162.5 1018.75,180.703 1018.75,203.125C1018.75,225.547 1041.15,243.75 1068.75,243.75C1096.35,243.75 1118.75,225.547 1118.75,203.125C1118.75,180.703 1096.35,162.5 1068.75,162.5Z" style="fill:#727272;"/>
            </g>
            <g id="KNOB-R">
                <path d="M2131.25,178.125C2186.88,178.125 2231.25,216.46 2231.25,262.5C2231.25,308.54 2186.88,346.875 2131.25,346.875C2075.62,346.875 2031.25,308.54 2031.25,262.5C2031.25,216.46 2075.62,178.125 2131.25,178.125ZM2131.25,187.5C2081.23,187.5 2040.62,221.106 2040.62,262.5C2040.62,303.894 2081.23,337.5 2131.25,337.5C2181.27,337.5 2221.88,303.894 2221.88,262.5C2221.88,221.106 2181.27,187.5 2131.25,187.5Z" style="fill:#f00000;"/>
                <path d="M2181.25,262.5L2181.25,203.125L2081.25,203.125L2081.25,262.5C2081.25,284.922 2103.65,303.125 2131.25,303.125C2158.85,303.125 2181.25,284.922 2181.25,262.5Z" style="fill:#e5e5e5;"/>
                <path d="M2190.62,262.5C2190.62,289.516 2164.5,312.5 2131.25,312.5C2098,312.5 2071.88,289.516 2071.88,262.5L2071.88,203.125C2071.88,197.947 2076.07,193.75 2081.25,193.75L2181.25,193.75C2186.43,193.75 2190.62,197.947 2190.62,203.125L2190.62,262.5ZM2181.25,262.5L2181.25,203.125L2081.25,203.125L2081.25,262.5C2081.25,284.922 2103.65,303.125 2131.25,303.125C2158.85,303.125 2181.25,284.922 2181.25,262.5Z" style="fill:#727272;"/>
                <ellipse cx="2131.25" cy="203.125" rx="50" ry="40.625" style="fill:#e5e5e5;"/>
                <path d="M2131.25,153.125C2164.5,153.125 2190.62,176.109 2190.62,203.125C2190.62,230.141 2164.5,253.125 2131.25,253.125C2098,253.125 2071.88,230.141 2071.88,203.125C2071.88,176.109 2098,153.125 2131.25,153.125ZM2131.25,162.5C2103.65,162.5 2081.25,180.703 2081.25,203.125C2081.25,225.547 2103.65,243.75 2131.25,243.75C2158.85,243.75 2181.25,225.547 2181.25,203.125C2181.25,180.703 2158.85,162.5 2131.25,162.5Z" style="fill:#727272;"/>
            </g>
            <g id="BT-A">
                <rect x="1118.75" y="390.625" width="203.125" height="212.5" style="fill:#fff;"/>
                <path d="M1331.25,390.625L1331.25,603.125C1331.25,608.303 1327.05,612.5 1321.88,612.5L1118.75,612.5C1113.57,612.5 1109.38,608.303 1109.38,603.125L1109.38,390.625C1109.38,385.447 1113.57,381.25 1118.75,381.25L1321.88,381.25C1327.05,381.25 1331.25,385.447 1331.25,390.625ZM1321.88,390.625L1118.75,390.625L1118.75,603.125L1321.88,603.125L1321.88,390.625Z" style="fill:#727272;"/>
                <rect x="1118.75" y="593.75" width="203.125" height="9.375" style="fill:#727272;"/>
            </g>
            <g id="BT-B">
                <rect x="1371.88" y="390.625" width="203.125" height="212.5" style="fill:#fff;"/>
                <path d="M1584.38,390.625L1584.38,603.125C1584.38,608.303 1580.18,612.5 1575,612.5L1371.88,612.5C1366.7,612.5 1362.5,608.303 1362.5,603.125L1362.5,390.625C1362.5,385.447 1366.7,381.25 1371.88,381.25L1575,381.25C1580.18,381.25 1584.38,385.447 1584.38,390.625ZM1575,390.625L1371.88,390.625L1371.88,603.125L1575,603.125L1575,390.625Z" style="fill:#727272;"/>
                <rect x="1371.88" y="593.75" width="203.125" height="9.375" style="fill:#727272;"/>
            </g>
            <g id="BT-C">
                <rect x="1625" y="390.625" width="203.125" height="212.5" style="fill:#fff;"/>
                <path d="M1837.5,390.625L1837.5,603.125C1837.5,608.303 1833.3,612.5 1828.12,612.5L1625,612.5C1619.82,612.5 1615.62,608.303 1615.62,603.125L1615.62,390.625C1615.62,385.447 1619.82,381.25 1625,381.25L1828.12,381.25C1833.3,381.25 1837.5,385.447 1837.5,390.625ZM1828.12,390.625L1625,390.625L1625,603.125L1828.12,603.125L1828.12,390.625Z" style="fill:#727272;"/>
                <rect x="1625" y="593.75" width="203.125" height="9.375" style="fill:#727272;"/>
            </g>
            <g id="BT-D">
                <rect x="1878.12" y="390.625" width="203.125" height="212.5" style="fill:#fff;"/>
                <path d="M1878.12,381.25L2081.25,381.25C2086.43,381.25 2090.62,385.447 2090.62,390.625L2090.62,603.125C2090.62,608.303 2086.43,612.5 2081.25,612.5L1878.12,612.5C1872.95,612.5 1868.75,608.303 1868.75,603.125L1868.75,390.625C1868.75,385.447 1872.95,381.25 1878.12,381.25ZM1878.12,390.625L1878.12,603.125L2081.25,603.125L2081.25,390.625L1878.12,390.625Z" style="fill:#727272;"/>
                <rect x="1878.12" y="593.75" width="203.125" height="9.375" style="fill:#727272;"/>
            </g>
            <g id="FX-L">
                <rect x="1246.88" y="659.375" width="200" height="109.375" style="fill:#e5e5e5;"/>
                <path d="M1456.25,659.375L1456.25,768.75C1456.25,773.928 1452.05,778.125 1446.88,778.125L1246.88,778.125C1241.7,778.125 1237.5,773.928 1237.5,768.75L1237.5,659.375C1237.5,654.197 1241.7,650 1246.88,650L1446.88,650C1452.05,650 1456.25,654.197 1456.25,659.375ZM1446.88,659.375L1246.88,659.375L1246.88,768.75L1446.88,768.75L1446.88,659.375Z" style="fill:#727272;"/>
                <rect x="1246.88" y="759.375" width="200" height="9.375" style="fill:#727272;"/>
            </g>
            <g id="FX-R">
                <rect x="1753.12" y="659.375" width="200" height="109.375" style="fill:#e5e5e5;"/>
                <path d="M1753.12,650L1953.12,650C1958.3,650 1962.5,654.197 1962.5,659.375L1962.5,768.75C1962.5,773.928 1958.3,778.125 1953.12,778.125L1753.12,778.125C1747.95,778.125 1743.75,773.928 1743.75,768.75L1743.75,659.375C1743.75,654.197 1747.95,650 1753.12,650ZM1753.12,659.375L1753.12,768.75L1953.12,768.75L1953.12,659.375L1753.12,659.375Z" style="fill:#727272;"/>
                <rect x="1753.12" y="759.375" width="200" height="9.375" style="fill:#727272;"/>
            </g>
            <g id="START">
                <rect x="1550" y="225" width="100" height="103.125" style="fill:#fff;"/>
                <path d="M1659.38,225L1659.38,328.125C1659.38,333.303 1655.18,337.5 1650,337.5L1550,337.5C1544.82,337.5 1540.62,333.303 1540.62,328.125L1540.62,225C1540.62,219.822 1544.82,215.625 1550,215.625L1650,215.625C1655.18,215.625 1659.38,219.822 1659.38,225ZM1650,225L1550,225L1550,328.125L1650,328.125L1650,225Z" style="fill:#727272;"/>
                <rect x="1550" y="318.75" width="100" height="9.375" style="fill:#727272;"/>
            </g>
        </g>
        <path id="FX-L_ANCHOR" d="M1348.62,778.029C1342.64,778.698 1336.54,775.857 1333.34,770.313C1329.03,762.844 1331.59,753.28 1339.06,748.969C1346.53,744.657 1356.1,747.219 1360.41,754.688C1363.61,760.232 1363.02,766.931 1359.45,771.779L1449.66,926.879L1438.84,933.129L1348.62,778.029Z" style="fill:#ff8fbc;"/>
        <path d="M1343.12,787.213C1335.87,786.107 1329.17,781.839 1325.22,775C1318.33,763.051 1322.43,747.749 1334.38,740.85C1346.32,733.951 1361.63,738.051 1368.53,750C1372.47,756.826 1372.82,764.745 1370.17,771.565L1457.77,922.166C1459.02,924.319 1459.36,926.883 1458.72,929.291C1458.08,931.699 1456.51,933.752 1454.35,934.998L1443.52,941.248C1439.05,943.831 1433.33,942.308 1430.73,937.843L1343.12,787.213ZM1348.62,778.029L1438.84,933.129L1449.66,926.879L1359.45,771.779C1363.02,766.931 1363.61,760.232 1360.41,754.688C1356.1,747.219 1346.53,744.657 1339.06,748.969C1331.59,753.28 1329.03,762.844 1333.34,770.313C1336.54,775.857 1342.64,778.698 1348.62,778.029Z" style="fill:#fff;"/>
        <path id="FX-R_ANCHOR" d="M1851.38,778.029C1857.36,778.698 1863.46,775.857 1866.66,770.313C1870.97,762.844 1868.41,753.28 1860.94,748.969C1853.47,744.657 1843.9,747.219 1839.59,754.688C1836.39,760.232 1836.98,766.931 1840.55,771.779L1750.34,926.879L1761.16,933.129L1851.38,778.029Z" style="fill:#ff8fbc;"/>
        <path d="M1856.88,787.213L1769.27,937.843C1766.67,942.308 1760.95,943.831 1756.48,941.248L1745.65,934.998C1743.49,933.752 1741.92,931.699 1741.28,929.291C1740.64,926.883 1740.98,924.319 1742.23,922.166C1742.23,922.166 1829.83,771.565 1829.83,771.567C1827.18,764.745 1827.53,756.826 1831.47,750C1838.37,738.051 1853.68,733.951 1865.62,740.85C1877.57,747.749 1881.67,763.051 1874.78,775C1870.83,781.839 1864.13,786.107 1856.88,787.213ZM1851.38,778.029C1857.36,778.698 1863.46,775.857 1866.66,770.313C1870.97,762.844 1868.41,753.28 1860.94,748.969C1853.47,744.657 1843.9,747.219 1839.59,754.688C1836.39,760.232 1836.98,766.931 1840.55,771.779L1750.34,926.879L1761.16,933.129L1851.38,778.029Z" style="fill:#fff;"/>
        <g id="START1" serif:id="START">
            <rect x="1384.38" y="856.25" width="778.125" height="87.5" style="fill:#fff;"/>
            <path d="M2175,953.125L1025,953.125L1025,846.875L2175,846.875L2175,953.125ZM1384.38,943.75C1621.02,943.75 2162.5,943.75 2162.5,943.75L2162.5,856.25C2112.49,856.25 1599.48,856.25 1384.38,856.25L1384.38,943.75Z" style="fill:#ff8fbc;"/>
            <path d="M1077.85,902.182L1104.43,902.182L1104.43,891.776L1077.85,891.776L1077.85,878.016L1108.02,878.016L1108.02,867.609L1065.36,867.609L1065.36,928.349L1077.85,928.349L1077.85,902.182Z" style="fill:#fff;fill-rule:nonzero;"/>
            <path d="M1145.02,897.354L1163.77,867.609L1149.27,867.609L1138.11,887.602L1127.44,867.609L1112.61,867.609L1131.11,897.771L1111.94,928.349L1126.44,928.349L1138.02,907.272L1149.69,928.349L1164.52,928.349L1145.02,897.354Z" style="fill:#fff;fill-rule:nonzero;"/>
            <rect x="1165.52" y="899.859" width="22.667" height="11.24" style="fill:#fff;fill-rule:nonzero;"/>
            <path d="M1210.27,867.609L1197.78,867.609L1197.78,928.349L1239.35,928.349L1239.35,917.943L1210.27,917.943L1210.27,867.609Z" style="fill:#fff;fill-rule:nonzero;"/>
            <path d="M1286.43,904.109L1271.27,904.109L1271.27,888.943L1261.36,888.943L1261.36,904.109L1246.19,904.109L1246.19,914.016L1261.36,914.016L1261.36,929.182L1271.27,929.182L1271.27,914.016L1286.43,914.016L1286.43,904.109Z" style="fill:#fff;fill-rule:nonzero;"/>
            <path d="M1309.85,904.266L1324.19,904.266C1329.61,904.266 1331.94,906.433 1331.94,911.436L1331.94,913.937C1331.86,915.521 1331.86,917.022 1331.86,917.939C1331.86,923.691 1332.19,925.442 1333.69,928.349L1347.1,928.349L1347.1,926.109C1345.19,925.025 1344.44,923.775 1344.44,921.107C1344.1,903.183 1343.77,902.351 1336.03,899.021C1342.85,896.357 1346.27,891.441 1346.27,884.02C1346.27,879.183 1344.6,874.769 1341.69,871.772C1338.94,868.941 1335.11,867.609 1329.94,867.609L1297.36,867.609L1297.36,928.349L1309.85,928.349L1309.85,904.266ZM1309.85,893.859L1309.85,878.016L1324.94,878.016C1328.53,878.016 1329.94,878.349 1331.53,879.6C1333.03,880.851 1333.78,882.936 1333.78,885.771C1333.78,888.689 1333.03,891.024 1331.53,892.275C1330.11,893.442 1328.53,893.859 1324.94,893.859L1309.85,893.859Z" style="fill:#fff;fill-rule:nonzero;"/>
            <path d="M1550.89,890.036C1549.2,880.701 1543.83,876.158 1534.5,876.158C1528.78,876.158 1524.17,877.963 1521.02,881.459C1517.18,885.66 1515.08,891.728 1515.08,898.612C1515.08,905.614 1517.24,911.624 1521.2,915.766C1524.52,919.145 1528.72,920.717 1534.27,920.717C1544.65,920.717 1550.48,915.124 1551.77,903.864L1546.16,903.864C1545.7,906.781 1545.12,908.765 1544.24,910.457C1542.49,913.957 1538.87,915.941 1534.32,915.941C1525.87,915.941 1520.5,909.173 1520.5,898.554C1520.5,887.643 1525.57,880.934 1533.86,880.934C1537.3,880.934 1540.51,881.926 1542.26,883.618C1543.83,885.076 1544.71,886.827 1545.35,890.036L1550.89,890.036Z" style="fill:#727272;fill-rule:nonzero;"/>
            <path d="M1585.84,900.009L1585.84,919.376L1591.26,919.376L1591.26,876.858L1585.84,876.858L1585.84,895.233L1563.96,895.233L1563.96,876.858L1558.54,876.858L1558.54,919.376L1563.96,919.376L1563.96,900.009L1585.84,900.009Z" style="fill:#727272;fill-rule:nonzero;"/>
            <path d="M1622.82,906.601L1627.19,919.376L1633.26,919.376L1618.33,876.858L1611.33,876.858L1596.16,919.376L1601.94,919.376L1606.43,906.601L1622.82,906.601ZM1621.3,902.058L1607.77,902.058L1614.77,882.685L1621.3,902.058Z" style="fill:#727272;fill-rule:nonzero;"/>
            <path d="M1644.92,901.059L1658.93,901.059C1663.77,901.059 1665.93,903.393 1665.93,908.645L1665.87,912.439C1665.87,915.065 1666.34,917.633 1667.1,919.376L1673.68,919.376L1673.68,918.041C1671.64,916.64 1671.23,915.123 1671.12,909.462C1671.06,902.459 1669.95,900.36 1665.35,898.38C1670.13,895.991 1672.05,893.131 1672.05,888.229C1672.05,880.877 1667.51,876.858 1659.1,876.858L1639.51,876.858L1639.51,919.376L1644.92,919.376L1644.92,901.059ZM1644.92,896.283L1644.92,881.634L1658.05,881.634C1661.09,881.634 1662.84,882.101 1664.18,883.268C1665.64,884.494 1666.4,886.42 1666.4,888.929C1666.4,894.007 1663.83,896.283 1658.05,896.283L1644.92,896.283Z" style="fill:#727272;fill-rule:nonzero;"/>
            <path d="M1704.19,906.601L1708.57,919.376L1714.64,919.376L1699.7,876.858L1692.7,876.858L1677.54,919.376L1683.31,919.376L1687.8,906.601L1704.19,906.601ZM1702.68,902.058L1689.14,902.058L1696.14,882.685L1702.68,902.058Z" style="fill:#727272;fill-rule:nonzero;"/>
            <path d="M1752.02,890.036C1750.33,880.701 1744.97,876.158 1735.63,876.158C1729.91,876.158 1725.31,877.963 1722.16,881.459C1718.31,885.66 1716.21,891.728 1716.21,898.612C1716.21,905.614 1718.37,911.624 1722.33,915.766C1725.66,919.145 1729.86,920.717 1735.4,920.717C1745.78,920.717 1751.62,915.124 1752.9,903.864L1747.3,903.864C1746.83,906.781 1746.25,908.765 1745.37,910.457C1743.62,913.957 1740.01,915.941 1735.46,915.941C1727,915.941 1721.63,909.173 1721.63,898.554C1721.63,887.643 1726.71,880.934 1734.99,880.934C1738.43,880.934 1741.64,881.926 1743.39,883.618C1744.97,885.076 1745.84,886.827 1746.48,890.036L1752.02,890.036Z" style="fill:#727272;fill-rule:nonzero;"/>
            <path d="M1774.37,881.634L1788.31,881.634L1788.31,876.858L1754.95,876.858L1754.95,881.634L1768.95,881.634L1768.95,919.376L1774.37,919.376L1774.37,881.634Z" style="fill:#727272;fill-rule:nonzero;"/>
            <path d="M1799.04,900.009L1822.2,900.009L1822.2,895.233L1799.04,895.233L1799.04,881.634L1823.07,881.634L1823.07,876.858L1793.62,876.858L1793.62,919.376L1824.12,919.376L1824.12,914.599L1799.04,914.599L1799.04,900.009Z" style="fill:#727272;fill-rule:nonzero;"/>
            <path d="M1838.12,901.059L1852.13,901.059C1856.97,901.059 1859.13,903.393 1859.13,908.645L1859.07,912.439C1859.07,915.065 1859.54,917.633 1860.3,919.376L1866.88,919.376L1866.88,918.041C1864.84,916.64 1864.43,915.123 1864.32,909.462C1864.26,902.459 1863.15,900.36 1858.55,898.38C1863.33,895.991 1865.25,893.131 1865.25,888.229C1865.25,880.877 1860.7,876.858 1852.3,876.858L1832.71,876.858L1832.71,919.376L1838.12,919.376L1838.12,901.059ZM1838.12,896.283L1838.12,881.634L1851.25,881.634C1854.29,881.634 1856.04,882.101 1857.38,883.268C1858.84,884.494 1859.6,886.42 1859.6,888.929C1859.6,894.007 1857.03,896.283 1851.25,896.283L1838.12,896.283Z" style="fill:#727272;fill-rule:nonzero;"/>
            <path d="M1908.48,919.376L1923.24,876.858L1917.46,876.858L1905.68,912.848L1893.19,876.858L1887.36,876.858L1902.64,919.376L1908.48,919.376Z" style="fill:#727272;fill-rule:nonzero;"/>
            <rect x="1928.96" y="876.858" width="5.476" height="42.518" style="fill:#727272;fill-rule:nonzero;"/>
            <path d="M1950.01,900.009L1973.16,900.009L1973.16,895.233L1950.01,895.233L1950.01,881.634L1974.04,881.634L1974.04,876.858L1944.59,876.858L1944.59,919.376L1975.09,919.376L1975.09,914.599L1950.01,914.599L1950.01,900.009Z" style="fill:#727272;fill-rule:nonzero;"/>
            <path d="M2021,919.376L2031.79,876.858L2025.73,876.858L2017.91,911.39L2008.23,876.858L2002.39,876.858L1992.94,911.39L1984.95,876.858L1978.89,876.858L1989.79,919.376L1995.74,919.376L2005.25,884.435L2015.05,919.376L2021,919.376Z" style="fill:#727272;fill-rule:nonzero;"/>
        </g>
        <path id="START_ANCHOR" d="M1606.25,244.01C1611.77,246.423 1615.62,251.931 1615.62,258.333C1615.62,266.957 1608.62,273.958 1600,273.958C1591.38,273.958 1584.38,266.957 1584.38,258.333C1584.38,251.931 1588.23,246.423 1593.75,244.01L1593.75,96.875L1606.25,96.875L1606.25,244.01Z" style="fill:#e4d68b;"/>
        <path d="M1615.62,238.822C1621.34,243.404 1625,250.445 1625,258.333C1625,272.131 1613.8,283.333 1600,283.333C1586.2,283.333 1575,272.131 1575,258.333C1575,250.445 1578.66,243.403 1584.38,238.822L1584.38,96.875C1584.38,91.697 1588.57,87.5 1593.75,87.5L1606.25,87.5C1611.43,87.5 1615.62,91.697 1615.62,96.875L1615.62,238.822ZM1606.25,244.01L1606.25,96.875L1593.75,96.875L1593.75,244.01C1588.23,246.423 1584.38,251.931 1584.38,258.333C1584.38,266.957 1591.38,273.958 1600,273.958C1608.62,273.958 1615.62,266.957 1615.62,258.333C1615.62,251.931 1611.77,246.423 1606.25,244.01Z" style="fill:#fff;"/>
        <g id="START2" serif:id="START">
            <rect x="1384.38" y="9.375" width="778.125" height="87.5" style="fill:#fff;"/>
            <path d="M2175,106.25L1025,106.25L1025,0L2175,0L2175,106.25ZM1384.38,96.875C1621.02,96.875 2162.5,96.875 2162.5,96.875L2162.5,9.375C2112.49,9.375 1599.48,9.375 1384.38,9.375L1384.38,96.875Z" style="fill:#e4d68b;"/>
            <path d="M1120.64,39.226C1120.56,26.644 1112.15,19.734 1096.81,19.734C1082.23,19.734 1073.82,26.561 1073.82,38.392C1073.82,47.811 1078.57,52.396 1090.89,54.73L1099.4,56.397C1107.74,57.981 1110.82,60.315 1110.82,65.232C1110.82,70.317 1106.15,73.401 1098.57,73.401C1090.06,73.401 1085.31,69.817 1084.89,63.315L1072.74,63.315C1073.49,76.315 1082.4,83.391 1097.9,83.391C1113.57,83.391 1122.81,76.148 1122.81,63.732C1122.81,54.146 1117.98,49.145 1106.74,46.978L1097.23,45.144C1088.31,43.394 1085.73,41.643 1085.73,37.226C1085.73,32.641 1089.73,29.724 1096.23,29.724C1104.15,29.724 1108.57,33.058 1108.99,39.226L1120.64,39.226Z" style="fill:#fff;fill-rule:nonzero;"/>
            <path d="M1157.23,31.141L1174.98,31.141L1174.98,20.734L1126.32,20.734L1126.32,31.141L1144.74,31.141L1144.74,81.474L1157.23,81.474L1157.23,31.141Z" style="fill:#fff;fill-rule:nonzero;"/>
            <path d="M1210.57,69.224L1214.57,81.474L1227.4,81.474L1206.4,20.734L1192.57,20.734L1170.98,81.474L1183.73,81.474L1187.82,69.224L1210.57,69.224ZM1207.15,58.818L1191.32,58.818L1199.23,35.061L1207.15,58.818Z" style="fill:#fff;fill-rule:nonzero;"/>
            <path d="M1248.14,57.391L1262.48,57.391C1267.9,57.391 1270.24,59.558 1270.24,64.561L1270.24,67.062C1270.15,68.646 1270.15,70.147 1270.15,71.064C1270.15,76.816 1270.49,78.567 1271.99,81.474L1285.39,81.474L1285.39,79.234C1283.48,78.15 1282.73,76.9 1282.73,74.232C1282.39,56.308 1282.06,55.476 1274.32,52.146C1281.15,49.482 1284.56,44.566 1284.56,37.145C1284.56,32.308 1282.89,27.894 1279.98,24.897C1277.23,22.066 1273.4,20.734 1268.24,20.734L1235.65,20.734L1235.65,81.474L1248.14,81.474L1248.14,57.391ZM1248.14,46.984L1248.14,31.141L1263.23,31.141C1266.82,31.141 1268.24,31.474 1269.82,32.725C1271.32,33.976 1272.07,36.061 1272.07,38.896C1272.07,41.814 1271.32,44.149 1269.82,45.4C1268.4,46.567 1266.82,46.984 1263.23,46.984L1248.14,46.984Z" style="fill:#fff;fill-rule:nonzero;"/>
            <path d="M1321.14,31.141L1338.89,31.141L1338.89,20.734L1290.24,20.734L1290.24,31.141L1308.65,31.141L1308.65,81.474L1321.14,81.474L1321.14,31.141Z" style="fill:#fff;fill-rule:nonzero;"/>
            <path d="M1614.19,53.134L1614.19,72.501L1619.61,72.501L1619.61,29.983L1614.19,29.983L1614.19,48.358L1592.31,48.358L1592.31,29.983L1586.89,29.983L1586.89,72.501L1592.31,72.501L1592.31,53.134L1614.19,53.134Z" style="fill:#727272;fill-rule:nonzero;"/>
            <path d="M1646.86,29.283C1634.66,29.283 1626.39,38.26 1626.39,51.562C1626.39,64.924 1634.61,73.842 1646.92,73.842C1652.11,73.842 1656.66,72.27 1660.1,69.357C1664.71,65.449 1667.45,58.856 1667.45,51.912C1667.45,38.201 1659.35,29.283 1646.86,29.283ZM1646.86,34.059C1656.08,34.059 1662.03,41.002 1662.03,51.796C1662.03,62.065 1655.9,69.066 1646.92,69.066C1637.81,69.066 1631.81,62.065 1631.81,51.562C1631.81,41.06 1637.81,34.059 1646.86,34.059Z" style="fill:#727272;fill-rule:nonzero;"/>
            <path d="M1679.64,29.983L1674.22,29.983L1674.22,72.501L1700.64,72.501L1700.64,67.724L1679.64,67.724L1679.64,29.983Z" style="fill:#727272;fill-rule:nonzero;"/>
            <path d="M1707.18,72.501L1723.57,72.501C1734.3,72.501 1740.89,64.457 1740.89,51.213C1740.89,38.026 1734.36,29.983 1723.57,29.983L1707.18,29.983L1707.18,72.501ZM1712.6,67.724L1712.6,34.759L1722.63,34.759C1731.04,34.759 1735.47,40.419 1735.47,51.271C1735.47,62.065 1731.04,67.724 1722.63,67.724L1712.6,67.724Z" style="fill:#727272;fill-rule:nonzero;"/>
            <path d="M1756.58,66.441L1750.52,66.441L1750.52,72.501L1756.58,72.501L1756.58,66.441ZM1756.58,41.941L1750.52,41.941L1750.52,48.001L1756.58,48.001L1756.58,41.941Z" style="fill:#727272;fill-rule:nonzero;"/>
            <path d="M1787.38,54.184L1801.38,54.184C1806.23,54.184 1808.39,56.518 1808.39,61.77L1808.33,65.564C1808.33,68.19 1808.8,70.758 1809.55,72.501L1816.14,72.501L1816.14,71.166C1814.1,69.765 1813.69,68.248 1813.57,62.587C1813.51,55.584 1812.41,53.485 1807.8,51.505C1812.58,49.116 1814.51,46.256 1814.51,41.354C1814.51,34.002 1809.96,29.983 1801.56,29.983L1781.96,29.983L1781.96,72.501L1787.38,72.501L1787.38,54.184ZM1787.38,49.408L1787.38,34.759L1800.51,34.759C1803.54,34.759 1805.29,35.226 1806.64,36.393C1808.1,37.619 1808.85,39.545 1808.85,42.054C1808.85,47.132 1806.29,49.408 1800.51,49.408L1787.38,49.408Z" style="fill:#727272;fill-rule:nonzero;"/>
            <path d="M1828.62,53.134L1851.78,53.134L1851.78,48.358L1828.62,48.358L1828.62,34.759L1852.65,34.759L1852.65,29.983L1823.2,29.983L1823.2,72.501L1853.7,72.501L1853.7,67.724L1828.62,67.724L1828.62,53.134Z" style="fill:#727272;fill-rule:nonzero;"/>
            <path d="M1876.92,34.759L1890.86,34.759L1890.86,29.983L1857.5,29.983L1857.5,34.759L1871.5,34.759L1871.5,72.501L1876.92,72.501L1876.92,34.759Z" style="fill:#727272;fill-rule:nonzero;"/>
            <path d="M1901.65,54.184L1915.66,54.184C1920.5,54.184 1922.66,56.518 1922.66,61.77L1922.6,65.564C1922.6,68.19 1923.07,70.758 1923.83,72.501L1930.41,72.501L1930.41,71.166C1928.37,69.765 1927.96,68.248 1927.85,62.587C1927.79,55.584 1926.68,53.485 1922.08,51.505C1926.86,49.116 1928.78,46.256 1928.78,41.354C1928.78,34.002 1924.24,29.983 1915.83,29.983L1896.24,29.983L1896.24,72.501L1901.65,72.501L1901.65,54.184ZM1901.65,49.408L1901.65,34.759L1914.78,34.759C1917.82,34.759 1919.57,35.226 1920.91,36.393C1922.37,37.619 1923.13,39.545 1923.13,42.054C1923.13,47.132 1920.56,49.408 1914.78,49.408L1901.65,49.408Z" style="fill:#727272;fill-rule:nonzero;"/>
            <path d="M1952.99,55.822L1968.97,29.983L1962.5,29.983L1950.37,50.687L1937.89,29.983L1931.18,29.983L1947.57,55.822L1947.57,72.501L1952.99,72.501L1952.99,55.822Z" style="fill:#727272;fill-rule:nonzero;"/>
        </g>
        <g id="LETTERS">
            <path d="M1231.69,510.307L1235.69,522.557L1248.52,522.557L1227.52,461.818L1213.69,461.818L1192.1,522.557L1204.85,522.557L1208.94,510.307L1231.69,510.307ZM1228.27,499.901L1212.44,499.901L1220.35,476.144L1228.27,499.901Z" style="fill:#727272;fill-rule:nonzero;"/>
            <path d="M1338.65,679.005L1326.16,679.005L1326.16,739.745L1367.73,739.745L1367.73,729.339L1338.65,729.339L1338.65,679.005Z" style="fill:#727272;fill-rule:nonzero;"/>
            <path d="M1840.82,715.661L1855.15,715.661C1860.57,715.661 1862.91,717.829 1862.91,722.832L1862.91,725.333C1862.83,726.917 1862.83,728.417 1862.83,729.335C1862.83,735.087 1863.16,736.838 1864.66,739.745L1878.07,739.745L1878.07,737.505C1876.15,736.421 1875.4,735.171 1875.4,732.503C1875.07,714.579 1874.73,713.747 1866.99,710.417C1873.82,707.753 1877.23,702.837 1877.23,695.415C1877.23,690.579 1875.57,686.165 1872.65,683.168C1869.9,680.337 1866.07,679.005 1860.91,679.005L1828.33,679.005L1828.33,739.745L1840.82,739.745L1840.82,715.661ZM1840.82,705.255L1840.82,689.411L1855.9,689.411C1859.49,689.411 1860.91,689.745 1862.49,690.996C1863.99,692.247 1864.74,694.331 1864.74,697.167C1864.74,700.085 1863.99,702.42 1862.49,703.671C1861.07,704.838 1859.49,705.255 1855.9,705.255L1840.82,705.255Z" style="fill:#727272;fill-rule:nonzero;"/>
            <path d="M1954.53,522.557L1978.27,522.557C1987.52,522.557 1993.36,520.393 1997.52,515.481C2002.27,509.817 2004.85,501.648 2004.85,492.146C2004.85,482.727 2002.27,474.558 1997.52,468.811C1993.36,463.899 1987.61,461.818 1978.27,461.818L1954.53,461.818L1954.53,522.557ZM1967.02,512.151L1967.02,472.224L1978.27,472.224C1987.69,472.224 1992.36,478.809 1992.36,492.229C1992.36,505.566 1987.69,512.151 1978.27,512.151L1967.02,512.151Z" style="fill:#727272;fill-rule:nonzero;"/>
            <path d="M1753.02,481.935C1752.6,476.684 1751.52,473.35 1748.93,469.933C1744.27,463.773 1736.77,460.359 1727.68,460.359C1710.52,460.359 1699.86,472.599 1699.86,492.271C1699.86,511.859 1710.43,524.016 1727.35,524.016C1742.52,524.016 1752.52,515.274 1753.27,501.356L1741.1,501.356C1740.27,509.108 1735.43,513.526 1727.68,513.526C1718.02,513.526 1712.35,505.691 1712.35,492.438C1712.35,479.018 1718.27,471.016 1728.1,471.016C1735.35,471.016 1739.43,474.517 1741.1,481.935L1753.02,481.935Z" style="fill:#727272;fill-rule:nonzero;"/>
            <path d="M1449.11,522.557L1476.44,522.557C1483.44,522.557 1488.11,521.225 1491.77,518.145C1495.43,515.065 1497.77,509.983 1497.77,505.063C1497.77,499.059 1494.6,494.309 1487.69,490.313C1493.68,486.484 1496.02,482.982 1496.02,477.811C1496.02,473.558 1493.93,469.227 1490.52,466.23C1486.94,463.15 1482.69,461.818 1476.19,461.818L1449.11,461.818L1449.11,522.557ZM1461.6,472.224L1475.19,472.224C1481.03,472.224 1484.03,474.559 1484.03,479.062C1484.03,483.649 1481.03,485.984 1475.19,485.984L1461.6,485.984L1461.6,472.224ZM1461.6,496.391L1476.52,496.391C1482.61,496.391 1485.78,499.059 1485.78,504.313C1485.78,509.483 1482.61,512.151 1476.52,512.151L1461.6,512.151L1461.6,496.391Z" style="fill:#727272;fill-rule:nonzero;"/>
        </g>
    </g>
</svg>
